<?xml version="1.0" encoding="utf-8"?>
<!DOCTYPE svg PUBLIC "-//W3C//DTD SVG 1.1//EN" "http://www.w3.org/Graphics/SVG/1.1/DTD/svg11.dtd">
<svg version="1.1" xmlns="http://www.w3.org/2000/svg" xmlns:xlink="http://www.w3.org/1999/xlink" x="0px" y="0px"
	 width="99.9px" height="96.4px" viewBox="0 0 99.9 96.4" enable-background="new 0 0 99.9 96.4" xml:space="preserve">
<path id="Tux" d="M91.5,51c-9.7-7.9-12-11.5-12.6-22.7C77.6,4.4,58.1,0,50.4,0C38.4,0,22.7,6.8,21,28
	c-0.9,11.2-3.3,15.5-12.4,22.8C-3.6,60.5-0.6,65,4.3,62.2c0,0,9-5.4,9.9-4.5s-0.9,9.4,7.5,22.4l3-0.9c0,0-10.1-21.4,9.8-38.5
	c1.9,1.3,4.9,1.9,6.9,1.9c1,0.6,2,1.8,3.8,3.7c4.2,4.4,6.7,4,9.4,0.6c2.7-3.4,4.8-6.7,4.8-7c0,0,1.6,0,2.5-0.3c0,0,2.1-0.1,4.4,2.1
	C84.7,59.4,75,79.4,75,79.4l2.6,0.9c8.5-11.4,6.9-21.6,7.8-22.5c1.1-1.1,10.2,4.6,10.2,4.6C101,65.6,103.1,60.5,91.5,51z M41.4,40.3
	c-6.1,0.6-10.4-5.2-10.7-11.8c-0.3-6.6,3.8-12.1,9.2-12.4c5.4-0.3,10.1,5.8,10,12.6c0,0-0.5-3-3-3.5c-2.2-0.3-4.3,2.1-4.8,5.4
	c-0.5,3.3,1,5.3,1,5.3C39.5,37.7,40.7,39.2,41.4,40.3z M58,38.8c-0.2,1.2-2.2,3.6-3,4.4c-0.9,0.9-2,0.9-3.4-0.5
	c-1.7-1.7-4.6-3.4-8-4.2c-0.9-0.2-1.6-1.6,4.7-2.9c1.3-0.3,1.2-1,1.9-1c0.8,0,0.8,0.8,1.9,1.1C54.2,36.2,58.2,37.6,58,38.8z
	 M59.1,37.6c-0.4-0.8-2.3-1.6-2.3-1.6s1.6-1.8,0.9-5.1c-0.6-3-2.7-5-4.7-4.6c-1.3,0.2-2.1,2.3-2.1,2.3c0.2-3.7,3-6.6,6.8-7.8
	c5-1.5,10.1,0.9,11.5,5.4C70.6,31.2,67.2,37.6,59.1,37.6z M71.7,20.5c-0.3,1.5-1.1,0.6-1.7-0.1c-3.5-3.6-12.2-5.9-18.8-0.4
	c-5.7-10-16.3-8.6-21-2.8c-0.9,1.1-1.3,1.1-1.3,0c0-2.7,3.6-15.5,21.6-15.5C63.6,1.7,73.4,12.2,71.7,20.5z M68.9,79.8
	c-13.3,0-19.3,7.7-19.3,7.7s-6.1-7.7-19.3-7.7c-16.9,0-23.2,16.6-11.6,16.6c11.7,0,6.8,0,22.9,0c6,0,8-1.7,8-1.7s1.6,1.7,8,1.7
	c16,0,11.2,0,22.8,0C92.1,96.4,85.7,79.8,68.9,79.8z M33.7,92.4c-21,1.5-12.1-12.9,0.8-10.1C45.3,84.6,43.3,91.7,33.7,92.4z
	 M72,92.4c-18.9,0.8-12.3-13.1,0.6-10.3C83.3,84.4,81.6,92,72,92.4z"/>
</svg>
