%TF.GenerationSoftware,KiCad,Pcbnew,5.1.10-88a1d61d58~88~ubuntu18.04.1*%
%TF.CreationDate,2021-09-10T20:26:40+10:00*%
%TF.ProjectId,swag-badge,73776167-2d62-4616-9467-652e6b696361,rev?*%
%TF.SameCoordinates,PX405f7e0PYfa3044a0*%
%TF.FileFunction,Soldermask,Bot*%
%TF.FilePolarity,Negative*%
%FSLAX46Y46*%
G04 Gerber Fmt 4.6, Leading zero omitted, Abs format (unit mm)*
G04 Created by KiCad (PCBNEW 5.1.10-88a1d61d58~88~ubuntu18.04.1) date 2021-09-10 20:26:40*
%MOMM*%
%LPD*%
G01*
G04 APERTURE LIST*
%ADD10C,0.010000*%
%ADD11C,1.598000*%
%ADD12O,1.700000X2.300000*%
%ADD13O,14.100000X3.100000*%
%ADD14C,4.900000*%
%ADD15O,2.500000X1.700000*%
G04 APERTURE END LIST*
D10*
%TO.C,Ref\u002A\u002A*%
G36*
X-83539932Y120622458D02*
G01*
X-83533750Y120458417D01*
X-82099709Y120452977D01*
X-80665667Y120447538D01*
X-80665667Y118437328D01*
X-81951542Y118431872D01*
X-83237417Y118426417D01*
X-83249781Y118098333D01*
X-80665667Y118098333D01*
X-80665667Y115981667D01*
X-80305834Y115981667D01*
X-80305834Y120786500D01*
X-83546114Y120786500D01*
X-83539932Y120622458D01*
G37*
X-83539932Y120622458D02*
X-83533750Y120458417D01*
X-82099709Y120452977D01*
X-80665667Y120447538D01*
X-80665667Y118437328D01*
X-81951542Y118431872D01*
X-83237417Y118426417D01*
X-83249781Y118098333D01*
X-80665667Y118098333D01*
X-80665667Y115981667D01*
X-80305834Y115981667D01*
X-80305834Y120786500D01*
X-83546114Y120786500D01*
X-83539932Y120622458D01*
G36*
X-78654834Y115981667D02*
G01*
X-78501375Y115982357D01*
X-78347917Y115983047D01*
X-75109417Y120106113D01*
X-75098625Y115981667D01*
X-74717834Y115981667D01*
X-74717834Y120786500D01*
X-74881875Y120785718D01*
X-75045917Y120784935D01*
X-76665167Y118714638D01*
X-78284417Y116644342D01*
X-78289812Y118715421D01*
X-78295208Y120786500D01*
X-78654834Y120786500D01*
X-78654834Y115981667D01*
G37*
X-78654834Y115981667D02*
X-78501375Y115982357D01*
X-78347917Y115983047D01*
X-75109417Y120106113D01*
X-75098625Y115981667D01*
X-74717834Y115981667D01*
X-74717834Y120786500D01*
X-74881875Y120785718D01*
X-75045917Y120784935D01*
X-76665167Y118714638D01*
X-78284417Y116644342D01*
X-78289812Y118715421D01*
X-78295208Y120786500D01*
X-78654834Y120786500D01*
X-78654834Y115981667D01*
G36*
X-66529838Y120814399D02*
G01*
X-66828399Y120770500D01*
X-67103831Y120696247D01*
X-67360186Y120590750D01*
X-67415749Y120562564D01*
X-67486662Y120521090D01*
X-67570539Y120465615D01*
X-67659656Y120402052D01*
X-67746284Y120336315D01*
X-67822699Y120274314D01*
X-67881172Y120221964D01*
X-67913979Y120185176D01*
X-67917443Y120178653D01*
X-67909082Y120147249D01*
X-67872269Y120095254D01*
X-67817055Y120034633D01*
X-67704958Y119921125D01*
X-67597187Y120012642D01*
X-67363231Y120185639D01*
X-67114516Y120319408D01*
X-66849777Y120414403D01*
X-66567750Y120471079D01*
X-66269814Y120489889D01*
X-65969758Y120474311D01*
X-65690558Y120425690D01*
X-65424537Y120342256D01*
X-65207655Y120244997D01*
X-65070887Y120171155D01*
X-64957597Y120098788D01*
X-64853109Y120017187D01*
X-64742745Y119915642D01*
X-64704392Y119877787D01*
X-64507541Y119652407D01*
X-64348036Y119407465D01*
X-64226468Y119144399D01*
X-64143427Y118864651D01*
X-64099501Y118569658D01*
X-64092167Y118384083D01*
X-64112140Y118083266D01*
X-64170926Y117796017D01*
X-64266824Y117525040D01*
X-64398134Y117273034D01*
X-64563155Y117042702D01*
X-64760187Y116836743D01*
X-64987529Y116657859D01*
X-65243481Y116508752D01*
X-65285568Y116488496D01*
X-65555651Y116384456D01*
X-65843461Y116315519D01*
X-66141011Y116283162D01*
X-66386613Y116284959D01*
X-66681605Y116322335D01*
X-66959298Y116398083D01*
X-67222038Y116513077D01*
X-67472172Y116668191D01*
X-67528984Y116710258D01*
X-67716718Y116853649D01*
X-67944218Y116628975D01*
X-67875568Y116557208D01*
X-67696730Y116398189D01*
X-67484084Y116257762D01*
X-67243109Y116138750D01*
X-66979286Y116043977D01*
X-66780334Y115992783D01*
X-66684929Y115977502D01*
X-66558634Y115964968D01*
X-66412823Y115955568D01*
X-66258873Y115949688D01*
X-66108159Y115947714D01*
X-65972059Y115950033D01*
X-65861947Y115957032D01*
X-65832245Y115960575D01*
X-65510170Y116025858D01*
X-65207292Y116127360D01*
X-64925778Y116263119D01*
X-64667794Y116431173D01*
X-64435509Y116629561D01*
X-64231088Y116856320D01*
X-64056698Y117109489D01*
X-63914507Y117387106D01*
X-63806681Y117687210D01*
X-63770359Y117827278D01*
X-63745508Y117972406D01*
X-63729320Y118145533D01*
X-63721896Y118333668D01*
X-63723340Y118523819D01*
X-63733755Y118702995D01*
X-63753243Y118858205D01*
X-63761838Y118902667D01*
X-63848845Y119212094D01*
X-63971161Y119502552D01*
X-64126636Y119771194D01*
X-64313118Y120015172D01*
X-64528459Y120231643D01*
X-64770506Y120417757D01*
X-65012917Y120558718D01*
X-65267660Y120671389D01*
X-65522373Y120752052D01*
X-65787207Y120803009D01*
X-66072309Y120826559D01*
X-66204094Y120828833D01*
X-66529838Y120814399D01*
G37*
X-66529838Y120814399D02*
X-66828399Y120770500D01*
X-67103831Y120696247D01*
X-67360186Y120590750D01*
X-67415749Y120562564D01*
X-67486662Y120521090D01*
X-67570539Y120465615D01*
X-67659656Y120402052D01*
X-67746284Y120336315D01*
X-67822699Y120274314D01*
X-67881172Y120221964D01*
X-67913979Y120185176D01*
X-67917443Y120178653D01*
X-67909082Y120147249D01*
X-67872269Y120095254D01*
X-67817055Y120034633D01*
X-67704958Y119921125D01*
X-67597187Y120012642D01*
X-67363231Y120185639D01*
X-67114516Y120319408D01*
X-66849777Y120414403D01*
X-66567750Y120471079D01*
X-66269814Y120489889D01*
X-65969758Y120474311D01*
X-65690558Y120425690D01*
X-65424537Y120342256D01*
X-65207655Y120244997D01*
X-65070887Y120171155D01*
X-64957597Y120098788D01*
X-64853109Y120017187D01*
X-64742745Y119915642D01*
X-64704392Y119877787D01*
X-64507541Y119652407D01*
X-64348036Y119407465D01*
X-64226468Y119144399D01*
X-64143427Y118864651D01*
X-64099501Y118569658D01*
X-64092167Y118384083D01*
X-64112140Y118083266D01*
X-64170926Y117796017D01*
X-64266824Y117525040D01*
X-64398134Y117273034D01*
X-64563155Y117042702D01*
X-64760187Y116836743D01*
X-64987529Y116657859D01*
X-65243481Y116508752D01*
X-65285568Y116488496D01*
X-65555651Y116384456D01*
X-65843461Y116315519D01*
X-66141011Y116283162D01*
X-66386613Y116284959D01*
X-66681605Y116322335D01*
X-66959298Y116398083D01*
X-67222038Y116513077D01*
X-67472172Y116668191D01*
X-67528984Y116710258D01*
X-67716718Y116853649D01*
X-67944218Y116628975D01*
X-67875568Y116557208D01*
X-67696730Y116398189D01*
X-67484084Y116257762D01*
X-67243109Y116138750D01*
X-66979286Y116043977D01*
X-66780334Y115992783D01*
X-66684929Y115977502D01*
X-66558634Y115964968D01*
X-66412823Y115955568D01*
X-66258873Y115949688D01*
X-66108159Y115947714D01*
X-65972059Y115950033D01*
X-65861947Y115957032D01*
X-65832245Y115960575D01*
X-65510170Y116025858D01*
X-65207292Y116127360D01*
X-64925778Y116263119D01*
X-64667794Y116431173D01*
X-64435509Y116629561D01*
X-64231088Y116856320D01*
X-64056698Y117109489D01*
X-63914507Y117387106D01*
X-63806681Y117687210D01*
X-63770359Y117827278D01*
X-63745508Y117972406D01*
X-63729320Y118145533D01*
X-63721896Y118333668D01*
X-63723340Y118523819D01*
X-63733755Y118702995D01*
X-63753243Y118858205D01*
X-63761838Y118902667D01*
X-63848845Y119212094D01*
X-63971161Y119502552D01*
X-64126636Y119771194D01*
X-64313118Y120015172D01*
X-64528459Y120231643D01*
X-64770506Y120417757D01*
X-65012917Y120558718D01*
X-65267660Y120671389D01*
X-65522373Y120752052D01*
X-65787207Y120803009D01*
X-66072309Y120826559D01*
X-66204094Y120828833D01*
X-66529838Y120814399D01*
G36*
X-71397936Y120857244D02*
G01*
X-71640387Y120818384D01*
X-71885328Y120757572D01*
X-72118320Y120678045D01*
X-72214907Y120637247D01*
X-72459402Y120505669D01*
X-72694656Y120338376D01*
X-72913901Y120141913D01*
X-73110371Y119922826D01*
X-73277299Y119687660D01*
X-73372940Y119516999D01*
X-73480127Y119277811D01*
X-73555542Y119048613D01*
X-73602421Y118815740D01*
X-73624003Y118565530D01*
X-73626315Y118447583D01*
X-73621069Y118238090D01*
X-73602316Y118054289D01*
X-73567260Y117880917D01*
X-73513108Y117702709D01*
X-73467404Y117579750D01*
X-73327926Y117280684D01*
X-73154164Y117003219D01*
X-72949267Y116750021D01*
X-72716388Y116523753D01*
X-72458675Y116327082D01*
X-72179279Y116162670D01*
X-71881350Y116033182D01*
X-71568039Y115941283D01*
X-71517268Y115930363D01*
X-71403454Y115913963D01*
X-71260798Y115903641D01*
X-71102355Y115899401D01*
X-70941177Y115901251D01*
X-70790320Y115909198D01*
X-70662836Y115923250D01*
X-70624739Y115929891D01*
X-70318526Y116012010D01*
X-70027592Y116133517D01*
X-69752497Y116294107D01*
X-69493805Y116493473D01*
X-69361612Y116616667D01*
X-69143806Y116860595D01*
X-68964219Y117121687D01*
X-68823363Y117398858D01*
X-68721750Y117691025D01*
X-68659895Y117997102D01*
X-68645876Y118129784D01*
X-68641174Y118450530D01*
X-68676714Y118765987D01*
X-68751583Y119071789D01*
X-68864872Y119363567D01*
X-68930005Y119492553D01*
X-68979582Y119582489D01*
X-69015925Y119637840D01*
X-69046855Y119660745D01*
X-69080191Y119653344D01*
X-69123756Y119617780D01*
X-69180501Y119561107D01*
X-69303833Y119436473D01*
X-69228680Y119301862D01*
X-69146633Y119128561D01*
X-69077542Y118930877D01*
X-69026782Y118726072D01*
X-69004286Y118581040D01*
X-68993817Y118298192D01*
X-69023297Y118020317D01*
X-69090375Y117750720D01*
X-69192700Y117492705D01*
X-69327921Y117249574D01*
X-69493687Y117024633D01*
X-69687647Y116821185D01*
X-69907449Y116642533D01*
X-70150743Y116491982D01*
X-70415178Y116372836D01*
X-70622581Y116306962D01*
X-70728320Y116281309D01*
X-70822862Y116264584D01*
X-70921532Y116254994D01*
X-71039653Y116250747D01*
X-71108917Y116250075D01*
X-71319147Y116256780D01*
X-71505927Y116281112D01*
X-71683836Y116326461D01*
X-71867454Y116396219D01*
X-71997917Y116456817D01*
X-72257273Y116605512D01*
X-72491043Y116782545D01*
X-72697310Y116984393D01*
X-72874158Y117207534D01*
X-73019670Y117448444D01*
X-73131929Y117703602D01*
X-73209020Y117969483D01*
X-73249025Y118242565D01*
X-73250028Y118519326D01*
X-73226266Y118714686D01*
X-73155834Y119004378D01*
X-73049117Y119273544D01*
X-72905033Y119524187D01*
X-72722502Y119758311D01*
X-72588880Y119896695D01*
X-72354748Y120094675D01*
X-72106337Y120254181D01*
X-71846294Y120374787D01*
X-71577265Y120456065D01*
X-71301898Y120497589D01*
X-71022838Y120498931D01*
X-70742733Y120459665D01*
X-70464229Y120379365D01*
X-70228456Y120277383D01*
X-70067661Y120196626D01*
X-69943613Y120321982D01*
X-69888813Y120377420D01*
X-69855066Y120417760D01*
X-69845127Y120449302D01*
X-69861751Y120478347D01*
X-69907695Y120511196D01*
X-69985713Y120554150D01*
X-70062852Y120594638D01*
X-70294914Y120698730D01*
X-70549670Y120781357D01*
X-70812916Y120838980D01*
X-71070446Y120868063D01*
X-71172417Y120870917D01*
X-71397936Y120857244D01*
G37*
X-71397936Y120857244D02*
X-71640387Y120818384D01*
X-71885328Y120757572D01*
X-72118320Y120678045D01*
X-72214907Y120637247D01*
X-72459402Y120505669D01*
X-72694656Y120338376D01*
X-72913901Y120141913D01*
X-73110371Y119922826D01*
X-73277299Y119687660D01*
X-73372940Y119516999D01*
X-73480127Y119277811D01*
X-73555542Y119048613D01*
X-73602421Y118815740D01*
X-73624003Y118565530D01*
X-73626315Y118447583D01*
X-73621069Y118238090D01*
X-73602316Y118054289D01*
X-73567260Y117880917D01*
X-73513108Y117702709D01*
X-73467404Y117579750D01*
X-73327926Y117280684D01*
X-73154164Y117003219D01*
X-72949267Y116750021D01*
X-72716388Y116523753D01*
X-72458675Y116327082D01*
X-72179279Y116162670D01*
X-71881350Y116033182D01*
X-71568039Y115941283D01*
X-71517268Y115930363D01*
X-71403454Y115913963D01*
X-71260798Y115903641D01*
X-71102355Y115899401D01*
X-70941177Y115901251D01*
X-70790320Y115909198D01*
X-70662836Y115923250D01*
X-70624739Y115929891D01*
X-70318526Y116012010D01*
X-70027592Y116133517D01*
X-69752497Y116294107D01*
X-69493805Y116493473D01*
X-69361612Y116616667D01*
X-69143806Y116860595D01*
X-68964219Y117121687D01*
X-68823363Y117398858D01*
X-68721750Y117691025D01*
X-68659895Y117997102D01*
X-68645876Y118129784D01*
X-68641174Y118450530D01*
X-68676714Y118765987D01*
X-68751583Y119071789D01*
X-68864872Y119363567D01*
X-68930005Y119492553D01*
X-68979582Y119582489D01*
X-69015925Y119637840D01*
X-69046855Y119660745D01*
X-69080191Y119653344D01*
X-69123756Y119617780D01*
X-69180501Y119561107D01*
X-69303833Y119436473D01*
X-69228680Y119301862D01*
X-69146633Y119128561D01*
X-69077542Y118930877D01*
X-69026782Y118726072D01*
X-69004286Y118581040D01*
X-68993817Y118298192D01*
X-69023297Y118020317D01*
X-69090375Y117750720D01*
X-69192700Y117492705D01*
X-69327921Y117249574D01*
X-69493687Y117024633D01*
X-69687647Y116821185D01*
X-69907449Y116642533D01*
X-70150743Y116491982D01*
X-70415178Y116372836D01*
X-70622581Y116306962D01*
X-70728320Y116281309D01*
X-70822862Y116264584D01*
X-70921532Y116254994D01*
X-71039653Y116250747D01*
X-71108917Y116250075D01*
X-71319147Y116256780D01*
X-71505927Y116281112D01*
X-71683836Y116326461D01*
X-71867454Y116396219D01*
X-71997917Y116456817D01*
X-72257273Y116605512D01*
X-72491043Y116782545D01*
X-72697310Y116984393D01*
X-72874158Y117207534D01*
X-73019670Y117448444D01*
X-73131929Y117703602D01*
X-73209020Y117969483D01*
X-73249025Y118242565D01*
X-73250028Y118519326D01*
X-73226266Y118714686D01*
X-73155834Y119004378D01*
X-73049117Y119273544D01*
X-72905033Y119524187D01*
X-72722502Y119758311D01*
X-72588880Y119896695D01*
X-72354748Y120094675D01*
X-72106337Y120254181D01*
X-71846294Y120374787D01*
X-71577265Y120456065D01*
X-71301898Y120497589D01*
X-71022838Y120498931D01*
X-70742733Y120459665D01*
X-70464229Y120379365D01*
X-70228456Y120277383D01*
X-70067661Y120196626D01*
X-69943613Y120321982D01*
X-69888813Y120377420D01*
X-69855066Y120417760D01*
X-69845127Y120449302D01*
X-69861751Y120478347D01*
X-69907695Y120511196D01*
X-69985713Y120554150D01*
X-70062852Y120594638D01*
X-70294914Y120698730D01*
X-70549670Y120781357D01*
X-70812916Y120838980D01*
X-71070446Y120868063D01*
X-71172417Y120870917D01*
X-71397936Y120857244D01*
G36*
X-84038818Y114371995D02*
G01*
X-84171447Y114362422D01*
X-84286023Y114343088D01*
X-84394527Y114311726D01*
X-84508937Y114266064D01*
X-84553917Y114245670D01*
X-84736128Y114143136D01*
X-84881001Y114021211D01*
X-84989642Y113878157D01*
X-85063160Y113712236D01*
X-85102662Y113521710D01*
X-85110667Y113372089D01*
X-85095290Y113160929D01*
X-85047347Y112963880D01*
X-84964113Y112773187D01*
X-84842867Y112581095D01*
X-84823934Y112555298D01*
X-84794479Y112520864D01*
X-84738234Y112459987D01*
X-84658470Y112376035D01*
X-84558453Y112272376D01*
X-84441453Y112152378D01*
X-84310738Y112019409D01*
X-84169577Y111876836D01*
X-84021237Y111728027D01*
X-84015371Y111722163D01*
X-83279750Y110986910D01*
X-84279875Y110986622D01*
X-85280000Y110986333D01*
X-85280000Y110647667D01*
X-82676500Y110647667D01*
X-82677408Y110790542D01*
X-82678315Y110933417D01*
X-83494546Y111727167D01*
X-83707691Y111934952D01*
X-83892295Y112116299D01*
X-84050601Y112273830D01*
X-84184849Y112410167D01*
X-84297283Y112527933D01*
X-84390143Y112629751D01*
X-84465671Y112718243D01*
X-84526110Y112796031D01*
X-84573701Y112865739D01*
X-84610687Y112929988D01*
X-84639308Y112991401D01*
X-84661807Y113052600D01*
X-84679727Y113113583D01*
X-84708795Y113290421D01*
X-84699544Y113452878D01*
X-84654189Y113598790D01*
X-84574944Y113725991D01*
X-84464024Y113832316D01*
X-84323645Y113915597D01*
X-84156019Y113973671D01*
X-83963362Y114004370D01*
X-83766584Y114006610D01*
X-83524792Y113975390D01*
X-83304405Y113908291D01*
X-83106343Y113805687D01*
X-82931525Y113667951D01*
X-82931224Y113667665D01*
X-82846343Y113586746D01*
X-82708517Y113709998D01*
X-82646736Y113766460D01*
X-82599275Y113812145D01*
X-82573380Y113839976D01*
X-82570679Y113844629D01*
X-82586039Y113868882D01*
X-82626509Y113911392D01*
X-82683634Y113964616D01*
X-82748957Y114021014D01*
X-82814024Y114073046D01*
X-82870378Y114113170D01*
X-82875288Y114116286D01*
X-83081680Y114225590D01*
X-83303927Y114303931D01*
X-83547370Y114352685D01*
X-83817352Y114373229D01*
X-83876158Y114374079D01*
X-84038818Y114371995D01*
G37*
X-84038818Y114371995D02*
X-84171447Y114362422D01*
X-84286023Y114343088D01*
X-84394527Y114311726D01*
X-84508937Y114266064D01*
X-84553917Y114245670D01*
X-84736128Y114143136D01*
X-84881001Y114021211D01*
X-84989642Y113878157D01*
X-85063160Y113712236D01*
X-85102662Y113521710D01*
X-85110667Y113372089D01*
X-85095290Y113160929D01*
X-85047347Y112963880D01*
X-84964113Y112773187D01*
X-84842867Y112581095D01*
X-84823934Y112555298D01*
X-84794479Y112520864D01*
X-84738234Y112459987D01*
X-84658470Y112376035D01*
X-84558453Y112272376D01*
X-84441453Y112152378D01*
X-84310738Y112019409D01*
X-84169577Y111876836D01*
X-84021237Y111728027D01*
X-84015371Y111722163D01*
X-83279750Y110986910D01*
X-84279875Y110986622D01*
X-85280000Y110986333D01*
X-85280000Y110647667D01*
X-82676500Y110647667D01*
X-82677408Y110790542D01*
X-82678315Y110933417D01*
X-83494546Y111727167D01*
X-83707691Y111934952D01*
X-83892295Y112116299D01*
X-84050601Y112273830D01*
X-84184849Y112410167D01*
X-84297283Y112527933D01*
X-84390143Y112629751D01*
X-84465671Y112718243D01*
X-84526110Y112796031D01*
X-84573701Y112865739D01*
X-84610687Y112929988D01*
X-84639308Y112991401D01*
X-84661807Y113052600D01*
X-84679727Y113113583D01*
X-84708795Y113290421D01*
X-84699544Y113452878D01*
X-84654189Y113598790D01*
X-84574944Y113725991D01*
X-84464024Y113832316D01*
X-84323645Y113915597D01*
X-84156019Y113973671D01*
X-83963362Y114004370D01*
X-83766584Y114006610D01*
X-83524792Y113975390D01*
X-83304405Y113908291D01*
X-83106343Y113805687D01*
X-82931525Y113667951D01*
X-82931224Y113667665D01*
X-82846343Y113586746D01*
X-82708517Y113709998D01*
X-82646736Y113766460D01*
X-82599275Y113812145D01*
X-82573380Y113839976D01*
X-82570679Y113844629D01*
X-82586039Y113868882D01*
X-82626509Y113911392D01*
X-82683634Y113964616D01*
X-82748957Y114021014D01*
X-82814024Y114073046D01*
X-82870378Y114113170D01*
X-82875288Y114116286D01*
X-83081680Y114225590D01*
X-83303927Y114303931D01*
X-83547370Y114352685D01*
X-83817352Y114373229D01*
X-83876158Y114374079D01*
X-84038818Y114371995D01*
G36*
X-81057921Y114371931D02*
G01*
X-81190519Y114362067D01*
X-81305471Y114342188D01*
X-81414947Y114309968D01*
X-81531121Y114263086D01*
X-81570176Y114245315D01*
X-81752994Y114140769D01*
X-81901397Y114013162D01*
X-82014340Y113863466D01*
X-82046745Y113803059D01*
X-82077461Y113735673D01*
X-82097763Y113676946D01*
X-82110276Y113613933D01*
X-82117624Y113533688D01*
X-82122164Y113431083D01*
X-82120881Y113248304D01*
X-82101331Y113092054D01*
X-82060802Y112949491D01*
X-81996583Y112807773D01*
X-81986700Y112789379D01*
X-81954799Y112731283D01*
X-81925179Y112679376D01*
X-81895233Y112630776D01*
X-81862355Y112582601D01*
X-81823939Y112531969D01*
X-81777376Y112475998D01*
X-81720061Y112411805D01*
X-81649386Y112336508D01*
X-81562745Y112247227D01*
X-81457531Y112141077D01*
X-81331137Y112015178D01*
X-81180956Y111866647D01*
X-81004382Y111692602D01*
X-80915613Y111605185D01*
X-80287143Y110986333D01*
X-82295500Y110986333D01*
X-82295500Y110647667D01*
X-79692000Y110647667D01*
X-79692917Y110790542D01*
X-79693833Y110933417D01*
X-80541138Y111758917D01*
X-80702317Y111916533D01*
X-80856955Y112068875D01*
X-81001889Y112212749D01*
X-81133952Y112344961D01*
X-81249980Y112462319D01*
X-81346808Y112561629D01*
X-81421271Y112639699D01*
X-81470204Y112693334D01*
X-81485206Y112711417D01*
X-81593986Y112872644D01*
X-81667103Y113026560D01*
X-81708139Y113181735D01*
X-81718218Y113269047D01*
X-81716776Y113427903D01*
X-81686851Y113561944D01*
X-81625851Y113679849D01*
X-81576922Y113742323D01*
X-81455412Y113849523D01*
X-81307569Y113929689D01*
X-81139479Y113983011D01*
X-80957228Y114009677D01*
X-80766905Y114009875D01*
X-80574595Y113983795D01*
X-80386386Y113931625D01*
X-80208363Y113853553D01*
X-80046614Y113749769D01*
X-79978625Y113692783D01*
X-79861164Y113585431D01*
X-79728957Y113707239D01*
X-79667995Y113764477D01*
X-79620294Y113811281D01*
X-79593555Y113840019D01*
X-79590558Y113844433D01*
X-79601501Y113868581D01*
X-79640097Y113910350D01*
X-79698932Y113963647D01*
X-79770591Y114022378D01*
X-79847659Y114080451D01*
X-79922721Y114131771D01*
X-79984735Y114168364D01*
X-80163766Y114251765D01*
X-80341644Y114311480D01*
X-80529532Y114350031D01*
X-80738597Y114369940D01*
X-80895503Y114374103D01*
X-81057921Y114371931D01*
G37*
X-81057921Y114371931D02*
X-81190519Y114362067D01*
X-81305471Y114342188D01*
X-81414947Y114309968D01*
X-81531121Y114263086D01*
X-81570176Y114245315D01*
X-81752994Y114140769D01*
X-81901397Y114013162D01*
X-82014340Y113863466D01*
X-82046745Y113803059D01*
X-82077461Y113735673D01*
X-82097763Y113676946D01*
X-82110276Y113613933D01*
X-82117624Y113533688D01*
X-82122164Y113431083D01*
X-82120881Y113248304D01*
X-82101331Y113092054D01*
X-82060802Y112949491D01*
X-81996583Y112807773D01*
X-81986700Y112789379D01*
X-81954799Y112731283D01*
X-81925179Y112679376D01*
X-81895233Y112630776D01*
X-81862355Y112582601D01*
X-81823939Y112531969D01*
X-81777376Y112475998D01*
X-81720061Y112411805D01*
X-81649386Y112336508D01*
X-81562745Y112247227D01*
X-81457531Y112141077D01*
X-81331137Y112015178D01*
X-81180956Y111866647D01*
X-81004382Y111692602D01*
X-80915613Y111605185D01*
X-80287143Y110986333D01*
X-82295500Y110986333D01*
X-82295500Y110647667D01*
X-79692000Y110647667D01*
X-79692917Y110790542D01*
X-79693833Y110933417D01*
X-80541138Y111758917D01*
X-80702317Y111916533D01*
X-80856955Y112068875D01*
X-81001889Y112212749D01*
X-81133952Y112344961D01*
X-81249980Y112462319D01*
X-81346808Y112561629D01*
X-81421271Y112639699D01*
X-81470204Y112693334D01*
X-81485206Y112711417D01*
X-81593986Y112872644D01*
X-81667103Y113026560D01*
X-81708139Y113181735D01*
X-81718218Y113269047D01*
X-81716776Y113427903D01*
X-81686851Y113561944D01*
X-81625851Y113679849D01*
X-81576922Y113742323D01*
X-81455412Y113849523D01*
X-81307569Y113929689D01*
X-81139479Y113983011D01*
X-80957228Y114009677D01*
X-80766905Y114009875D01*
X-80574595Y113983795D01*
X-80386386Y113931625D01*
X-80208363Y113853553D01*
X-80046614Y113749769D01*
X-79978625Y113692783D01*
X-79861164Y113585431D01*
X-79728957Y113707239D01*
X-79667995Y113764477D01*
X-79620294Y113811281D01*
X-79593555Y113840019D01*
X-79590558Y113844433D01*
X-79601501Y113868581D01*
X-79640097Y113910350D01*
X-79698932Y113963647D01*
X-79770591Y114022378D01*
X-79847659Y114080451D01*
X-79922721Y114131771D01*
X-79984735Y114168364D01*
X-80163766Y114251765D01*
X-80341644Y114311480D01*
X-80529532Y114350031D01*
X-80738597Y114369940D01*
X-80895503Y114374103D01*
X-81057921Y114371931D01*
G36*
X-74603953Y114371243D02*
G01*
X-74748212Y114358297D01*
X-74875329Y114333047D01*
X-74997578Y114293010D01*
X-75127234Y114235704D01*
X-75135251Y114231793D01*
X-75304882Y114127275D01*
X-75442659Y113997773D01*
X-75547917Y113846924D01*
X-75619993Y113678366D01*
X-75658221Y113495739D01*
X-75661937Y113302680D01*
X-75630478Y113102828D01*
X-75563180Y112899820D01*
X-75459377Y112697296D01*
X-75425210Y112643477D01*
X-75389753Y112592840D01*
X-75346416Y112536980D01*
X-75292419Y112472939D01*
X-75224984Y112397760D01*
X-75141331Y112308483D01*
X-75038682Y112202151D01*
X-74914257Y112075806D01*
X-74765277Y111926490D01*
X-74588962Y111751244D01*
X-74560149Y111722700D01*
X-73818250Y110987982D01*
X-74828959Y110987158D01*
X-75839667Y110986333D01*
X-75839667Y110647667D01*
X-73215000Y110647667D01*
X-73215000Y110919028D01*
X-74085343Y111772889D01*
X-74286954Y111971529D01*
X-74469435Y112153042D01*
X-74631049Y112315644D01*
X-74770061Y112457552D01*
X-74884736Y112576986D01*
X-74973339Y112672160D01*
X-75034134Y112741294D01*
X-75059322Y112773389D01*
X-75160027Y112946933D01*
X-75223216Y113127364D01*
X-75246772Y113308491D01*
X-75246882Y113322188D01*
X-75232121Y113489281D01*
X-75186612Y113628903D01*
X-75108019Y113744967D01*
X-74994007Y113841386D01*
X-74906760Y113891875D01*
X-74764572Y113953971D01*
X-74624195Y113992074D01*
X-74472143Y114008676D01*
X-74294929Y114006271D01*
X-74289745Y114005971D01*
X-74057497Y113975362D01*
X-73848798Y113911260D01*
X-73659087Y113811828D01*
X-73495578Y113685929D01*
X-73387707Y113588944D01*
X-73253729Y113710377D01*
X-73191699Y113766453D01*
X-73142183Y113810942D01*
X-73113129Y113836716D01*
X-73109167Y113840073D01*
X-73116653Y113858100D01*
X-73150863Y113895012D01*
X-73204472Y113944538D01*
X-73270157Y114000407D01*
X-73340593Y114056346D01*
X-73408456Y114106084D01*
X-73456589Y114137567D01*
X-73656748Y114238842D01*
X-73875131Y114311166D01*
X-74116776Y114355764D01*
X-74386719Y114373861D01*
X-74430276Y114374367D01*
X-74603953Y114371243D01*
G37*
X-74603953Y114371243D02*
X-74748212Y114358297D01*
X-74875329Y114333047D01*
X-74997578Y114293010D01*
X-75127234Y114235704D01*
X-75135251Y114231793D01*
X-75304882Y114127275D01*
X-75442659Y113997773D01*
X-75547917Y113846924D01*
X-75619993Y113678366D01*
X-75658221Y113495739D01*
X-75661937Y113302680D01*
X-75630478Y113102828D01*
X-75563180Y112899820D01*
X-75459377Y112697296D01*
X-75425210Y112643477D01*
X-75389753Y112592840D01*
X-75346416Y112536980D01*
X-75292419Y112472939D01*
X-75224984Y112397760D01*
X-75141331Y112308483D01*
X-75038682Y112202151D01*
X-74914257Y112075806D01*
X-74765277Y111926490D01*
X-74588962Y111751244D01*
X-74560149Y111722700D01*
X-73818250Y110987982D01*
X-74828959Y110987158D01*
X-75839667Y110986333D01*
X-75839667Y110647667D01*
X-73215000Y110647667D01*
X-73215000Y110919028D01*
X-74085343Y111772889D01*
X-74286954Y111971529D01*
X-74469435Y112153042D01*
X-74631049Y112315644D01*
X-74770061Y112457552D01*
X-74884736Y112576986D01*
X-74973339Y112672160D01*
X-75034134Y112741294D01*
X-75059322Y112773389D01*
X-75160027Y112946933D01*
X-75223216Y113127364D01*
X-75246772Y113308491D01*
X-75246882Y113322188D01*
X-75232121Y113489281D01*
X-75186612Y113628903D01*
X-75108019Y113744967D01*
X-74994007Y113841386D01*
X-74906760Y113891875D01*
X-74764572Y113953971D01*
X-74624195Y113992074D01*
X-74472143Y114008676D01*
X-74294929Y114006271D01*
X-74289745Y114005971D01*
X-74057497Y113975362D01*
X-73848798Y113911260D01*
X-73659087Y113811828D01*
X-73495578Y113685929D01*
X-73387707Y113588944D01*
X-73253729Y113710377D01*
X-73191699Y113766453D01*
X-73142183Y113810942D01*
X-73113129Y113836716D01*
X-73109167Y113840073D01*
X-73116653Y113858100D01*
X-73150863Y113895012D01*
X-73204472Y113944538D01*
X-73270157Y114000407D01*
X-73340593Y114056346D01*
X-73408456Y114106084D01*
X-73456589Y114137567D01*
X-73656748Y114238842D01*
X-73875131Y114311166D01*
X-74116776Y114355764D01*
X-74386719Y114373861D01*
X-74430276Y114374367D01*
X-74603953Y114371243D01*
G36*
X-77926068Y114362987D02*
G01*
X-78135890Y114327473D01*
X-78327641Y114258094D01*
X-78507747Y114152376D01*
X-78682633Y114007843D01*
X-78721080Y113970557D01*
X-78809098Y113879933D01*
X-78874391Y113803391D01*
X-78926618Y113727750D01*
X-78975436Y113639827D01*
X-79000779Y113588803D01*
X-79110049Y113317431D01*
X-79186271Y113026412D01*
X-79229204Y112722853D01*
X-79238609Y112413862D01*
X-79214246Y112106546D01*
X-79155874Y111808010D01*
X-79069938Y111542146D01*
X-78961323Y111318873D01*
X-78822256Y111119966D01*
X-78656356Y110948946D01*
X-78467242Y110809335D01*
X-78258533Y110704654D01*
X-78180243Y110676503D01*
X-78000819Y110633414D01*
X-77806107Y110612409D01*
X-77612047Y110614148D01*
X-77434577Y110639290D01*
X-77411931Y110644723D01*
X-77238487Y110698759D01*
X-77087966Y110769600D01*
X-76947947Y110864475D01*
X-76806011Y110990613D01*
X-76789420Y111007034D01*
X-76701174Y111098295D01*
X-76635634Y111175498D01*
X-76583130Y111251865D01*
X-76533996Y111340615D01*
X-76509722Y111389531D01*
X-76407666Y111638615D01*
X-76334207Y111901866D01*
X-76288765Y112174122D01*
X-76270762Y112450218D01*
X-76273281Y112528358D01*
X-76677958Y112528358D01*
X-76686448Y112313463D01*
X-76708588Y112100963D01*
X-76743467Y111904068D01*
X-76785686Y111749073D01*
X-76857251Y111578187D01*
X-76951250Y111417598D01*
X-77061013Y111276552D01*
X-77179868Y111164296D01*
X-77236270Y111124550D01*
X-77414356Y111037472D01*
X-77606001Y110988999D01*
X-77805703Y110979937D01*
X-78007956Y111011093D01*
X-78008896Y111011334D01*
X-78184592Y111077804D01*
X-78343377Y111181367D01*
X-78482640Y111319273D01*
X-78599771Y111488770D01*
X-78692163Y111687109D01*
X-78716352Y111757083D01*
X-78763453Y111919993D01*
X-78795651Y112071737D01*
X-78814585Y112225543D01*
X-78821896Y112394638D01*
X-78819353Y112588208D01*
X-78799118Y112861808D01*
X-78756475Y113102253D01*
X-78690264Y113313000D01*
X-78599331Y113497505D01*
X-78482517Y113659226D01*
X-78448062Y113697648D01*
X-78293868Y113834831D01*
X-78125279Y113933645D01*
X-77945342Y113993153D01*
X-77757107Y114012415D01*
X-77563621Y113990494D01*
X-77526218Y113981518D01*
X-77333871Y113910829D01*
X-77165402Y113805187D01*
X-77020813Y113664594D01*
X-76900110Y113489057D01*
X-76803295Y113278579D01*
X-76730372Y113033166D01*
X-76705563Y112912500D01*
X-76684026Y112732441D01*
X-76677958Y112528358D01*
X-76273281Y112528358D01*
X-76279621Y112724991D01*
X-76314762Y112993278D01*
X-76375608Y113249914D01*
X-76461580Y113489736D01*
X-76572099Y113707581D01*
X-76706589Y113898284D01*
X-76802187Y114001039D01*
X-76977437Y114144940D01*
X-77166412Y114251699D01*
X-77373656Y114323187D01*
X-77603713Y114361272D01*
X-77691750Y114367112D01*
X-77926068Y114362987D01*
G37*
X-77926068Y114362987D02*
X-78135890Y114327473D01*
X-78327641Y114258094D01*
X-78507747Y114152376D01*
X-78682633Y114007843D01*
X-78721080Y113970557D01*
X-78809098Y113879933D01*
X-78874391Y113803391D01*
X-78926618Y113727750D01*
X-78975436Y113639827D01*
X-79000779Y113588803D01*
X-79110049Y113317431D01*
X-79186271Y113026412D01*
X-79229204Y112722853D01*
X-79238609Y112413862D01*
X-79214246Y112106546D01*
X-79155874Y111808010D01*
X-79069938Y111542146D01*
X-78961323Y111318873D01*
X-78822256Y111119966D01*
X-78656356Y110948946D01*
X-78467242Y110809335D01*
X-78258533Y110704654D01*
X-78180243Y110676503D01*
X-78000819Y110633414D01*
X-77806107Y110612409D01*
X-77612047Y110614148D01*
X-77434577Y110639290D01*
X-77411931Y110644723D01*
X-77238487Y110698759D01*
X-77087966Y110769600D01*
X-76947947Y110864475D01*
X-76806011Y110990613D01*
X-76789420Y111007034D01*
X-76701174Y111098295D01*
X-76635634Y111175498D01*
X-76583130Y111251865D01*
X-76533996Y111340615D01*
X-76509722Y111389531D01*
X-76407666Y111638615D01*
X-76334207Y111901866D01*
X-76288765Y112174122D01*
X-76270762Y112450218D01*
X-76273281Y112528358D01*
X-76677958Y112528358D01*
X-76686448Y112313463D01*
X-76708588Y112100963D01*
X-76743467Y111904068D01*
X-76785686Y111749073D01*
X-76857251Y111578187D01*
X-76951250Y111417598D01*
X-77061013Y111276552D01*
X-77179868Y111164296D01*
X-77236270Y111124550D01*
X-77414356Y111037472D01*
X-77606001Y110988999D01*
X-77805703Y110979937D01*
X-78007956Y111011093D01*
X-78008896Y111011334D01*
X-78184592Y111077804D01*
X-78343377Y111181367D01*
X-78482640Y111319273D01*
X-78599771Y111488770D01*
X-78692163Y111687109D01*
X-78716352Y111757083D01*
X-78763453Y111919993D01*
X-78795651Y112071737D01*
X-78814585Y112225543D01*
X-78821896Y112394638D01*
X-78819353Y112588208D01*
X-78799118Y112861808D01*
X-78756475Y113102253D01*
X-78690264Y113313000D01*
X-78599331Y113497505D01*
X-78482517Y113659226D01*
X-78448062Y113697648D01*
X-78293868Y113834831D01*
X-78125279Y113933645D01*
X-77945342Y113993153D01*
X-77757107Y114012415D01*
X-77563621Y113990494D01*
X-77526218Y113981518D01*
X-77333871Y113910829D01*
X-77165402Y113805187D01*
X-77020813Y113664594D01*
X-76900110Y113489057D01*
X-76803295Y113278579D01*
X-76730372Y113033166D01*
X-76705563Y112912500D01*
X-76684026Y112732441D01*
X-76677958Y112528358D01*
X-76273281Y112528358D01*
X-76279621Y112724991D01*
X-76314762Y112993278D01*
X-76375608Y113249914D01*
X-76461580Y113489736D01*
X-76572099Y113707581D01*
X-76706589Y113898284D01*
X-76802187Y114001039D01*
X-76977437Y114144940D01*
X-77166412Y114251699D01*
X-77373656Y114323187D01*
X-77603713Y114361272D01*
X-77691750Y114367112D01*
X-77926068Y114362987D01*
G36*
X-66631604Y97861564D02*
G01*
X-66637585Y97824501D01*
X-66642612Y97751569D01*
X-66646680Y97649213D01*
X-66649784Y97523876D01*
X-66651920Y97382000D01*
X-66653082Y97230030D01*
X-66653266Y97074407D01*
X-66652466Y96921576D01*
X-66650679Y96777979D01*
X-66647898Y96650059D01*
X-66644120Y96544261D01*
X-66639339Y96467026D01*
X-66633550Y96424798D01*
X-66632690Y96422128D01*
X-66624022Y96402828D01*
X-66611299Y96388207D01*
X-66589709Y96378117D01*
X-66554436Y96372410D01*
X-66500667Y96370935D01*
X-66423588Y96373544D01*
X-66318384Y96380089D01*
X-66180241Y96390419D01*
X-66019666Y96403160D01*
X-65897626Y96414082D01*
X-65789357Y96425935D01*
X-65702317Y96437729D01*
X-65643966Y96448476D01*
X-65622791Y96455786D01*
X-65613992Y96483814D01*
X-65606683Y96547849D01*
X-65600854Y96641594D01*
X-65596493Y96758750D01*
X-65593590Y96893018D01*
X-65592134Y97038099D01*
X-65592113Y97187695D01*
X-65593517Y97335507D01*
X-65596334Y97475236D01*
X-65600554Y97600584D01*
X-65606166Y97705252D01*
X-65613159Y97782941D01*
X-65621521Y97827353D01*
X-65625193Y97834336D01*
X-65655249Y97849036D01*
X-65715584Y97860975D01*
X-65810264Y97870728D01*
X-65937401Y97878577D01*
X-66065548Y97885236D01*
X-66200335Y97892696D01*
X-66324909Y97900001D01*
X-66414645Y97905672D01*
X-66609874Y97918718D01*
X-66631604Y97861564D01*
G37*
X-66631604Y97861564D02*
X-66637585Y97824501D01*
X-66642612Y97751569D01*
X-66646680Y97649213D01*
X-66649784Y97523876D01*
X-66651920Y97382000D01*
X-66653082Y97230030D01*
X-66653266Y97074407D01*
X-66652466Y96921576D01*
X-66650679Y96777979D01*
X-66647898Y96650059D01*
X-66644120Y96544261D01*
X-66639339Y96467026D01*
X-66633550Y96424798D01*
X-66632690Y96422128D01*
X-66624022Y96402828D01*
X-66611299Y96388207D01*
X-66589709Y96378117D01*
X-66554436Y96372410D01*
X-66500667Y96370935D01*
X-66423588Y96373544D01*
X-66318384Y96380089D01*
X-66180241Y96390419D01*
X-66019666Y96403160D01*
X-65897626Y96414082D01*
X-65789357Y96425935D01*
X-65702317Y96437729D01*
X-65643966Y96448476D01*
X-65622791Y96455786D01*
X-65613992Y96483814D01*
X-65606683Y96547849D01*
X-65600854Y96641594D01*
X-65596493Y96758750D01*
X-65593590Y96893018D01*
X-65592134Y97038099D01*
X-65592113Y97187695D01*
X-65593517Y97335507D01*
X-65596334Y97475236D01*
X-65600554Y97600584D01*
X-65606166Y97705252D01*
X-65613159Y97782941D01*
X-65621521Y97827353D01*
X-65625193Y97834336D01*
X-65655249Y97849036D01*
X-65715584Y97860975D01*
X-65810264Y97870728D01*
X-65937401Y97878577D01*
X-66065548Y97885236D01*
X-66200335Y97892696D01*
X-66324909Y97900001D01*
X-66414645Y97905672D01*
X-66609874Y97918718D01*
X-66631604Y97861564D01*
G36*
X-70949369Y100336144D02*
G01*
X-71018432Y100305730D01*
X-71095253Y100242853D01*
X-71172759Y100154699D01*
X-71243879Y100048455D01*
X-71258970Y100021511D01*
X-71321429Y99919807D01*
X-71411085Y99794252D01*
X-71524050Y99649733D01*
X-71656434Y99491133D01*
X-71804348Y99323339D01*
X-71884636Y99235662D01*
X-71991637Y99109761D01*
X-72067957Y98991445D01*
X-72117867Y98869448D01*
X-72145638Y98732503D01*
X-72155539Y98569344D01*
X-72155710Y98520500D01*
X-72152358Y98419972D01*
X-72141723Y98346411D01*
X-72120970Y98284684D01*
X-72105567Y98252865D01*
X-72056379Y98158813D01*
X-72171562Y98053543D01*
X-72284791Y97923579D01*
X-72382383Y97755478D01*
X-72463569Y97550740D01*
X-72506319Y97402136D01*
X-72546362Y97266168D01*
X-72595127Y97135501D01*
X-72643299Y97033181D01*
X-72701295Y96914910D01*
X-72748083Y96790183D01*
X-72785189Y96651996D01*
X-72814142Y96493347D01*
X-72836468Y96307233D01*
X-72853697Y96086652D01*
X-72855252Y96061534D01*
X-72864967Y95802107D01*
X-72859771Y95571961D01*
X-72838664Y95360395D01*
X-72800644Y95156709D01*
X-72754287Y94981791D01*
X-72725467Y94883295D01*
X-72701752Y94799023D01*
X-72685483Y94737528D01*
X-72679002Y94707364D01*
X-72678975Y94706624D01*
X-72686113Y94680880D01*
X-72705869Y94622028D01*
X-72735947Y94536579D01*
X-72774054Y94431046D01*
X-72817895Y94311941D01*
X-72820814Y94304083D01*
X-72887269Y94131356D01*
X-72946247Y93991997D01*
X-73001220Y93878485D01*
X-73055658Y93783296D01*
X-73074674Y93753750D01*
X-73128820Y93669325D01*
X-73163325Y93605408D01*
X-73183566Y93548356D01*
X-73194920Y93484525D01*
X-73199794Y93436250D01*
X-73212695Y93288083D01*
X-73028639Y93166643D01*
X-72934414Y93102578D01*
X-72838038Y93033919D01*
X-72754972Y92971792D01*
X-72725984Y92948873D01*
X-72604823Y92867731D01*
X-72445991Y92791174D01*
X-72387318Y92767601D01*
X-72303626Y92736141D01*
X-72232892Y92712630D01*
X-72165230Y92695141D01*
X-72090756Y92681746D01*
X-71999586Y92670516D01*
X-71881833Y92659525D01*
X-71796833Y92652449D01*
X-71499283Y92632674D01*
X-71242219Y92625182D01*
X-71025612Y92629973D01*
X-70849437Y92647049D01*
X-70759667Y92664002D01*
X-70659207Y92691052D01*
X-70553837Y92724547D01*
X-70473917Y92754261D01*
X-70395739Y92784643D01*
X-70323160Y92809421D01*
X-70281503Y92820922D01*
X-70228890Y92844185D01*
X-70167403Y92887995D01*
X-70135725Y92917180D01*
X-70055361Y92999481D01*
X-70092714Y93191790D01*
X-70114220Y93328826D01*
X-70120702Y93453441D01*
X-70115244Y93573580D01*
X-70100421Y93763061D01*
X-70258677Y94255822D01*
X-70310354Y94417987D01*
X-70364452Y94589949D01*
X-70417360Y94760072D01*
X-70465463Y94916717D01*
X-70505149Y95048248D01*
X-70514894Y95081140D01*
X-70612856Y95413697D01*
X-70571162Y95652640D01*
X-70548909Y95759358D01*
X-70514425Y95893250D01*
X-70466878Y96057148D01*
X-70405438Y96253886D01*
X-70329272Y96486294D01*
X-70305679Y96556705D01*
X-70240470Y96751922D01*
X-70187914Y96912954D01*
X-70146409Y97045476D01*
X-70114348Y97155161D01*
X-70090128Y97247685D01*
X-70072144Y97328721D01*
X-70058792Y97403945D01*
X-70051328Y97456288D01*
X-70020380Y97628421D01*
X-69972611Y97812005D01*
X-69912015Y97995862D01*
X-69842588Y98168816D01*
X-69768326Y98319689D01*
X-69707673Y98417614D01*
X-69504913Y98688566D01*
X-69300730Y98928410D01*
X-69086017Y99147665D01*
X-69031383Y99198875D01*
X-68773217Y99437000D01*
X-68655593Y99437000D01*
X-68565028Y99429540D01*
X-68476760Y99403633D01*
X-68404645Y99371256D01*
X-68271323Y99305512D01*
X-68200944Y99126925D01*
X-68169134Y99044015D01*
X-68149413Y98981273D01*
X-68139737Y98924331D01*
X-68138063Y98858825D01*
X-68142348Y98770388D01*
X-68144816Y98732294D01*
X-68158518Y98569007D01*
X-68178596Y98409260D01*
X-68206888Y98242252D01*
X-68245231Y98057181D01*
X-68295463Y97843246D01*
X-68297363Y97835491D01*
X-68327290Y97711116D01*
X-68347133Y97621148D01*
X-68357794Y97559112D01*
X-68360179Y97518532D01*
X-68355191Y97492935D01*
X-68347059Y97479556D01*
X-68334199Y97469972D01*
X-68319221Y97475283D01*
X-68299032Y97500205D01*
X-68270539Y97549455D01*
X-68230651Y97627748D01*
X-68176275Y97739800D01*
X-68175909Y97740563D01*
X-68116095Y97871361D01*
X-68054574Y98016444D01*
X-67998098Y98159259D01*
X-67953420Y98283253D01*
X-67948682Y98297581D01*
X-67909929Y98421666D01*
X-67883688Y98522263D01*
X-67866897Y98615251D01*
X-67856494Y98716505D01*
X-67851280Y98802665D01*
X-67848359Y98974894D01*
X-67860381Y99115197D01*
X-67889713Y99232071D01*
X-67938720Y99334011D01*
X-68009767Y99429515D01*
X-68033003Y99455264D01*
X-68165522Y99575765D01*
X-68306214Y99658347D01*
X-68464118Y99707417D01*
X-68583742Y99723716D01*
X-68767900Y99738630D01*
X-68858630Y99852333D01*
X-68976858Y99977200D01*
X-69111948Y100074388D01*
X-69267354Y100144897D01*
X-69446531Y100189725D01*
X-69652931Y100209873D01*
X-69890011Y100206338D01*
X-70040000Y100194131D01*
X-70219321Y100179425D01*
X-70365568Y100176229D01*
X-70486646Y100185430D01*
X-70590459Y100207911D01*
X-70684911Y100244558D01*
X-70737864Y100272280D01*
X-70815751Y100313847D01*
X-70871511Y100335159D01*
X-70917830Y100340049D01*
X-70949369Y100336144D01*
G37*
X-70949369Y100336144D02*
X-71018432Y100305730D01*
X-71095253Y100242853D01*
X-71172759Y100154699D01*
X-71243879Y100048455D01*
X-71258970Y100021511D01*
X-71321429Y99919807D01*
X-71411085Y99794252D01*
X-71524050Y99649733D01*
X-71656434Y99491133D01*
X-71804348Y99323339D01*
X-71884636Y99235662D01*
X-71991637Y99109761D01*
X-72067957Y98991445D01*
X-72117867Y98869448D01*
X-72145638Y98732503D01*
X-72155539Y98569344D01*
X-72155710Y98520500D01*
X-72152358Y98419972D01*
X-72141723Y98346411D01*
X-72120970Y98284684D01*
X-72105567Y98252865D01*
X-72056379Y98158813D01*
X-72171562Y98053543D01*
X-72284791Y97923579D01*
X-72382383Y97755478D01*
X-72463569Y97550740D01*
X-72506319Y97402136D01*
X-72546362Y97266168D01*
X-72595127Y97135501D01*
X-72643299Y97033181D01*
X-72701295Y96914910D01*
X-72748083Y96790183D01*
X-72785189Y96651996D01*
X-72814142Y96493347D01*
X-72836468Y96307233D01*
X-72853697Y96086652D01*
X-72855252Y96061534D01*
X-72864967Y95802107D01*
X-72859771Y95571961D01*
X-72838664Y95360395D01*
X-72800644Y95156709D01*
X-72754287Y94981791D01*
X-72725467Y94883295D01*
X-72701752Y94799023D01*
X-72685483Y94737528D01*
X-72679002Y94707364D01*
X-72678975Y94706624D01*
X-72686113Y94680880D01*
X-72705869Y94622028D01*
X-72735947Y94536579D01*
X-72774054Y94431046D01*
X-72817895Y94311941D01*
X-72820814Y94304083D01*
X-72887269Y94131356D01*
X-72946247Y93991997D01*
X-73001220Y93878485D01*
X-73055658Y93783296D01*
X-73074674Y93753750D01*
X-73128820Y93669325D01*
X-73163325Y93605408D01*
X-73183566Y93548356D01*
X-73194920Y93484525D01*
X-73199794Y93436250D01*
X-73212695Y93288083D01*
X-73028639Y93166643D01*
X-72934414Y93102578D01*
X-72838038Y93033919D01*
X-72754972Y92971792D01*
X-72725984Y92948873D01*
X-72604823Y92867731D01*
X-72445991Y92791174D01*
X-72387318Y92767601D01*
X-72303626Y92736141D01*
X-72232892Y92712630D01*
X-72165230Y92695141D01*
X-72090756Y92681746D01*
X-71999586Y92670516D01*
X-71881833Y92659525D01*
X-71796833Y92652449D01*
X-71499283Y92632674D01*
X-71242219Y92625182D01*
X-71025612Y92629973D01*
X-70849437Y92647049D01*
X-70759667Y92664002D01*
X-70659207Y92691052D01*
X-70553837Y92724547D01*
X-70473917Y92754261D01*
X-70395739Y92784643D01*
X-70323160Y92809421D01*
X-70281503Y92820922D01*
X-70228890Y92844185D01*
X-70167403Y92887995D01*
X-70135725Y92917180D01*
X-70055361Y92999481D01*
X-70092714Y93191790D01*
X-70114220Y93328826D01*
X-70120702Y93453441D01*
X-70115244Y93573580D01*
X-70100421Y93763061D01*
X-70258677Y94255822D01*
X-70310354Y94417987D01*
X-70364452Y94589949D01*
X-70417360Y94760072D01*
X-70465463Y94916717D01*
X-70505149Y95048248D01*
X-70514894Y95081140D01*
X-70612856Y95413697D01*
X-70571162Y95652640D01*
X-70548909Y95759358D01*
X-70514425Y95893250D01*
X-70466878Y96057148D01*
X-70405438Y96253886D01*
X-70329272Y96486294D01*
X-70305679Y96556705D01*
X-70240470Y96751922D01*
X-70187914Y96912954D01*
X-70146409Y97045476D01*
X-70114348Y97155161D01*
X-70090128Y97247685D01*
X-70072144Y97328721D01*
X-70058792Y97403945D01*
X-70051328Y97456288D01*
X-70020380Y97628421D01*
X-69972611Y97812005D01*
X-69912015Y97995862D01*
X-69842588Y98168816D01*
X-69768326Y98319689D01*
X-69707673Y98417614D01*
X-69504913Y98688566D01*
X-69300730Y98928410D01*
X-69086017Y99147665D01*
X-69031383Y99198875D01*
X-68773217Y99437000D01*
X-68655593Y99437000D01*
X-68565028Y99429540D01*
X-68476760Y99403633D01*
X-68404645Y99371256D01*
X-68271323Y99305512D01*
X-68200944Y99126925D01*
X-68169134Y99044015D01*
X-68149413Y98981273D01*
X-68139737Y98924331D01*
X-68138063Y98858825D01*
X-68142348Y98770388D01*
X-68144816Y98732294D01*
X-68158518Y98569007D01*
X-68178596Y98409260D01*
X-68206888Y98242252D01*
X-68245231Y98057181D01*
X-68295463Y97843246D01*
X-68297363Y97835491D01*
X-68327290Y97711116D01*
X-68347133Y97621148D01*
X-68357794Y97559112D01*
X-68360179Y97518532D01*
X-68355191Y97492935D01*
X-68347059Y97479556D01*
X-68334199Y97469972D01*
X-68319221Y97475283D01*
X-68299032Y97500205D01*
X-68270539Y97549455D01*
X-68230651Y97627748D01*
X-68176275Y97739800D01*
X-68175909Y97740563D01*
X-68116095Y97871361D01*
X-68054574Y98016444D01*
X-67998098Y98159259D01*
X-67953420Y98283253D01*
X-67948682Y98297581D01*
X-67909929Y98421666D01*
X-67883688Y98522263D01*
X-67866897Y98615251D01*
X-67856494Y98716505D01*
X-67851280Y98802665D01*
X-67848359Y98974894D01*
X-67860381Y99115197D01*
X-67889713Y99232071D01*
X-67938720Y99334011D01*
X-68009767Y99429515D01*
X-68033003Y99455264D01*
X-68165522Y99575765D01*
X-68306214Y99658347D01*
X-68464118Y99707417D01*
X-68583742Y99723716D01*
X-68767900Y99738630D01*
X-68858630Y99852333D01*
X-68976858Y99977200D01*
X-69111948Y100074388D01*
X-69267354Y100144897D01*
X-69446531Y100189725D01*
X-69652931Y100209873D01*
X-69890011Y100206338D01*
X-70040000Y100194131D01*
X-70219321Y100179425D01*
X-70365568Y100176229D01*
X-70486646Y100185430D01*
X-70590459Y100207911D01*
X-70684911Y100244558D01*
X-70737864Y100272280D01*
X-70815751Y100313847D01*
X-70871511Y100335159D01*
X-70917830Y100340049D01*
X-70949369Y100336144D01*
%TO.C,L2*%
G36*
X-52897347Y82965615D02*
G01*
X-52937892Y82959682D01*
X-53093659Y82924016D01*
X-53241561Y82869558D01*
X-53380206Y82797643D01*
X-53508201Y82709609D01*
X-53624155Y82606791D01*
X-53726676Y82490526D01*
X-53814373Y82362151D01*
X-53885853Y82223002D01*
X-53939726Y82074415D01*
X-53964556Y81973827D01*
X-53977529Y81887109D01*
X-53984803Y81787947D01*
X-53986277Y81684321D01*
X-53981850Y81584208D01*
X-53971421Y81495587D01*
X-53970672Y81491205D01*
X-53933769Y81339912D01*
X-53877808Y81195308D01*
X-53804294Y81059032D01*
X-53714734Y80932725D01*
X-53610635Y80818029D01*
X-53493503Y80716584D01*
X-53364844Y80630032D01*
X-53226166Y80560013D01*
X-53078974Y80508169D01*
X-53064624Y80504254D01*
X-52914791Y80472938D01*
X-52766791Y80459995D01*
X-52614179Y80464933D01*
X-52585846Y80467670D01*
X-52438562Y80493523D01*
X-52293374Y80538809D01*
X-52153174Y80601848D01*
X-52020856Y80680961D01*
X-51899311Y80774468D01*
X-51791433Y80880692D01*
X-51718872Y80970964D01*
X-51630992Y81108502D01*
X-51563573Y81248971D01*
X-51515919Y81394534D01*
X-51487333Y81547354D01*
X-51477119Y81709593D01*
X-51477074Y81721602D01*
X-51487059Y81882380D01*
X-51516172Y82036379D01*
X-51563148Y82182527D01*
X-51626724Y82319754D01*
X-51705635Y82446987D01*
X-51798617Y82563156D01*
X-51904406Y82667188D01*
X-52021739Y82758014D01*
X-52149350Y82834560D01*
X-52285976Y82895757D01*
X-52430353Y82940532D01*
X-52581216Y82967814D01*
X-52737302Y82976533D01*
X-52897347Y82965615D01*
G37*
X-52897347Y82965615D02*
X-52937892Y82959682D01*
X-53093659Y82924016D01*
X-53241561Y82869558D01*
X-53380206Y82797643D01*
X-53508201Y82709609D01*
X-53624155Y82606791D01*
X-53726676Y82490526D01*
X-53814373Y82362151D01*
X-53885853Y82223002D01*
X-53939726Y82074415D01*
X-53964556Y81973827D01*
X-53977529Y81887109D01*
X-53984803Y81787947D01*
X-53986277Y81684321D01*
X-53981850Y81584208D01*
X-53971421Y81495587D01*
X-53970672Y81491205D01*
X-53933769Y81339912D01*
X-53877808Y81195308D01*
X-53804294Y81059032D01*
X-53714734Y80932725D01*
X-53610635Y80818029D01*
X-53493503Y80716584D01*
X-53364844Y80630032D01*
X-53226166Y80560013D01*
X-53078974Y80508169D01*
X-53064624Y80504254D01*
X-52914791Y80472938D01*
X-52766791Y80459995D01*
X-52614179Y80464933D01*
X-52585846Y80467670D01*
X-52438562Y80493523D01*
X-52293374Y80538809D01*
X-52153174Y80601848D01*
X-52020856Y80680961D01*
X-51899311Y80774468D01*
X-51791433Y80880692D01*
X-51718872Y80970964D01*
X-51630992Y81108502D01*
X-51563573Y81248971D01*
X-51515919Y81394534D01*
X-51487333Y81547354D01*
X-51477119Y81709593D01*
X-51477074Y81721602D01*
X-51487059Y81882380D01*
X-51516172Y82036379D01*
X-51563148Y82182527D01*
X-51626724Y82319754D01*
X-51705635Y82446987D01*
X-51798617Y82563156D01*
X-51904406Y82667188D01*
X-52021739Y82758014D01*
X-52149350Y82834560D01*
X-52285976Y82895757D01*
X-52430353Y82940532D01*
X-52581216Y82967814D01*
X-52737302Y82976533D01*
X-52897347Y82965615D01*
G36*
X-42748554Y84012548D02*
G01*
X-42832250Y84009762D01*
X-42902383Y84004927D01*
X-42922454Y84002772D01*
X-43141650Y83965736D01*
X-43354373Y83908630D01*
X-43559836Y83831781D01*
X-43757257Y83735516D01*
X-43945849Y83620160D01*
X-44083824Y83519111D01*
X-44140633Y83471023D01*
X-44205696Y83410579D01*
X-44274565Y83342368D01*
X-44342791Y83270978D01*
X-44405927Y83200997D01*
X-44459525Y83137013D01*
X-44480296Y83110130D01*
X-44600899Y82931424D01*
X-44702672Y82744918D01*
X-44785709Y82551973D01*
X-44850102Y82353950D01*
X-44895945Y82152208D01*
X-44923330Y81948109D01*
X-44932351Y81743013D01*
X-44923101Y81538280D01*
X-44895672Y81335271D01*
X-44850159Y81135346D01*
X-44786653Y80939866D01*
X-44705249Y80750191D01*
X-44606039Y80567683D01*
X-44489116Y80393700D01*
X-44354573Y80229604D01*
X-44277696Y80148652D01*
X-44113279Y79998408D01*
X-43938714Y79866627D01*
X-43754596Y79753523D01*
X-43561523Y79659311D01*
X-43360089Y79584206D01*
X-43150889Y79528421D01*
X-42934521Y79492173D01*
X-42711579Y79475674D01*
X-42482658Y79479141D01*
X-42429846Y79482737D01*
X-42216241Y79509801D01*
X-42007697Y79556934D01*
X-41805464Y79623375D01*
X-41610788Y79708363D01*
X-41424916Y79811139D01*
X-41249097Y79930942D01*
X-41084579Y80067010D01*
X-40932607Y80218585D01*
X-40794431Y80384905D01*
X-40681841Y80548254D01*
X-40586174Y80718742D01*
X-40504238Y80902427D01*
X-40437508Y81095237D01*
X-40387456Y81293102D01*
X-40364047Y81426051D01*
X-40354782Y81510277D01*
X-40348790Y81608239D01*
X-40346067Y81713856D01*
X-40346610Y81821048D01*
X-40350417Y81923735D01*
X-40357484Y82015837D01*
X-40364373Y82070780D01*
X-40398768Y82253260D01*
X-40444988Y82424075D01*
X-40505274Y82590444D01*
X-40572041Y82739518D01*
X-40676488Y82931106D01*
X-40797223Y83109806D01*
X-40933161Y83274839D01*
X-41083219Y83425424D01*
X-41246312Y83560784D01*
X-41421355Y83680137D01*
X-41607264Y83782705D01*
X-41802956Y83867708D01*
X-42007345Y83934367D01*
X-42219348Y83981902D01*
X-42321864Y83997486D01*
X-42389702Y84004201D01*
X-42471868Y84009114D01*
X-42562785Y84012175D01*
X-42656873Y84013336D01*
X-42748554Y84012548D01*
G37*
X-42748554Y84012548D02*
X-42832250Y84009762D01*
X-42902383Y84004927D01*
X-42922454Y84002772D01*
X-43141650Y83965736D01*
X-43354373Y83908630D01*
X-43559836Y83831781D01*
X-43757257Y83735516D01*
X-43945849Y83620160D01*
X-44083824Y83519111D01*
X-44140633Y83471023D01*
X-44205696Y83410579D01*
X-44274565Y83342368D01*
X-44342791Y83270978D01*
X-44405927Y83200997D01*
X-44459525Y83137013D01*
X-44480296Y83110130D01*
X-44600899Y82931424D01*
X-44702672Y82744918D01*
X-44785709Y82551973D01*
X-44850102Y82353950D01*
X-44895945Y82152208D01*
X-44923330Y81948109D01*
X-44932351Y81743013D01*
X-44923101Y81538280D01*
X-44895672Y81335271D01*
X-44850159Y81135346D01*
X-44786653Y80939866D01*
X-44705249Y80750191D01*
X-44606039Y80567683D01*
X-44489116Y80393700D01*
X-44354573Y80229604D01*
X-44277696Y80148652D01*
X-44113279Y79998408D01*
X-43938714Y79866627D01*
X-43754596Y79753523D01*
X-43561523Y79659311D01*
X-43360089Y79584206D01*
X-43150889Y79528421D01*
X-42934521Y79492173D01*
X-42711579Y79475674D01*
X-42482658Y79479141D01*
X-42429846Y79482737D01*
X-42216241Y79509801D01*
X-42007697Y79556934D01*
X-41805464Y79623375D01*
X-41610788Y79708363D01*
X-41424916Y79811139D01*
X-41249097Y79930942D01*
X-41084579Y80067010D01*
X-40932607Y80218585D01*
X-40794431Y80384905D01*
X-40681841Y80548254D01*
X-40586174Y80718742D01*
X-40504238Y80902427D01*
X-40437508Y81095237D01*
X-40387456Y81293102D01*
X-40364047Y81426051D01*
X-40354782Y81510277D01*
X-40348790Y81608239D01*
X-40346067Y81713856D01*
X-40346610Y81821048D01*
X-40350417Y81923735D01*
X-40357484Y82015837D01*
X-40364373Y82070780D01*
X-40398768Y82253260D01*
X-40444988Y82424075D01*
X-40505274Y82590444D01*
X-40572041Y82739518D01*
X-40676488Y82931106D01*
X-40797223Y83109806D01*
X-40933161Y83274839D01*
X-41083219Y83425424D01*
X-41246312Y83560784D01*
X-41421355Y83680137D01*
X-41607264Y83782705D01*
X-41802956Y83867708D01*
X-42007345Y83934367D01*
X-42219348Y83981902D01*
X-42321864Y83997486D01*
X-42389702Y84004201D01*
X-42471868Y84009114D01*
X-42562785Y84012175D01*
X-42656873Y84013336D01*
X-42748554Y84012548D01*
G36*
X-40552995Y76256675D02*
G01*
X-40645113Y76254272D01*
X-40726101Y76249731D01*
X-40783452Y76243997D01*
X-41022960Y76202507D01*
X-41252637Y76142293D01*
X-41472864Y76063180D01*
X-41684021Y75964995D01*
X-41886489Y75847565D01*
X-42080646Y75710714D01*
X-42239885Y75578589D01*
X-42284842Y75536965D01*
X-42332480Y75490115D01*
X-42380389Y75440718D01*
X-42426157Y75391454D01*
X-42467374Y75345004D01*
X-42501629Y75304046D01*
X-42526510Y75271262D01*
X-42539608Y75249330D01*
X-42541017Y75243856D01*
X-42538539Y75227467D01*
X-42531693Y75194514D01*
X-42521365Y75148947D01*
X-42508438Y75094716D01*
X-42499530Y75058569D01*
X-42420029Y74698055D01*
X-42361646Y74338243D01*
X-42324354Y73978730D01*
X-42308125Y73619111D01*
X-42312932Y73258979D01*
X-42338745Y72897931D01*
X-42346191Y72827679D01*
X-42369125Y72649969D01*
X-42399303Y72460180D01*
X-42435440Y72265612D01*
X-42476249Y72073568D01*
X-42487620Y72024299D01*
X-42509696Y71930298D01*
X-42480451Y71891956D01*
X-42451641Y71857720D01*
X-42410307Y71813312D01*
X-42360080Y71762255D01*
X-42304588Y71708071D01*
X-42247459Y71654280D01*
X-42192324Y71604406D01*
X-42142811Y71561969D01*
X-42128095Y71550014D01*
X-41936320Y71410343D01*
X-41733803Y71288550D01*
X-41521884Y71185206D01*
X-41301906Y71100882D01*
X-41075210Y71036147D01*
X-40843138Y70991572D01*
X-40801438Y70985804D01*
X-40731558Y70978967D01*
X-40646217Y70974175D01*
X-40550745Y70971423D01*
X-40450474Y70970702D01*
X-40350736Y70972004D01*
X-40256861Y70975323D01*
X-40174181Y70980650D01*
X-40116424Y70986787D01*
X-39888833Y71028023D01*
X-39664873Y71089089D01*
X-39446804Y71169062D01*
X-39236887Y71267022D01*
X-39037381Y71382046D01*
X-38880113Y71490719D01*
X-38697006Y71640857D01*
X-38529563Y71804938D01*
X-38378279Y71982125D01*
X-38243651Y72171584D01*
X-38126175Y72372479D01*
X-38026348Y72583975D01*
X-37944666Y72805237D01*
X-37881625Y73035429D01*
X-37843405Y73235307D01*
X-37834946Y73307159D01*
X-37828819Y73394959D01*
X-37825023Y73493606D01*
X-37823560Y73598000D01*
X-37824429Y73703041D01*
X-37827631Y73803630D01*
X-37833167Y73894667D01*
X-37841037Y73971051D01*
X-37843335Y73987037D01*
X-37890050Y74226466D01*
X-37954724Y74454756D01*
X-38037549Y74672290D01*
X-38138719Y74879453D01*
X-38258425Y75076626D01*
X-38396862Y75264195D01*
X-38554220Y75442543D01*
X-38596544Y75485739D01*
X-38772322Y75647463D01*
X-38957383Y75790267D01*
X-39152033Y75914302D01*
X-39356580Y76019720D01*
X-39571329Y76106674D01*
X-39796586Y76175315D01*
X-40032657Y76225796D01*
X-40111130Y76238227D01*
X-40179322Y76245827D01*
X-40262910Y76251517D01*
X-40356588Y76255252D01*
X-40455052Y76256987D01*
X-40552995Y76256675D01*
G37*
X-40552995Y76256675D02*
X-40645113Y76254272D01*
X-40726101Y76249731D01*
X-40783452Y76243997D01*
X-41022960Y76202507D01*
X-41252637Y76142293D01*
X-41472864Y76063180D01*
X-41684021Y75964995D01*
X-41886489Y75847565D01*
X-42080646Y75710714D01*
X-42239885Y75578589D01*
X-42284842Y75536965D01*
X-42332480Y75490115D01*
X-42380389Y75440718D01*
X-42426157Y75391454D01*
X-42467374Y75345004D01*
X-42501629Y75304046D01*
X-42526510Y75271262D01*
X-42539608Y75249330D01*
X-42541017Y75243856D01*
X-42538539Y75227467D01*
X-42531693Y75194514D01*
X-42521365Y75148947D01*
X-42508438Y75094716D01*
X-42499530Y75058569D01*
X-42420029Y74698055D01*
X-42361646Y74338243D01*
X-42324354Y73978730D01*
X-42308125Y73619111D01*
X-42312932Y73258979D01*
X-42338745Y72897931D01*
X-42346191Y72827679D01*
X-42369125Y72649969D01*
X-42399303Y72460180D01*
X-42435440Y72265612D01*
X-42476249Y72073568D01*
X-42487620Y72024299D01*
X-42509696Y71930298D01*
X-42480451Y71891956D01*
X-42451641Y71857720D01*
X-42410307Y71813312D01*
X-42360080Y71762255D01*
X-42304588Y71708071D01*
X-42247459Y71654280D01*
X-42192324Y71604406D01*
X-42142811Y71561969D01*
X-42128095Y71550014D01*
X-41936320Y71410343D01*
X-41733803Y71288550D01*
X-41521884Y71185206D01*
X-41301906Y71100882D01*
X-41075210Y71036147D01*
X-40843138Y70991572D01*
X-40801438Y70985804D01*
X-40731558Y70978967D01*
X-40646217Y70974175D01*
X-40550745Y70971423D01*
X-40450474Y70970702D01*
X-40350736Y70972004D01*
X-40256861Y70975323D01*
X-40174181Y70980650D01*
X-40116424Y70986787D01*
X-39888833Y71028023D01*
X-39664873Y71089089D01*
X-39446804Y71169062D01*
X-39236887Y71267022D01*
X-39037381Y71382046D01*
X-38880113Y71490719D01*
X-38697006Y71640857D01*
X-38529563Y71804938D01*
X-38378279Y71982125D01*
X-38243651Y72171584D01*
X-38126175Y72372479D01*
X-38026348Y72583975D01*
X-37944666Y72805237D01*
X-37881625Y73035429D01*
X-37843405Y73235307D01*
X-37834946Y73307159D01*
X-37828819Y73394959D01*
X-37825023Y73493606D01*
X-37823560Y73598000D01*
X-37824429Y73703041D01*
X-37827631Y73803630D01*
X-37833167Y73894667D01*
X-37841037Y73971051D01*
X-37843335Y73987037D01*
X-37890050Y74226466D01*
X-37954724Y74454756D01*
X-38037549Y74672290D01*
X-38138719Y74879453D01*
X-38258425Y75076626D01*
X-38396862Y75264195D01*
X-38554220Y75442543D01*
X-38596544Y75485739D01*
X-38772322Y75647463D01*
X-38957383Y75790267D01*
X-39152033Y75914302D01*
X-39356580Y76019720D01*
X-39571329Y76106674D01*
X-39796586Y76175315D01*
X-40032657Y76225796D01*
X-40111130Y76238227D01*
X-40179322Y76245827D01*
X-40262910Y76251517D01*
X-40356588Y76255252D01*
X-40455052Y76256987D01*
X-40552995Y76256675D01*
G36*
X-59088239Y72155633D02*
G01*
X-59195826Y72144972D01*
X-59298202Y72125888D01*
X-59402904Y72097206D01*
X-59439058Y72085498D01*
X-59599303Y72020966D01*
X-59749365Y71938653D01*
X-59888039Y71839956D01*
X-60014119Y71726271D01*
X-60126401Y71598997D01*
X-60223679Y71459529D01*
X-60304749Y71309265D01*
X-60368406Y71149601D01*
X-60413445Y70981935D01*
X-60419969Y70948354D01*
X-60430179Y70872538D01*
X-60436348Y70783753D01*
X-60438482Y70688614D01*
X-60436586Y70593738D01*
X-60430668Y70505744D01*
X-60420732Y70431247D01*
X-60419489Y70424645D01*
X-60375419Y70250801D01*
X-60313400Y70086797D01*
X-60234511Y69933647D01*
X-60139831Y69792366D01*
X-60030436Y69663968D01*
X-59907405Y69549469D01*
X-59771816Y69449882D01*
X-59624747Y69366222D01*
X-59467275Y69299505D01*
X-59300480Y69250745D01*
X-59142879Y69223002D01*
X-59081706Y69217641D01*
X-59009131Y69214581D01*
X-58933571Y69213916D01*
X-58863443Y69215741D01*
X-58814381Y69219321D01*
X-58638954Y69248487D01*
X-58470763Y69297390D01*
X-58310807Y69365551D01*
X-58160086Y69452493D01*
X-58019599Y69557735D01*
X-57924620Y69645301D01*
X-57808561Y69775663D01*
X-57711129Y69914000D01*
X-57631991Y70058894D01*
X-57570812Y70208926D01*
X-57527257Y70362677D01*
X-57500992Y70518729D01*
X-57491681Y70675662D01*
X-57498991Y70832059D01*
X-57522586Y70986499D01*
X-57562133Y71137566D01*
X-57617296Y71283839D01*
X-57687741Y71423900D01*
X-57773134Y71556331D01*
X-57873138Y71679712D01*
X-57987421Y71792626D01*
X-58115648Y71893652D01*
X-58257483Y71981373D01*
X-58412592Y72054370D01*
X-58500441Y72086727D01*
X-58607177Y72118667D01*
X-58709107Y72140545D01*
X-58813799Y72153532D01*
X-58928820Y72158799D01*
X-58967903Y72159047D01*
X-59088239Y72155633D01*
G37*
X-59088239Y72155633D02*
X-59195826Y72144972D01*
X-59298202Y72125888D01*
X-59402904Y72097206D01*
X-59439058Y72085498D01*
X-59599303Y72020966D01*
X-59749365Y71938653D01*
X-59888039Y71839956D01*
X-60014119Y71726271D01*
X-60126401Y71598997D01*
X-60223679Y71459529D01*
X-60304749Y71309265D01*
X-60368406Y71149601D01*
X-60413445Y70981935D01*
X-60419969Y70948354D01*
X-60430179Y70872538D01*
X-60436348Y70783753D01*
X-60438482Y70688614D01*
X-60436586Y70593738D01*
X-60430668Y70505744D01*
X-60420732Y70431247D01*
X-60419489Y70424645D01*
X-60375419Y70250801D01*
X-60313400Y70086797D01*
X-60234511Y69933647D01*
X-60139831Y69792366D01*
X-60030436Y69663968D01*
X-59907405Y69549469D01*
X-59771816Y69449882D01*
X-59624747Y69366222D01*
X-59467275Y69299505D01*
X-59300480Y69250745D01*
X-59142879Y69223002D01*
X-59081706Y69217641D01*
X-59009131Y69214581D01*
X-58933571Y69213916D01*
X-58863443Y69215741D01*
X-58814381Y69219321D01*
X-58638954Y69248487D01*
X-58470763Y69297390D01*
X-58310807Y69365551D01*
X-58160086Y69452493D01*
X-58019599Y69557735D01*
X-57924620Y69645301D01*
X-57808561Y69775663D01*
X-57711129Y69914000D01*
X-57631991Y70058894D01*
X-57570812Y70208926D01*
X-57527257Y70362677D01*
X-57500992Y70518729D01*
X-57491681Y70675662D01*
X-57498991Y70832059D01*
X-57522586Y70986499D01*
X-57562133Y71137566D01*
X-57617296Y71283839D01*
X-57687741Y71423900D01*
X-57773134Y71556331D01*
X-57873138Y71679712D01*
X-57987421Y71792626D01*
X-58115648Y71893652D01*
X-58257483Y71981373D01*
X-58412592Y72054370D01*
X-58500441Y72086727D01*
X-58607177Y72118667D01*
X-58709107Y72140545D01*
X-58813799Y72153532D01*
X-58928820Y72158799D01*
X-58967903Y72159047D01*
X-59088239Y72155633D01*
G36*
X-53160325Y66265668D02*
G01*
X-53234976Y66260808D01*
X-53252627Y66258907D01*
X-53448617Y66225134D01*
X-53637764Y66172125D01*
X-53818921Y66100917D01*
X-53990936Y66012545D01*
X-54152662Y65908045D01*
X-54302947Y65788452D01*
X-54440642Y65654804D01*
X-54564599Y65508134D01*
X-54673667Y65349481D01*
X-54766697Y65179878D01*
X-54842539Y65000363D01*
X-54900045Y64811971D01*
X-54911272Y64764278D01*
X-54946040Y64560687D01*
X-54959737Y64358846D01*
X-54952414Y64159164D01*
X-54924121Y63962047D01*
X-54874911Y63767902D01*
X-54804832Y63577138D01*
X-54748557Y63456024D01*
X-54648455Y63280432D01*
X-54531988Y63118060D01*
X-54399875Y62969619D01*
X-54252833Y62835817D01*
X-54091581Y62717364D01*
X-53916838Y62614969D01*
X-53875198Y62593952D01*
X-53689035Y62514332D01*
X-53496839Y62454845D01*
X-53299725Y62415692D01*
X-53098808Y62397074D01*
X-52895205Y62399190D01*
X-52824203Y62404800D01*
X-52635842Y62433289D01*
X-52449704Y62481475D01*
X-52268120Y62548152D01*
X-52093422Y62632115D01*
X-51927940Y62732159D01*
X-51774004Y62847080D01*
X-51633947Y62975673D01*
X-51556482Y63060128D01*
X-51434543Y63217762D01*
X-51329195Y63386083D01*
X-51241382Y63562972D01*
X-51172045Y63746309D01*
X-51122126Y63933973D01*
X-51095428Y64097368D01*
X-51088353Y64187094D01*
X-51085790Y64289406D01*
X-51087485Y64398063D01*
X-51093182Y64506824D01*
X-51102627Y64609445D01*
X-51115564Y64699685D01*
X-51121207Y64728789D01*
X-51173191Y64925031D01*
X-51243636Y65111869D01*
X-51331594Y65288366D01*
X-51436117Y65453586D01*
X-51556257Y65606590D01*
X-51691067Y65746442D01*
X-51839597Y65872205D01*
X-52000899Y65982941D01*
X-52174027Y66077714D01*
X-52358030Y66155585D01*
X-52551963Y66215618D01*
X-52647635Y66237686D01*
X-52712898Y66248173D01*
X-52793675Y66256593D01*
X-52884385Y66262747D01*
X-52979450Y66266442D01*
X-53073289Y66267481D01*
X-53160325Y66265668D01*
G37*
X-53160325Y66265668D02*
X-53234976Y66260808D01*
X-53252627Y66258907D01*
X-53448617Y66225134D01*
X-53637764Y66172125D01*
X-53818921Y66100917D01*
X-53990936Y66012545D01*
X-54152662Y65908045D01*
X-54302947Y65788452D01*
X-54440642Y65654804D01*
X-54564599Y65508134D01*
X-54673667Y65349481D01*
X-54766697Y65179878D01*
X-54842539Y65000363D01*
X-54900045Y64811971D01*
X-54911272Y64764278D01*
X-54946040Y64560687D01*
X-54959737Y64358846D01*
X-54952414Y64159164D01*
X-54924121Y63962047D01*
X-54874911Y63767902D01*
X-54804832Y63577138D01*
X-54748557Y63456024D01*
X-54648455Y63280432D01*
X-54531988Y63118060D01*
X-54399875Y62969619D01*
X-54252833Y62835817D01*
X-54091581Y62717364D01*
X-53916838Y62614969D01*
X-53875198Y62593952D01*
X-53689035Y62514332D01*
X-53496839Y62454845D01*
X-53299725Y62415692D01*
X-53098808Y62397074D01*
X-52895205Y62399190D01*
X-52824203Y62404800D01*
X-52635842Y62433289D01*
X-52449704Y62481475D01*
X-52268120Y62548152D01*
X-52093422Y62632115D01*
X-51927940Y62732159D01*
X-51774004Y62847080D01*
X-51633947Y62975673D01*
X-51556482Y63060128D01*
X-51434543Y63217762D01*
X-51329195Y63386083D01*
X-51241382Y63562972D01*
X-51172045Y63746309D01*
X-51122126Y63933973D01*
X-51095428Y64097368D01*
X-51088353Y64187094D01*
X-51085790Y64289406D01*
X-51087485Y64398063D01*
X-51093182Y64506824D01*
X-51102627Y64609445D01*
X-51115564Y64699685D01*
X-51121207Y64728789D01*
X-51173191Y64925031D01*
X-51243636Y65111869D01*
X-51331594Y65288366D01*
X-51436117Y65453586D01*
X-51556257Y65606590D01*
X-51691067Y65746442D01*
X-51839597Y65872205D01*
X-52000899Y65982941D01*
X-52174027Y66077714D01*
X-52358030Y66155585D01*
X-52551963Y66215618D01*
X-52647635Y66237686D01*
X-52712898Y66248173D01*
X-52793675Y66256593D01*
X-52884385Y66262747D01*
X-52979450Y66266442D01*
X-53073289Y66267481D01*
X-53160325Y66265668D01*
%TD*%
D11*
%TO.C,SW1*%
X-64250000Y58750000D03*
X-64250000Y54250000D03*
G36*
G01*
X-71549000Y58001000D02*
X-71549000Y59499000D01*
G75*
G02*
X-71499000Y59549000I50000J0D01*
G01*
X-70001000Y59549000D01*
G75*
G02*
X-69951000Y59499000I0J-50000D01*
G01*
X-69951000Y58001000D01*
G75*
G02*
X-70001000Y57951000I-50000J0D01*
G01*
X-71499000Y57951000D01*
G75*
G02*
X-71549000Y58001000I0J50000D01*
G01*
G37*
X-70750000Y54250000D03*
%TD*%
D12*
%TO.C,P1*%
X-67500000Y123230000D03*
X-64960000Y123230000D03*
X-64960000Y125770000D03*
X-67500000Y125770000D03*
G36*
G01*
X-69240000Y122080000D02*
X-70840000Y122080000D01*
G75*
G02*
X-70890000Y122130000I0J50000D01*
G01*
X-70890000Y124330000D01*
G75*
G02*
X-70840000Y124380000I50000J0D01*
G01*
X-69240000Y124380000D01*
G75*
G02*
X-69190000Y124330000I0J-50000D01*
G01*
X-69190000Y122130000D01*
G75*
G02*
X-69240000Y122080000I-50000J0D01*
G01*
G37*
X-70040000Y125770000D03*
%TD*%
%TO.C,P3*%
G36*
G01*
X-13478376Y57556969D02*
X-13478376Y57556969D01*
G75*
G02*
X-13520328Y58758319I579699J621651D01*
G01*
X-13111128Y59197131D01*
G75*
G02*
X-11909778Y59239083I621651J-579699D01*
G01*
X-11909778Y59239083D01*
G75*
G02*
X-11867826Y58037733I-579699J-621651D01*
G01*
X-12277026Y57598921D01*
G75*
G02*
X-13478376Y57556969I-621651J579699D01*
G01*
G37*
G36*
G01*
X-11682325Y55760917D02*
X-11682325Y55760917D01*
G75*
G02*
X-11724277Y56962267I579699J621651D01*
G01*
X-11315077Y57401079D01*
G75*
G02*
X-10113727Y57443031I621651J-579699D01*
G01*
X-10113727Y57443031D01*
G75*
G02*
X-10071775Y56241681I-579699J-621651D01*
G01*
X-10480975Y55802869D01*
G75*
G02*
X-11682325Y55760917I-621651J579699D01*
G01*
G37*
G36*
G01*
X-9886273Y53964866D02*
X-9886273Y53964866D01*
G75*
G02*
X-9928225Y55166216I579699J621651D01*
G01*
X-9519025Y55605028D01*
G75*
G02*
X-8317675Y55646980I621651J-579699D01*
G01*
X-8317675Y55646980D01*
G75*
G02*
X-8275723Y54445630I-579699J-621651D01*
G01*
X-8684923Y54006818D01*
G75*
G02*
X-9886273Y53964866I-621651J579699D01*
G01*
G37*
G36*
G01*
X-8090222Y52168815D02*
X-8090222Y52168815D01*
G75*
G02*
X-8132174Y53370165I579699J621651D01*
G01*
X-7722974Y53808977D01*
G75*
G02*
X-6521624Y53850929I621651J-579699D01*
G01*
X-6521624Y53850929D01*
G75*
G02*
X-6479672Y52649579I-579699J-621651D01*
G01*
X-6888872Y52210767D01*
G75*
G02*
X-8090222Y52168815I-621651J579699D01*
G01*
G37*
G36*
G01*
X-6294171Y53964866D02*
X-6294171Y53964866D01*
G75*
G02*
X-6336123Y55166216I579699J621651D01*
G01*
X-5926923Y55605028D01*
G75*
G02*
X-4725573Y55646980I621651J-579699D01*
G01*
X-4725573Y55646980D01*
G75*
G02*
X-4683621Y54445630I-579699J-621651D01*
G01*
X-5092821Y54006818D01*
G75*
G02*
X-6294171Y53964866I-621651J579699D01*
G01*
G37*
G36*
G01*
X-8090222Y55760917D02*
X-8090222Y55760917D01*
G75*
G02*
X-8132174Y56962267I579699J621651D01*
G01*
X-7722974Y57401079D01*
G75*
G02*
X-6521624Y57443031I621651J-579699D01*
G01*
X-6521624Y57443031D01*
G75*
G02*
X-6479672Y56241681I-579699J-621651D01*
G01*
X-6888872Y55802869D01*
G75*
G02*
X-8090222Y55760917I-621651J579699D01*
G01*
G37*
G36*
G01*
X-9886273Y57556969D02*
X-9886273Y57556969D01*
G75*
G02*
X-9928225Y58758319I579699J621651D01*
G01*
X-9519025Y59197131D01*
G75*
G02*
X-8317675Y59239083I621651J-579699D01*
G01*
X-8317675Y59239083D01*
G75*
G02*
X-8275723Y58037733I-579699J-621651D01*
G01*
X-8684923Y57598921D01*
G75*
G02*
X-9886273Y57556969I-621651J579699D01*
G01*
G37*
G36*
G01*
X-11682325Y59353020D02*
X-11682325Y59353020D01*
G75*
G02*
X-11724277Y60554370I579699J621651D01*
G01*
X-11315077Y60993182D01*
G75*
G02*
X-10113727Y61035134I621651J-579699D01*
G01*
X-10113727Y61035134D01*
G75*
G02*
X-10071775Y59833784I-579699J-621651D01*
G01*
X-10480975Y59394972D01*
G75*
G02*
X-11682325Y59353020I-621651J579699D01*
G01*
G37*
G36*
G01*
X-14737615Y58815219D02*
X-15868986Y59946590D01*
G75*
G02*
X-15868986Y60017300I35355J35355D01*
G01*
X-14313351Y61572935D01*
G75*
G02*
X-14242641Y61572935I35355J-35355D01*
G01*
X-13111270Y60441564D01*
G75*
G02*
X-13111270Y60370854I-35355J-35355D01*
G01*
X-14666905Y58815219D01*
G75*
G02*
X-14737615Y58815219I-35355J35355D01*
G01*
G37*
G36*
G01*
X-13478376Y61149071D02*
X-13478376Y61149071D01*
G75*
G02*
X-13520328Y62350421I579699J621651D01*
G01*
X-13111128Y62789233D01*
G75*
G02*
X-11909778Y62831185I621651J-579699D01*
G01*
X-11909778Y62831185D01*
G75*
G02*
X-11867826Y61629835I-579699J-621651D01*
G01*
X-12277026Y61191023D01*
G75*
G02*
X-13478376Y61149071I-621651J579699D01*
G01*
G37*
%TD*%
D13*
%TO.C,H5*%
X-67500000Y132500000D03*
%TD*%
D14*
%TO.C,J7*%
X-75300000Y43600000D03*
X-62000000Y21900000D03*
D15*
X-78930000Y44910000D03*
X-78930000Y42370000D03*
X-78930000Y39830000D03*
X-78930000Y37290000D03*
X-78930000Y34750000D03*
X-78930000Y32210000D03*
X-78930000Y29670000D03*
X-78930000Y27130000D03*
X-78930000Y24590000D03*
X-78930000Y22050000D03*
X-78930000Y19510000D03*
X-78930000Y16970000D03*
X-78930000Y14430000D03*
X-56070000Y44910000D03*
X-56070000Y42370000D03*
X-56070000Y39830000D03*
X-56070000Y37290000D03*
X-56070000Y34750000D03*
X-56070000Y32210000D03*
X-56070000Y29670000D03*
X-56070000Y27130000D03*
X-56070000Y24590000D03*
X-56070000Y22050000D03*
X-56070000Y19510000D03*
X-56070000Y16970000D03*
G36*
G01*
X-57320000Y13630000D02*
X-57320000Y15230000D01*
G75*
G02*
X-57270000Y15280000I50000J0D01*
G01*
X-54870000Y15280000D01*
G75*
G02*
X-54820000Y15230000I0J-50000D01*
G01*
X-54820000Y13630000D01*
G75*
G02*
X-54870000Y13580000I-50000J0D01*
G01*
X-57270000Y13580000D01*
G75*
G02*
X-57320000Y13630000I0J50000D01*
G01*
G37*
%TD*%
%TO.C,S1*%
X-33500000Y100120000D03*
X-33500000Y97580000D03*
X-33500000Y95040000D03*
X-33500000Y92500000D03*
X-33500000Y89960000D03*
X-33500000Y87420000D03*
X-33500000Y84880000D03*
X-33500000Y82340000D03*
%TD*%
%TO.C,P2*%
G36*
G01*
X-125380904Y56788801D02*
X-125380904Y56788801D01*
G75*
G02*
X-126582986Y56788801I-601041J601041D01*
G01*
X-127007250Y57213065D01*
G75*
G02*
X-127007250Y58415147I601041J601041D01*
G01*
X-127007250Y58415147D01*
G75*
G02*
X-125805168Y58415147I601041J-601041D01*
G01*
X-125380904Y57990883D01*
G75*
G02*
X-125380904Y56788801I-601041J-601041D01*
G01*
G37*
G36*
G01*
X-123019168Y55558436D02*
X-124150539Y54427065D01*
G75*
G02*
X-124221249Y54427065I-35355J35355D01*
G01*
X-125776884Y55982700D01*
G75*
G02*
X-125776884Y56053410I35355J35355D01*
G01*
X-124645513Y57184781D01*
G75*
G02*
X-124574803Y57184781I35355J-35355D01*
G01*
X-123019168Y55629146D01*
G75*
G02*
X-123019168Y55558436I-35355J-35355D01*
G01*
G37*
G36*
G01*
X-123584853Y58584853D02*
X-123584853Y58584853D01*
G75*
G02*
X-124786935Y58584853I-601041J601041D01*
G01*
X-125211199Y59009117D01*
G75*
G02*
X-125211199Y60211199I601041J601041D01*
G01*
X-125211199Y60211199D01*
G75*
G02*
X-124009117Y60211199I601041J-601041D01*
G01*
X-123584853Y59786935D01*
G75*
G02*
X-123584853Y58584853I-601041J-601041D01*
G01*
G37*
G36*
G01*
X-121788801Y60380904D02*
X-121788801Y60380904D01*
G75*
G02*
X-122990883Y60380904I-601041J601041D01*
G01*
X-123415147Y60805168D01*
G75*
G02*
X-123415147Y62007250I601041J601041D01*
G01*
X-123415147Y62007250D01*
G75*
G02*
X-122213065Y62007250I601041J-601041D01*
G01*
X-121788801Y61582986D01*
G75*
G02*
X-121788801Y60380904I-601041J-601041D01*
G01*
G37*
G36*
G01*
X-119992750Y58584853D02*
X-119992750Y58584853D01*
G75*
G02*
X-121194832Y58584853I-601041J601041D01*
G01*
X-121619096Y59009117D01*
G75*
G02*
X-121619096Y60211199I601041J601041D01*
G01*
X-121619096Y60211199D01*
G75*
G02*
X-120417014Y60211199I601041J-601041D01*
G01*
X-119992750Y59786935D01*
G75*
G02*
X-119992750Y58584853I-601041J-601041D01*
G01*
G37*
G36*
G01*
X-121788801Y56788801D02*
X-121788801Y56788801D01*
G75*
G02*
X-122990883Y56788801I-601041J601041D01*
G01*
X-123415147Y57213065D01*
G75*
G02*
X-123415147Y58415147I601041J601041D01*
G01*
X-123415147Y58415147D01*
G75*
G02*
X-122213065Y58415147I601041J-601041D01*
G01*
X-121788801Y57990883D01*
G75*
G02*
X-121788801Y56788801I-601041J-601041D01*
G01*
G37*
%TD*%
M02*
