%TF.GenerationSoftware,KiCad,Pcbnew,(5.1.10)-1*%
%TF.CreationDate,2021-11-06T18:12:49+11:00*%
%TF.ProjectId,swag-badge,73776167-2d62-4616-9467-652e6b696361,rev?*%
%TF.SameCoordinates,PX405f7e0PYfa3044a0*%
%TF.FileFunction,Legend,Top*%
%TF.FilePolarity,Positive*%
%FSLAX46Y46*%
G04 Gerber Fmt 4.6, Leading zero omitted, Abs format (unit mm)*
G04 Created by KiCad (PCBNEW (5.1.10)-1) date 2021-11-06 18:12:49*
%MOMM*%
%LPD*%
G01*
G04 APERTURE LIST*
%ADD10C,1.250000*%
%ADD11C,0.010000*%
%ADD12C,0.200000*%
%ADD13C,0.127000*%
%ADD14C,0.120000*%
%ADD15C,0.150000*%
%ADD16O,1.700000X2.300000*%
%ADD17O,2.500000X1.700000*%
%ADD18C,1.598000*%
%ADD19O,14.100000X3.100000*%
%ADD20C,4.900000*%
G04 APERTURE END LIST*
D10*
%TO.C,P1*%
X-74358000Y127929000D02*
G75*
G03*
X-74358000Y127929000I-381000J0D01*
G01*
%TO.C,P3*%
X-10517026Y63247364D02*
G75*
G03*
X-10517026Y63247364I-381000J0D01*
G01*
%TO.C,P2*%
X-129966364Y56601974D02*
G75*
G03*
X-129966364Y56601974I-381000J0D01*
G01*
D11*
%TO.C,Ref\u002A\u002A*%
G36*
X-95716800Y21753282D02*
G01*
X-95733817Y21664203D01*
X-95763646Y21547067D01*
X-95802854Y21412911D01*
X-95848007Y21272768D01*
X-95895672Y21137677D01*
X-95942418Y21018671D01*
X-95952936Y20994147D01*
X-96131757Y20635996D01*
X-96343972Y20303065D01*
X-96590566Y19994078D01*
X-96872526Y19707757D01*
X-97090469Y19520936D01*
X-97332787Y19323088D01*
X-97544879Y19141325D01*
X-97732722Y18969788D01*
X-97902293Y18802620D01*
X-98059571Y18633964D01*
X-98210532Y18457963D01*
X-98338577Y18297916D01*
X-98624048Y17897678D01*
X-98876548Y17474782D01*
X-99094978Y17032791D01*
X-99278238Y16575265D01*
X-99425228Y16105766D01*
X-99534848Y15627856D01*
X-99605997Y15145096D01*
X-99637576Y14661047D01*
X-99628484Y14179271D01*
X-99625342Y14132016D01*
X-99568119Y13611482D01*
X-99471641Y13105082D01*
X-99336688Y12614260D01*
X-99164037Y12140462D01*
X-98954467Y11685133D01*
X-98708757Y11249720D01*
X-98427685Y10835666D01*
X-98112029Y10444419D01*
X-97762567Y10077422D01*
X-97380079Y9736123D01*
X-97168000Y9568986D01*
X-96752334Y9281513D01*
X-96314153Y9028959D01*
X-95856627Y8812592D01*
X-95382925Y8633681D01*
X-94896216Y8493495D01*
X-94399672Y8393300D01*
X-94140402Y8357630D01*
X-94010668Y8346299D01*
X-93850163Y8338023D01*
X-93668869Y8332808D01*
X-93476770Y8330662D01*
X-93283850Y8331591D01*
X-93100091Y8335601D01*
X-92935477Y8342700D01*
X-92799992Y8352894D01*
X-92765333Y8356700D01*
X-92254246Y8439126D01*
X-91757887Y8560141D01*
X-91277986Y8718527D01*
X-90816268Y8913069D01*
X-90374461Y9142551D01*
X-89954293Y9405755D01*
X-89557490Y9701465D01*
X-89185780Y10028466D01*
X-88840889Y10385540D01*
X-88524546Y10771471D01*
X-88238477Y11185043D01*
X-87984409Y11625040D01*
X-87906534Y11778583D01*
X-87698505Y12244832D01*
X-87531998Y12711228D01*
X-87406312Y13180981D01*
X-87320745Y13657300D01*
X-87274598Y14143395D01*
X-87267169Y14642477D01*
X-87268725Y14699583D01*
X-87293213Y15110181D01*
X-87341507Y15498307D01*
X-87416037Y15878027D01*
X-87519231Y16263408D01*
X-87562979Y16403500D01*
X-87739493Y16884379D01*
X-87951092Y17342385D01*
X-88198222Y17778154D01*
X-88481330Y18192322D01*
X-88800863Y18585526D01*
X-89157266Y18958401D01*
X-89550987Y19311584D01*
X-89675000Y19412641D01*
X-89788149Y19504869D01*
X-89903714Y19602546D01*
X-90011870Y19697131D01*
X-90102790Y19780081D01*
X-90148601Y19824323D01*
X-90409004Y20113945D01*
X-90638646Y20429133D01*
X-90834737Y20765134D01*
X-90994485Y21117193D01*
X-91110080Y21462333D01*
X-91149351Y21607736D01*
X-91175646Y21715775D01*
X-91189489Y21789211D01*
X-91191406Y21830802D01*
X-91182545Y21843333D01*
X-91125318Y21839807D01*
X-91031963Y21829798D01*
X-90908045Y21814161D01*
X-90759129Y21793749D01*
X-90590780Y21769417D01*
X-90408564Y21742018D01*
X-90218044Y21712406D01*
X-90024786Y21681437D01*
X-89834355Y21649963D01*
X-89652316Y21618839D01*
X-89484233Y21588918D01*
X-89335672Y21561056D01*
X-89307905Y21555631D01*
X-88474014Y21380415D01*
X-87668194Y21188965D01*
X-86891227Y20981691D01*
X-86143893Y20759001D01*
X-85426976Y20521306D01*
X-84741257Y20269015D01*
X-84087517Y20002539D01*
X-83466538Y19722286D01*
X-82879103Y19428667D01*
X-82325992Y19122091D01*
X-81807989Y18802968D01*
X-81325873Y18471707D01*
X-80880428Y18128719D01*
X-80472435Y17774414D01*
X-80102676Y17409199D01*
X-79771932Y17033487D01*
X-79480986Y16647685D01*
X-79249044Y16284032D01*
X-79047706Y15900430D01*
X-78887148Y15510206D01*
X-78767581Y15114753D01*
X-78689219Y14715467D01*
X-78652273Y14313743D01*
X-78656957Y13910975D01*
X-78703482Y13508559D01*
X-78775148Y13171456D01*
X-78898622Y12775820D01*
X-79063326Y12386421D01*
X-79268489Y12004220D01*
X-79513337Y11630178D01*
X-79797100Y11265257D01*
X-80119004Y10910417D01*
X-80478276Y10566619D01*
X-80874145Y10234824D01*
X-81305838Y9915993D01*
X-81494083Y9788533D01*
X-81697828Y9655872D01*
X-81882313Y9540316D01*
X-82058971Y9435280D01*
X-82239237Y9334179D01*
X-82434544Y9230428D01*
X-82656326Y9117442D01*
X-82679416Y9105874D01*
X-83331867Y8800894D01*
X-84017251Y8522368D01*
X-84735418Y8270340D01*
X-85486220Y8044852D01*
X-86269505Y7845945D01*
X-87085124Y7673664D01*
X-87932928Y7528049D01*
X-88553166Y7441023D01*
X-88809765Y7409748D01*
X-89075786Y7380457D01*
X-89355366Y7352821D01*
X-89652643Y7326511D01*
X-89971756Y7301198D01*
X-90316842Y7276553D01*
X-90692040Y7252246D01*
X-91101487Y7227948D01*
X-91527083Y7204514D01*
X-91637649Y7199666D01*
X-91783511Y7194900D01*
X-91960384Y7190256D01*
X-92163981Y7185776D01*
X-92390015Y7181502D01*
X-92634199Y7177473D01*
X-92892246Y7173730D01*
X-93159869Y7170315D01*
X-93432782Y7167269D01*
X-93706698Y7164631D01*
X-93977330Y7162445D01*
X-94240392Y7160749D01*
X-94491595Y7159586D01*
X-94726655Y7158995D01*
X-94941283Y7159019D01*
X-95131193Y7159697D01*
X-95292098Y7161072D01*
X-95419712Y7163183D01*
X-95509748Y7166071D01*
X-95517000Y7166429D01*
X-95577921Y7169441D01*
X-95673077Y7173970D01*
X-95794412Y7179641D01*
X-95933868Y7186080D01*
X-96083390Y7192910D01*
X-96162583Y7196498D01*
X-97013142Y7245494D01*
X-97841143Y7314445D01*
X-98644759Y7403017D01*
X-99422158Y7510875D01*
X-100171514Y7637683D01*
X-100890997Y7783107D01*
X-101578777Y7946812D01*
X-102233027Y8128462D01*
X-102851917Y8327722D01*
X-103359250Y8514784D01*
X-103895121Y8740515D01*
X-104398467Y8983975D01*
X-104868254Y9244417D01*
X-105303449Y9521094D01*
X-105703019Y9813257D01*
X-106065930Y10120160D01*
X-106391150Y10441054D01*
X-106677644Y10775193D01*
X-106890233Y11069500D01*
X-107105908Y11431621D01*
X-107281207Y11805611D01*
X-107416031Y12190308D01*
X-107510282Y12584551D01*
X-107563861Y12987177D01*
X-107576670Y13397023D01*
X-107548610Y13812927D01*
X-107479583Y14233728D01*
X-107369489Y14658262D01*
X-107228578Y15059416D01*
X-107025075Y15517923D01*
X-106780259Y15970133D01*
X-106494780Y16415303D01*
X-106169292Y16852692D01*
X-105804447Y17281557D01*
X-105400898Y17701158D01*
X-104959298Y18110751D01*
X-104480299Y18509595D01*
X-103964554Y18896948D01*
X-103676750Y19097186D01*
X-103072894Y19483068D01*
X-102436313Y19844895D01*
X-101769772Y20181690D01*
X-101076034Y20492476D01*
X-100357864Y20776277D01*
X-99618027Y21032115D01*
X-98859286Y21259015D01*
X-98084405Y21456000D01*
X-97296151Y21622092D01*
X-96497285Y21756315D01*
X-95943335Y21829601D01*
X-95702920Y21857913D01*
X-95716800Y21753282D01*
G37*
X-95716800Y21753282D02*
X-95733817Y21664203D01*
X-95763646Y21547067D01*
X-95802854Y21412911D01*
X-95848007Y21272768D01*
X-95895672Y21137677D01*
X-95942418Y21018671D01*
X-95952936Y20994147D01*
X-96131757Y20635996D01*
X-96343972Y20303065D01*
X-96590566Y19994078D01*
X-96872526Y19707757D01*
X-97090469Y19520936D01*
X-97332787Y19323088D01*
X-97544879Y19141325D01*
X-97732722Y18969788D01*
X-97902293Y18802620D01*
X-98059571Y18633964D01*
X-98210532Y18457963D01*
X-98338577Y18297916D01*
X-98624048Y17897678D01*
X-98876548Y17474782D01*
X-99094978Y17032791D01*
X-99278238Y16575265D01*
X-99425228Y16105766D01*
X-99534848Y15627856D01*
X-99605997Y15145096D01*
X-99637576Y14661047D01*
X-99628484Y14179271D01*
X-99625342Y14132016D01*
X-99568119Y13611482D01*
X-99471641Y13105082D01*
X-99336688Y12614260D01*
X-99164037Y12140462D01*
X-98954467Y11685133D01*
X-98708757Y11249720D01*
X-98427685Y10835666D01*
X-98112029Y10444419D01*
X-97762567Y10077422D01*
X-97380079Y9736123D01*
X-97168000Y9568986D01*
X-96752334Y9281513D01*
X-96314153Y9028959D01*
X-95856627Y8812592D01*
X-95382925Y8633681D01*
X-94896216Y8493495D01*
X-94399672Y8393300D01*
X-94140402Y8357630D01*
X-94010668Y8346299D01*
X-93850163Y8338023D01*
X-93668869Y8332808D01*
X-93476770Y8330662D01*
X-93283850Y8331591D01*
X-93100091Y8335601D01*
X-92935477Y8342700D01*
X-92799992Y8352894D01*
X-92765333Y8356700D01*
X-92254246Y8439126D01*
X-91757887Y8560141D01*
X-91277986Y8718527D01*
X-90816268Y8913069D01*
X-90374461Y9142551D01*
X-89954293Y9405755D01*
X-89557490Y9701465D01*
X-89185780Y10028466D01*
X-88840889Y10385540D01*
X-88524546Y10771471D01*
X-88238477Y11185043D01*
X-87984409Y11625040D01*
X-87906534Y11778583D01*
X-87698505Y12244832D01*
X-87531998Y12711228D01*
X-87406312Y13180981D01*
X-87320745Y13657300D01*
X-87274598Y14143395D01*
X-87267169Y14642477D01*
X-87268725Y14699583D01*
X-87293213Y15110181D01*
X-87341507Y15498307D01*
X-87416037Y15878027D01*
X-87519231Y16263408D01*
X-87562979Y16403500D01*
X-87739493Y16884379D01*
X-87951092Y17342385D01*
X-88198222Y17778154D01*
X-88481330Y18192322D01*
X-88800863Y18585526D01*
X-89157266Y18958401D01*
X-89550987Y19311584D01*
X-89675000Y19412641D01*
X-89788149Y19504869D01*
X-89903714Y19602546D01*
X-90011870Y19697131D01*
X-90102790Y19780081D01*
X-90148601Y19824323D01*
X-90409004Y20113945D01*
X-90638646Y20429133D01*
X-90834737Y20765134D01*
X-90994485Y21117193D01*
X-91110080Y21462333D01*
X-91149351Y21607736D01*
X-91175646Y21715775D01*
X-91189489Y21789211D01*
X-91191406Y21830802D01*
X-91182545Y21843333D01*
X-91125318Y21839807D01*
X-91031963Y21829798D01*
X-90908045Y21814161D01*
X-90759129Y21793749D01*
X-90590780Y21769417D01*
X-90408564Y21742018D01*
X-90218044Y21712406D01*
X-90024786Y21681437D01*
X-89834355Y21649963D01*
X-89652316Y21618839D01*
X-89484233Y21588918D01*
X-89335672Y21561056D01*
X-89307905Y21555631D01*
X-88474014Y21380415D01*
X-87668194Y21188965D01*
X-86891227Y20981691D01*
X-86143893Y20759001D01*
X-85426976Y20521306D01*
X-84741257Y20269015D01*
X-84087517Y20002539D01*
X-83466538Y19722286D01*
X-82879103Y19428667D01*
X-82325992Y19122091D01*
X-81807989Y18802968D01*
X-81325873Y18471707D01*
X-80880428Y18128719D01*
X-80472435Y17774414D01*
X-80102676Y17409199D01*
X-79771932Y17033487D01*
X-79480986Y16647685D01*
X-79249044Y16284032D01*
X-79047706Y15900430D01*
X-78887148Y15510206D01*
X-78767581Y15114753D01*
X-78689219Y14715467D01*
X-78652273Y14313743D01*
X-78656957Y13910975D01*
X-78703482Y13508559D01*
X-78775148Y13171456D01*
X-78898622Y12775820D01*
X-79063326Y12386421D01*
X-79268489Y12004220D01*
X-79513337Y11630178D01*
X-79797100Y11265257D01*
X-80119004Y10910417D01*
X-80478276Y10566619D01*
X-80874145Y10234824D01*
X-81305838Y9915993D01*
X-81494083Y9788533D01*
X-81697828Y9655872D01*
X-81882313Y9540316D01*
X-82058971Y9435280D01*
X-82239237Y9334179D01*
X-82434544Y9230428D01*
X-82656326Y9117442D01*
X-82679416Y9105874D01*
X-83331867Y8800894D01*
X-84017251Y8522368D01*
X-84735418Y8270340D01*
X-85486220Y8044852D01*
X-86269505Y7845945D01*
X-87085124Y7673664D01*
X-87932928Y7528049D01*
X-88553166Y7441023D01*
X-88809765Y7409748D01*
X-89075786Y7380457D01*
X-89355366Y7352821D01*
X-89652643Y7326511D01*
X-89971756Y7301198D01*
X-90316842Y7276553D01*
X-90692040Y7252246D01*
X-91101487Y7227948D01*
X-91527083Y7204514D01*
X-91637649Y7199666D01*
X-91783511Y7194900D01*
X-91960384Y7190256D01*
X-92163981Y7185776D01*
X-92390015Y7181502D01*
X-92634199Y7177473D01*
X-92892246Y7173730D01*
X-93159869Y7170315D01*
X-93432782Y7167269D01*
X-93706698Y7164631D01*
X-93977330Y7162445D01*
X-94240392Y7160749D01*
X-94491595Y7159586D01*
X-94726655Y7158995D01*
X-94941283Y7159019D01*
X-95131193Y7159697D01*
X-95292098Y7161072D01*
X-95419712Y7163183D01*
X-95509748Y7166071D01*
X-95517000Y7166429D01*
X-95577921Y7169441D01*
X-95673077Y7173970D01*
X-95794412Y7179641D01*
X-95933868Y7186080D01*
X-96083390Y7192910D01*
X-96162583Y7196498D01*
X-97013142Y7245494D01*
X-97841143Y7314445D01*
X-98644759Y7403017D01*
X-99422158Y7510875D01*
X-100171514Y7637683D01*
X-100890997Y7783107D01*
X-101578777Y7946812D01*
X-102233027Y8128462D01*
X-102851917Y8327722D01*
X-103359250Y8514784D01*
X-103895121Y8740515D01*
X-104398467Y8983975D01*
X-104868254Y9244417D01*
X-105303449Y9521094D01*
X-105703019Y9813257D01*
X-106065930Y10120160D01*
X-106391150Y10441054D01*
X-106677644Y10775193D01*
X-106890233Y11069500D01*
X-107105908Y11431621D01*
X-107281207Y11805611D01*
X-107416031Y12190308D01*
X-107510282Y12584551D01*
X-107563861Y12987177D01*
X-107576670Y13397023D01*
X-107548610Y13812927D01*
X-107479583Y14233728D01*
X-107369489Y14658262D01*
X-107228578Y15059416D01*
X-107025075Y15517923D01*
X-106780259Y15970133D01*
X-106494780Y16415303D01*
X-106169292Y16852692D01*
X-105804447Y17281557D01*
X-105400898Y17701158D01*
X-104959298Y18110751D01*
X-104480299Y18509595D01*
X-103964554Y18896948D01*
X-103676750Y19097186D01*
X-103072894Y19483068D01*
X-102436313Y19844895D01*
X-101769772Y20181690D01*
X-101076034Y20492476D01*
X-100357864Y20776277D01*
X-99618027Y21032115D01*
X-98859286Y21259015D01*
X-98084405Y21456000D01*
X-97296151Y21622092D01*
X-96497285Y21756315D01*
X-95943335Y21829601D01*
X-95702920Y21857913D01*
X-95716800Y21753282D01*
G36*
X-39135990Y22235293D02*
G01*
X-38479967Y22187125D01*
X-37853855Y22126044D01*
X-37246826Y22050646D01*
X-36648052Y21959527D01*
X-36046704Y21851284D01*
X-35805833Y21803450D01*
X-34963828Y21619993D01*
X-34150705Y21418606D01*
X-33367247Y21199686D01*
X-32614239Y20963630D01*
X-31892464Y20710836D01*
X-31202707Y20441701D01*
X-30545752Y20156622D01*
X-29922381Y19855998D01*
X-29333380Y19540226D01*
X-28779532Y19209702D01*
X-28261620Y18864826D01*
X-27780430Y18505993D01*
X-27336744Y18133602D01*
X-26931347Y17748050D01*
X-26565022Y17349735D01*
X-26254295Y16960382D01*
X-25985444Y16566691D01*
X-25756799Y16166171D01*
X-25568514Y15760059D01*
X-25420738Y15349590D01*
X-25313625Y14936001D01*
X-25247325Y14520528D01*
X-25221992Y14104409D01*
X-25237777Y13688879D01*
X-25294832Y13275175D01*
X-25393308Y12864533D01*
X-25533358Y12458189D01*
X-25664524Y12159583D01*
X-25883415Y11752395D01*
X-26141477Y11359004D01*
X-26437665Y10979995D01*
X-26770932Y10615952D01*
X-27140231Y10267461D01*
X-27544516Y9935107D01*
X-27982740Y9619475D01*
X-28453857Y9321148D01*
X-28956819Y9040713D01*
X-29490581Y8778755D01*
X-30054096Y8535857D01*
X-30646316Y8312605D01*
X-31266196Y8109585D01*
X-31912689Y7927380D01*
X-32584749Y7766576D01*
X-33281328Y7627757D01*
X-33974916Y7515316D01*
X-34394080Y7458922D01*
X-34818136Y7410500D01*
X-35254235Y7369459D01*
X-35709530Y7335209D01*
X-36191175Y7307158D01*
X-36706321Y7284715D01*
X-36811250Y7280943D01*
X-36979579Y7276137D01*
X-37182219Y7272098D01*
X-37413321Y7268825D01*
X-37667041Y7266313D01*
X-37937531Y7264559D01*
X-38218945Y7263559D01*
X-38505438Y7263311D01*
X-38791161Y7263811D01*
X-39070271Y7265055D01*
X-39336919Y7267040D01*
X-39585259Y7269762D01*
X-39809446Y7273219D01*
X-40003633Y7277407D01*
X-40161973Y7282322D01*
X-40176750Y7282899D01*
X-41104467Y7331175D01*
X-42001849Y7400492D01*
X-42868358Y7490703D01*
X-43703452Y7601662D01*
X-44506593Y7733223D01*
X-45277242Y7885240D01*
X-46014859Y8057566D01*
X-46718904Y8250055D01*
X-47388837Y8462562D01*
X-48024121Y8694939D01*
X-48624214Y8947041D01*
X-49188578Y9218722D01*
X-49716673Y9509835D01*
X-50207959Y9820234D01*
X-50611021Y10110454D01*
X-50997987Y10426707D01*
X-51345225Y10752383D01*
X-51654750Y11089855D01*
X-51928577Y11441494D01*
X-52168720Y11809671D01*
X-52369371Y12180750D01*
X-52546900Y12588172D01*
X-52682499Y13001375D01*
X-52776220Y13420667D01*
X-52828111Y13846359D01*
X-52838223Y14278761D01*
X-52806604Y14718184D01*
X-52792807Y14824753D01*
X-52708248Y15276185D01*
X-52582707Y15723184D01*
X-52417407Y16164628D01*
X-52213569Y16599392D01*
X-51972416Y17026351D01*
X-51695170Y17444382D01*
X-51383053Y17852359D01*
X-51037288Y18249159D01*
X-50659097Y18633657D01*
X-50249702Y19004728D01*
X-49810324Y19361249D01*
X-49342187Y19702094D01*
X-48846513Y20026140D01*
X-48324523Y20332263D01*
X-47777441Y20619337D01*
X-47206487Y20886238D01*
X-46612885Y21131843D01*
X-45997857Y21355026D01*
X-45531916Y21504402D01*
X-45366000Y21553366D01*
X-45188420Y21603415D01*
X-45003828Y21653444D01*
X-44816873Y21702346D01*
X-44632204Y21749017D01*
X-44454472Y21792351D01*
X-44288326Y21831242D01*
X-44138416Y21864585D01*
X-44009392Y21891275D01*
X-43905903Y21910206D01*
X-43832600Y21920273D01*
X-43794132Y21920369D01*
X-43790259Y21918481D01*
X-43786547Y21889728D01*
X-43793857Y21827895D01*
X-43810523Y21740292D01*
X-43834881Y21634226D01*
X-43865265Y21517007D01*
X-43900010Y21395943D01*
X-43933247Y21290898D01*
X-44062690Y20953964D01*
X-44220952Y20637561D01*
X-44410514Y20338330D01*
X-44633854Y20052913D01*
X-44893452Y19777951D01*
X-45191788Y19510085D01*
X-45330833Y19397635D01*
X-45480553Y19273881D01*
X-45644921Y19127453D01*
X-45815665Y18966519D01*
X-45984517Y18799246D01*
X-46143205Y18633804D01*
X-46283459Y18478358D01*
X-46384504Y18357034D01*
X-46685215Y17942854D01*
X-46949803Y17507409D01*
X-47177400Y17052873D01*
X-47367135Y16581417D01*
X-47518140Y16095214D01*
X-47629546Y15596437D01*
X-47700483Y15087259D01*
X-47702966Y15061416D01*
X-47712628Y14916886D01*
X-47717935Y14743519D01*
X-47719119Y14551365D01*
X-47716416Y14350469D01*
X-47710060Y14150879D01*
X-47700285Y13962643D01*
X-47687324Y13795808D01*
X-47671413Y13660420D01*
X-47670110Y13651833D01*
X-47569469Y13130875D01*
X-47431991Y12630612D01*
X-47257760Y12151213D01*
X-47046860Y11692846D01*
X-46799375Y11255679D01*
X-46515389Y10839880D01*
X-46194986Y10445618D01*
X-45924621Y10157928D01*
X-45755924Y9992043D01*
X-45605138Y9851044D01*
X-45463072Y9727292D01*
X-45320535Y9613151D01*
X-45168338Y9500986D01*
X-44997288Y9383159D01*
X-44971000Y9365568D01*
X-44535815Y9100188D01*
X-44084661Y8873215D01*
X-43619893Y8684921D01*
X-43143867Y8535583D01*
X-42658939Y8425473D01*
X-42167465Y8354867D01*
X-41671801Y8324040D01*
X-41174303Y8333265D01*
X-40677326Y8382818D01*
X-40183227Y8472972D01*
X-39694361Y8604003D01*
X-39374542Y8713448D01*
X-38911283Y8908231D01*
X-38469479Y9138258D01*
X-38050618Y9401501D01*
X-37656190Y9695931D01*
X-37287685Y10019521D01*
X-36946593Y10370240D01*
X-36634404Y10746062D01*
X-36352607Y11144957D01*
X-36102693Y11564897D01*
X-35886150Y12003853D01*
X-35704470Y12459797D01*
X-35559142Y12930701D01*
X-35451655Y13414535D01*
X-35383499Y13909272D01*
X-35363881Y14174279D01*
X-35357962Y14685727D01*
X-35393197Y15192169D01*
X-35468954Y15691284D01*
X-35584602Y16180751D01*
X-35739509Y16658248D01*
X-35933043Y17121454D01*
X-36164571Y17568049D01*
X-36384849Y17924007D01*
X-36572248Y18192398D01*
X-36763005Y18439306D01*
X-36963642Y18671689D01*
X-37180680Y18896506D01*
X-37420641Y19120714D01*
X-37690047Y19351272D01*
X-37826155Y19461774D01*
X-38087196Y19683071D01*
X-38313746Y19902952D01*
X-38512688Y20128959D01*
X-38690905Y20368632D01*
X-38783507Y20510485D01*
X-38959235Y20829441D01*
X-39105601Y21174151D01*
X-39220301Y21537816D01*
X-39301032Y21913633D01*
X-39330360Y22125193D01*
X-39344063Y22248303D01*
X-39135990Y22235293D01*
G37*
X-39135990Y22235293D02*
X-38479967Y22187125D01*
X-37853855Y22126044D01*
X-37246826Y22050646D01*
X-36648052Y21959527D01*
X-36046704Y21851284D01*
X-35805833Y21803450D01*
X-34963828Y21619993D01*
X-34150705Y21418606D01*
X-33367247Y21199686D01*
X-32614239Y20963630D01*
X-31892464Y20710836D01*
X-31202707Y20441701D01*
X-30545752Y20156622D01*
X-29922381Y19855998D01*
X-29333380Y19540226D01*
X-28779532Y19209702D01*
X-28261620Y18864826D01*
X-27780430Y18505993D01*
X-27336744Y18133602D01*
X-26931347Y17748050D01*
X-26565022Y17349735D01*
X-26254295Y16960382D01*
X-25985444Y16566691D01*
X-25756799Y16166171D01*
X-25568514Y15760059D01*
X-25420738Y15349590D01*
X-25313625Y14936001D01*
X-25247325Y14520528D01*
X-25221992Y14104409D01*
X-25237777Y13688879D01*
X-25294832Y13275175D01*
X-25393308Y12864533D01*
X-25533358Y12458189D01*
X-25664524Y12159583D01*
X-25883415Y11752395D01*
X-26141477Y11359004D01*
X-26437665Y10979995D01*
X-26770932Y10615952D01*
X-27140231Y10267461D01*
X-27544516Y9935107D01*
X-27982740Y9619475D01*
X-28453857Y9321148D01*
X-28956819Y9040713D01*
X-29490581Y8778755D01*
X-30054096Y8535857D01*
X-30646316Y8312605D01*
X-31266196Y8109585D01*
X-31912689Y7927380D01*
X-32584749Y7766576D01*
X-33281328Y7627757D01*
X-33974916Y7515316D01*
X-34394080Y7458922D01*
X-34818136Y7410500D01*
X-35254235Y7369459D01*
X-35709530Y7335209D01*
X-36191175Y7307158D01*
X-36706321Y7284715D01*
X-36811250Y7280943D01*
X-36979579Y7276137D01*
X-37182219Y7272098D01*
X-37413321Y7268825D01*
X-37667041Y7266313D01*
X-37937531Y7264559D01*
X-38218945Y7263559D01*
X-38505438Y7263311D01*
X-38791161Y7263811D01*
X-39070271Y7265055D01*
X-39336919Y7267040D01*
X-39585259Y7269762D01*
X-39809446Y7273219D01*
X-40003633Y7277407D01*
X-40161973Y7282322D01*
X-40176750Y7282899D01*
X-41104467Y7331175D01*
X-42001849Y7400492D01*
X-42868358Y7490703D01*
X-43703452Y7601662D01*
X-44506593Y7733223D01*
X-45277242Y7885240D01*
X-46014859Y8057566D01*
X-46718904Y8250055D01*
X-47388837Y8462562D01*
X-48024121Y8694939D01*
X-48624214Y8947041D01*
X-49188578Y9218722D01*
X-49716673Y9509835D01*
X-50207959Y9820234D01*
X-50611021Y10110454D01*
X-50997987Y10426707D01*
X-51345225Y10752383D01*
X-51654750Y11089855D01*
X-51928577Y11441494D01*
X-52168720Y11809671D01*
X-52369371Y12180750D01*
X-52546900Y12588172D01*
X-52682499Y13001375D01*
X-52776220Y13420667D01*
X-52828111Y13846359D01*
X-52838223Y14278761D01*
X-52806604Y14718184D01*
X-52792807Y14824753D01*
X-52708248Y15276185D01*
X-52582707Y15723184D01*
X-52417407Y16164628D01*
X-52213569Y16599392D01*
X-51972416Y17026351D01*
X-51695170Y17444382D01*
X-51383053Y17852359D01*
X-51037288Y18249159D01*
X-50659097Y18633657D01*
X-50249702Y19004728D01*
X-49810324Y19361249D01*
X-49342187Y19702094D01*
X-48846513Y20026140D01*
X-48324523Y20332263D01*
X-47777441Y20619337D01*
X-47206487Y20886238D01*
X-46612885Y21131843D01*
X-45997857Y21355026D01*
X-45531916Y21504402D01*
X-45366000Y21553366D01*
X-45188420Y21603415D01*
X-45003828Y21653444D01*
X-44816873Y21702346D01*
X-44632204Y21749017D01*
X-44454472Y21792351D01*
X-44288326Y21831242D01*
X-44138416Y21864585D01*
X-44009392Y21891275D01*
X-43905903Y21910206D01*
X-43832600Y21920273D01*
X-43794132Y21920369D01*
X-43790259Y21918481D01*
X-43786547Y21889728D01*
X-43793857Y21827895D01*
X-43810523Y21740292D01*
X-43834881Y21634226D01*
X-43865265Y21517007D01*
X-43900010Y21395943D01*
X-43933247Y21290898D01*
X-44062690Y20953964D01*
X-44220952Y20637561D01*
X-44410514Y20338330D01*
X-44633854Y20052913D01*
X-44893452Y19777951D01*
X-45191788Y19510085D01*
X-45330833Y19397635D01*
X-45480553Y19273881D01*
X-45644921Y19127453D01*
X-45815665Y18966519D01*
X-45984517Y18799246D01*
X-46143205Y18633804D01*
X-46283459Y18478358D01*
X-46384504Y18357034D01*
X-46685215Y17942854D01*
X-46949803Y17507409D01*
X-47177400Y17052873D01*
X-47367135Y16581417D01*
X-47518140Y16095214D01*
X-47629546Y15596437D01*
X-47700483Y15087259D01*
X-47702966Y15061416D01*
X-47712628Y14916886D01*
X-47717935Y14743519D01*
X-47719119Y14551365D01*
X-47716416Y14350469D01*
X-47710060Y14150879D01*
X-47700285Y13962643D01*
X-47687324Y13795808D01*
X-47671413Y13660420D01*
X-47670110Y13651833D01*
X-47569469Y13130875D01*
X-47431991Y12630612D01*
X-47257760Y12151213D01*
X-47046860Y11692846D01*
X-46799375Y11255679D01*
X-46515389Y10839880D01*
X-46194986Y10445618D01*
X-45924621Y10157928D01*
X-45755924Y9992043D01*
X-45605138Y9851044D01*
X-45463072Y9727292D01*
X-45320535Y9613151D01*
X-45168338Y9500986D01*
X-44997288Y9383159D01*
X-44971000Y9365568D01*
X-44535815Y9100188D01*
X-44084661Y8873215D01*
X-43619893Y8684921D01*
X-43143867Y8535583D01*
X-42658939Y8425473D01*
X-42167465Y8354867D01*
X-41671801Y8324040D01*
X-41174303Y8333265D01*
X-40677326Y8382818D01*
X-40183227Y8472972D01*
X-39694361Y8604003D01*
X-39374542Y8713448D01*
X-38911283Y8908231D01*
X-38469479Y9138258D01*
X-38050618Y9401501D01*
X-37656190Y9695931D01*
X-37287685Y10019521D01*
X-36946593Y10370240D01*
X-36634404Y10746062D01*
X-36352607Y11144957D01*
X-36102693Y11564897D01*
X-35886150Y12003853D01*
X-35704470Y12459797D01*
X-35559142Y12930701D01*
X-35451655Y13414535D01*
X-35383499Y13909272D01*
X-35363881Y14174279D01*
X-35357962Y14685727D01*
X-35393197Y15192169D01*
X-35468954Y15691284D01*
X-35584602Y16180751D01*
X-35739509Y16658248D01*
X-35933043Y17121454D01*
X-36164571Y17568049D01*
X-36384849Y17924007D01*
X-36572248Y18192398D01*
X-36763005Y18439306D01*
X-36963642Y18671689D01*
X-37180680Y18896506D01*
X-37420641Y19120714D01*
X-37690047Y19351272D01*
X-37826155Y19461774D01*
X-38087196Y19683071D01*
X-38313746Y19902952D01*
X-38512688Y20128959D01*
X-38690905Y20368632D01*
X-38783507Y20510485D01*
X-38959235Y20829441D01*
X-39105601Y21174151D01*
X-39220301Y21537816D01*
X-39301032Y21913633D01*
X-39330360Y22125193D01*
X-39344063Y22248303D01*
X-39135990Y22235293D01*
G36*
X-93288457Y60504628D02*
G01*
X-93091238Y60498604D01*
X-92912018Y60487927D01*
X-92760809Y60472595D01*
X-92712416Y60465488D01*
X-92243574Y60368604D01*
X-91796257Y60235286D01*
X-91370500Y60065550D01*
X-90966338Y59859414D01*
X-90583803Y59616895D01*
X-90222931Y59338012D01*
X-89883755Y59022780D01*
X-89881721Y59020713D01*
X-89604732Y58718278D01*
X-89363573Y58409012D01*
X-89151789Y58084032D01*
X-88997601Y57803677D01*
X-88806904Y57387710D01*
X-88657550Y56967726D01*
X-88548688Y56540171D01*
X-88479465Y56101491D01*
X-88449028Y55648133D01*
X-88447333Y55508916D01*
X-88465253Y55058933D01*
X-88519778Y54627091D01*
X-88612057Y54208406D01*
X-88743238Y53797893D01*
X-88914470Y53390566D01*
X-88954339Y53307583D01*
X-89113308Y53004756D01*
X-89282714Y52725968D01*
X-89467543Y52465190D01*
X-89672779Y52216393D01*
X-89903407Y51973550D01*
X-90164410Y51730631D01*
X-90460774Y51481608D01*
X-90470646Y51473672D01*
X-90804935Y51188002D01*
X-91100722Y50897555D01*
X-91361840Y50597625D01*
X-91592122Y50283504D01*
X-91795399Y49950483D01*
X-91941333Y49666916D01*
X-92074319Y49367905D01*
X-92182967Y49076829D01*
X-92271299Y48780591D01*
X-92343333Y48466098D01*
X-92389717Y48206416D01*
X-92437250Y47910083D01*
X-92437250Y35030166D01*
X-92437256Y34142033D01*
X-92437270Y33295217D01*
X-92437283Y32488701D01*
X-92437290Y31721468D01*
X-92437282Y30992502D01*
X-92437253Y30300785D01*
X-92437195Y29645303D01*
X-92437100Y29025036D01*
X-92436961Y28438970D01*
X-92436772Y27886088D01*
X-92436525Y27365372D01*
X-92436212Y26875806D01*
X-92435827Y26416374D01*
X-92435361Y25986058D01*
X-92434808Y25583843D01*
X-92434161Y25208711D01*
X-92433411Y24859646D01*
X-92432553Y24535631D01*
X-92431577Y24235649D01*
X-92430478Y23958684D01*
X-92429248Y23703720D01*
X-92427880Y23469739D01*
X-92426366Y23255725D01*
X-92424699Y23060661D01*
X-92422871Y22883530D01*
X-92420877Y22723317D01*
X-92418707Y22579003D01*
X-92416355Y22449574D01*
X-92413814Y22334011D01*
X-92411076Y22231298D01*
X-92408134Y22140419D01*
X-92404981Y22060357D01*
X-92401609Y21990096D01*
X-92398011Y21928617D01*
X-92394180Y21874906D01*
X-92390109Y21827945D01*
X-92385790Y21786718D01*
X-92381215Y21750208D01*
X-92376379Y21717398D01*
X-92371273Y21687272D01*
X-92365889Y21658813D01*
X-92360222Y21631004D01*
X-92354263Y21602829D01*
X-92348006Y21573271D01*
X-92341442Y21541313D01*
X-92340464Y21536416D01*
X-92235666Y21113452D01*
X-92091482Y20695118D01*
X-91910792Y20288413D01*
X-91696477Y19900340D01*
X-91613261Y19769000D01*
X-91439319Y19519856D01*
X-91254612Y19288041D01*
X-91052429Y19066364D01*
X-90826059Y18847637D01*
X-90568791Y18624671D01*
X-90469783Y18543960D01*
X-90172537Y18294662D01*
X-89910784Y18051751D01*
X-89679543Y17809200D01*
X-89473832Y17560985D01*
X-89288671Y17301079D01*
X-89119080Y17023455D01*
X-88960078Y16722089D01*
X-88954339Y16710416D01*
X-88774814Y16303127D01*
X-88635572Y15893666D01*
X-88535467Y15477049D01*
X-88473349Y15048291D01*
X-88448070Y14602404D01*
X-88447333Y14509083D01*
X-88463170Y14081340D01*
X-88511791Y13673195D01*
X-88594863Y13275542D01*
X-88714055Y12879277D01*
X-88777781Y12704556D01*
X-88960044Y12286988D01*
X-89177054Y11892135D01*
X-89426888Y11521555D01*
X-89707626Y11176808D01*
X-90017345Y10859452D01*
X-90354123Y10571046D01*
X-90716040Y10313149D01*
X-91101172Y10087320D01*
X-91507599Y9895119D01*
X-91933399Y9738104D01*
X-92376650Y9617833D01*
X-92648916Y9564171D01*
X-92777376Y9546992D01*
X-92937612Y9532732D01*
X-93119203Y9521687D01*
X-93311728Y9514154D01*
X-93504765Y9510429D01*
X-93687891Y9510806D01*
X-93850686Y9515582D01*
X-93982728Y9525052D01*
X-93991928Y9526053D01*
X-94441882Y9597539D01*
X-94882102Y9709065D01*
X-95309615Y9859170D01*
X-95721449Y10046394D01*
X-96114634Y10269278D01*
X-96486198Y10526361D01*
X-96833169Y10816183D01*
X-97052174Y11029791D01*
X-97359280Y11378265D01*
X-97629442Y11747400D01*
X-97862620Y12137114D01*
X-98058775Y12547324D01*
X-98217865Y12977947D01*
X-98339850Y13428901D01*
X-98410037Y13800000D01*
X-98427533Y13947904D01*
X-98439916Y14126119D01*
X-98447190Y14324133D01*
X-98449360Y14531433D01*
X-98446430Y14737507D01*
X-98438403Y14931842D01*
X-98425284Y15103926D01*
X-98409506Y15228750D01*
X-98314670Y15696974D01*
X-98185337Y16141051D01*
X-98020905Y16562193D01*
X-97820774Y16961614D01*
X-97584344Y17340526D01*
X-97311013Y17700141D01*
X-97032278Y18009008D01*
X-96945684Y18093799D01*
X-96835423Y18195658D01*
X-96711361Y18305813D01*
X-96583364Y18415493D01*
X-96469500Y18509335D01*
X-96132962Y18796370D01*
X-95835112Y19085289D01*
X-95572377Y19380423D01*
X-95341182Y19686102D01*
X-95137953Y20006658D01*
X-94967048Y20329916D01*
X-94786579Y20749470D01*
X-94644517Y21181961D01*
X-94539486Y21631845D01*
X-94506838Y21822166D01*
X-94504261Y21840201D01*
X-94501805Y21860809D01*
X-94499466Y21884994D01*
X-94497241Y21913760D01*
X-94495128Y21948111D01*
X-94493123Y21989052D01*
X-94491225Y22037586D01*
X-94489429Y22094718D01*
X-94487734Y22161451D01*
X-94486136Y22238789D01*
X-94484632Y22327736D01*
X-94483221Y22429297D01*
X-94481897Y22544475D01*
X-94480660Y22674275D01*
X-94479506Y22819699D01*
X-94478431Y22981754D01*
X-94477434Y23161441D01*
X-94476512Y23359766D01*
X-94475661Y23577732D01*
X-94474879Y23816344D01*
X-94474162Y24076604D01*
X-94473509Y24359519D01*
X-94472915Y24666090D01*
X-94472379Y24997323D01*
X-94471897Y25354222D01*
X-94471467Y25737789D01*
X-94471086Y26149031D01*
X-94470750Y26588949D01*
X-94470457Y27058549D01*
X-94470204Y27558834D01*
X-94469989Y28090809D01*
X-94469808Y28655477D01*
X-94469658Y29253843D01*
X-94469537Y29886910D01*
X-94469441Y30555682D01*
X-94469369Y31261164D01*
X-94469317Y32004359D01*
X-94469281Y32786271D01*
X-94469261Y33607905D01*
X-94469251Y34470265D01*
X-94469250Y35009000D01*
X-94469253Y35895511D01*
X-94469263Y36740695D01*
X-94469285Y37545560D01*
X-94469320Y38311112D01*
X-94469372Y39038358D01*
X-94469444Y39728304D01*
X-94469538Y40381959D01*
X-94469658Y41000327D01*
X-94469807Y41584417D01*
X-94469988Y42135235D01*
X-94470203Y42653788D01*
X-94470456Y43141083D01*
X-94470750Y43598127D01*
X-94471087Y44025926D01*
X-94471471Y44425487D01*
X-94471905Y44797817D01*
X-94472391Y45143923D01*
X-94472933Y45464812D01*
X-94473533Y45761490D01*
X-94474196Y46034965D01*
X-94474922Y46286243D01*
X-94475717Y46516331D01*
X-94476582Y46726236D01*
X-94477520Y46916964D01*
X-94478536Y47089523D01*
X-94479630Y47244920D01*
X-94480808Y47384161D01*
X-94482070Y47508252D01*
X-94483422Y47618202D01*
X-94484865Y47715016D01*
X-94486402Y47799701D01*
X-94488037Y47873265D01*
X-94489773Y47936714D01*
X-94491611Y47991055D01*
X-94493557Y48037295D01*
X-94495612Y48076440D01*
X-94497779Y48109498D01*
X-94500062Y48137476D01*
X-94502463Y48161379D01*
X-94504986Y48182215D01*
X-94507633Y48200991D01*
X-94508459Y48206416D01*
X-94599959Y48670034D01*
X-94728207Y49112884D01*
X-94893380Y49535270D01*
X-95095658Y49937497D01*
X-95335219Y50319868D01*
X-95612241Y50682686D01*
X-95926902Y51026256D01*
X-96279381Y51350880D01*
X-96427166Y51472438D01*
X-96724107Y51720187D01*
X-96985849Y51963079D01*
X-97218016Y52207472D01*
X-97426232Y52459722D01*
X-97616119Y52726185D01*
X-97793302Y53013216D01*
X-97798825Y53022812D01*
X-97997210Y53406484D01*
X-98161054Y53807554D01*
X-98291647Y54229757D01*
X-98390282Y54676828D01*
X-98409506Y54789250D01*
X-98427177Y54933559D01*
X-98439719Y55109346D01*
X-98447127Y55306065D01*
X-98449400Y55513171D01*
X-98446536Y55720121D01*
X-98438533Y55916370D01*
X-98425389Y56091373D01*
X-98409791Y56218000D01*
X-98319944Y56675219D01*
X-98196192Y57108822D01*
X-98036897Y57522599D01*
X-97840421Y57920340D01*
X-97605124Y58305835D01*
X-97361820Y58641583D01*
X-97275666Y58744409D01*
X-97164376Y58865678D01*
X-97036004Y58997554D01*
X-96898602Y59132202D01*
X-96760224Y59261786D01*
X-96628923Y59378470D01*
X-96512751Y59474418D01*
X-96480341Y59499272D01*
X-96097002Y59761047D01*
X-95696921Y59984512D01*
X-95278811Y60170210D01*
X-94841384Y60318686D01*
X-94383353Y60430483D01*
X-94194083Y60465053D01*
X-94057064Y60482251D01*
X-93887978Y60494810D01*
X-93696840Y60502728D01*
X-93493662Y60506001D01*
X-93288457Y60504628D01*
G37*
X-93288457Y60504628D02*
X-93091238Y60498604D01*
X-92912018Y60487927D01*
X-92760809Y60472595D01*
X-92712416Y60465488D01*
X-92243574Y60368604D01*
X-91796257Y60235286D01*
X-91370500Y60065550D01*
X-90966338Y59859414D01*
X-90583803Y59616895D01*
X-90222931Y59338012D01*
X-89883755Y59022780D01*
X-89881721Y59020713D01*
X-89604732Y58718278D01*
X-89363573Y58409012D01*
X-89151789Y58084032D01*
X-88997601Y57803677D01*
X-88806904Y57387710D01*
X-88657550Y56967726D01*
X-88548688Y56540171D01*
X-88479465Y56101491D01*
X-88449028Y55648133D01*
X-88447333Y55508916D01*
X-88465253Y55058933D01*
X-88519778Y54627091D01*
X-88612057Y54208406D01*
X-88743238Y53797893D01*
X-88914470Y53390566D01*
X-88954339Y53307583D01*
X-89113308Y53004756D01*
X-89282714Y52725968D01*
X-89467543Y52465190D01*
X-89672779Y52216393D01*
X-89903407Y51973550D01*
X-90164410Y51730631D01*
X-90460774Y51481608D01*
X-90470646Y51473672D01*
X-90804935Y51188002D01*
X-91100722Y50897555D01*
X-91361840Y50597625D01*
X-91592122Y50283504D01*
X-91795399Y49950483D01*
X-91941333Y49666916D01*
X-92074319Y49367905D01*
X-92182967Y49076829D01*
X-92271299Y48780591D01*
X-92343333Y48466098D01*
X-92389717Y48206416D01*
X-92437250Y47910083D01*
X-92437250Y35030166D01*
X-92437256Y34142033D01*
X-92437270Y33295217D01*
X-92437283Y32488701D01*
X-92437290Y31721468D01*
X-92437282Y30992502D01*
X-92437253Y30300785D01*
X-92437195Y29645303D01*
X-92437100Y29025036D01*
X-92436961Y28438970D01*
X-92436772Y27886088D01*
X-92436525Y27365372D01*
X-92436212Y26875806D01*
X-92435827Y26416374D01*
X-92435361Y25986058D01*
X-92434808Y25583843D01*
X-92434161Y25208711D01*
X-92433411Y24859646D01*
X-92432553Y24535631D01*
X-92431577Y24235649D01*
X-92430478Y23958684D01*
X-92429248Y23703720D01*
X-92427880Y23469739D01*
X-92426366Y23255725D01*
X-92424699Y23060661D01*
X-92422871Y22883530D01*
X-92420877Y22723317D01*
X-92418707Y22579003D01*
X-92416355Y22449574D01*
X-92413814Y22334011D01*
X-92411076Y22231298D01*
X-92408134Y22140419D01*
X-92404981Y22060357D01*
X-92401609Y21990096D01*
X-92398011Y21928617D01*
X-92394180Y21874906D01*
X-92390109Y21827945D01*
X-92385790Y21786718D01*
X-92381215Y21750208D01*
X-92376379Y21717398D01*
X-92371273Y21687272D01*
X-92365889Y21658813D01*
X-92360222Y21631004D01*
X-92354263Y21602829D01*
X-92348006Y21573271D01*
X-92341442Y21541313D01*
X-92340464Y21536416D01*
X-92235666Y21113452D01*
X-92091482Y20695118D01*
X-91910792Y20288413D01*
X-91696477Y19900340D01*
X-91613261Y19769000D01*
X-91439319Y19519856D01*
X-91254612Y19288041D01*
X-91052429Y19066364D01*
X-90826059Y18847637D01*
X-90568791Y18624671D01*
X-90469783Y18543960D01*
X-90172537Y18294662D01*
X-89910784Y18051751D01*
X-89679543Y17809200D01*
X-89473832Y17560985D01*
X-89288671Y17301079D01*
X-89119080Y17023455D01*
X-88960078Y16722089D01*
X-88954339Y16710416D01*
X-88774814Y16303127D01*
X-88635572Y15893666D01*
X-88535467Y15477049D01*
X-88473349Y15048291D01*
X-88448070Y14602404D01*
X-88447333Y14509083D01*
X-88463170Y14081340D01*
X-88511791Y13673195D01*
X-88594863Y13275542D01*
X-88714055Y12879277D01*
X-88777781Y12704556D01*
X-88960044Y12286988D01*
X-89177054Y11892135D01*
X-89426888Y11521555D01*
X-89707626Y11176808D01*
X-90017345Y10859452D01*
X-90354123Y10571046D01*
X-90716040Y10313149D01*
X-91101172Y10087320D01*
X-91507599Y9895119D01*
X-91933399Y9738104D01*
X-92376650Y9617833D01*
X-92648916Y9564171D01*
X-92777376Y9546992D01*
X-92937612Y9532732D01*
X-93119203Y9521687D01*
X-93311728Y9514154D01*
X-93504765Y9510429D01*
X-93687891Y9510806D01*
X-93850686Y9515582D01*
X-93982728Y9525052D01*
X-93991928Y9526053D01*
X-94441882Y9597539D01*
X-94882102Y9709065D01*
X-95309615Y9859170D01*
X-95721449Y10046394D01*
X-96114634Y10269278D01*
X-96486198Y10526361D01*
X-96833169Y10816183D01*
X-97052174Y11029791D01*
X-97359280Y11378265D01*
X-97629442Y11747400D01*
X-97862620Y12137114D01*
X-98058775Y12547324D01*
X-98217865Y12977947D01*
X-98339850Y13428901D01*
X-98410037Y13800000D01*
X-98427533Y13947904D01*
X-98439916Y14126119D01*
X-98447190Y14324133D01*
X-98449360Y14531433D01*
X-98446430Y14737507D01*
X-98438403Y14931842D01*
X-98425284Y15103926D01*
X-98409506Y15228750D01*
X-98314670Y15696974D01*
X-98185337Y16141051D01*
X-98020905Y16562193D01*
X-97820774Y16961614D01*
X-97584344Y17340526D01*
X-97311013Y17700141D01*
X-97032278Y18009008D01*
X-96945684Y18093799D01*
X-96835423Y18195658D01*
X-96711361Y18305813D01*
X-96583364Y18415493D01*
X-96469500Y18509335D01*
X-96132962Y18796370D01*
X-95835112Y19085289D01*
X-95572377Y19380423D01*
X-95341182Y19686102D01*
X-95137953Y20006658D01*
X-94967048Y20329916D01*
X-94786579Y20749470D01*
X-94644517Y21181961D01*
X-94539486Y21631845D01*
X-94506838Y21822166D01*
X-94504261Y21840201D01*
X-94501805Y21860809D01*
X-94499466Y21884994D01*
X-94497241Y21913760D01*
X-94495128Y21948111D01*
X-94493123Y21989052D01*
X-94491225Y22037586D01*
X-94489429Y22094718D01*
X-94487734Y22161451D01*
X-94486136Y22238789D01*
X-94484632Y22327736D01*
X-94483221Y22429297D01*
X-94481897Y22544475D01*
X-94480660Y22674275D01*
X-94479506Y22819699D01*
X-94478431Y22981754D01*
X-94477434Y23161441D01*
X-94476512Y23359766D01*
X-94475661Y23577732D01*
X-94474879Y23816344D01*
X-94474162Y24076604D01*
X-94473509Y24359519D01*
X-94472915Y24666090D01*
X-94472379Y24997323D01*
X-94471897Y25354222D01*
X-94471467Y25737789D01*
X-94471086Y26149031D01*
X-94470750Y26588949D01*
X-94470457Y27058549D01*
X-94470204Y27558834D01*
X-94469989Y28090809D01*
X-94469808Y28655477D01*
X-94469658Y29253843D01*
X-94469537Y29886910D01*
X-94469441Y30555682D01*
X-94469369Y31261164D01*
X-94469317Y32004359D01*
X-94469281Y32786271D01*
X-94469261Y33607905D01*
X-94469251Y34470265D01*
X-94469250Y35009000D01*
X-94469253Y35895511D01*
X-94469263Y36740695D01*
X-94469285Y37545560D01*
X-94469320Y38311112D01*
X-94469372Y39038358D01*
X-94469444Y39728304D01*
X-94469538Y40381959D01*
X-94469658Y41000327D01*
X-94469807Y41584417D01*
X-94469988Y42135235D01*
X-94470203Y42653788D01*
X-94470456Y43141083D01*
X-94470750Y43598127D01*
X-94471087Y44025926D01*
X-94471471Y44425487D01*
X-94471905Y44797817D01*
X-94472391Y45143923D01*
X-94472933Y45464812D01*
X-94473533Y45761490D01*
X-94474196Y46034965D01*
X-94474922Y46286243D01*
X-94475717Y46516331D01*
X-94476582Y46726236D01*
X-94477520Y46916964D01*
X-94478536Y47089523D01*
X-94479630Y47244920D01*
X-94480808Y47384161D01*
X-94482070Y47508252D01*
X-94483422Y47618202D01*
X-94484865Y47715016D01*
X-94486402Y47799701D01*
X-94488037Y47873265D01*
X-94489773Y47936714D01*
X-94491611Y47991055D01*
X-94493557Y48037295D01*
X-94495612Y48076440D01*
X-94497779Y48109498D01*
X-94500062Y48137476D01*
X-94502463Y48161379D01*
X-94504986Y48182215D01*
X-94507633Y48200991D01*
X-94508459Y48206416D01*
X-94599959Y48670034D01*
X-94728207Y49112884D01*
X-94893380Y49535270D01*
X-95095658Y49937497D01*
X-95335219Y50319868D01*
X-95612241Y50682686D01*
X-95926902Y51026256D01*
X-96279381Y51350880D01*
X-96427166Y51472438D01*
X-96724107Y51720187D01*
X-96985849Y51963079D01*
X-97218016Y52207472D01*
X-97426232Y52459722D01*
X-97616119Y52726185D01*
X-97793302Y53013216D01*
X-97798825Y53022812D01*
X-97997210Y53406484D01*
X-98161054Y53807554D01*
X-98291647Y54229757D01*
X-98390282Y54676828D01*
X-98409506Y54789250D01*
X-98427177Y54933559D01*
X-98439719Y55109346D01*
X-98447127Y55306065D01*
X-98449400Y55513171D01*
X-98446536Y55720121D01*
X-98438533Y55916370D01*
X-98425389Y56091373D01*
X-98409791Y56218000D01*
X-98319944Y56675219D01*
X-98196192Y57108822D01*
X-98036897Y57522599D01*
X-97840421Y57920340D01*
X-97605124Y58305835D01*
X-97361820Y58641583D01*
X-97275666Y58744409D01*
X-97164376Y58865678D01*
X-97036004Y58997554D01*
X-96898602Y59132202D01*
X-96760224Y59261786D01*
X-96628923Y59378470D01*
X-96512751Y59474418D01*
X-96480341Y59499272D01*
X-96097002Y59761047D01*
X-95696921Y59984512D01*
X-95278811Y60170210D01*
X-94841384Y60318686D01*
X-94383353Y60430483D01*
X-94194083Y60465053D01*
X-94057064Y60482251D01*
X-93887978Y60494810D01*
X-93696840Y60502728D01*
X-93493662Y60506001D01*
X-93288457Y60504628D01*
G36*
X-40877245Y60473035D02*
G01*
X-40597831Y60428339D01*
X-40156444Y60322960D01*
X-39729584Y60179100D01*
X-39319577Y59998525D01*
X-38928744Y59783005D01*
X-38559410Y59534307D01*
X-38213898Y59254199D01*
X-37894531Y58944450D01*
X-37603633Y58606828D01*
X-37343527Y58243101D01*
X-37116537Y57855036D01*
X-37053915Y57731416D01*
X-36933844Y57472851D01*
X-36836362Y57232597D01*
X-36756314Y56996990D01*
X-36696549Y56784014D01*
X-36599495Y56325283D01*
X-36544486Y55870127D01*
X-36531521Y55417195D01*
X-36560600Y54965139D01*
X-36631720Y54512610D01*
X-36694636Y54240054D01*
X-36821257Y53829458D01*
X-36985904Y53426440D01*
X-37185373Y53036496D01*
X-37416464Y52665123D01*
X-37675974Y52317816D01*
X-37960703Y52000073D01*
X-38052025Y51909932D01*
X-38128919Y51839133D01*
X-38229484Y51750755D01*
X-38343940Y51653165D01*
X-38462510Y51554730D01*
X-38546732Y51486599D01*
X-38836451Y51242704D01*
X-39096517Y50997852D01*
X-39322279Y50756545D01*
X-39413724Y50647484D01*
X-39684860Y50277985D01*
X-39920377Y49887043D01*
X-40119088Y49477484D01*
X-40279808Y49052137D01*
X-40401351Y48613832D01*
X-40482533Y48165395D01*
X-40494498Y48068833D01*
X-40496748Y48045960D01*
X-40498890Y48017138D01*
X-40500926Y47981379D01*
X-40502858Y47937692D01*
X-40504688Y47885089D01*
X-40506417Y47822579D01*
X-40508048Y47749174D01*
X-40509583Y47663883D01*
X-40511024Y47565718D01*
X-40512372Y47453688D01*
X-40513630Y47326804D01*
X-40514800Y47184076D01*
X-40515883Y47024515D01*
X-40516882Y46847132D01*
X-40517798Y46650936D01*
X-40518634Y46434938D01*
X-40519392Y46198150D01*
X-40520073Y45939580D01*
X-40520679Y45658240D01*
X-40521213Y45353139D01*
X-40521676Y45023290D01*
X-40522070Y44667701D01*
X-40522398Y44285383D01*
X-40522661Y43875348D01*
X-40522862Y43436604D01*
X-40523001Y42968163D01*
X-40523082Y42469036D01*
X-40523106Y41938232D01*
X-40523075Y41374762D01*
X-40522991Y40777636D01*
X-40522856Y40145866D01*
X-40522673Y39478460D01*
X-40522442Y38774431D01*
X-40522166Y38032788D01*
X-40521848Y37252542D01*
X-40521488Y36432702D01*
X-40521089Y35572281D01*
X-40520757Y34882000D01*
X-40520320Y33995982D01*
X-40519894Y33151295D01*
X-40519474Y32346936D01*
X-40519057Y31581903D01*
X-40518640Y30855194D01*
X-40518220Y30165806D01*
X-40517794Y29512736D01*
X-40517357Y28894983D01*
X-40516907Y28311543D01*
X-40516440Y27761414D01*
X-40515954Y27243594D01*
X-40515444Y26757080D01*
X-40514907Y26300870D01*
X-40514340Y25873961D01*
X-40513740Y25475351D01*
X-40513103Y25104037D01*
X-40512427Y24759018D01*
X-40511707Y24439289D01*
X-40510940Y24143850D01*
X-40510123Y23871698D01*
X-40509253Y23621829D01*
X-40508327Y23393242D01*
X-40507340Y23184934D01*
X-40506290Y22995903D01*
X-40505174Y22825146D01*
X-40503987Y22671660D01*
X-40502727Y22534444D01*
X-40501391Y22412495D01*
X-40499974Y22304811D01*
X-40498474Y22210388D01*
X-40496888Y22128224D01*
X-40495211Y22057318D01*
X-40493442Y21996666D01*
X-40491575Y21945266D01*
X-40489609Y21902115D01*
X-40487540Y21866212D01*
X-40485363Y21836553D01*
X-40483077Y21812137D01*
X-40480678Y21791960D01*
X-40478162Y21775021D01*
X-40477179Y21769250D01*
X-40398061Y21385370D01*
X-40299663Y21029100D01*
X-40178206Y20688659D01*
X-40029910Y20352264D01*
X-40008726Y20308750D01*
X-39828000Y19970756D01*
X-39629465Y19658040D01*
X-39408299Y19364739D01*
X-39159682Y19084992D01*
X-38878791Y18812940D01*
X-38560806Y18542719D01*
X-38546665Y18531401D01*
X-38431330Y18437685D01*
X-38312906Y18338653D01*
X-38201173Y18242674D01*
X-38105910Y18158118D01*
X-38052025Y18108068D01*
X-37753126Y17792867D01*
X-37481792Y17447821D01*
X-37240113Y17076899D01*
X-37030179Y16684066D01*
X-36854082Y16273289D01*
X-36713910Y15848536D01*
X-36611756Y15413773D01*
X-36601006Y15354612D01*
X-36548622Y14942252D01*
X-36532441Y14516855D01*
X-36551764Y14086128D01*
X-36605892Y13657780D01*
X-36694126Y13239518D01*
X-36815767Y12839048D01*
X-36833706Y12789485D01*
X-37011940Y12365883D01*
X-37224743Y11965020D01*
X-37470110Y11588476D01*
X-37746036Y11237832D01*
X-38050519Y10914668D01*
X-38381552Y10620563D01*
X-38737132Y10357100D01*
X-39115254Y10125857D01*
X-39513914Y9928415D01*
X-39931108Y9766355D01*
X-40364831Y9641257D01*
X-40813079Y9554701D01*
X-40961173Y9535177D01*
X-41065212Y9525580D01*
X-41193600Y9517670D01*
X-41337055Y9511620D01*
X-41486295Y9507601D01*
X-41632036Y9505786D01*
X-41764996Y9506346D01*
X-41875893Y9509453D01*
X-41955444Y9515280D01*
X-41965333Y9516575D01*
X-42009929Y9522533D01*
X-42083418Y9531857D01*
X-42172662Y9542889D01*
X-42208750Y9547278D01*
X-42625116Y9618286D01*
X-43040202Y9729388D01*
X-43448921Y9878517D01*
X-43846188Y10063607D01*
X-44226915Y10282588D01*
X-44529032Y10490327D01*
X-44884554Y10780859D01*
X-45209228Y11099535D01*
X-45501863Y11444292D01*
X-45761270Y11813066D01*
X-45986258Y12203793D01*
X-46175637Y12614410D01*
X-46328216Y13042852D01*
X-46442805Y13487055D01*
X-46517327Y13937583D01*
X-46531721Y14100694D01*
X-46540083Y14292733D01*
X-46542517Y14500745D01*
X-46539126Y14711771D01*
X-46530011Y14912853D01*
X-46515275Y15091035D01*
X-46507705Y15153925D01*
X-46425069Y15612679D01*
X-46302853Y16057288D01*
X-46141804Y16486129D01*
X-45942672Y16897580D01*
X-45706202Y17290016D01*
X-45433144Y17661814D01*
X-45257092Y17868709D01*
X-45158150Y17976505D01*
X-45062522Y18074667D01*
X-44963212Y18169557D01*
X-44853222Y18267533D01*
X-44725556Y18374959D01*
X-44573217Y18498193D01*
X-44505333Y18552129D01*
X-44143164Y18864280D01*
X-43816706Y19198987D01*
X-43526241Y19555779D01*
X-43272054Y19934183D01*
X-43054428Y20333728D01*
X-42873649Y20753945D01*
X-42729998Y21194360D01*
X-42623761Y21654504D01*
X-42618248Y21684583D01*
X-42568583Y21959750D01*
X-42568583Y48058250D01*
X-42617598Y48329404D01*
X-42722001Y48791716D01*
X-42864797Y49236394D01*
X-43045767Y49662953D01*
X-43264692Y50070908D01*
X-43521355Y50459774D01*
X-43658748Y50640583D01*
X-43794272Y50799739D01*
X-43956518Y50971357D01*
X-44135913Y51146108D01*
X-44322884Y51314661D01*
X-44505333Y51465698D01*
X-44705852Y51627049D01*
X-44877199Y51772923D01*
X-45026403Y51909784D01*
X-45160495Y52044098D01*
X-45286504Y52182330D01*
X-45294016Y52190952D01*
X-45587912Y52560044D01*
X-45843239Y52946489D01*
X-46059867Y53350006D01*
X-46237670Y53770316D01*
X-46376520Y54207137D01*
X-46476290Y54660189D01*
X-46507705Y54864075D01*
X-46524695Y55029248D01*
X-46536107Y55222588D01*
X-46541836Y55431136D01*
X-46541782Y55641935D01*
X-46535840Y55842028D01*
X-46523910Y56018457D01*
X-46517327Y56080416D01*
X-46441603Y56535990D01*
X-46327104Y56977372D01*
X-46175339Y57402551D01*
X-45987812Y57809516D01*
X-45766030Y58196256D01*
X-45511498Y58560761D01*
X-45225723Y58901019D01*
X-44910210Y59215019D01*
X-44566466Y59500751D01*
X-44195996Y59756203D01*
X-43800307Y59979365D01*
X-43489333Y60123727D01*
X-43078341Y60275474D01*
X-42650548Y60390553D01*
X-42211248Y60468406D01*
X-41765735Y60508476D01*
X-41319303Y60510205D01*
X-40877245Y60473035D01*
G37*
X-40877245Y60473035D02*
X-40597831Y60428339D01*
X-40156444Y60322960D01*
X-39729584Y60179100D01*
X-39319577Y59998525D01*
X-38928744Y59783005D01*
X-38559410Y59534307D01*
X-38213898Y59254199D01*
X-37894531Y58944450D01*
X-37603633Y58606828D01*
X-37343527Y58243101D01*
X-37116537Y57855036D01*
X-37053915Y57731416D01*
X-36933844Y57472851D01*
X-36836362Y57232597D01*
X-36756314Y56996990D01*
X-36696549Y56784014D01*
X-36599495Y56325283D01*
X-36544486Y55870127D01*
X-36531521Y55417195D01*
X-36560600Y54965139D01*
X-36631720Y54512610D01*
X-36694636Y54240054D01*
X-36821257Y53829458D01*
X-36985904Y53426440D01*
X-37185373Y53036496D01*
X-37416464Y52665123D01*
X-37675974Y52317816D01*
X-37960703Y52000073D01*
X-38052025Y51909932D01*
X-38128919Y51839133D01*
X-38229484Y51750755D01*
X-38343940Y51653165D01*
X-38462510Y51554730D01*
X-38546732Y51486599D01*
X-38836451Y51242704D01*
X-39096517Y50997852D01*
X-39322279Y50756545D01*
X-39413724Y50647484D01*
X-39684860Y50277985D01*
X-39920377Y49887043D01*
X-40119088Y49477484D01*
X-40279808Y49052137D01*
X-40401351Y48613832D01*
X-40482533Y48165395D01*
X-40494498Y48068833D01*
X-40496748Y48045960D01*
X-40498890Y48017138D01*
X-40500926Y47981379D01*
X-40502858Y47937692D01*
X-40504688Y47885089D01*
X-40506417Y47822579D01*
X-40508048Y47749174D01*
X-40509583Y47663883D01*
X-40511024Y47565718D01*
X-40512372Y47453688D01*
X-40513630Y47326804D01*
X-40514800Y47184076D01*
X-40515883Y47024515D01*
X-40516882Y46847132D01*
X-40517798Y46650936D01*
X-40518634Y46434938D01*
X-40519392Y46198150D01*
X-40520073Y45939580D01*
X-40520679Y45658240D01*
X-40521213Y45353139D01*
X-40521676Y45023290D01*
X-40522070Y44667701D01*
X-40522398Y44285383D01*
X-40522661Y43875348D01*
X-40522862Y43436604D01*
X-40523001Y42968163D01*
X-40523082Y42469036D01*
X-40523106Y41938232D01*
X-40523075Y41374762D01*
X-40522991Y40777636D01*
X-40522856Y40145866D01*
X-40522673Y39478460D01*
X-40522442Y38774431D01*
X-40522166Y38032788D01*
X-40521848Y37252542D01*
X-40521488Y36432702D01*
X-40521089Y35572281D01*
X-40520757Y34882000D01*
X-40520320Y33995982D01*
X-40519894Y33151295D01*
X-40519474Y32346936D01*
X-40519057Y31581903D01*
X-40518640Y30855194D01*
X-40518220Y30165806D01*
X-40517794Y29512736D01*
X-40517357Y28894983D01*
X-40516907Y28311543D01*
X-40516440Y27761414D01*
X-40515954Y27243594D01*
X-40515444Y26757080D01*
X-40514907Y26300870D01*
X-40514340Y25873961D01*
X-40513740Y25475351D01*
X-40513103Y25104037D01*
X-40512427Y24759018D01*
X-40511707Y24439289D01*
X-40510940Y24143850D01*
X-40510123Y23871698D01*
X-40509253Y23621829D01*
X-40508327Y23393242D01*
X-40507340Y23184934D01*
X-40506290Y22995903D01*
X-40505174Y22825146D01*
X-40503987Y22671660D01*
X-40502727Y22534444D01*
X-40501391Y22412495D01*
X-40499974Y22304811D01*
X-40498474Y22210388D01*
X-40496888Y22128224D01*
X-40495211Y22057318D01*
X-40493442Y21996666D01*
X-40491575Y21945266D01*
X-40489609Y21902115D01*
X-40487540Y21866212D01*
X-40485363Y21836553D01*
X-40483077Y21812137D01*
X-40480678Y21791960D01*
X-40478162Y21775021D01*
X-40477179Y21769250D01*
X-40398061Y21385370D01*
X-40299663Y21029100D01*
X-40178206Y20688659D01*
X-40029910Y20352264D01*
X-40008726Y20308750D01*
X-39828000Y19970756D01*
X-39629465Y19658040D01*
X-39408299Y19364739D01*
X-39159682Y19084992D01*
X-38878791Y18812940D01*
X-38560806Y18542719D01*
X-38546665Y18531401D01*
X-38431330Y18437685D01*
X-38312906Y18338653D01*
X-38201173Y18242674D01*
X-38105910Y18158118D01*
X-38052025Y18108068D01*
X-37753126Y17792867D01*
X-37481792Y17447821D01*
X-37240113Y17076899D01*
X-37030179Y16684066D01*
X-36854082Y16273289D01*
X-36713910Y15848536D01*
X-36611756Y15413773D01*
X-36601006Y15354612D01*
X-36548622Y14942252D01*
X-36532441Y14516855D01*
X-36551764Y14086128D01*
X-36605892Y13657780D01*
X-36694126Y13239518D01*
X-36815767Y12839048D01*
X-36833706Y12789485D01*
X-37011940Y12365883D01*
X-37224743Y11965020D01*
X-37470110Y11588476D01*
X-37746036Y11237832D01*
X-38050519Y10914668D01*
X-38381552Y10620563D01*
X-38737132Y10357100D01*
X-39115254Y10125857D01*
X-39513914Y9928415D01*
X-39931108Y9766355D01*
X-40364831Y9641257D01*
X-40813079Y9554701D01*
X-40961173Y9535177D01*
X-41065212Y9525580D01*
X-41193600Y9517670D01*
X-41337055Y9511620D01*
X-41486295Y9507601D01*
X-41632036Y9505786D01*
X-41764996Y9506346D01*
X-41875893Y9509453D01*
X-41955444Y9515280D01*
X-41965333Y9516575D01*
X-42009929Y9522533D01*
X-42083418Y9531857D01*
X-42172662Y9542889D01*
X-42208750Y9547278D01*
X-42625116Y9618286D01*
X-43040202Y9729388D01*
X-43448921Y9878517D01*
X-43846188Y10063607D01*
X-44226915Y10282588D01*
X-44529032Y10490327D01*
X-44884554Y10780859D01*
X-45209228Y11099535D01*
X-45501863Y11444292D01*
X-45761270Y11813066D01*
X-45986258Y12203793D01*
X-46175637Y12614410D01*
X-46328216Y13042852D01*
X-46442805Y13487055D01*
X-46517327Y13937583D01*
X-46531721Y14100694D01*
X-46540083Y14292733D01*
X-46542517Y14500745D01*
X-46539126Y14711771D01*
X-46530011Y14912853D01*
X-46515275Y15091035D01*
X-46507705Y15153925D01*
X-46425069Y15612679D01*
X-46302853Y16057288D01*
X-46141804Y16486129D01*
X-45942672Y16897580D01*
X-45706202Y17290016D01*
X-45433144Y17661814D01*
X-45257092Y17868709D01*
X-45158150Y17976505D01*
X-45062522Y18074667D01*
X-44963212Y18169557D01*
X-44853222Y18267533D01*
X-44725556Y18374959D01*
X-44573217Y18498193D01*
X-44505333Y18552129D01*
X-44143164Y18864280D01*
X-43816706Y19198987D01*
X-43526241Y19555779D01*
X-43272054Y19934183D01*
X-43054428Y20333728D01*
X-42873649Y20753945D01*
X-42729998Y21194360D01*
X-42623761Y21654504D01*
X-42618248Y21684583D01*
X-42568583Y21959750D01*
X-42568583Y48058250D01*
X-42617598Y48329404D01*
X-42722001Y48791716D01*
X-42864797Y49236394D01*
X-43045767Y49662953D01*
X-43264692Y50070908D01*
X-43521355Y50459774D01*
X-43658748Y50640583D01*
X-43794272Y50799739D01*
X-43956518Y50971357D01*
X-44135913Y51146108D01*
X-44322884Y51314661D01*
X-44505333Y51465698D01*
X-44705852Y51627049D01*
X-44877199Y51772923D01*
X-45026403Y51909784D01*
X-45160495Y52044098D01*
X-45286504Y52182330D01*
X-45294016Y52190952D01*
X-45587912Y52560044D01*
X-45843239Y52946489D01*
X-46059867Y53350006D01*
X-46237670Y53770316D01*
X-46376520Y54207137D01*
X-46476290Y54660189D01*
X-46507705Y54864075D01*
X-46524695Y55029248D01*
X-46536107Y55222588D01*
X-46541836Y55431136D01*
X-46541782Y55641935D01*
X-46535840Y55842028D01*
X-46523910Y56018457D01*
X-46517327Y56080416D01*
X-46441603Y56535990D01*
X-46327104Y56977372D01*
X-46175339Y57402551D01*
X-45987812Y57809516D01*
X-45766030Y58196256D01*
X-45511498Y58560761D01*
X-45225723Y58901019D01*
X-44910210Y59215019D01*
X-44566466Y59500751D01*
X-44195996Y59756203D01*
X-43800307Y59979365D01*
X-43489333Y60123727D01*
X-43078341Y60275474D01*
X-42650548Y60390553D01*
X-42211248Y60468406D01*
X-41765735Y60508476D01*
X-41319303Y60510205D01*
X-40877245Y60473035D01*
G36*
X-50224036Y81252579D02*
G01*
X-50074651Y81240468D01*
X-50026784Y81235704D01*
X-49516497Y81163372D01*
X-48999225Y81050795D01*
X-48477264Y80899030D01*
X-47952907Y80709135D01*
X-47428450Y80482168D01*
X-46906187Y80219187D01*
X-46388413Y79921250D01*
X-45877423Y79589416D01*
X-45375513Y79224741D01*
X-44981583Y78909668D01*
X-44808802Y78761284D01*
X-44611178Y78583876D01*
X-44391632Y78380374D01*
X-44153086Y78153712D01*
X-43898461Y77906819D01*
X-43630681Y77642628D01*
X-43352666Y77364070D01*
X-43067338Y77074077D01*
X-42777620Y76775580D01*
X-42486433Y76471511D01*
X-42196700Y76164801D01*
X-41911341Y75858382D01*
X-41633279Y75555185D01*
X-41583185Y75500028D01*
X-40616430Y74404724D01*
X-39688576Y73294059D01*
X-38799730Y72168207D01*
X-37950000Y71027345D01*
X-37139492Y69871647D01*
X-36368314Y68701290D01*
X-35636574Y67516449D01*
X-34944378Y66317301D01*
X-34291834Y65104019D01*
X-33679049Y63876781D01*
X-33106131Y62635762D01*
X-32573186Y61381138D01*
X-32080322Y60113084D01*
X-31923167Y59682453D01*
X-31505304Y58463967D01*
X-31125108Y57240637D01*
X-30782114Y56010132D01*
X-30475857Y54770121D01*
X-30205872Y53518273D01*
X-29971693Y52252255D01*
X-29772856Y50969737D01*
X-29608896Y49668387D01*
X-29479346Y48345875D01*
X-29383743Y46999869D01*
X-29380101Y46936416D01*
X-29371347Y46755570D01*
X-29363353Y46537880D01*
X-29356163Y46288830D01*
X-29349819Y46013906D01*
X-29344365Y45718590D01*
X-29339843Y45408367D01*
X-29336296Y45088721D01*
X-29333767Y44765135D01*
X-29332298Y44443095D01*
X-29331934Y44128083D01*
X-29332716Y43825583D01*
X-29334687Y43541081D01*
X-29337891Y43280059D01*
X-29342370Y43048002D01*
X-29348165Y42850427D01*
X-29415265Y41487821D01*
X-29517699Y40136960D01*
X-29656099Y38792791D01*
X-29831099Y37450263D01*
X-30043332Y36104327D01*
X-30293429Y34749930D01*
X-30471334Y33887166D01*
X-30678995Y32964100D01*
X-30907359Y32033732D01*
X-31154684Y31101625D01*
X-31419224Y30173345D01*
X-31699237Y29254458D01*
X-31992979Y28350527D01*
X-32298705Y27467117D01*
X-32614672Y26609794D01*
X-32939137Y25784122D01*
X-33223902Y25103000D01*
X-33317271Y24886992D01*
X-33395881Y24707098D01*
X-33461196Y24560333D01*
X-33514678Y24443710D01*
X-33557791Y24354240D01*
X-33591997Y24288939D01*
X-33618761Y24244817D01*
X-33639544Y24218890D01*
X-33655810Y24208169D01*
X-33662512Y24207555D01*
X-33693349Y24212845D01*
X-33759211Y24225384D01*
X-33853655Y24243904D01*
X-33970239Y24267135D01*
X-34102520Y24293808D01*
X-34172122Y24307954D01*
X-35018094Y24466634D01*
X-35893035Y24604228D01*
X-36788628Y24719694D01*
X-37696555Y24811991D01*
X-38608499Y24880080D01*
X-38859277Y24894443D01*
X-39340971Y24920200D01*
X-39335181Y36478642D01*
X-39329391Y48037083D01*
X-39280714Y48248175D01*
X-39170464Y48649938D01*
X-39031227Y49022556D01*
X-38861560Y49369027D01*
X-38660021Y49692354D01*
X-38461377Y49952666D01*
X-38331809Y50099652D01*
X-38189498Y50243355D01*
X-38026882Y50390902D01*
X-37836400Y50549419D01*
X-37782437Y50592470D01*
X-37454088Y50866236D01*
X-37159946Y51141850D01*
X-36892367Y51427531D01*
X-36643708Y51731500D01*
X-36406326Y52061980D01*
X-36380750Y52100041D01*
X-36125376Y52520125D01*
X-35903816Y52963924D01*
X-35717226Y53428216D01*
X-35566761Y53909778D01*
X-35453577Y54405389D01*
X-35381838Y54884500D01*
X-35365338Y55090056D01*
X-35357541Y55325273D01*
X-35358117Y55578454D01*
X-35366735Y55837900D01*
X-35383066Y56091914D01*
X-35406779Y56328798D01*
X-35426617Y56472000D01*
X-35525818Y56967156D01*
X-35664325Y57448978D01*
X-35840658Y57915473D01*
X-36053337Y58364648D01*
X-36300883Y58794507D01*
X-36581814Y59203058D01*
X-36894652Y59588306D01*
X-37237915Y59948257D01*
X-37610124Y60280918D01*
X-38009799Y60584295D01*
X-38435459Y60856393D01*
X-38843250Y61074702D01*
X-39302668Y61276126D01*
X-39773474Y61437793D01*
X-40253112Y61559920D01*
X-40739028Y61642723D01*
X-41228668Y61686418D01*
X-41719478Y61691221D01*
X-42208904Y61657347D01*
X-42694391Y61585013D01*
X-43173385Y61474435D01*
X-43643332Y61325828D01*
X-44101677Y61139409D01*
X-44545867Y60915393D01*
X-44973347Y60653997D01*
X-45133727Y60542868D01*
X-45528302Y60234310D01*
X-45898773Y59892540D01*
X-46242069Y59521083D01*
X-46555118Y59123467D01*
X-46834849Y58703218D01*
X-47020038Y58377000D01*
X-47229376Y57936097D01*
X-47404611Y57472863D01*
X-47544106Y56992138D01*
X-47636314Y56556666D01*
X-47698476Y56090648D01*
X-47724364Y55612361D01*
X-47713979Y55131367D01*
X-47667318Y54657226D01*
X-47636682Y54461166D01*
X-47541811Y54017234D01*
X-47413418Y53575065D01*
X-47254938Y53144470D01*
X-47069806Y52735261D01*
X-46958537Y52524072D01*
X-46718955Y52126945D01*
X-46454870Y51754843D01*
X-46162230Y51403025D01*
X-45836985Y51066746D01*
X-45475082Y50741265D01*
X-45341416Y50630967D01*
X-45217141Y50527890D01*
X-45087764Y50415968D01*
X-44962919Y50303854D01*
X-44852239Y50200199D01*
X-44765357Y50113657D01*
X-44764660Y50112927D01*
X-44512923Y49818814D01*
X-44293643Y49499037D01*
X-44108177Y49156655D01*
X-43957884Y48794725D01*
X-43844120Y48416305D01*
X-43768244Y48024453D01*
X-43743981Y47813798D01*
X-43742184Y47771920D01*
X-43740464Y47687819D01*
X-43738821Y47561605D01*
X-43737254Y47393386D01*
X-43735764Y47183274D01*
X-43734352Y46931378D01*
X-43733016Y46637808D01*
X-43731759Y46302673D01*
X-43730579Y45926085D01*
X-43729478Y45508152D01*
X-43728454Y45048984D01*
X-43727509Y44548692D01*
X-43726643Y44007384D01*
X-43725856Y43425172D01*
X-43725147Y42802165D01*
X-43724518Y42138473D01*
X-43723968Y41434205D01*
X-43723499Y40689471D01*
X-43723108Y39904382D01*
X-43722798Y39079048D01*
X-43722569Y38213577D01*
X-43722419Y37308080D01*
X-43722351Y36362668D01*
X-43722348Y36211505D01*
X-43722166Y24851594D01*
X-43812125Y24840767D01*
X-43865556Y24835355D01*
X-43950905Y24827882D01*
X-44057857Y24819201D01*
X-44176095Y24810170D01*
X-44219583Y24806987D01*
X-45253925Y24717618D01*
X-46307399Y24598145D01*
X-47370805Y24449916D01*
X-48434941Y24274282D01*
X-49490608Y24072591D01*
X-50082750Y23946986D01*
X-51262942Y23667922D01*
X-52426963Y23353724D01*
X-53573656Y23004969D01*
X-54701865Y22622230D01*
X-55810434Y22206083D01*
X-56898206Y21757102D01*
X-57964026Y21275864D01*
X-59006736Y20762942D01*
X-60025182Y20218912D01*
X-61018206Y19644349D01*
X-61984652Y19039828D01*
X-62923364Y18405924D01*
X-63833186Y17743212D01*
X-64712961Y17052267D01*
X-65561534Y16333664D01*
X-65777833Y16141538D01*
X-65890412Y16038437D01*
X-66023251Y15913277D01*
X-66171548Y15770860D01*
X-66330503Y15615991D01*
X-66495313Y15453474D01*
X-66661176Y15288112D01*
X-66823292Y15124708D01*
X-66976858Y14968066D01*
X-67117073Y14822991D01*
X-67239134Y14694285D01*
X-67338242Y14586752D01*
X-67387138Y14531571D01*
X-67464978Y14441803D01*
X-67538530Y14357227D01*
X-67600626Y14286069D01*
X-67644094Y14236557D01*
X-67651519Y14228178D01*
X-67715454Y14156298D01*
X-67855416Y14323502D01*
X-68010843Y14502978D01*
X-68194575Y14704396D01*
X-68402008Y14923065D01*
X-68628542Y15154293D01*
X-68869574Y15393389D01*
X-69120503Y15635663D01*
X-69376727Y15876421D01*
X-69398122Y15896221D01*
X-70127181Y16545229D01*
X-70893776Y17179700D01*
X-71695069Y17797833D01*
X-72528224Y18397827D01*
X-73390405Y18977881D01*
X-74278774Y19536194D01*
X-75190496Y20070965D01*
X-76122732Y20580392D01*
X-77072647Y21062674D01*
X-78037404Y21516011D01*
X-78720349Y21815288D01*
X-79875124Y22284047D01*
X-81044486Y22714327D01*
X-82229113Y23106293D01*
X-83429682Y23460113D01*
X-84646871Y23775953D01*
X-85881357Y24053980D01*
X-87133817Y24294359D01*
X-88404928Y24497258D01*
X-89695368Y24662844D01*
X-90728041Y24767303D01*
X-91262500Y24815098D01*
X-91262500Y36238639D01*
X-91262463Y37188413D01*
X-91262354Y38096085D01*
X-91262170Y38961885D01*
X-91261913Y39786043D01*
X-91261580Y40568792D01*
X-91261173Y41310360D01*
X-91260690Y42010980D01*
X-91260132Y42670882D01*
X-91259497Y43290296D01*
X-91258785Y43869453D01*
X-91257996Y44408584D01*
X-91257130Y44907920D01*
X-91256185Y45367692D01*
X-91255162Y45788129D01*
X-91254060Y46169464D01*
X-91252879Y46511926D01*
X-91251617Y46815746D01*
X-91250276Y47081156D01*
X-91248853Y47308385D01*
X-91247350Y47497664D01*
X-91245765Y47649225D01*
X-91244097Y47763298D01*
X-91242348Y47840114D01*
X-91240515Y47879903D01*
X-91240376Y47881382D01*
X-91181302Y48266930D01*
X-91083563Y48645891D01*
X-90949302Y49011783D01*
X-90780661Y49358126D01*
X-90713986Y49473404D01*
X-90551940Y49718794D01*
X-90368342Y49952172D01*
X-90158105Y50179085D01*
X-89916139Y50405080D01*
X-89675000Y50605949D01*
X-89269497Y50953671D01*
X-88900636Y51322592D01*
X-88568429Y51712695D01*
X-88272884Y52123963D01*
X-88014012Y52556377D01*
X-87791823Y53009922D01*
X-87606327Y53484578D01*
X-87457534Y53980330D01*
X-87345454Y54497159D01*
X-87311674Y54704583D01*
X-87295485Y54847398D01*
X-87283491Y55022674D01*
X-87275691Y55220747D01*
X-87272086Y55431953D01*
X-87272676Y55646627D01*
X-87277463Y55855107D01*
X-87286445Y56047727D01*
X-87299623Y56214824D01*
X-87311614Y56313250D01*
X-87378375Y56702518D01*
X-87460462Y57062996D01*
X-87561552Y57406591D01*
X-87685323Y57745215D01*
X-87835454Y58090774D01*
X-87906555Y58239416D01*
X-88149830Y58688852D01*
X-88425486Y59111931D01*
X-88731895Y59507505D01*
X-89067426Y59874423D01*
X-89430451Y60211536D01*
X-89819340Y60517693D01*
X-90232464Y60791744D01*
X-90668193Y61032540D01*
X-91124897Y61238931D01*
X-91600947Y61409766D01*
X-92094714Y61543897D01*
X-92604568Y61640172D01*
X-92754750Y61660790D01*
X-92888118Y61673188D01*
X-93053606Y61681737D01*
X-93241181Y61686510D01*
X-93440811Y61687577D01*
X-93642463Y61685010D01*
X-93836105Y61678878D01*
X-94011706Y61669254D01*
X-94159232Y61656208D01*
X-94204666Y61650531D01*
X-94724897Y61559413D01*
X-95222382Y61432960D01*
X-95698543Y61270597D01*
X-96154798Y61071748D01*
X-96592569Y60835838D01*
X-97013276Y60562290D01*
X-97168000Y60449082D01*
X-97566840Y60122174D01*
X-97933824Y59767856D01*
X-98268044Y59387377D01*
X-98568594Y58981989D01*
X-98834567Y58552942D01*
X-99065057Y58101486D01*
X-99259155Y57628874D01*
X-99302986Y57504336D01*
X-99449114Y57010590D01*
X-99553535Y56511969D01*
X-99616249Y56010208D01*
X-99637260Y55507041D01*
X-99616568Y55004203D01*
X-99554176Y54503429D01*
X-99450086Y54006453D01*
X-99304300Y53515011D01*
X-99298494Y53498083D01*
X-99112285Y53020124D01*
X-98890859Y52565230D01*
X-98633944Y52133026D01*
X-98341268Y51723139D01*
X-98012558Y51335194D01*
X-97647544Y50968817D01*
X-97245953Y50623633D01*
X-97164313Y50559498D01*
X-96901820Y50341019D01*
X-96672002Y50116155D01*
X-96483757Y49898842D01*
X-96249399Y49572631D01*
X-96050274Y49223569D01*
X-95887220Y48853480D01*
X-95761070Y48464188D01*
X-95693883Y48174666D01*
X-95691033Y48159136D01*
X-95688324Y48141721D01*
X-95685750Y48121356D01*
X-95683307Y48096978D01*
X-95680993Y48067520D01*
X-95678801Y48031918D01*
X-95676729Y47989108D01*
X-95674773Y47938024D01*
X-95672927Y47877602D01*
X-95671189Y47806776D01*
X-95669554Y47724482D01*
X-95668018Y47629655D01*
X-95666577Y47521230D01*
X-95665227Y47398142D01*
X-95663964Y47259326D01*
X-95662784Y47103718D01*
X-95661682Y46930253D01*
X-95660655Y46737865D01*
X-95659699Y46525490D01*
X-95658809Y46292063D01*
X-95657982Y46036520D01*
X-95657214Y45757794D01*
X-95656499Y45454822D01*
X-95655835Y45126539D01*
X-95655218Y44771879D01*
X-95654642Y44389778D01*
X-95654105Y43979171D01*
X-95653602Y43538993D01*
X-95653128Y43068180D01*
X-95652681Y42565666D01*
X-95652255Y42030386D01*
X-95651848Y41461276D01*
X-95651454Y40857270D01*
X-95651070Y40217305D01*
X-95650691Y39540315D01*
X-95650314Y38825234D01*
X-95649934Y38071000D01*
X-95649548Y37276545D01*
X-95649158Y36453625D01*
X-95643732Y24933666D01*
X-95691491Y24933465D01*
X-95756411Y24932044D01*
X-95856750Y24928393D01*
X-95985677Y24922863D01*
X-96136354Y24915805D01*
X-96301950Y24907568D01*
X-96475628Y24898505D01*
X-96650556Y24888965D01*
X-96819899Y24879299D01*
X-96976822Y24869858D01*
X-97114491Y24860993D01*
X-97146833Y24858788D01*
X-97604095Y24823267D01*
X-98079297Y24779024D01*
X-98564882Y24727066D01*
X-99053290Y24668397D01*
X-99536965Y24604021D01*
X-100008347Y24534943D01*
X-100459879Y24462168D01*
X-100884002Y24386701D01*
X-101263511Y24311572D01*
X-101336353Y24296874D01*
X-101390235Y24287097D01*
X-101414478Y24284162D01*
X-101414859Y24284317D01*
X-101426755Y24307296D01*
X-101452498Y24363169D01*
X-101489430Y24445847D01*
X-101534898Y24549240D01*
X-101586243Y24667258D01*
X-101640811Y24793811D01*
X-101695946Y24922809D01*
X-101748991Y25048163D01*
X-101773696Y25107082D01*
X-102012972Y25696212D01*
X-102253612Y26320659D01*
X-102493273Y26973567D01*
X-102729613Y27648084D01*
X-102960290Y28337353D01*
X-103182960Y29034522D01*
X-103395282Y29732736D01*
X-103594912Y30425140D01*
X-103611485Y30484457D01*
X-103985734Y31900696D01*
X-104321707Y33325442D01*
X-104618846Y34755675D01*
X-104876594Y36188372D01*
X-105094394Y37620513D01*
X-105271689Y39049075D01*
X-105368648Y40014916D01*
X-105414453Y40541687D01*
X-105453540Y41040925D01*
X-105486285Y41521165D01*
X-105513069Y41990944D01*
X-105534269Y42458798D01*
X-105550264Y42933262D01*
X-105561432Y43422874D01*
X-105568152Y43936168D01*
X-105570802Y44481680D01*
X-105570874Y44576333D01*
X-105569375Y45090997D01*
X-105564417Y45571559D01*
X-105555678Y46026136D01*
X-105542837Y46462842D01*
X-105525572Y46889793D01*
X-105503560Y47315105D01*
X-105476480Y47746894D01*
X-105444009Y48193274D01*
X-105411381Y48596776D01*
X-105274932Y49970962D01*
X-105098069Y51332629D01*
X-104880898Y52681510D01*
X-104623526Y54017339D01*
X-104326059Y55339848D01*
X-103988604Y56648771D01*
X-103611268Y57943841D01*
X-103194158Y59224791D01*
X-102737379Y60491356D01*
X-102241040Y61743268D01*
X-101705246Y62980260D01*
X-101130105Y64202066D01*
X-100515722Y65408419D01*
X-99862206Y66599052D01*
X-99169661Y67773700D01*
X-98438196Y68932094D01*
X-97667917Y70073968D01*
X-96858930Y71199057D01*
X-96011342Y72307092D01*
X-95836973Y72526916D01*
X-95049766Y73488549D01*
X-94235686Y74433818D01*
X-93392338Y75365214D01*
X-92517330Y76285225D01*
X-91608268Y77196340D01*
X-90662757Y78101049D01*
X-89678405Y79001840D01*
X-89213752Y79413947D01*
X-89089211Y79521550D01*
X-88987136Y79605962D01*
X-88909612Y79665568D01*
X-88858724Y79698753D01*
X-88838110Y79705036D01*
X-88807239Y79688336D01*
X-88751578Y79654035D01*
X-88681268Y79608453D01*
X-88653774Y79590132D01*
X-88237139Y79328224D01*
X-87782508Y79075558D01*
X-87293405Y78833122D01*
X-86773358Y78601911D01*
X-86225892Y78382914D01*
X-85654532Y78177124D01*
X-85062804Y77985532D01*
X-84454233Y77809130D01*
X-83832346Y77648909D01*
X-83200667Y77505861D01*
X-82562724Y77380978D01*
X-81922040Y77275250D01*
X-81282143Y77189670D01*
X-80646557Y77125230D01*
X-80018808Y77082920D01*
X-79692787Y77069877D01*
X-79182658Y77054472D01*
X-79068371Y76982055D01*
X-78896851Y76869274D01*
X-78721410Y76745448D01*
X-78540248Y76608897D01*
X-78351569Y76457944D01*
X-78153576Y76290910D01*
X-77944471Y76106115D01*
X-77722457Y75901882D01*
X-77485735Y75676532D01*
X-77232510Y75428386D01*
X-76960982Y75155766D01*
X-76669356Y74856993D01*
X-76355833Y74530388D01*
X-76018616Y74174272D01*
X-75715095Y73850424D01*
X-75342584Y73451797D01*
X-74996755Y73082771D01*
X-74675840Y72741598D01*
X-74378070Y72426528D01*
X-74101679Y72135815D01*
X-73844897Y71867711D01*
X-73605956Y71620467D01*
X-73383090Y71392335D01*
X-73174529Y71181568D01*
X-72978505Y70986418D01*
X-72793252Y70805136D01*
X-72616999Y70635975D01*
X-72447981Y70477186D01*
X-72284427Y70327022D01*
X-72124571Y70183734D01*
X-71966645Y70045576D01*
X-71808880Y69910797D01*
X-71649508Y69777652D01*
X-71486761Y69644392D01*
X-71346337Y69531232D01*
X-70831824Y69134979D01*
X-70328479Y68779211D01*
X-69835761Y68463732D01*
X-69353131Y68188344D01*
X-68880048Y67952850D01*
X-68415972Y67757055D01*
X-67960363Y67600760D01*
X-67512681Y67483769D01*
X-67072386Y67405886D01*
X-66638937Y67366912D01*
X-66211795Y67366652D01*
X-65790419Y67404909D01*
X-65597092Y67435618D01*
X-65191328Y67527419D01*
X-64787228Y67656233D01*
X-64384045Y67822570D01*
X-63981038Y68026937D01*
X-63577463Y68269844D01*
X-63172575Y68551799D01*
X-62765632Y68873310D01*
X-62355888Y69234887D01*
X-61942601Y69637037D01*
X-61525028Y70080270D01*
X-61215256Y70432173D01*
X-61058659Y70617965D01*
X-60880064Y70835313D01*
X-60681821Y71081146D01*
X-60466282Y71352390D01*
X-60235798Y71645972D01*
X-59992721Y71958819D01*
X-59739402Y72287860D01*
X-59478191Y72630021D01*
X-59211440Y72982229D01*
X-58941501Y73341412D01*
X-58670725Y73704496D01*
X-58401462Y74068410D01*
X-58136065Y74430080D01*
X-57876884Y74786434D01*
X-57766828Y74938800D01*
X-57483857Y75333651D01*
X-57203323Y75729455D01*
X-56926490Y76124262D01*
X-56654617Y76516121D01*
X-56388969Y76903085D01*
X-56130805Y77283201D01*
X-55881388Y77654521D01*
X-55641981Y78015096D01*
X-55413843Y78362974D01*
X-55198239Y78696207D01*
X-54996428Y79012844D01*
X-54809674Y79310936D01*
X-54639237Y79588533D01*
X-54486380Y79843685D01*
X-54352365Y80074442D01*
X-54238452Y80278855D01*
X-54145905Y80454974D01*
X-54075985Y80600849D01*
X-54031033Y80711442D01*
X-53991370Y80824250D01*
X-53666893Y80839227D01*
X-53192704Y80863804D01*
X-52758144Y80892059D01*
X-52360645Y80924313D01*
X-51997637Y80960881D01*
X-51666550Y81002082D01*
X-51364815Y81048233D01*
X-51089861Y81099654D01*
X-50839120Y81156660D01*
X-50623067Y81215664D01*
X-50533977Y81238339D01*
X-50444145Y81251835D01*
X-50344016Y81256475D01*
X-50224036Y81252579D01*
G37*
X-50224036Y81252579D02*
X-50074651Y81240468D01*
X-50026784Y81235704D01*
X-49516497Y81163372D01*
X-48999225Y81050795D01*
X-48477264Y80899030D01*
X-47952907Y80709135D01*
X-47428450Y80482168D01*
X-46906187Y80219187D01*
X-46388413Y79921250D01*
X-45877423Y79589416D01*
X-45375513Y79224741D01*
X-44981583Y78909668D01*
X-44808802Y78761284D01*
X-44611178Y78583876D01*
X-44391632Y78380374D01*
X-44153086Y78153712D01*
X-43898461Y77906819D01*
X-43630681Y77642628D01*
X-43352666Y77364070D01*
X-43067338Y77074077D01*
X-42777620Y76775580D01*
X-42486433Y76471511D01*
X-42196700Y76164801D01*
X-41911341Y75858382D01*
X-41633279Y75555185D01*
X-41583185Y75500028D01*
X-40616430Y74404724D01*
X-39688576Y73294059D01*
X-38799730Y72168207D01*
X-37950000Y71027345D01*
X-37139492Y69871647D01*
X-36368314Y68701290D01*
X-35636574Y67516449D01*
X-34944378Y66317301D01*
X-34291834Y65104019D01*
X-33679049Y63876781D01*
X-33106131Y62635762D01*
X-32573186Y61381138D01*
X-32080322Y60113084D01*
X-31923167Y59682453D01*
X-31505304Y58463967D01*
X-31125108Y57240637D01*
X-30782114Y56010132D01*
X-30475857Y54770121D01*
X-30205872Y53518273D01*
X-29971693Y52252255D01*
X-29772856Y50969737D01*
X-29608896Y49668387D01*
X-29479346Y48345875D01*
X-29383743Y46999869D01*
X-29380101Y46936416D01*
X-29371347Y46755570D01*
X-29363353Y46537880D01*
X-29356163Y46288830D01*
X-29349819Y46013906D01*
X-29344365Y45718590D01*
X-29339843Y45408367D01*
X-29336296Y45088721D01*
X-29333767Y44765135D01*
X-29332298Y44443095D01*
X-29331934Y44128083D01*
X-29332716Y43825583D01*
X-29334687Y43541081D01*
X-29337891Y43280059D01*
X-29342370Y43048002D01*
X-29348165Y42850427D01*
X-29415265Y41487821D01*
X-29517699Y40136960D01*
X-29656099Y38792791D01*
X-29831099Y37450263D01*
X-30043332Y36104327D01*
X-30293429Y34749930D01*
X-30471334Y33887166D01*
X-30678995Y32964100D01*
X-30907359Y32033732D01*
X-31154684Y31101625D01*
X-31419224Y30173345D01*
X-31699237Y29254458D01*
X-31992979Y28350527D01*
X-32298705Y27467117D01*
X-32614672Y26609794D01*
X-32939137Y25784122D01*
X-33223902Y25103000D01*
X-33317271Y24886992D01*
X-33395881Y24707098D01*
X-33461196Y24560333D01*
X-33514678Y24443710D01*
X-33557791Y24354240D01*
X-33591997Y24288939D01*
X-33618761Y24244817D01*
X-33639544Y24218890D01*
X-33655810Y24208169D01*
X-33662512Y24207555D01*
X-33693349Y24212845D01*
X-33759211Y24225384D01*
X-33853655Y24243904D01*
X-33970239Y24267135D01*
X-34102520Y24293808D01*
X-34172122Y24307954D01*
X-35018094Y24466634D01*
X-35893035Y24604228D01*
X-36788628Y24719694D01*
X-37696555Y24811991D01*
X-38608499Y24880080D01*
X-38859277Y24894443D01*
X-39340971Y24920200D01*
X-39335181Y36478642D01*
X-39329391Y48037083D01*
X-39280714Y48248175D01*
X-39170464Y48649938D01*
X-39031227Y49022556D01*
X-38861560Y49369027D01*
X-38660021Y49692354D01*
X-38461377Y49952666D01*
X-38331809Y50099652D01*
X-38189498Y50243355D01*
X-38026882Y50390902D01*
X-37836400Y50549419D01*
X-37782437Y50592470D01*
X-37454088Y50866236D01*
X-37159946Y51141850D01*
X-36892367Y51427531D01*
X-36643708Y51731500D01*
X-36406326Y52061980D01*
X-36380750Y52100041D01*
X-36125376Y52520125D01*
X-35903816Y52963924D01*
X-35717226Y53428216D01*
X-35566761Y53909778D01*
X-35453577Y54405389D01*
X-35381838Y54884500D01*
X-35365338Y55090056D01*
X-35357541Y55325273D01*
X-35358117Y55578454D01*
X-35366735Y55837900D01*
X-35383066Y56091914D01*
X-35406779Y56328798D01*
X-35426617Y56472000D01*
X-35525818Y56967156D01*
X-35664325Y57448978D01*
X-35840658Y57915473D01*
X-36053337Y58364648D01*
X-36300883Y58794507D01*
X-36581814Y59203058D01*
X-36894652Y59588306D01*
X-37237915Y59948257D01*
X-37610124Y60280918D01*
X-38009799Y60584295D01*
X-38435459Y60856393D01*
X-38843250Y61074702D01*
X-39302668Y61276126D01*
X-39773474Y61437793D01*
X-40253112Y61559920D01*
X-40739028Y61642723D01*
X-41228668Y61686418D01*
X-41719478Y61691221D01*
X-42208904Y61657347D01*
X-42694391Y61585013D01*
X-43173385Y61474435D01*
X-43643332Y61325828D01*
X-44101677Y61139409D01*
X-44545867Y60915393D01*
X-44973347Y60653997D01*
X-45133727Y60542868D01*
X-45528302Y60234310D01*
X-45898773Y59892540D01*
X-46242069Y59521083D01*
X-46555118Y59123467D01*
X-46834849Y58703218D01*
X-47020038Y58377000D01*
X-47229376Y57936097D01*
X-47404611Y57472863D01*
X-47544106Y56992138D01*
X-47636314Y56556666D01*
X-47698476Y56090648D01*
X-47724364Y55612361D01*
X-47713979Y55131367D01*
X-47667318Y54657226D01*
X-47636682Y54461166D01*
X-47541811Y54017234D01*
X-47413418Y53575065D01*
X-47254938Y53144470D01*
X-47069806Y52735261D01*
X-46958537Y52524072D01*
X-46718955Y52126945D01*
X-46454870Y51754843D01*
X-46162230Y51403025D01*
X-45836985Y51066746D01*
X-45475082Y50741265D01*
X-45341416Y50630967D01*
X-45217141Y50527890D01*
X-45087764Y50415968D01*
X-44962919Y50303854D01*
X-44852239Y50200199D01*
X-44765357Y50113657D01*
X-44764660Y50112927D01*
X-44512923Y49818814D01*
X-44293643Y49499037D01*
X-44108177Y49156655D01*
X-43957884Y48794725D01*
X-43844120Y48416305D01*
X-43768244Y48024453D01*
X-43743981Y47813798D01*
X-43742184Y47771920D01*
X-43740464Y47687819D01*
X-43738821Y47561605D01*
X-43737254Y47393386D01*
X-43735764Y47183274D01*
X-43734352Y46931378D01*
X-43733016Y46637808D01*
X-43731759Y46302673D01*
X-43730579Y45926085D01*
X-43729478Y45508152D01*
X-43728454Y45048984D01*
X-43727509Y44548692D01*
X-43726643Y44007384D01*
X-43725856Y43425172D01*
X-43725147Y42802165D01*
X-43724518Y42138473D01*
X-43723968Y41434205D01*
X-43723499Y40689471D01*
X-43723108Y39904382D01*
X-43722798Y39079048D01*
X-43722569Y38213577D01*
X-43722419Y37308080D01*
X-43722351Y36362668D01*
X-43722348Y36211505D01*
X-43722166Y24851594D01*
X-43812125Y24840767D01*
X-43865556Y24835355D01*
X-43950905Y24827882D01*
X-44057857Y24819201D01*
X-44176095Y24810170D01*
X-44219583Y24806987D01*
X-45253925Y24717618D01*
X-46307399Y24598145D01*
X-47370805Y24449916D01*
X-48434941Y24274282D01*
X-49490608Y24072591D01*
X-50082750Y23946986D01*
X-51262942Y23667922D01*
X-52426963Y23353724D01*
X-53573656Y23004969D01*
X-54701865Y22622230D01*
X-55810434Y22206083D01*
X-56898206Y21757102D01*
X-57964026Y21275864D01*
X-59006736Y20762942D01*
X-60025182Y20218912D01*
X-61018206Y19644349D01*
X-61984652Y19039828D01*
X-62923364Y18405924D01*
X-63833186Y17743212D01*
X-64712961Y17052267D01*
X-65561534Y16333664D01*
X-65777833Y16141538D01*
X-65890412Y16038437D01*
X-66023251Y15913277D01*
X-66171548Y15770860D01*
X-66330503Y15615991D01*
X-66495313Y15453474D01*
X-66661176Y15288112D01*
X-66823292Y15124708D01*
X-66976858Y14968066D01*
X-67117073Y14822991D01*
X-67239134Y14694285D01*
X-67338242Y14586752D01*
X-67387138Y14531571D01*
X-67464978Y14441803D01*
X-67538530Y14357227D01*
X-67600626Y14286069D01*
X-67644094Y14236557D01*
X-67651519Y14228178D01*
X-67715454Y14156298D01*
X-67855416Y14323502D01*
X-68010843Y14502978D01*
X-68194575Y14704396D01*
X-68402008Y14923065D01*
X-68628542Y15154293D01*
X-68869574Y15393389D01*
X-69120503Y15635663D01*
X-69376727Y15876421D01*
X-69398122Y15896221D01*
X-70127181Y16545229D01*
X-70893776Y17179700D01*
X-71695069Y17797833D01*
X-72528224Y18397827D01*
X-73390405Y18977881D01*
X-74278774Y19536194D01*
X-75190496Y20070965D01*
X-76122732Y20580392D01*
X-77072647Y21062674D01*
X-78037404Y21516011D01*
X-78720349Y21815288D01*
X-79875124Y22284047D01*
X-81044486Y22714327D01*
X-82229113Y23106293D01*
X-83429682Y23460113D01*
X-84646871Y23775953D01*
X-85881357Y24053980D01*
X-87133817Y24294359D01*
X-88404928Y24497258D01*
X-89695368Y24662844D01*
X-90728041Y24767303D01*
X-91262500Y24815098D01*
X-91262500Y36238639D01*
X-91262463Y37188413D01*
X-91262354Y38096085D01*
X-91262170Y38961885D01*
X-91261913Y39786043D01*
X-91261580Y40568792D01*
X-91261173Y41310360D01*
X-91260690Y42010980D01*
X-91260132Y42670882D01*
X-91259497Y43290296D01*
X-91258785Y43869453D01*
X-91257996Y44408584D01*
X-91257130Y44907920D01*
X-91256185Y45367692D01*
X-91255162Y45788129D01*
X-91254060Y46169464D01*
X-91252879Y46511926D01*
X-91251617Y46815746D01*
X-91250276Y47081156D01*
X-91248853Y47308385D01*
X-91247350Y47497664D01*
X-91245765Y47649225D01*
X-91244097Y47763298D01*
X-91242348Y47840114D01*
X-91240515Y47879903D01*
X-91240376Y47881382D01*
X-91181302Y48266930D01*
X-91083563Y48645891D01*
X-90949302Y49011783D01*
X-90780661Y49358126D01*
X-90713986Y49473404D01*
X-90551940Y49718794D01*
X-90368342Y49952172D01*
X-90158105Y50179085D01*
X-89916139Y50405080D01*
X-89675000Y50605949D01*
X-89269497Y50953671D01*
X-88900636Y51322592D01*
X-88568429Y51712695D01*
X-88272884Y52123963D01*
X-88014012Y52556377D01*
X-87791823Y53009922D01*
X-87606327Y53484578D01*
X-87457534Y53980330D01*
X-87345454Y54497159D01*
X-87311674Y54704583D01*
X-87295485Y54847398D01*
X-87283491Y55022674D01*
X-87275691Y55220747D01*
X-87272086Y55431953D01*
X-87272676Y55646627D01*
X-87277463Y55855107D01*
X-87286445Y56047727D01*
X-87299623Y56214824D01*
X-87311614Y56313250D01*
X-87378375Y56702518D01*
X-87460462Y57062996D01*
X-87561552Y57406591D01*
X-87685323Y57745215D01*
X-87835454Y58090774D01*
X-87906555Y58239416D01*
X-88149830Y58688852D01*
X-88425486Y59111931D01*
X-88731895Y59507505D01*
X-89067426Y59874423D01*
X-89430451Y60211536D01*
X-89819340Y60517693D01*
X-90232464Y60791744D01*
X-90668193Y61032540D01*
X-91124897Y61238931D01*
X-91600947Y61409766D01*
X-92094714Y61543897D01*
X-92604568Y61640172D01*
X-92754750Y61660790D01*
X-92888118Y61673188D01*
X-93053606Y61681737D01*
X-93241181Y61686510D01*
X-93440811Y61687577D01*
X-93642463Y61685010D01*
X-93836105Y61678878D01*
X-94011706Y61669254D01*
X-94159232Y61656208D01*
X-94204666Y61650531D01*
X-94724897Y61559413D01*
X-95222382Y61432960D01*
X-95698543Y61270597D01*
X-96154798Y61071748D01*
X-96592569Y60835838D01*
X-97013276Y60562290D01*
X-97168000Y60449082D01*
X-97566840Y60122174D01*
X-97933824Y59767856D01*
X-98268044Y59387377D01*
X-98568594Y58981989D01*
X-98834567Y58552942D01*
X-99065057Y58101486D01*
X-99259155Y57628874D01*
X-99302986Y57504336D01*
X-99449114Y57010590D01*
X-99553535Y56511969D01*
X-99616249Y56010208D01*
X-99637260Y55507041D01*
X-99616568Y55004203D01*
X-99554176Y54503429D01*
X-99450086Y54006453D01*
X-99304300Y53515011D01*
X-99298494Y53498083D01*
X-99112285Y53020124D01*
X-98890859Y52565230D01*
X-98633944Y52133026D01*
X-98341268Y51723139D01*
X-98012558Y51335194D01*
X-97647544Y50968817D01*
X-97245953Y50623633D01*
X-97164313Y50559498D01*
X-96901820Y50341019D01*
X-96672002Y50116155D01*
X-96483757Y49898842D01*
X-96249399Y49572631D01*
X-96050274Y49223569D01*
X-95887220Y48853480D01*
X-95761070Y48464188D01*
X-95693883Y48174666D01*
X-95691033Y48159136D01*
X-95688324Y48141721D01*
X-95685750Y48121356D01*
X-95683307Y48096978D01*
X-95680993Y48067520D01*
X-95678801Y48031918D01*
X-95676729Y47989108D01*
X-95674773Y47938024D01*
X-95672927Y47877602D01*
X-95671189Y47806776D01*
X-95669554Y47724482D01*
X-95668018Y47629655D01*
X-95666577Y47521230D01*
X-95665227Y47398142D01*
X-95663964Y47259326D01*
X-95662784Y47103718D01*
X-95661682Y46930253D01*
X-95660655Y46737865D01*
X-95659699Y46525490D01*
X-95658809Y46292063D01*
X-95657982Y46036520D01*
X-95657214Y45757794D01*
X-95656499Y45454822D01*
X-95655835Y45126539D01*
X-95655218Y44771879D01*
X-95654642Y44389778D01*
X-95654105Y43979171D01*
X-95653602Y43538993D01*
X-95653128Y43068180D01*
X-95652681Y42565666D01*
X-95652255Y42030386D01*
X-95651848Y41461276D01*
X-95651454Y40857270D01*
X-95651070Y40217305D01*
X-95650691Y39540315D01*
X-95650314Y38825234D01*
X-95649934Y38071000D01*
X-95649548Y37276545D01*
X-95649158Y36453625D01*
X-95643732Y24933666D01*
X-95691491Y24933465D01*
X-95756411Y24932044D01*
X-95856750Y24928393D01*
X-95985677Y24922863D01*
X-96136354Y24915805D01*
X-96301950Y24907568D01*
X-96475628Y24898505D01*
X-96650556Y24888965D01*
X-96819899Y24879299D01*
X-96976822Y24869858D01*
X-97114491Y24860993D01*
X-97146833Y24858788D01*
X-97604095Y24823267D01*
X-98079297Y24779024D01*
X-98564882Y24727066D01*
X-99053290Y24668397D01*
X-99536965Y24604021D01*
X-100008347Y24534943D01*
X-100459879Y24462168D01*
X-100884002Y24386701D01*
X-101263511Y24311572D01*
X-101336353Y24296874D01*
X-101390235Y24287097D01*
X-101414478Y24284162D01*
X-101414859Y24284317D01*
X-101426755Y24307296D01*
X-101452498Y24363169D01*
X-101489430Y24445847D01*
X-101534898Y24549240D01*
X-101586243Y24667258D01*
X-101640811Y24793811D01*
X-101695946Y24922809D01*
X-101748991Y25048163D01*
X-101773696Y25107082D01*
X-102012972Y25696212D01*
X-102253612Y26320659D01*
X-102493273Y26973567D01*
X-102729613Y27648084D01*
X-102960290Y28337353D01*
X-103182960Y29034522D01*
X-103395282Y29732736D01*
X-103594912Y30425140D01*
X-103611485Y30484457D01*
X-103985734Y31900696D01*
X-104321707Y33325442D01*
X-104618846Y34755675D01*
X-104876594Y36188372D01*
X-105094394Y37620513D01*
X-105271689Y39049075D01*
X-105368648Y40014916D01*
X-105414453Y40541687D01*
X-105453540Y41040925D01*
X-105486285Y41521165D01*
X-105513069Y41990944D01*
X-105534269Y42458798D01*
X-105550264Y42933262D01*
X-105561432Y43422874D01*
X-105568152Y43936168D01*
X-105570802Y44481680D01*
X-105570874Y44576333D01*
X-105569375Y45090997D01*
X-105564417Y45571559D01*
X-105555678Y46026136D01*
X-105542837Y46462842D01*
X-105525572Y46889793D01*
X-105503560Y47315105D01*
X-105476480Y47746894D01*
X-105444009Y48193274D01*
X-105411381Y48596776D01*
X-105274932Y49970962D01*
X-105098069Y51332629D01*
X-104880898Y52681510D01*
X-104623526Y54017339D01*
X-104326059Y55339848D01*
X-103988604Y56648771D01*
X-103611268Y57943841D01*
X-103194158Y59224791D01*
X-102737379Y60491356D01*
X-102241040Y61743268D01*
X-101705246Y62980260D01*
X-101130105Y64202066D01*
X-100515722Y65408419D01*
X-99862206Y66599052D01*
X-99169661Y67773700D01*
X-98438196Y68932094D01*
X-97667917Y70073968D01*
X-96858930Y71199057D01*
X-96011342Y72307092D01*
X-95836973Y72526916D01*
X-95049766Y73488549D01*
X-94235686Y74433818D01*
X-93392338Y75365214D01*
X-92517330Y76285225D01*
X-91608268Y77196340D01*
X-90662757Y78101049D01*
X-89678405Y79001840D01*
X-89213752Y79413947D01*
X-89089211Y79521550D01*
X-88987136Y79605962D01*
X-88909612Y79665568D01*
X-88858724Y79698753D01*
X-88838110Y79705036D01*
X-88807239Y79688336D01*
X-88751578Y79654035D01*
X-88681268Y79608453D01*
X-88653774Y79590132D01*
X-88237139Y79328224D01*
X-87782508Y79075558D01*
X-87293405Y78833122D01*
X-86773358Y78601911D01*
X-86225892Y78382914D01*
X-85654532Y78177124D01*
X-85062804Y77985532D01*
X-84454233Y77809130D01*
X-83832346Y77648909D01*
X-83200667Y77505861D01*
X-82562724Y77380978D01*
X-81922040Y77275250D01*
X-81282143Y77189670D01*
X-80646557Y77125230D01*
X-80018808Y77082920D01*
X-79692787Y77069877D01*
X-79182658Y77054472D01*
X-79068371Y76982055D01*
X-78896851Y76869274D01*
X-78721410Y76745448D01*
X-78540248Y76608897D01*
X-78351569Y76457944D01*
X-78153576Y76290910D01*
X-77944471Y76106115D01*
X-77722457Y75901882D01*
X-77485735Y75676532D01*
X-77232510Y75428386D01*
X-76960982Y75155766D01*
X-76669356Y74856993D01*
X-76355833Y74530388D01*
X-76018616Y74174272D01*
X-75715095Y73850424D01*
X-75342584Y73451797D01*
X-74996755Y73082771D01*
X-74675840Y72741598D01*
X-74378070Y72426528D01*
X-74101679Y72135815D01*
X-73844897Y71867711D01*
X-73605956Y71620467D01*
X-73383090Y71392335D01*
X-73174529Y71181568D01*
X-72978505Y70986418D01*
X-72793252Y70805136D01*
X-72616999Y70635975D01*
X-72447981Y70477186D01*
X-72284427Y70327022D01*
X-72124571Y70183734D01*
X-71966645Y70045576D01*
X-71808880Y69910797D01*
X-71649508Y69777652D01*
X-71486761Y69644392D01*
X-71346337Y69531232D01*
X-70831824Y69134979D01*
X-70328479Y68779211D01*
X-69835761Y68463732D01*
X-69353131Y68188344D01*
X-68880048Y67952850D01*
X-68415972Y67757055D01*
X-67960363Y67600760D01*
X-67512681Y67483769D01*
X-67072386Y67405886D01*
X-66638937Y67366912D01*
X-66211795Y67366652D01*
X-65790419Y67404909D01*
X-65597092Y67435618D01*
X-65191328Y67527419D01*
X-64787228Y67656233D01*
X-64384045Y67822570D01*
X-63981038Y68026937D01*
X-63577463Y68269844D01*
X-63172575Y68551799D01*
X-62765632Y68873310D01*
X-62355888Y69234887D01*
X-61942601Y69637037D01*
X-61525028Y70080270D01*
X-61215256Y70432173D01*
X-61058659Y70617965D01*
X-60880064Y70835313D01*
X-60681821Y71081146D01*
X-60466282Y71352390D01*
X-60235798Y71645972D01*
X-59992721Y71958819D01*
X-59739402Y72287860D01*
X-59478191Y72630021D01*
X-59211440Y72982229D01*
X-58941501Y73341412D01*
X-58670725Y73704496D01*
X-58401462Y74068410D01*
X-58136065Y74430080D01*
X-57876884Y74786434D01*
X-57766828Y74938800D01*
X-57483857Y75333651D01*
X-57203323Y75729455D01*
X-56926490Y76124262D01*
X-56654617Y76516121D01*
X-56388969Y76903085D01*
X-56130805Y77283201D01*
X-55881388Y77654521D01*
X-55641981Y78015096D01*
X-55413843Y78362974D01*
X-55198239Y78696207D01*
X-54996428Y79012844D01*
X-54809674Y79310936D01*
X-54639237Y79588533D01*
X-54486380Y79843685D01*
X-54352365Y80074442D01*
X-54238452Y80278855D01*
X-54145905Y80454974D01*
X-54075985Y80600849D01*
X-54031033Y80711442D01*
X-53991370Y80824250D01*
X-53666893Y80839227D01*
X-53192704Y80863804D01*
X-52758144Y80892059D01*
X-52360645Y80924313D01*
X-51997637Y80960881D01*
X-51666550Y81002082D01*
X-51364815Y81048233D01*
X-51089861Y81099654D01*
X-50839120Y81156660D01*
X-50623067Y81215664D01*
X-50533977Y81238339D01*
X-50444145Y81251835D01*
X-50344016Y81256475D01*
X-50224036Y81252579D01*
G36*
X-66702016Y88247194D02*
G01*
X-66557655Y88222532D01*
X-66426279Y88185575D01*
X-66301411Y88132616D01*
X-66176574Y88059947D01*
X-66045290Y87963858D01*
X-65901084Y87840643D01*
X-65758534Y87707007D01*
X-65581274Y87538103D01*
X-65426861Y87396652D01*
X-65289978Y87278503D01*
X-65165306Y87179504D01*
X-65047529Y87095504D01*
X-64931329Y87022350D01*
X-64811389Y86955892D01*
X-64768081Y86933716D01*
X-64670228Y86886840D01*
X-64570542Y86844483D01*
X-64461908Y86804276D01*
X-64337214Y86763848D01*
X-64189346Y86720830D01*
X-64011190Y86672853D01*
X-63894000Y86642541D01*
X-63276122Y86478329D01*
X-62664936Y86303857D01*
X-62063357Y86120269D01*
X-61474301Y85928711D01*
X-60900684Y85730327D01*
X-60345421Y85526264D01*
X-59811428Y85317664D01*
X-59301620Y85105674D01*
X-58818914Y84891439D01*
X-58366225Y84676102D01*
X-57946469Y84460811D01*
X-57562561Y84246708D01*
X-57217418Y84034939D01*
X-57163000Y83999380D01*
X-56865027Y83791290D01*
X-56608870Y83587732D01*
X-56394289Y83388409D01*
X-56221042Y83193025D01*
X-56088888Y83001284D01*
X-55997587Y82812888D01*
X-55946898Y82627543D01*
X-55935387Y82488895D01*
X-55950459Y82314943D01*
X-55994807Y82113316D01*
X-56067311Y81885804D01*
X-56166848Y81634195D01*
X-56292298Y81360278D01*
X-56442540Y81065843D01*
X-56616453Y80752679D01*
X-56812915Y80422575D01*
X-57030805Y80077320D01*
X-57269002Y79718703D01*
X-57526386Y79348513D01*
X-57801834Y78968539D01*
X-58094227Y78580571D01*
X-58402442Y78186397D01*
X-58725359Y77787807D01*
X-59061856Y77386589D01*
X-59319574Y77088333D01*
X-59556348Y76820884D01*
X-59771222Y76585230D01*
X-59967090Y76378852D01*
X-60146849Y76199236D01*
X-60313394Y76043865D01*
X-60469623Y75910222D01*
X-60618431Y75795791D01*
X-60762713Y75698056D01*
X-60905367Y75614500D01*
X-61049288Y75542607D01*
X-61147913Y75499692D01*
X-61409147Y75412641D01*
X-61689502Y75356481D01*
X-61977985Y75332350D01*
X-62263604Y75341386D01*
X-62442922Y75365658D01*
X-62704453Y75428514D01*
X-62980279Y75523935D01*
X-63262369Y75648517D01*
X-63542694Y75798857D01*
X-63712674Y75903892D01*
X-63884650Y76019313D01*
X-64048217Y76136712D01*
X-64209340Y76261035D01*
X-64373984Y76397227D01*
X-64548114Y76550232D01*
X-64737696Y76724995D01*
X-64948696Y76926460D01*
X-64962916Y76940232D01*
X-65162541Y77132220D01*
X-65341948Y77301286D01*
X-65509914Y77455350D01*
X-65675216Y77602336D01*
X-65846629Y77750166D01*
X-66032932Y77906762D01*
X-66042416Y77914649D01*
X-66691838Y78430422D01*
X-67377517Y78928953D01*
X-68096420Y79408752D01*
X-68845513Y79868334D01*
X-69621761Y80306209D01*
X-70422131Y80720890D01*
X-71243587Y81110890D01*
X-72083096Y81474721D01*
X-72937624Y81810895D01*
X-73804136Y82117925D01*
X-74679598Y82394322D01*
X-75560977Y82638599D01*
X-75800250Y82699022D01*
X-76038729Y82761882D01*
X-76239164Y82824008D01*
X-76405729Y82887748D01*
X-76542600Y82955454D01*
X-76653953Y83029474D01*
X-76743964Y83112160D01*
X-76816808Y83205862D01*
X-76871259Y83301791D01*
X-76905283Y83374789D01*
X-76924339Y83432205D01*
X-76931641Y83491147D01*
X-76930403Y83568722D01*
X-76928402Y83605959D01*
X-76917672Y83715225D01*
X-76896530Y83804072D01*
X-76859543Y83894123D01*
X-76852239Y83909181D01*
X-76740606Y84092868D01*
X-76586984Y84276073D01*
X-76391716Y84458654D01*
X-76155145Y84640469D01*
X-75877614Y84821377D01*
X-75559466Y85001234D01*
X-75201044Y85179900D01*
X-74802690Y85357232D01*
X-74364749Y85533088D01*
X-73887562Y85707327D01*
X-73371473Y85879806D01*
X-72816825Y86050383D01*
X-72223961Y86218916D01*
X-71593223Y86385263D01*
X-70924955Y86549283D01*
X-70219499Y86710833D01*
X-69934213Y86773171D01*
X-69627532Y86842609D01*
X-69357540Y86911632D01*
X-69118700Y86982804D01*
X-68905472Y87058693D01*
X-68712318Y87141865D01*
X-68533701Y87234885D01*
X-68364080Y87340321D01*
X-68197919Y87460738D01*
X-68029677Y87598702D01*
X-67896515Y87717329D01*
X-67801780Y87803683D01*
X-67710929Y87885609D01*
X-67631542Y87956337D01*
X-67571196Y88009095D01*
X-67547602Y88029043D01*
X-67386315Y88135103D01*
X-67201833Y88209296D01*
X-67000634Y88249952D01*
X-66789194Y88255400D01*
X-66702016Y88247194D01*
G37*
X-66702016Y88247194D02*
X-66557655Y88222532D01*
X-66426279Y88185575D01*
X-66301411Y88132616D01*
X-66176574Y88059947D01*
X-66045290Y87963858D01*
X-65901084Y87840643D01*
X-65758534Y87707007D01*
X-65581274Y87538103D01*
X-65426861Y87396652D01*
X-65289978Y87278503D01*
X-65165306Y87179504D01*
X-65047529Y87095504D01*
X-64931329Y87022350D01*
X-64811389Y86955892D01*
X-64768081Y86933716D01*
X-64670228Y86886840D01*
X-64570542Y86844483D01*
X-64461908Y86804276D01*
X-64337214Y86763848D01*
X-64189346Y86720830D01*
X-64011190Y86672853D01*
X-63894000Y86642541D01*
X-63276122Y86478329D01*
X-62664936Y86303857D01*
X-62063357Y86120269D01*
X-61474301Y85928711D01*
X-60900684Y85730327D01*
X-60345421Y85526264D01*
X-59811428Y85317664D01*
X-59301620Y85105674D01*
X-58818914Y84891439D01*
X-58366225Y84676102D01*
X-57946469Y84460811D01*
X-57562561Y84246708D01*
X-57217418Y84034939D01*
X-57163000Y83999380D01*
X-56865027Y83791290D01*
X-56608870Y83587732D01*
X-56394289Y83388409D01*
X-56221042Y83193025D01*
X-56088888Y83001284D01*
X-55997587Y82812888D01*
X-55946898Y82627543D01*
X-55935387Y82488895D01*
X-55950459Y82314943D01*
X-55994807Y82113316D01*
X-56067311Y81885804D01*
X-56166848Y81634195D01*
X-56292298Y81360278D01*
X-56442540Y81065843D01*
X-56616453Y80752679D01*
X-56812915Y80422575D01*
X-57030805Y80077320D01*
X-57269002Y79718703D01*
X-57526386Y79348513D01*
X-57801834Y78968539D01*
X-58094227Y78580571D01*
X-58402442Y78186397D01*
X-58725359Y77787807D01*
X-59061856Y77386589D01*
X-59319574Y77088333D01*
X-59556348Y76820884D01*
X-59771222Y76585230D01*
X-59967090Y76378852D01*
X-60146849Y76199236D01*
X-60313394Y76043865D01*
X-60469623Y75910222D01*
X-60618431Y75795791D01*
X-60762713Y75698056D01*
X-60905367Y75614500D01*
X-61049288Y75542607D01*
X-61147913Y75499692D01*
X-61409147Y75412641D01*
X-61689502Y75356481D01*
X-61977985Y75332350D01*
X-62263604Y75341386D01*
X-62442922Y75365658D01*
X-62704453Y75428514D01*
X-62980279Y75523935D01*
X-63262369Y75648517D01*
X-63542694Y75798857D01*
X-63712674Y75903892D01*
X-63884650Y76019313D01*
X-64048217Y76136712D01*
X-64209340Y76261035D01*
X-64373984Y76397227D01*
X-64548114Y76550232D01*
X-64737696Y76724995D01*
X-64948696Y76926460D01*
X-64962916Y76940232D01*
X-65162541Y77132220D01*
X-65341948Y77301286D01*
X-65509914Y77455350D01*
X-65675216Y77602336D01*
X-65846629Y77750166D01*
X-66032932Y77906762D01*
X-66042416Y77914649D01*
X-66691838Y78430422D01*
X-67377517Y78928953D01*
X-68096420Y79408752D01*
X-68845513Y79868334D01*
X-69621761Y80306209D01*
X-70422131Y80720890D01*
X-71243587Y81110890D01*
X-72083096Y81474721D01*
X-72937624Y81810895D01*
X-73804136Y82117925D01*
X-74679598Y82394322D01*
X-75560977Y82638599D01*
X-75800250Y82699022D01*
X-76038729Y82761882D01*
X-76239164Y82824008D01*
X-76405729Y82887748D01*
X-76542600Y82955454D01*
X-76653953Y83029474D01*
X-76743964Y83112160D01*
X-76816808Y83205862D01*
X-76871259Y83301791D01*
X-76905283Y83374789D01*
X-76924339Y83432205D01*
X-76931641Y83491147D01*
X-76930403Y83568722D01*
X-76928402Y83605959D01*
X-76917672Y83715225D01*
X-76896530Y83804072D01*
X-76859543Y83894123D01*
X-76852239Y83909181D01*
X-76740606Y84092868D01*
X-76586984Y84276073D01*
X-76391716Y84458654D01*
X-76155145Y84640469D01*
X-75877614Y84821377D01*
X-75559466Y85001234D01*
X-75201044Y85179900D01*
X-74802690Y85357232D01*
X-74364749Y85533088D01*
X-73887562Y85707327D01*
X-73371473Y85879806D01*
X-72816825Y86050383D01*
X-72223961Y86218916D01*
X-71593223Y86385263D01*
X-70924955Y86549283D01*
X-70219499Y86710833D01*
X-69934213Y86773171D01*
X-69627532Y86842609D01*
X-69357540Y86911632D01*
X-69118700Y86982804D01*
X-68905472Y87058693D01*
X-68712318Y87141865D01*
X-68533701Y87234885D01*
X-68364080Y87340321D01*
X-68197919Y87460738D01*
X-68029677Y87598702D01*
X-67896515Y87717329D01*
X-67801780Y87803683D01*
X-67710929Y87885609D01*
X-67631542Y87956337D01*
X-67571196Y88009095D01*
X-67547602Y88029043D01*
X-67386315Y88135103D01*
X-67201833Y88209296D01*
X-67000634Y88249952D01*
X-66789194Y88255400D01*
X-66702016Y88247194D01*
G36*
X-80182978Y114159134D02*
G01*
X-79558043Y114104327D01*
X-79504416Y114097701D01*
X-78876783Y113997129D01*
X-78253886Y113855255D01*
X-77636810Y113672950D01*
X-77026639Y113451088D01*
X-76424458Y113190542D01*
X-75831349Y112892184D01*
X-75248398Y112556886D01*
X-74676688Y112185523D01*
X-74117303Y111778965D01*
X-73571327Y111338087D01*
X-73039845Y110863760D01*
X-72523940Y110356858D01*
X-72024696Y109818253D01*
X-71543198Y109248818D01*
X-71080530Y108649425D01*
X-70637775Y108020948D01*
X-70216018Y107364259D01*
X-69816342Y106680231D01*
X-69461490Y106012583D01*
X-69070098Y105193914D01*
X-68716226Y104356374D01*
X-68400250Y103501403D01*
X-68122547Y102630441D01*
X-67883493Y101744928D01*
X-67683465Y100846303D01*
X-67522840Y99936006D01*
X-67401993Y99015477D01*
X-67321302Y98086156D01*
X-67302591Y97758559D01*
X-67296604Y97621253D01*
X-67291497Y97472370D01*
X-67287318Y97317455D01*
X-67284117Y97162054D01*
X-67281942Y97011712D01*
X-67280843Y96871976D01*
X-67280869Y96748391D01*
X-67282068Y96646502D01*
X-67284491Y96571855D01*
X-67288186Y96529996D01*
X-67291648Y96523259D01*
X-67300530Y96546888D01*
X-67316907Y96603554D01*
X-67338546Y96685091D01*
X-67363211Y96783335D01*
X-67366463Y96796662D01*
X-67517216Y97335348D01*
X-67702864Y97857352D01*
X-67921897Y98359438D01*
X-68172804Y98838369D01*
X-68454075Y99290911D01*
X-68674794Y99598915D01*
X-68764829Y99710200D01*
X-68877461Y99838414D01*
X-69005405Y99976179D01*
X-69141375Y100116118D01*
X-69278086Y100250852D01*
X-69408250Y100373004D01*
X-69524583Y100475194D01*
X-69598876Y100534680D01*
X-69967375Y100788950D01*
X-70345082Y101003033D01*
X-70735655Y101178710D01*
X-71142755Y101317762D01*
X-71291750Y101358603D01*
X-71368942Y101377966D01*
X-71435319Y101392645D01*
X-71498662Y101403293D01*
X-71566752Y101410559D01*
X-71647368Y101415096D01*
X-71748292Y101417554D01*
X-71877305Y101418584D01*
X-72011416Y101418821D01*
X-72177606Y101418431D01*
X-72309867Y101416654D01*
X-72416597Y101412933D01*
X-72506194Y101406712D01*
X-72587055Y101397433D01*
X-72667578Y101384540D01*
X-72741666Y101370396D01*
X-73122222Y101274554D01*
X-73506263Y101139654D01*
X-73888789Y100968112D01*
X-74264801Y100762343D01*
X-74629301Y100524765D01*
X-74879500Y100337198D01*
X-74970435Y100260525D01*
X-75083045Y100158537D01*
X-75210960Y100037632D01*
X-75347811Y99904208D01*
X-75487229Y99764661D01*
X-75622844Y99625390D01*
X-75748288Y99492792D01*
X-75857190Y99373264D01*
X-75943183Y99273204D01*
X-75962061Y99249833D01*
X-76042804Y99146082D01*
X-76134729Y99024938D01*
X-76224790Y98903722D01*
X-76280889Y98826500D01*
X-76606881Y98338019D01*
X-76907850Y97818243D01*
X-77182884Y97270673D01*
X-77431072Y96698808D01*
X-77651500Y96106150D01*
X-77843258Y95496199D01*
X-78005434Y94872456D01*
X-78137116Y94238421D01*
X-78237392Y93597595D01*
X-78305349Y92953478D01*
X-78340077Y92309572D01*
X-78340663Y91669377D01*
X-78307135Y91047750D01*
X-78242470Y90456535D01*
X-78146842Y89872093D01*
X-78021514Y89298357D01*
X-77867751Y88739262D01*
X-77686817Y88198742D01*
X-77479977Y87680730D01*
X-77248493Y87189160D01*
X-76993631Y86727967D01*
X-76840376Y86483225D01*
X-76803659Y86427200D01*
X-77032204Y86305300D01*
X-77475449Y86061626D01*
X-77878945Y85824410D01*
X-78244554Y85592324D01*
X-78574140Y85364044D01*
X-78869564Y85138241D01*
X-79132690Y84913590D01*
X-79365380Y84688765D01*
X-79488948Y84555721D01*
X-79720989Y84271417D01*
X-79910912Y83986572D01*
X-80058928Y83700024D01*
X-80165250Y83410613D01*
X-80230088Y83117177D01*
X-80253654Y82818554D01*
X-80236158Y82513582D01*
X-80177813Y82201102D01*
X-80078829Y81879950D01*
X-80008150Y81701565D01*
X-79940366Y81550897D01*
X-79861887Y81393208D01*
X-79769615Y81222949D01*
X-79660453Y81034571D01*
X-79531303Y80822523D01*
X-79409752Y80629350D01*
X-79332937Y80508422D01*
X-79276638Y80418390D01*
X-79238627Y80354447D01*
X-79216672Y80311786D01*
X-79208543Y80285601D01*
X-79212007Y80271086D01*
X-79224836Y80263434D01*
X-79238140Y80259601D01*
X-79308046Y80247214D01*
X-79414431Y80236194D01*
X-79551461Y80226653D01*
X-79713302Y80218700D01*
X-79894117Y80212447D01*
X-80088072Y80208002D01*
X-80289332Y80205478D01*
X-80492063Y80204984D01*
X-80690429Y80206630D01*
X-80878595Y80210528D01*
X-81050727Y80216788D01*
X-81166000Y80223112D01*
X-81858020Y80289056D01*
X-82540927Y80396069D01*
X-83213889Y80543705D01*
X-83876074Y80731520D01*
X-84526650Y80959067D01*
X-85164784Y81225899D01*
X-85789646Y81531572D01*
X-86400403Y81875639D01*
X-86996223Y82257655D01*
X-87576273Y82677174D01*
X-88139723Y83133749D01*
X-88685741Y83626935D01*
X-89213493Y84156286D01*
X-89722149Y84721356D01*
X-89856671Y84880671D01*
X-90355361Y85511466D01*
X-90827619Y86174287D01*
X-91272620Y86867448D01*
X-91689540Y87589265D01*
X-92077553Y88338053D01*
X-92435836Y89112128D01*
X-92763563Y89909804D01*
X-93059909Y90729398D01*
X-93324051Y91569223D01*
X-93555163Y92427596D01*
X-93559396Y92444750D01*
X-93701310Y93053865D01*
X-93823622Y93651730D01*
X-93927964Y94248616D01*
X-94015970Y94854796D01*
X-94089270Y95480542D01*
X-94149498Y96136127D01*
X-94153050Y96180666D01*
X-94164939Y96360102D01*
X-94175308Y96574033D01*
X-94184059Y96814647D01*
X-94191091Y97074131D01*
X-94196305Y97344672D01*
X-94199601Y97618455D01*
X-94200879Y97887668D01*
X-94200041Y98144498D01*
X-94196986Y98381131D01*
X-94191614Y98589754D01*
X-94185581Y98731250D01*
X-94126677Y99564874D01*
X-94039286Y100371850D01*
X-93922379Y101157751D01*
X-93774929Y101928148D01*
X-93595908Y102688612D01*
X-93384289Y103444715D01*
X-93221176Y103959416D01*
X-92939365Y104748943D01*
X-92625543Y105515548D01*
X-92280482Y106258147D01*
X-91904955Y106975654D01*
X-91499735Y107666984D01*
X-91065594Y108331054D01*
X-90603304Y108966778D01*
X-90113639Y109573072D01*
X-89597370Y110148850D01*
X-89055271Y110693029D01*
X-88488113Y111204523D01*
X-87896670Y111682247D01*
X-87527169Y111954569D01*
X-86974097Y112324867D01*
X-86396120Y112667530D01*
X-85799285Y112979568D01*
X-85189638Y113257989D01*
X-84573225Y113499802D01*
X-84055250Y113672257D01*
X-83411461Y113848999D01*
X-82762719Y113987907D01*
X-82112261Y114088677D01*
X-81463326Y114151006D01*
X-80819152Y114174593D01*
X-80182978Y114159134D01*
G37*
X-80182978Y114159134D02*
X-79558043Y114104327D01*
X-79504416Y114097701D01*
X-78876783Y113997129D01*
X-78253886Y113855255D01*
X-77636810Y113672950D01*
X-77026639Y113451088D01*
X-76424458Y113190542D01*
X-75831349Y112892184D01*
X-75248398Y112556886D01*
X-74676688Y112185523D01*
X-74117303Y111778965D01*
X-73571327Y111338087D01*
X-73039845Y110863760D01*
X-72523940Y110356858D01*
X-72024696Y109818253D01*
X-71543198Y109248818D01*
X-71080530Y108649425D01*
X-70637775Y108020948D01*
X-70216018Y107364259D01*
X-69816342Y106680231D01*
X-69461490Y106012583D01*
X-69070098Y105193914D01*
X-68716226Y104356374D01*
X-68400250Y103501403D01*
X-68122547Y102630441D01*
X-67883493Y101744928D01*
X-67683465Y100846303D01*
X-67522840Y99936006D01*
X-67401993Y99015477D01*
X-67321302Y98086156D01*
X-67302591Y97758559D01*
X-67296604Y97621253D01*
X-67291497Y97472370D01*
X-67287318Y97317455D01*
X-67284117Y97162054D01*
X-67281942Y97011712D01*
X-67280843Y96871976D01*
X-67280869Y96748391D01*
X-67282068Y96646502D01*
X-67284491Y96571855D01*
X-67288186Y96529996D01*
X-67291648Y96523259D01*
X-67300530Y96546888D01*
X-67316907Y96603554D01*
X-67338546Y96685091D01*
X-67363211Y96783335D01*
X-67366463Y96796662D01*
X-67517216Y97335348D01*
X-67702864Y97857352D01*
X-67921897Y98359438D01*
X-68172804Y98838369D01*
X-68454075Y99290911D01*
X-68674794Y99598915D01*
X-68764829Y99710200D01*
X-68877461Y99838414D01*
X-69005405Y99976179D01*
X-69141375Y100116118D01*
X-69278086Y100250852D01*
X-69408250Y100373004D01*
X-69524583Y100475194D01*
X-69598876Y100534680D01*
X-69967375Y100788950D01*
X-70345082Y101003033D01*
X-70735655Y101178710D01*
X-71142755Y101317762D01*
X-71291750Y101358603D01*
X-71368942Y101377966D01*
X-71435319Y101392645D01*
X-71498662Y101403293D01*
X-71566752Y101410559D01*
X-71647368Y101415096D01*
X-71748292Y101417554D01*
X-71877305Y101418584D01*
X-72011416Y101418821D01*
X-72177606Y101418431D01*
X-72309867Y101416654D01*
X-72416597Y101412933D01*
X-72506194Y101406712D01*
X-72587055Y101397433D01*
X-72667578Y101384540D01*
X-72741666Y101370396D01*
X-73122222Y101274554D01*
X-73506263Y101139654D01*
X-73888789Y100968112D01*
X-74264801Y100762343D01*
X-74629301Y100524765D01*
X-74879500Y100337198D01*
X-74970435Y100260525D01*
X-75083045Y100158537D01*
X-75210960Y100037632D01*
X-75347811Y99904208D01*
X-75487229Y99764661D01*
X-75622844Y99625390D01*
X-75748288Y99492792D01*
X-75857190Y99373264D01*
X-75943183Y99273204D01*
X-75962061Y99249833D01*
X-76042804Y99146082D01*
X-76134729Y99024938D01*
X-76224790Y98903722D01*
X-76280889Y98826500D01*
X-76606881Y98338019D01*
X-76907850Y97818243D01*
X-77182884Y97270673D01*
X-77431072Y96698808D01*
X-77651500Y96106150D01*
X-77843258Y95496199D01*
X-78005434Y94872456D01*
X-78137116Y94238421D01*
X-78237392Y93597595D01*
X-78305349Y92953478D01*
X-78340077Y92309572D01*
X-78340663Y91669377D01*
X-78307135Y91047750D01*
X-78242470Y90456535D01*
X-78146842Y89872093D01*
X-78021514Y89298357D01*
X-77867751Y88739262D01*
X-77686817Y88198742D01*
X-77479977Y87680730D01*
X-77248493Y87189160D01*
X-76993631Y86727967D01*
X-76840376Y86483225D01*
X-76803659Y86427200D01*
X-77032204Y86305300D01*
X-77475449Y86061626D01*
X-77878945Y85824410D01*
X-78244554Y85592324D01*
X-78574140Y85364044D01*
X-78869564Y85138241D01*
X-79132690Y84913590D01*
X-79365380Y84688765D01*
X-79488948Y84555721D01*
X-79720989Y84271417D01*
X-79910912Y83986572D01*
X-80058928Y83700024D01*
X-80165250Y83410613D01*
X-80230088Y83117177D01*
X-80253654Y82818554D01*
X-80236158Y82513582D01*
X-80177813Y82201102D01*
X-80078829Y81879950D01*
X-80008150Y81701565D01*
X-79940366Y81550897D01*
X-79861887Y81393208D01*
X-79769615Y81222949D01*
X-79660453Y81034571D01*
X-79531303Y80822523D01*
X-79409752Y80629350D01*
X-79332937Y80508422D01*
X-79276638Y80418390D01*
X-79238627Y80354447D01*
X-79216672Y80311786D01*
X-79208543Y80285601D01*
X-79212007Y80271086D01*
X-79224836Y80263434D01*
X-79238140Y80259601D01*
X-79308046Y80247214D01*
X-79414431Y80236194D01*
X-79551461Y80226653D01*
X-79713302Y80218700D01*
X-79894117Y80212447D01*
X-80088072Y80208002D01*
X-80289332Y80205478D01*
X-80492063Y80204984D01*
X-80690429Y80206630D01*
X-80878595Y80210528D01*
X-81050727Y80216788D01*
X-81166000Y80223112D01*
X-81858020Y80289056D01*
X-82540927Y80396069D01*
X-83213889Y80543705D01*
X-83876074Y80731520D01*
X-84526650Y80959067D01*
X-85164784Y81225899D01*
X-85789646Y81531572D01*
X-86400403Y81875639D01*
X-86996223Y82257655D01*
X-87576273Y82677174D01*
X-88139723Y83133749D01*
X-88685741Y83626935D01*
X-89213493Y84156286D01*
X-89722149Y84721356D01*
X-89856671Y84880671D01*
X-90355361Y85511466D01*
X-90827619Y86174287D01*
X-91272620Y86867448D01*
X-91689540Y87589265D01*
X-92077553Y88338053D01*
X-92435836Y89112128D01*
X-92763563Y89909804D01*
X-93059909Y90729398D01*
X-93324051Y91569223D01*
X-93555163Y92427596D01*
X-93559396Y92444750D01*
X-93701310Y93053865D01*
X-93823622Y93651730D01*
X-93927964Y94248616D01*
X-94015970Y94854796D01*
X-94089270Y95480542D01*
X-94149498Y96136127D01*
X-94153050Y96180666D01*
X-94164939Y96360102D01*
X-94175308Y96574033D01*
X-94184059Y96814647D01*
X-94191091Y97074131D01*
X-94196305Y97344672D01*
X-94199601Y97618455D01*
X-94200879Y97887668D01*
X-94200041Y98144498D01*
X-94196986Y98381131D01*
X-94191614Y98589754D01*
X-94185581Y98731250D01*
X-94126677Y99564874D01*
X-94039286Y100371850D01*
X-93922379Y101157751D01*
X-93774929Y101928148D01*
X-93595908Y102688612D01*
X-93384289Y103444715D01*
X-93221176Y103959416D01*
X-92939365Y104748943D01*
X-92625543Y105515548D01*
X-92280482Y106258147D01*
X-91904955Y106975654D01*
X-91499735Y107666984D01*
X-91065594Y108331054D01*
X-90603304Y108966778D01*
X-90113639Y109573072D01*
X-89597370Y110148850D01*
X-89055271Y110693029D01*
X-88488113Y111204523D01*
X-87896670Y111682247D01*
X-87527169Y111954569D01*
X-86974097Y112324867D01*
X-86396120Y112667530D01*
X-85799285Y112979568D01*
X-85189638Y113257989D01*
X-84573225Y113499802D01*
X-84055250Y113672257D01*
X-83411461Y113848999D01*
X-82762719Y113987907D01*
X-82112261Y114088677D01*
X-81463326Y114151006D01*
X-80819152Y114174593D01*
X-80182978Y114159134D01*
G36*
X-51969410Y108197527D02*
G01*
X-51727255Y108193308D01*
X-51492551Y108187052D01*
X-51273201Y108178874D01*
X-51077107Y108168893D01*
X-50912173Y108157224D01*
X-50855333Y108151974D01*
X-50099355Y108056299D01*
X-49359465Y107923528D01*
X-48636807Y107754090D01*
X-47932522Y107548417D01*
X-47247756Y107306940D01*
X-46583651Y107030090D01*
X-45941350Y106718298D01*
X-45321997Y106371995D01*
X-44726735Y105991612D01*
X-44283083Y105673934D01*
X-43732509Y105235623D01*
X-43217868Y104775276D01*
X-42738417Y104292005D01*
X-42293417Y103784919D01*
X-41882125Y103253131D01*
X-41503800Y102695748D01*
X-41157701Y102111884D01*
X-40896046Y101609916D01*
X-40723741Y101247199D01*
X-40575107Y100907711D01*
X-40446677Y100582186D01*
X-40334988Y100261359D01*
X-40236573Y99935968D01*
X-40157231Y99634575D01*
X-40017252Y98981017D01*
X-39915776Y98312656D01*
X-39852941Y97632584D01*
X-39828884Y96943893D01*
X-39843743Y96249673D01*
X-39897656Y95553017D01*
X-39955099Y95090583D01*
X-40071882Y94417827D01*
X-40228855Y93746328D01*
X-40424375Y93080335D01*
X-40656800Y92424101D01*
X-40924486Y91781874D01*
X-41225792Y91157906D01*
X-41559073Y90556448D01*
X-41922688Y89981749D01*
X-41939003Y89957666D01*
X-42368045Y89363264D01*
X-42827420Y88798088D01*
X-43316466Y88262528D01*
X-43834521Y87756979D01*
X-44380922Y87281829D01*
X-44955009Y86837472D01*
X-45556118Y86424299D01*
X-46183588Y86042701D01*
X-46836757Y85693070D01*
X-47514962Y85375798D01*
X-48217542Y85091276D01*
X-48943835Y84839896D01*
X-49693178Y84622048D01*
X-50464909Y84438126D01*
X-51258367Y84288520D01*
X-51617333Y84233216D01*
X-52022977Y84179797D01*
X-52437504Y84135155D01*
X-52868468Y84098680D01*
X-53323427Y84069763D01*
X-53809937Y84047796D01*
X-53998583Y84041336D01*
X-54400750Y84028644D01*
X-54506583Y84190955D01*
X-54585221Y84296804D01*
X-54692550Y84419665D01*
X-54821965Y84553181D01*
X-54966859Y84690992D01*
X-55120626Y84826740D01*
X-55276661Y84954069D01*
X-55382101Y85033624D01*
X-55561388Y85157842D01*
X-55772551Y85293899D01*
X-56008253Y85437680D01*
X-56261155Y85585072D01*
X-56523922Y85731962D01*
X-56789216Y85874237D01*
X-57049699Y86007783D01*
X-57298035Y86128487D01*
X-57496375Y86218920D01*
X-57562502Y86249378D01*
X-57609937Y86273906D01*
X-57628653Y86287312D01*
X-57628666Y86287466D01*
X-57617049Y86307788D01*
X-57585509Y86355062D01*
X-57539017Y86421999D01*
X-57488767Y86492654D01*
X-57228995Y86888117D01*
X-56994337Y87314723D01*
X-56785745Y87768857D01*
X-56604172Y88246901D01*
X-56450569Y88745240D01*
X-56325888Y89260256D01*
X-56231081Y89788334D01*
X-56167100Y90325856D01*
X-56134896Y90869207D01*
X-56135423Y91414770D01*
X-56143429Y91603950D01*
X-56195769Y92257935D01*
X-56282399Y92906048D01*
X-56402282Y93544504D01*
X-56554380Y94169518D01*
X-56737654Y94777306D01*
X-56951068Y95364083D01*
X-57193583Y95926064D01*
X-57464161Y96459464D01*
X-57485531Y96498166D01*
X-57766775Y96972092D01*
X-58066437Y97415180D01*
X-58383218Y97826338D01*
X-58715819Y98204470D01*
X-59062944Y98548485D01*
X-59423294Y98857287D01*
X-59795570Y99129783D01*
X-60178475Y99364880D01*
X-60570710Y99561483D01*
X-60970977Y99718498D01*
X-61377978Y99834833D01*
X-61469726Y99855159D01*
X-61769705Y99902253D01*
X-62090897Y99924021D01*
X-62420787Y99920726D01*
X-62746865Y99892632D01*
X-63056618Y99840002D01*
X-63142583Y99819944D01*
X-63388881Y99738441D01*
X-63638763Y99616663D01*
X-63890224Y99456300D01*
X-64141263Y99259041D01*
X-64389874Y99026573D01*
X-64634056Y98760586D01*
X-64871804Y98462769D01*
X-65049394Y98212572D01*
X-65187279Y97998940D01*
X-65328899Y97762449D01*
X-65468162Y97514300D01*
X-65598975Y97265689D01*
X-65715246Y97027816D01*
X-65809315Y96815666D01*
X-65839205Y96744423D01*
X-65862590Y96692504D01*
X-65879717Y96662504D01*
X-65890833Y96657014D01*
X-65896186Y96678628D01*
X-65896024Y96729938D01*
X-65890593Y96813538D01*
X-65880140Y96932019D01*
X-65864915Y97087976D01*
X-65849713Y97239000D01*
X-65770944Y97827849D01*
X-65653769Y98423815D01*
X-65500000Y99020814D01*
X-65311453Y99612758D01*
X-65089942Y100193563D01*
X-64837281Y100757142D01*
X-64745978Y100941053D01*
X-64417839Y101539200D01*
X-64052138Y102119181D01*
X-63649981Y102680062D01*
X-63212474Y103220912D01*
X-62740722Y103740798D01*
X-62235831Y104238788D01*
X-61698904Y104713949D01*
X-61131048Y105165349D01*
X-60533369Y105592056D01*
X-59906971Y105993137D01*
X-59252959Y106367660D01*
X-58572439Y106714693D01*
X-57866517Y107033303D01*
X-57215916Y107292904D01*
X-56498571Y107541057D01*
X-55773934Y107749528D01*
X-55039072Y107918939D01*
X-54291051Y108049913D01*
X-53526936Y108143072D01*
X-53015348Y108183956D01*
X-52854481Y108191682D01*
X-52661551Y108196785D01*
X-52444461Y108199383D01*
X-52211113Y108199591D01*
X-51969410Y108197527D01*
G37*
X-51969410Y108197527D02*
X-51727255Y108193308D01*
X-51492551Y108187052D01*
X-51273201Y108178874D01*
X-51077107Y108168893D01*
X-50912173Y108157224D01*
X-50855333Y108151974D01*
X-50099355Y108056299D01*
X-49359465Y107923528D01*
X-48636807Y107754090D01*
X-47932522Y107548417D01*
X-47247756Y107306940D01*
X-46583651Y107030090D01*
X-45941350Y106718298D01*
X-45321997Y106371995D01*
X-44726735Y105991612D01*
X-44283083Y105673934D01*
X-43732509Y105235623D01*
X-43217868Y104775276D01*
X-42738417Y104292005D01*
X-42293417Y103784919D01*
X-41882125Y103253131D01*
X-41503800Y102695748D01*
X-41157701Y102111884D01*
X-40896046Y101609916D01*
X-40723741Y101247199D01*
X-40575107Y100907711D01*
X-40446677Y100582186D01*
X-40334988Y100261359D01*
X-40236573Y99935968D01*
X-40157231Y99634575D01*
X-40017252Y98981017D01*
X-39915776Y98312656D01*
X-39852941Y97632584D01*
X-39828884Y96943893D01*
X-39843743Y96249673D01*
X-39897656Y95553017D01*
X-39955099Y95090583D01*
X-40071882Y94417827D01*
X-40228855Y93746328D01*
X-40424375Y93080335D01*
X-40656800Y92424101D01*
X-40924486Y91781874D01*
X-41225792Y91157906D01*
X-41559073Y90556448D01*
X-41922688Y89981749D01*
X-41939003Y89957666D01*
X-42368045Y89363264D01*
X-42827420Y88798088D01*
X-43316466Y88262528D01*
X-43834521Y87756979D01*
X-44380922Y87281829D01*
X-44955009Y86837472D01*
X-45556118Y86424299D01*
X-46183588Y86042701D01*
X-46836757Y85693070D01*
X-47514962Y85375798D01*
X-48217542Y85091276D01*
X-48943835Y84839896D01*
X-49693178Y84622048D01*
X-50464909Y84438126D01*
X-51258367Y84288520D01*
X-51617333Y84233216D01*
X-52022977Y84179797D01*
X-52437504Y84135155D01*
X-52868468Y84098680D01*
X-53323427Y84069763D01*
X-53809937Y84047796D01*
X-53998583Y84041336D01*
X-54400750Y84028644D01*
X-54506583Y84190955D01*
X-54585221Y84296804D01*
X-54692550Y84419665D01*
X-54821965Y84553181D01*
X-54966859Y84690992D01*
X-55120626Y84826740D01*
X-55276661Y84954069D01*
X-55382101Y85033624D01*
X-55561388Y85157842D01*
X-55772551Y85293899D01*
X-56008253Y85437680D01*
X-56261155Y85585072D01*
X-56523922Y85731962D01*
X-56789216Y85874237D01*
X-57049699Y86007783D01*
X-57298035Y86128487D01*
X-57496375Y86218920D01*
X-57562502Y86249378D01*
X-57609937Y86273906D01*
X-57628653Y86287312D01*
X-57628666Y86287466D01*
X-57617049Y86307788D01*
X-57585509Y86355062D01*
X-57539017Y86421999D01*
X-57488767Y86492654D01*
X-57228995Y86888117D01*
X-56994337Y87314723D01*
X-56785745Y87768857D01*
X-56604172Y88246901D01*
X-56450569Y88745240D01*
X-56325888Y89260256D01*
X-56231081Y89788334D01*
X-56167100Y90325856D01*
X-56134896Y90869207D01*
X-56135423Y91414770D01*
X-56143429Y91603950D01*
X-56195769Y92257935D01*
X-56282399Y92906048D01*
X-56402282Y93544504D01*
X-56554380Y94169518D01*
X-56737654Y94777306D01*
X-56951068Y95364083D01*
X-57193583Y95926064D01*
X-57464161Y96459464D01*
X-57485531Y96498166D01*
X-57766775Y96972092D01*
X-58066437Y97415180D01*
X-58383218Y97826338D01*
X-58715819Y98204470D01*
X-59062944Y98548485D01*
X-59423294Y98857287D01*
X-59795570Y99129783D01*
X-60178475Y99364880D01*
X-60570710Y99561483D01*
X-60970977Y99718498D01*
X-61377978Y99834833D01*
X-61469726Y99855159D01*
X-61769705Y99902253D01*
X-62090897Y99924021D01*
X-62420787Y99920726D01*
X-62746865Y99892632D01*
X-63056618Y99840002D01*
X-63142583Y99819944D01*
X-63388881Y99738441D01*
X-63638763Y99616663D01*
X-63890224Y99456300D01*
X-64141263Y99259041D01*
X-64389874Y99026573D01*
X-64634056Y98760586D01*
X-64871804Y98462769D01*
X-65049394Y98212572D01*
X-65187279Y97998940D01*
X-65328899Y97762449D01*
X-65468162Y97514300D01*
X-65598975Y97265689D01*
X-65715246Y97027816D01*
X-65809315Y96815666D01*
X-65839205Y96744423D01*
X-65862590Y96692504D01*
X-65879717Y96662504D01*
X-65890833Y96657014D01*
X-65896186Y96678628D01*
X-65896024Y96729938D01*
X-65890593Y96813538D01*
X-65880140Y96932019D01*
X-65864915Y97087976D01*
X-65849713Y97239000D01*
X-65770944Y97827849D01*
X-65653769Y98423815D01*
X-65500000Y99020814D01*
X-65311453Y99612758D01*
X-65089942Y100193563D01*
X-64837281Y100757142D01*
X-64745978Y100941053D01*
X-64417839Y101539200D01*
X-64052138Y102119181D01*
X-63649981Y102680062D01*
X-63212474Y103220912D01*
X-62740722Y103740798D01*
X-62235831Y104238788D01*
X-61698904Y104713949D01*
X-61131048Y105165349D01*
X-60533369Y105592056D01*
X-59906971Y105993137D01*
X-59252959Y106367660D01*
X-58572439Y106714693D01*
X-57866517Y107033303D01*
X-57215916Y107292904D01*
X-56498571Y107541057D01*
X-55773934Y107749528D01*
X-55039072Y107918939D01*
X-54291051Y108049913D01*
X-53526936Y108143072D01*
X-53015348Y108183956D01*
X-52854481Y108191682D01*
X-52661551Y108196785D01*
X-52444461Y108199383D01*
X-52211113Y108199591D01*
X-51969410Y108197527D01*
G36*
X-66006562Y134319943D02*
G01*
X-65486365Y134311647D01*
X-64992633Y134297314D01*
X-64517589Y134276508D01*
X-64053457Y134248794D01*
X-63592462Y134213735D01*
X-63126827Y134170896D01*
X-62648776Y134119842D01*
X-62380583Y134088445D01*
X-61241400Y133931240D01*
X-60110486Y133735273D01*
X-58989122Y133501196D01*
X-57878587Y133229662D01*
X-56780160Y132921323D01*
X-55695122Y132576829D01*
X-54624750Y132196833D01*
X-53570326Y131781986D01*
X-52533127Y131332941D01*
X-51514435Y130850349D01*
X-50515528Y130334863D01*
X-49537685Y129787133D01*
X-48582187Y129207811D01*
X-47650312Y128597551D01*
X-46743340Y127957002D01*
X-45862551Y127286818D01*
X-45009223Y126587650D01*
X-44184637Y125860149D01*
X-43390073Y125104968D01*
X-42626808Y124322759D01*
X-42116988Y123765273D01*
X-41497877Y123045313D01*
X-40912834Y122315030D01*
X-40362243Y121575473D01*
X-39846489Y120827691D01*
X-39365954Y120072732D01*
X-38921024Y119311645D01*
X-38512081Y118545478D01*
X-38139510Y117775281D01*
X-37803695Y117002102D01*
X-37505020Y116226989D01*
X-37243868Y115450991D01*
X-37020624Y114675158D01*
X-36835671Y113900537D01*
X-36689393Y113128177D01*
X-36582174Y112359127D01*
X-36514399Y111594435D01*
X-36486451Y110835151D01*
X-36498714Y110082323D01*
X-36551571Y109336999D01*
X-36622044Y108755856D01*
X-36675011Y108413974D01*
X-36730021Y108112287D01*
X-36787865Y107848676D01*
X-36849333Y107621021D01*
X-36915216Y107427202D01*
X-36986304Y107265101D01*
X-37063388Y107132597D01*
X-37147257Y107027571D01*
X-37238703Y106947904D01*
X-37312873Y106903451D01*
X-37450609Y106858035D01*
X-37599665Y106851995D01*
X-37755487Y106885460D01*
X-37769602Y106890383D01*
X-37902525Y106949090D01*
X-38044041Y107033339D01*
X-38196265Y107144942D01*
X-38361314Y107285710D01*
X-38541304Y107457455D01*
X-38738353Y107661990D01*
X-38954577Y107901126D01*
X-38967721Y107916063D01*
X-39240901Y108210292D01*
X-39550000Y108513057D01*
X-39890459Y108820499D01*
X-40257719Y109128759D01*
X-40647222Y109433981D01*
X-41054408Y109732305D01*
X-41376809Y109954677D01*
X-42076827Y110400096D01*
X-42805816Y110816428D01*
X-43561320Y111202957D01*
X-44340887Y111558962D01*
X-45142063Y111883725D01*
X-45962393Y112176528D01*
X-46799426Y112436652D01*
X-47650706Y112663377D01*
X-48513780Y112855986D01*
X-49386195Y113013760D01*
X-50265496Y113135979D01*
X-51149231Y113221926D01*
X-52034946Y113270881D01*
X-52739166Y113282928D01*
X-53666515Y113262329D01*
X-54584897Y113200732D01*
X-55493446Y113098443D01*
X-56391295Y112955766D01*
X-57277579Y112773004D01*
X-58151431Y112550462D01*
X-59011986Y112288444D01*
X-59858377Y111987254D01*
X-60689738Y111647196D01*
X-61505204Y111268574D01*
X-62303907Y110851693D01*
X-63084982Y110396857D01*
X-63847563Y109904369D01*
X-64590783Y109374534D01*
X-65184743Y108912758D01*
X-65277587Y108839473D01*
X-65359339Y108778175D01*
X-65424343Y108732844D01*
X-65466945Y108707462D01*
X-65481053Y108704146D01*
X-65495805Y108726405D01*
X-65529216Y108780098D01*
X-65578278Y108860286D01*
X-65639986Y108962032D01*
X-65711334Y109080400D01*
X-65788297Y109208750D01*
X-66317147Y110056292D01*
X-66868368Y110867991D01*
X-67442128Y111644044D01*
X-68038595Y112384653D01*
X-68657935Y113090014D01*
X-69300317Y113760328D01*
X-69965908Y114395794D01*
X-70654874Y114996610D01*
X-70656750Y114998172D01*
X-70807496Y115120726D01*
X-70985375Y115260447D01*
X-71182159Y115411223D01*
X-71389621Y115566942D01*
X-71599536Y115721491D01*
X-71803677Y115868758D01*
X-71993817Y116002632D01*
X-72161731Y116117000D01*
X-72170166Y116122608D01*
X-72898451Y116581786D01*
X-73639413Y117000821D01*
X-74392621Y117379581D01*
X-75157640Y117717934D01*
X-75934035Y118015747D01*
X-76721374Y118272886D01*
X-77519222Y118489221D01*
X-78327145Y118664618D01*
X-79144710Y118798944D01*
X-79971481Y118892067D01*
X-80807027Y118943854D01*
X-81441166Y118955488D01*
X-82283927Y118934306D01*
X-83123255Y118871538D01*
X-83957490Y118767867D01*
X-84784976Y118623979D01*
X-85604055Y118440556D01*
X-86413066Y118218285D01*
X-87210354Y117957848D01*
X-87994259Y117659930D01*
X-88763124Y117325216D01*
X-89515289Y116954390D01*
X-90249098Y116548136D01*
X-90962891Y116107138D01*
X-91655010Y115632081D01*
X-92323798Y115123648D01*
X-92967596Y114582525D01*
X-93584746Y114009396D01*
X-93698627Y113897166D01*
X-93865057Y113730451D01*
X-94012467Y113579943D01*
X-94147526Y113438330D01*
X-94276907Y113298301D01*
X-94407278Y113152544D01*
X-94545311Y112993749D01*
X-94697674Y112814603D01*
X-94829083Y112658041D01*
X-95051312Y112397435D01*
X-95253399Y112171823D01*
X-95436933Y111979874D01*
X-95603504Y111820252D01*
X-95754703Y111691626D01*
X-95892118Y111592660D01*
X-96017342Y111522021D01*
X-96131962Y111478377D01*
X-96237570Y111460392D01*
X-96257686Y111459757D01*
X-96362960Y111474599D01*
X-96453207Y111521589D01*
X-96528786Y111601804D01*
X-96590056Y111716318D01*
X-96637375Y111866208D01*
X-96671102Y112052549D01*
X-96691597Y112276415D01*
X-96699217Y112538883D01*
X-96696359Y112774622D01*
X-96672721Y113187166D01*
X-96623759Y113629943D01*
X-96550247Y114099850D01*
X-96452955Y114593786D01*
X-96332655Y115108648D01*
X-96190117Y115641334D01*
X-96026115Y116188742D01*
X-95841418Y116747769D01*
X-95636799Y117315314D01*
X-95443413Y117813000D01*
X-95064128Y118701917D01*
X-94644833Y119580705D01*
X-94187168Y120446813D01*
X-93692770Y121297691D01*
X-93163278Y122130791D01*
X-92600333Y122943563D01*
X-92005573Y123733455D01*
X-91380637Y124497920D01*
X-90727165Y125234407D01*
X-90552660Y125421134D01*
X-89829805Y126155562D01*
X-89077930Y126859287D01*
X-88297286Y127532186D01*
X-87488125Y128174137D01*
X-86650700Y128785017D01*
X-85785262Y129364705D01*
X-84892064Y129913078D01*
X-83971357Y130430013D01*
X-83023393Y130915388D01*
X-82048426Y131369082D01*
X-81046706Y131790972D01*
X-80018486Y132180934D01*
X-78964017Y132538848D01*
X-77883553Y132864591D01*
X-76777344Y133158041D01*
X-75645643Y133419074D01*
X-74488703Y133647570D01*
X-73306774Y133843405D01*
X-73145887Y133867250D01*
X-72201182Y133994693D01*
X-71256254Y134100558D01*
X-70304564Y134185297D01*
X-69339572Y134249363D01*
X-68354740Y134293207D01*
X-67343528Y134317282D01*
X-66561000Y134322637D01*
X-66006562Y134319943D01*
G37*
X-66006562Y134319943D02*
X-65486365Y134311647D01*
X-64992633Y134297314D01*
X-64517589Y134276508D01*
X-64053457Y134248794D01*
X-63592462Y134213735D01*
X-63126827Y134170896D01*
X-62648776Y134119842D01*
X-62380583Y134088445D01*
X-61241400Y133931240D01*
X-60110486Y133735273D01*
X-58989122Y133501196D01*
X-57878587Y133229662D01*
X-56780160Y132921323D01*
X-55695122Y132576829D01*
X-54624750Y132196833D01*
X-53570326Y131781986D01*
X-52533127Y131332941D01*
X-51514435Y130850349D01*
X-50515528Y130334863D01*
X-49537685Y129787133D01*
X-48582187Y129207811D01*
X-47650312Y128597551D01*
X-46743340Y127957002D01*
X-45862551Y127286818D01*
X-45009223Y126587650D01*
X-44184637Y125860149D01*
X-43390073Y125104968D01*
X-42626808Y124322759D01*
X-42116988Y123765273D01*
X-41497877Y123045313D01*
X-40912834Y122315030D01*
X-40362243Y121575473D01*
X-39846489Y120827691D01*
X-39365954Y120072732D01*
X-38921024Y119311645D01*
X-38512081Y118545478D01*
X-38139510Y117775281D01*
X-37803695Y117002102D01*
X-37505020Y116226989D01*
X-37243868Y115450991D01*
X-37020624Y114675158D01*
X-36835671Y113900537D01*
X-36689393Y113128177D01*
X-36582174Y112359127D01*
X-36514399Y111594435D01*
X-36486451Y110835151D01*
X-36498714Y110082323D01*
X-36551571Y109336999D01*
X-36622044Y108755856D01*
X-36675011Y108413974D01*
X-36730021Y108112287D01*
X-36787865Y107848676D01*
X-36849333Y107621021D01*
X-36915216Y107427202D01*
X-36986304Y107265101D01*
X-37063388Y107132597D01*
X-37147257Y107027571D01*
X-37238703Y106947904D01*
X-37312873Y106903451D01*
X-37450609Y106858035D01*
X-37599665Y106851995D01*
X-37755487Y106885460D01*
X-37769602Y106890383D01*
X-37902525Y106949090D01*
X-38044041Y107033339D01*
X-38196265Y107144942D01*
X-38361314Y107285710D01*
X-38541304Y107457455D01*
X-38738353Y107661990D01*
X-38954577Y107901126D01*
X-38967721Y107916063D01*
X-39240901Y108210292D01*
X-39550000Y108513057D01*
X-39890459Y108820499D01*
X-40257719Y109128759D01*
X-40647222Y109433981D01*
X-41054408Y109732305D01*
X-41376809Y109954677D01*
X-42076827Y110400096D01*
X-42805816Y110816428D01*
X-43561320Y111202957D01*
X-44340887Y111558962D01*
X-45142063Y111883725D01*
X-45962393Y112176528D01*
X-46799426Y112436652D01*
X-47650706Y112663377D01*
X-48513780Y112855986D01*
X-49386195Y113013760D01*
X-50265496Y113135979D01*
X-51149231Y113221926D01*
X-52034946Y113270881D01*
X-52739166Y113282928D01*
X-53666515Y113262329D01*
X-54584897Y113200732D01*
X-55493446Y113098443D01*
X-56391295Y112955766D01*
X-57277579Y112773004D01*
X-58151431Y112550462D01*
X-59011986Y112288444D01*
X-59858377Y111987254D01*
X-60689738Y111647196D01*
X-61505204Y111268574D01*
X-62303907Y110851693D01*
X-63084982Y110396857D01*
X-63847563Y109904369D01*
X-64590783Y109374534D01*
X-65184743Y108912758D01*
X-65277587Y108839473D01*
X-65359339Y108778175D01*
X-65424343Y108732844D01*
X-65466945Y108707462D01*
X-65481053Y108704146D01*
X-65495805Y108726405D01*
X-65529216Y108780098D01*
X-65578278Y108860286D01*
X-65639986Y108962032D01*
X-65711334Y109080400D01*
X-65788297Y109208750D01*
X-66317147Y110056292D01*
X-66868368Y110867991D01*
X-67442128Y111644044D01*
X-68038595Y112384653D01*
X-68657935Y113090014D01*
X-69300317Y113760328D01*
X-69965908Y114395794D01*
X-70654874Y114996610D01*
X-70656750Y114998172D01*
X-70807496Y115120726D01*
X-70985375Y115260447D01*
X-71182159Y115411223D01*
X-71389621Y115566942D01*
X-71599536Y115721491D01*
X-71803677Y115868758D01*
X-71993817Y116002632D01*
X-72161731Y116117000D01*
X-72170166Y116122608D01*
X-72898451Y116581786D01*
X-73639413Y117000821D01*
X-74392621Y117379581D01*
X-75157640Y117717934D01*
X-75934035Y118015747D01*
X-76721374Y118272886D01*
X-77519222Y118489221D01*
X-78327145Y118664618D01*
X-79144710Y118798944D01*
X-79971481Y118892067D01*
X-80807027Y118943854D01*
X-81441166Y118955488D01*
X-82283927Y118934306D01*
X-83123255Y118871538D01*
X-83957490Y118767867D01*
X-84784976Y118623979D01*
X-85604055Y118440556D01*
X-86413066Y118218285D01*
X-87210354Y117957848D01*
X-87994259Y117659930D01*
X-88763124Y117325216D01*
X-89515289Y116954390D01*
X-90249098Y116548136D01*
X-90962891Y116107138D01*
X-91655010Y115632081D01*
X-92323798Y115123648D01*
X-92967596Y114582525D01*
X-93584746Y114009396D01*
X-93698627Y113897166D01*
X-93865057Y113730451D01*
X-94012467Y113579943D01*
X-94147526Y113438330D01*
X-94276907Y113298301D01*
X-94407278Y113152544D01*
X-94545311Y112993749D01*
X-94697674Y112814603D01*
X-94829083Y112658041D01*
X-95051312Y112397435D01*
X-95253399Y112171823D01*
X-95436933Y111979874D01*
X-95603504Y111820252D01*
X-95754703Y111691626D01*
X-95892118Y111592660D01*
X-96017342Y111522021D01*
X-96131962Y111478377D01*
X-96237570Y111460392D01*
X-96257686Y111459757D01*
X-96362960Y111474599D01*
X-96453207Y111521589D01*
X-96528786Y111601804D01*
X-96590056Y111716318D01*
X-96637375Y111866208D01*
X-96671102Y112052549D01*
X-96691597Y112276415D01*
X-96699217Y112538883D01*
X-96696359Y112774622D01*
X-96672721Y113187166D01*
X-96623759Y113629943D01*
X-96550247Y114099850D01*
X-96452955Y114593786D01*
X-96332655Y115108648D01*
X-96190117Y115641334D01*
X-96026115Y116188742D01*
X-95841418Y116747769D01*
X-95636799Y117315314D01*
X-95443413Y117813000D01*
X-95064128Y118701917D01*
X-94644833Y119580705D01*
X-94187168Y120446813D01*
X-93692770Y121297691D01*
X-93163278Y122130791D01*
X-92600333Y122943563D01*
X-92005573Y123733455D01*
X-91380637Y124497920D01*
X-90727165Y125234407D01*
X-90552660Y125421134D01*
X-89829805Y126155562D01*
X-89077930Y126859287D01*
X-88297286Y127532186D01*
X-87488125Y128174137D01*
X-86650700Y128785017D01*
X-85785262Y129364705D01*
X-84892064Y129913078D01*
X-83971357Y130430013D01*
X-83023393Y130915388D01*
X-82048426Y131369082D01*
X-81046706Y131790972D01*
X-80018486Y132180934D01*
X-78964017Y132538848D01*
X-77883553Y132864591D01*
X-76777344Y133158041D01*
X-75645643Y133419074D01*
X-74488703Y133647570D01*
X-73306774Y133843405D01*
X-73145887Y133867250D01*
X-72201182Y133994693D01*
X-71256254Y134100558D01*
X-70304564Y134185297D01*
X-69339572Y134249363D01*
X-68354740Y134293207D01*
X-67343528Y134317282D01*
X-66561000Y134322637D01*
X-66006562Y134319943D01*
D12*
%TO.C,SW1*%
X-71845000Y58750000D02*
G75*
G03*
X-71845000Y58750000I-100000J0D01*
G01*
D13*
X-65745000Y56500000D02*
G75*
G03*
X-65745000Y56500000I-1755000J0D01*
G01*
X-70495000Y57650000D02*
X-70495000Y55350000D01*
X-65200000Y53505000D02*
X-69800000Y53505000D01*
X-64500000Y57650000D02*
X-64500000Y55350000D01*
X-69700000Y59495000D02*
X-65200000Y59495000D01*
D14*
%TO.C,J7*%
X-57340001Y52029999D02*
X-77659999Y52029999D01*
X-80199999Y49490000D02*
X-80199999Y10755000D01*
X-54800001Y10755000D02*
X-54800001Y49490000D01*
X-57340001Y52030000D02*
G75*
G02*
X-54800001Y49490000I0J-2540000D01*
G01*
X-80199998Y49490000D02*
G75*
G02*
X-77659999Y52029999I2539999J0D01*
G01*
%TO.C,P1*%
D15*
X-72190476Y127524238D02*
X-72047619Y127476619D01*
X-71809523Y127476619D01*
X-71714285Y127524238D01*
X-71666666Y127571857D01*
X-71619047Y127667095D01*
X-71619047Y127762333D01*
X-71666666Y127857571D01*
X-71714285Y127905190D01*
X-71809523Y127952809D01*
X-72000000Y128000428D01*
X-72095238Y128048047D01*
X-72142857Y128095666D01*
X-72190476Y128190904D01*
X-72190476Y128286142D01*
X-72142857Y128381380D01*
X-72095238Y128429000D01*
X-72000000Y128476619D01*
X-71761904Y128476619D01*
X-71619047Y128429000D01*
X-71238095Y127762333D02*
X-70761904Y127762333D01*
X-71333333Y127476619D02*
X-71000000Y128476619D01*
X-70666666Y127476619D01*
X-70142857Y128476619D02*
X-69952380Y128476619D01*
X-69857142Y128429000D01*
X-69761904Y128333761D01*
X-69714285Y128143285D01*
X-69714285Y127809952D01*
X-69761904Y127619476D01*
X-69857142Y127524238D01*
X-69952380Y127476619D01*
X-70142857Y127476619D01*
X-70238095Y127524238D01*
X-70333333Y127619476D01*
X-70380952Y127809952D01*
X-70380952Y128143285D01*
X-70333333Y128333761D01*
X-70238095Y128429000D01*
X-70142857Y128476619D01*
X-69523809Y127381380D02*
X-68761904Y127381380D01*
X-68000000Y127476619D02*
X-68571428Y127476619D01*
X-68285714Y127476619D02*
X-68285714Y128476619D01*
X-68380952Y128333761D01*
X-68476190Y128238523D01*
X-68571428Y128190904D01*
X-66809524Y127857571D02*
X-66047620Y127857571D01*
X-66428572Y127476619D02*
X-66428572Y128238523D01*
X-64857143Y127524238D02*
X-64714286Y127476619D01*
X-64476191Y127476619D01*
X-64380953Y127524238D01*
X-64333334Y127571857D01*
X-64285715Y127667095D01*
X-64285715Y127762333D01*
X-64333334Y127857571D01*
X-64380953Y127905190D01*
X-64476191Y127952809D01*
X-64666667Y128000428D01*
X-64761905Y128048047D01*
X-64809524Y128095666D01*
X-64857143Y128190904D01*
X-64857143Y128286142D01*
X-64809524Y128381380D01*
X-64761905Y128429000D01*
X-64666667Y128476619D01*
X-64428572Y128476619D01*
X-64285715Y128429000D01*
X-63857143Y127476619D02*
X-63857143Y128476619D01*
X-63476191Y128476619D01*
X-63380953Y128429000D01*
X-63333334Y128381380D01*
X-63285715Y128286142D01*
X-63285715Y128143285D01*
X-63333334Y128048047D01*
X-63380953Y128000428D01*
X-63476191Y127952809D01*
X-63857143Y127952809D01*
X-62857143Y127476619D02*
X-62857143Y128476619D01*
%TO.C,P3*%
X-9343098Y61120016D02*
X-9275755Y60985329D01*
X-9107396Y60816970D01*
X-9006381Y60783298D01*
X-8939037Y60783298D01*
X-8838022Y60816970D01*
X-8770679Y60884313D01*
X-8737007Y60985329D01*
X-8737007Y61052672D01*
X-8770679Y61153687D01*
X-8871694Y61322046D01*
X-8905366Y61423061D01*
X-8905366Y61490405D01*
X-8871694Y61591420D01*
X-8804350Y61658764D01*
X-8703335Y61692435D01*
X-8635992Y61692435D01*
X-8534976Y61658764D01*
X-8366618Y61490405D01*
X-8299274Y61355718D01*
X-8501305Y60614939D02*
X-8164587Y60278222D01*
X-8770679Y60480252D02*
X-7827870Y60951657D01*
X-8299274Y60008848D01*
X-7221778Y60345565D02*
X-7087091Y60210878D01*
X-7053419Y60109863D01*
X-7053419Y59975176D01*
X-7154435Y59806817D01*
X-7390137Y59571115D01*
X-7558496Y59470100D01*
X-7693183Y59470100D01*
X-7794198Y59503772D01*
X-7928885Y59638459D01*
X-7962557Y59739474D01*
X-7962557Y59874161D01*
X-7861541Y60042520D01*
X-7625839Y60278222D01*
X-7457480Y60379237D01*
X-7322793Y60379237D01*
X-7221778Y60345565D01*
X-7558496Y59133382D02*
X-7019748Y58594634D01*
X-6144282Y59268069D02*
X-5706549Y58830337D01*
X-6211626Y58796665D01*
X-6110610Y58695650D01*
X-6076939Y58594634D01*
X-6076939Y58527291D01*
X-6110610Y58426276D01*
X-6278969Y58257917D01*
X-6379984Y58224245D01*
X-6447328Y58224245D01*
X-6548343Y58257917D01*
X-6750374Y58459947D01*
X-6784045Y58560963D01*
X-6784045Y58628306D01*
%TO.C,P2*%
X-128220016Y58156902D02*
X-128085329Y58224245D01*
X-127916970Y58392604D01*
X-127883298Y58493619D01*
X-127883298Y58560963D01*
X-127916970Y58661978D01*
X-127984313Y58729321D01*
X-128085329Y58762993D01*
X-128152672Y58762993D01*
X-128253687Y58729321D01*
X-128422046Y58628306D01*
X-128523061Y58594634D01*
X-128590405Y58594634D01*
X-128691420Y58628306D01*
X-128758764Y58695650D01*
X-128792435Y58796665D01*
X-128792435Y58864008D01*
X-128758764Y58965024D01*
X-128590405Y59133382D01*
X-128455718Y59200726D01*
X-127714939Y58998695D02*
X-127378222Y59335413D01*
X-127580252Y58729321D02*
X-128051657Y59672130D01*
X-127108848Y59200726D01*
X-127445565Y60278222D02*
X-127310878Y60412909D01*
X-127209863Y60446581D01*
X-127075176Y60446581D01*
X-126906817Y60345565D01*
X-126671115Y60109863D01*
X-126570100Y59941504D01*
X-126570100Y59806817D01*
X-126603772Y59705802D01*
X-126738459Y59571115D01*
X-126839474Y59537443D01*
X-126974161Y59537443D01*
X-127142520Y59638459D01*
X-127378222Y59874161D01*
X-127479237Y60042520D01*
X-127479237Y60177207D01*
X-127445565Y60278222D01*
X-126233382Y59941504D02*
X-125694634Y60480252D01*
X-126267054Y61322046D02*
X-126267054Y61389390D01*
X-126233382Y61490405D01*
X-126065024Y61658764D01*
X-125964008Y61692435D01*
X-125896665Y61692435D01*
X-125795650Y61658764D01*
X-125728306Y61591420D01*
X-125660963Y61456733D01*
X-125660963Y60648611D01*
X-125223230Y61086344D01*
%TO.C,SW1*%
X-71166666Y51047619D02*
X-71738095Y51047619D01*
X-71452380Y51047619D02*
X-71452380Y52047619D01*
X-71547619Y51904761D01*
X-71642857Y51809523D01*
X-71738095Y51761904D01*
X-70595238Y51619047D02*
X-70690476Y51666666D01*
X-70738095Y51714285D01*
X-70785714Y51809523D01*
X-70785714Y51857142D01*
X-70738095Y51952380D01*
X-70690476Y52000000D01*
X-70595238Y52047619D01*
X-70404761Y52047619D01*
X-70309523Y52000000D01*
X-70261904Y51952380D01*
X-70214285Y51857142D01*
X-70214285Y51809523D01*
X-70261904Y51714285D01*
X-70309523Y51666666D01*
X-70404761Y51619047D01*
X-70595238Y51619047D01*
X-70690476Y51571428D01*
X-70738095Y51523809D01*
X-70785714Y51428571D01*
X-70785714Y51238095D01*
X-70738095Y51142857D01*
X-70690476Y51095238D01*
X-70595238Y51047619D01*
X-70404761Y51047619D01*
X-70309523Y51095238D01*
X-70261904Y51142857D01*
X-70214285Y51238095D01*
X-70214285Y51428571D01*
X-70261904Y51523809D01*
X-70309523Y51571428D01*
X-70404761Y51619047D01*
X-69833333Y51952380D02*
X-69785714Y52000000D01*
X-69690476Y52047619D01*
X-69452380Y52047619D01*
X-69357142Y52000000D01*
X-69309523Y51952380D01*
X-69261904Y51857142D01*
X-69261904Y51761904D01*
X-69309523Y51619047D01*
X-69880952Y51047619D01*
X-69261904Y51047619D01*
X-68357142Y52047619D02*
X-68833333Y52047619D01*
X-68880952Y51571428D01*
X-68833333Y51619047D01*
X-68738095Y51666666D01*
X-68500000Y51666666D01*
X-68404761Y51619047D01*
X-68357142Y51571428D01*
X-68309523Y51476190D01*
X-68309523Y51238095D01*
X-68357142Y51142857D01*
X-68404761Y51095238D01*
X-68500000Y51047619D01*
X-68738095Y51047619D01*
X-68833333Y51095238D01*
X-68880952Y51142857D01*
X-67833333Y51047619D02*
X-67642857Y51047619D01*
X-67547619Y51095238D01*
X-67500000Y51142857D01*
X-67404762Y51285714D01*
X-67357143Y51476190D01*
X-67357143Y51857142D01*
X-67404762Y51952380D01*
X-67452381Y52000000D01*
X-67547619Y52047619D01*
X-67738095Y52047619D01*
X-67833333Y52000000D01*
X-67880952Y51952380D01*
X-67928571Y51857142D01*
X-67928571Y51619047D01*
X-67880952Y51523809D01*
X-67833333Y51476190D01*
X-67738095Y51428571D01*
X-67547619Y51428571D01*
X-67452381Y51476190D01*
X-67404762Y51523809D01*
X-67357143Y51619047D01*
X-66404762Y51047619D02*
X-66976191Y51047619D01*
X-66690477Y51047619D02*
X-66690477Y52047619D01*
X-66785715Y51904761D01*
X-66880953Y51809523D01*
X-66976191Y51761904D01*
X-65785715Y52047619D02*
X-65690477Y52047619D01*
X-65595239Y52000000D01*
X-65547620Y51952380D01*
X-65500001Y51857142D01*
X-65452381Y51666666D01*
X-65452381Y51428571D01*
X-65500001Y51238095D01*
X-65547620Y51142857D01*
X-65595239Y51095238D01*
X-65690477Y51047619D01*
X-65785715Y51047619D01*
X-65880953Y51095238D01*
X-65928572Y51142857D01*
X-65976191Y51238095D01*
X-66023810Y51428571D01*
X-66023810Y51666666D01*
X-65976191Y51857142D01*
X-65928572Y51952380D01*
X-65880953Y52000000D01*
X-65785715Y52047619D01*
X-65023810Y51428571D02*
X-64261905Y51428571D01*
X-63357143Y52047619D02*
X-63547620Y52047619D01*
X-63642858Y52000000D01*
X-63690477Y51952380D01*
X-63785715Y51809523D01*
X-63833334Y51619047D01*
X-63833334Y51238095D01*
X-63785715Y51142857D01*
X-63738096Y51095238D01*
X-63642858Y51047619D01*
X-63452381Y51047619D01*
X-63357143Y51095238D01*
X-63309524Y51142857D01*
X-63261905Y51238095D01*
X-63261905Y51476190D01*
X-63309524Y51571428D01*
X-63357143Y51619047D01*
X-63452381Y51666666D01*
X-63642858Y51666666D01*
X-63738096Y51619047D01*
X-63785715Y51571428D01*
X-63833334Y51476190D01*
%TD*%
%LPC*%
D16*
%TO.C,P1*%
X-72580000Y125770000D03*
G36*
G01*
X-71780000Y122080000D02*
X-73380000Y122080000D01*
G75*
G02*
X-73430000Y122130000I0J50000D01*
G01*
X-73430000Y124330000D01*
G75*
G02*
X-73380000Y124380000I50000J0D01*
G01*
X-71780000Y124380000D01*
G75*
G02*
X-71730000Y124330000I0J-50000D01*
G01*
X-71730000Y122130000D01*
G75*
G02*
X-71780000Y122080000I-50000J0D01*
G01*
G37*
X-70040000Y125770000D03*
X-67500000Y125770000D03*
X-64960000Y125770000D03*
X-62420000Y125770000D03*
X-62420000Y123230000D03*
X-64960000Y123230000D03*
X-67500000Y123230000D03*
X-70040000Y123230000D03*
%TD*%
%TO.C,P3*%
G36*
G01*
X-11711199Y59380904D02*
X-11711199Y59380904D01*
G75*
G02*
X-11711199Y60582986I601041J601041D01*
G01*
X-11286935Y61007250D01*
G75*
G02*
X-10084853Y61007250I601041J-601041D01*
G01*
X-10084853Y61007250D01*
G75*
G02*
X-10084853Y59805168I-601041J-601041D01*
G01*
X-10509117Y59380904D01*
G75*
G02*
X-11711199Y59380904I-601041J601041D01*
G01*
G37*
G36*
G01*
X-12941564Y57019168D02*
X-14072935Y58150539D01*
G75*
G02*
X-14072935Y58221249I35355J35355D01*
G01*
X-12517300Y59776884D01*
G75*
G02*
X-12446590Y59776884I35355J-35355D01*
G01*
X-11315219Y58645513D01*
G75*
G02*
X-11315219Y58574803I-35355J-35355D01*
G01*
X-12870854Y57019168D01*
G75*
G02*
X-12941564Y57019168I-35355J35355D01*
G01*
G37*
G36*
G01*
X-9915147Y57584853D02*
X-9915147Y57584853D01*
G75*
G02*
X-9915147Y58786935I601041J601041D01*
G01*
X-9490883Y59211199D01*
G75*
G02*
X-8288801Y59211199I601041J-601041D01*
G01*
X-8288801Y59211199D01*
G75*
G02*
X-8288801Y58009117I-601041J-601041D01*
G01*
X-8713065Y57584853D01*
G75*
G02*
X-9915147Y57584853I-601041J601041D01*
G01*
G37*
G36*
G01*
X-8119096Y55788801D02*
X-8119096Y55788801D01*
G75*
G02*
X-8119096Y56990883I601041J601041D01*
G01*
X-7694832Y57415147D01*
G75*
G02*
X-6492750Y57415147I601041J-601041D01*
G01*
X-6492750Y57415147D01*
G75*
G02*
X-6492750Y56213065I-601041J-601041D01*
G01*
X-6917014Y55788801D01*
G75*
G02*
X-8119096Y55788801I-601041J601041D01*
G01*
G37*
G36*
G01*
X-9915147Y53992750D02*
X-9915147Y53992750D01*
G75*
G02*
X-9915147Y55194832I601041J601041D01*
G01*
X-9490883Y55619096D01*
G75*
G02*
X-8288801Y55619096I601041J-601041D01*
G01*
X-8288801Y55619096D01*
G75*
G02*
X-8288801Y54417014I-601041J-601041D01*
G01*
X-8713065Y53992750D01*
G75*
G02*
X-9915147Y53992750I-601041J601041D01*
G01*
G37*
G36*
G01*
X-11711199Y55788801D02*
X-11711199Y55788801D01*
G75*
G02*
X-11711199Y56990883I601041J601041D01*
G01*
X-11286935Y57415147D01*
G75*
G02*
X-10084853Y57415147I601041J-601041D01*
G01*
X-10084853Y57415147D01*
G75*
G02*
X-10084853Y56213065I-601041J-601041D01*
G01*
X-10509117Y55788801D01*
G75*
G02*
X-11711199Y55788801I-601041J601041D01*
G01*
G37*
%TD*%
D17*
%TO.C,S1*%
X-33500000Y82340000D03*
X-33500000Y84880000D03*
X-33500000Y87420000D03*
X-33500000Y89960000D03*
X-33500000Y92500000D03*
X-33500000Y95040000D03*
X-33500000Y97580000D03*
X-33500000Y100120000D03*
%TD*%
%TO.C,P2*%
G36*
G01*
X-122888801Y55788801D02*
X-122888801Y55788801D01*
G75*
G02*
X-124090883Y55788801I-601041J601041D01*
G01*
X-124515147Y56213065D01*
G75*
G02*
X-124515147Y57415147I601041J601041D01*
G01*
X-124515147Y57415147D01*
G75*
G02*
X-123313065Y57415147I601041J-601041D01*
G01*
X-122888801Y56990883D01*
G75*
G02*
X-122888801Y55788801I-601041J-601041D01*
G01*
G37*
G36*
G01*
X-121092750Y57584853D02*
X-121092750Y57584853D01*
G75*
G02*
X-122294832Y57584853I-601041J601041D01*
G01*
X-122719096Y58009117D01*
G75*
G02*
X-122719096Y59211199I601041J601041D01*
G01*
X-122719096Y59211199D01*
G75*
G02*
X-121517014Y59211199I601041J-601041D01*
G01*
X-121092750Y58786935D01*
G75*
G02*
X-121092750Y57584853I-601041J-601041D01*
G01*
G37*
G36*
G01*
X-122888801Y59380904D02*
X-122888801Y59380904D01*
G75*
G02*
X-124090883Y59380904I-601041J601041D01*
G01*
X-124515147Y59805168D01*
G75*
G02*
X-124515147Y61007250I601041J601041D01*
G01*
X-124515147Y61007250D01*
G75*
G02*
X-123313065Y61007250I601041J-601041D01*
G01*
X-122888801Y60582986D01*
G75*
G02*
X-122888801Y59380904I-601041J-601041D01*
G01*
G37*
G36*
G01*
X-124684853Y57584853D02*
X-124684853Y57584853D01*
G75*
G02*
X-125886935Y57584853I-601041J601041D01*
G01*
X-126311199Y58009117D01*
G75*
G02*
X-126311199Y59211199I601041J601041D01*
G01*
X-126311199Y59211199D01*
G75*
G02*
X-125109117Y59211199I601041J-601041D01*
G01*
X-124684853Y58786935D01*
G75*
G02*
X-124684853Y57584853I-601041J-601041D01*
G01*
G37*
G36*
G01*
X-124119168Y54558436D02*
X-125250539Y53427065D01*
G75*
G02*
X-125321249Y53427065I-35355J35355D01*
G01*
X-126876884Y54982700D01*
G75*
G02*
X-126876884Y55053410I35355J35355D01*
G01*
X-125745513Y56184781D01*
G75*
G02*
X-125674803Y56184781I35355J-35355D01*
G01*
X-124119168Y54629146D01*
G75*
G02*
X-124119168Y54558436I-35355J-35355D01*
G01*
G37*
G36*
G01*
X-126480904Y55788801D02*
X-126480904Y55788801D01*
G75*
G02*
X-127682986Y55788801I-601041J601041D01*
G01*
X-128107250Y56213065D01*
G75*
G02*
X-128107250Y57415147I601041J601041D01*
G01*
X-128107250Y57415147D01*
G75*
G02*
X-126905168Y57415147I601041J-601041D01*
G01*
X-126480904Y56990883D01*
G75*
G02*
X-126480904Y55788801I-601041J-601041D01*
G01*
G37*
%TD*%
D18*
%TO.C,SW1*%
X-64250000Y58750000D03*
X-64250000Y54250000D03*
G36*
G01*
X-71549000Y58001000D02*
X-71549000Y59499000D01*
G75*
G02*
X-71499000Y59549000I50000J0D01*
G01*
X-70001000Y59549000D01*
G75*
G02*
X-69951000Y59499000I0J-50000D01*
G01*
X-69951000Y58001000D01*
G75*
G02*
X-70001000Y57951000I-50000J0D01*
G01*
X-71499000Y57951000D01*
G75*
G02*
X-71549000Y58001000I0J50000D01*
G01*
G37*
X-70750000Y54250000D03*
%TD*%
D19*
%TO.C,H5*%
X-67500000Y132500000D03*
%TD*%
D20*
%TO.C,J7*%
X-75300000Y43600000D03*
X-62000000Y21900000D03*
D17*
X-78930000Y44910000D03*
X-78930000Y42370000D03*
X-78930000Y39830000D03*
X-78930000Y37290000D03*
X-78930000Y34750000D03*
X-78930000Y32210000D03*
X-78930000Y29670000D03*
X-78930000Y27130000D03*
X-78930000Y24590000D03*
X-78930000Y22050000D03*
X-78930000Y19510000D03*
X-78930000Y16970000D03*
X-78930000Y14430000D03*
X-56070000Y44910000D03*
X-56070000Y42370000D03*
X-56070000Y39830000D03*
X-56070000Y37290000D03*
X-56070000Y34750000D03*
X-56070000Y32210000D03*
X-56070000Y29670000D03*
X-56070000Y27130000D03*
X-56070000Y24590000D03*
X-56070000Y22050000D03*
X-56070000Y19510000D03*
X-56070000Y16970000D03*
G36*
G01*
X-57320000Y13630000D02*
X-57320000Y15230000D01*
G75*
G02*
X-57270000Y15280000I50000J0D01*
G01*
X-54870000Y15280000D01*
G75*
G02*
X-54820000Y15230000I0J-50000D01*
G01*
X-54820000Y13630000D01*
G75*
G02*
X-54870000Y13580000I-50000J0D01*
G01*
X-57270000Y13580000D01*
G75*
G02*
X-57320000Y13630000I0J50000D01*
G01*
G37*
%TD*%
M02*
