%TF.GenerationSoftware,KiCad,Pcbnew,(5.1.10)-1*%
%TF.CreationDate,2021-11-10T10:02:11+11:00*%
%TF.ProjectId,swag-badge,73776167-2d62-4616-9467-652e6b696361,rev?*%
%TF.SameCoordinates,PX405f7e0PYfa3044a0*%
%TF.FileFunction,Soldermask,Bot*%
%TF.FilePolarity,Negative*%
%FSLAX46Y46*%
G04 Gerber Fmt 4.6, Leading zero omitted, Abs format (unit mm)*
G04 Created by KiCad (PCBNEW (5.1.10)-1) date 2021-11-10 10:02:11*
%MOMM*%
%LPD*%
G01*
G04 APERTURE LIST*
%ADD10C,0.010000*%
%ADD11O,1.700000X2.300000*%
%ADD12O,2.500000X1.700000*%
%ADD13C,1.598000*%
%ADD14O,14.100000X3.100000*%
%ADD15C,4.900000*%
G04 APERTURE END LIST*
D10*
%TO.C,Ref\u002A\u002A*%
G36*
X-91927553Y82073691D02*
G01*
X-92179798Y82016737D01*
X-92428371Y81920411D01*
X-92540167Y81862699D01*
X-92662741Y81781678D01*
X-92795295Y81673029D01*
X-92928050Y81546567D01*
X-93051226Y81412101D01*
X-93155045Y81279446D01*
X-93215349Y81185226D01*
X-93320951Y80965778D01*
X-93399442Y80734491D01*
X-93448488Y80501173D01*
X-93465755Y80275632D01*
X-93460517Y80154667D01*
X-93415459Y79888112D01*
X-93332928Y79636320D01*
X-93216028Y79402310D01*
X-93067861Y79189097D01*
X-92891531Y78999701D01*
X-92690141Y78837137D01*
X-92466795Y78704424D01*
X-92224596Y78604580D01*
X-91966646Y78540620D01*
X-91778167Y78518804D01*
X-91674300Y78515562D01*
X-91567411Y78517420D01*
X-91478828Y78523951D01*
X-91470658Y78524998D01*
X-91195938Y78582888D01*
X-90939574Y78677886D01*
X-90704096Y78807836D01*
X-90492034Y78970582D01*
X-90305918Y79163968D01*
X-90148278Y79385840D01*
X-90021642Y79634040D01*
X-89954441Y79817044D01*
X-89934715Y79885125D01*
X-89920951Y79949278D01*
X-89912123Y80019561D01*
X-89907206Y80106032D01*
X-89905176Y80218746D01*
X-89904917Y80302833D01*
X-89905713Y80436083D01*
X-89908788Y80537106D01*
X-89915169Y80615988D01*
X-89925887Y80682819D01*
X-89941969Y80747685D01*
X-89954562Y80789667D01*
X-90055666Y81048461D01*
X-90187257Y81282059D01*
X-90345916Y81489044D01*
X-90528230Y81667998D01*
X-90730782Y81817504D01*
X-90950155Y81936144D01*
X-91182935Y82022500D01*
X-91425705Y82075155D01*
X-91675050Y82092691D01*
X-91927553Y82073691D01*
G37*
X-91927553Y82073691D02*
X-92179798Y82016737D01*
X-92428371Y81920411D01*
X-92540167Y81862699D01*
X-92662741Y81781678D01*
X-92795295Y81673029D01*
X-92928050Y81546567D01*
X-93051226Y81412101D01*
X-93155045Y81279446D01*
X-93215349Y81185226D01*
X-93320951Y80965778D01*
X-93399442Y80734491D01*
X-93448488Y80501173D01*
X-93465755Y80275632D01*
X-93460517Y80154667D01*
X-93415459Y79888112D01*
X-93332928Y79636320D01*
X-93216028Y79402310D01*
X-93067861Y79189097D01*
X-92891531Y78999701D01*
X-92690141Y78837137D01*
X-92466795Y78704424D01*
X-92224596Y78604580D01*
X-91966646Y78540620D01*
X-91778167Y78518804D01*
X-91674300Y78515562D01*
X-91567411Y78517420D01*
X-91478828Y78523951D01*
X-91470658Y78524998D01*
X-91195938Y78582888D01*
X-90939574Y78677886D01*
X-90704096Y78807836D01*
X-90492034Y78970582D01*
X-90305918Y79163968D01*
X-90148278Y79385840D01*
X-90021642Y79634040D01*
X-89954441Y79817044D01*
X-89934715Y79885125D01*
X-89920951Y79949278D01*
X-89912123Y80019561D01*
X-89907206Y80106032D01*
X-89905176Y80218746D01*
X-89904917Y80302833D01*
X-89905713Y80436083D01*
X-89908788Y80537106D01*
X-89915169Y80615988D01*
X-89925887Y80682819D01*
X-89941969Y80747685D01*
X-89954562Y80789667D01*
X-90055666Y81048461D01*
X-90187257Y81282059D01*
X-90345916Y81489044D01*
X-90528230Y81667998D01*
X-90730782Y81817504D01*
X-90950155Y81936144D01*
X-91182935Y82022500D01*
X-91425705Y82075155D01*
X-91675050Y82092691D01*
X-91927553Y82073691D01*
G36*
X-97273067Y87485563D02*
G01*
X-97504016Y87439162D01*
X-97730028Y87353378D01*
X-97743821Y87346726D01*
X-97878828Y87264242D01*
X-98015877Y87151222D01*
X-98145135Y87017760D01*
X-98256766Y86873955D01*
X-98337264Y86737500D01*
X-98427113Y86509014D01*
X-98475222Y86277073D01*
X-98481437Y86043474D01*
X-98445603Y85810017D01*
X-98424148Y85732083D01*
X-98337821Y85520590D01*
X-98215681Y85325335D01*
X-98062764Y85151437D01*
X-97884104Y85004015D01*
X-97684734Y84888187D01*
X-97535500Y84828630D01*
X-97424914Y84802281D01*
X-97288149Y84784362D01*
X-97139566Y84775432D01*
X-96993530Y84776049D01*
X-96864403Y84786771D01*
X-96794667Y84799843D01*
X-96576608Y84876043D01*
X-96374388Y84988090D01*
X-96192622Y85131414D01*
X-96035926Y85301447D01*
X-95908915Y85493621D01*
X-95816207Y85703367D01*
X-95788614Y85795583D01*
X-95759594Y85971732D01*
X-95755249Y86166809D01*
X-95774466Y86366170D01*
X-95816131Y86555169D01*
X-95854737Y86665554D01*
X-95913122Y86779939D01*
X-95995061Y86905375D01*
X-96090187Y87027583D01*
X-96188136Y87132281D01*
X-96204619Y87147580D01*
X-96391530Y87289200D01*
X-96596412Y87394401D01*
X-96814683Y87462590D01*
X-97041762Y87493175D01*
X-97273067Y87485563D01*
G37*
X-97273067Y87485563D02*
X-97504016Y87439162D01*
X-97730028Y87353378D01*
X-97743821Y87346726D01*
X-97878828Y87264242D01*
X-98015877Y87151222D01*
X-98145135Y87017760D01*
X-98256766Y86873955D01*
X-98337264Y86737500D01*
X-98427113Y86509014D01*
X-98475222Y86277073D01*
X-98481437Y86043474D01*
X-98445603Y85810017D01*
X-98424148Y85732083D01*
X-98337821Y85520590D01*
X-98215681Y85325335D01*
X-98062764Y85151437D01*
X-97884104Y85004015D01*
X-97684734Y84888187D01*
X-97535500Y84828630D01*
X-97424914Y84802281D01*
X-97288149Y84784362D01*
X-97139566Y84775432D01*
X-96993530Y84776049D01*
X-96864403Y84786771D01*
X-96794667Y84799843D01*
X-96576608Y84876043D01*
X-96374388Y84988090D01*
X-96192622Y85131414D01*
X-96035926Y85301447D01*
X-95908915Y85493621D01*
X-95816207Y85703367D01*
X-95788614Y85795583D01*
X-95759594Y85971732D01*
X-95755249Y86166809D01*
X-95774466Y86366170D01*
X-95816131Y86555169D01*
X-95854737Y86665554D01*
X-95913122Y86779939D01*
X-95995061Y86905375D01*
X-96090187Y87027583D01*
X-96188136Y87132281D01*
X-96204619Y87147580D01*
X-96391530Y87289200D01*
X-96596412Y87394401D01*
X-96814683Y87462590D01*
X-97041762Y87493175D01*
X-97273067Y87485563D01*
G36*
X-80460850Y91228689D02*
G01*
X-80767970Y91168193D01*
X-80921408Y91121945D01*
X-81182321Y91015582D01*
X-81429351Y90879395D01*
X-81655094Y90718422D01*
X-81852148Y90537701D01*
X-81957593Y90416779D01*
X-82036013Y90317807D01*
X-81977352Y90088695D01*
X-81882433Y89634640D01*
X-81826507Y89169895D01*
X-81809638Y88700212D01*
X-81831885Y88231340D01*
X-81893311Y87769027D01*
X-81949592Y87494634D01*
X-82002656Y87267519D01*
X-81959112Y87206367D01*
X-81907368Y87144977D01*
X-81830302Y87067528D01*
X-81737154Y86982415D01*
X-81637162Y86898031D01*
X-81539563Y86822767D01*
X-81526570Y86813402D01*
X-81266145Y86653157D01*
X-80986475Y86528708D01*
X-80692742Y86441277D01*
X-80390128Y86392085D01*
X-80083813Y86382354D01*
X-79808417Y86408473D01*
X-79482640Y86479772D01*
X-79177450Y86587906D01*
X-78893304Y86732645D01*
X-78630661Y86913758D01*
X-78408243Y87112483D01*
X-78202422Y87347461D01*
X-78033245Y87599502D01*
X-77900237Y87865318D01*
X-77802921Y88141620D01*
X-77740822Y88425121D01*
X-77713461Y88712533D01*
X-77720364Y89000569D01*
X-77761053Y89285940D01*
X-77835053Y89565359D01*
X-77941887Y89835539D01*
X-78081079Y90093191D01*
X-78252152Y90335027D01*
X-78454630Y90557761D01*
X-78688036Y90758104D01*
X-78951895Y90932768D01*
X-78962664Y90938940D01*
X-79242554Y91074475D01*
X-79536745Y91171631D01*
X-79840810Y91229994D01*
X-80150321Y91249152D01*
X-80460850Y91228689D01*
G37*
X-80460850Y91228689D02*
X-80767970Y91168193D01*
X-80921408Y91121945D01*
X-81182321Y91015582D01*
X-81429351Y90879395D01*
X-81655094Y90718422D01*
X-81852148Y90537701D01*
X-81957593Y90416779D01*
X-82036013Y90317807D01*
X-81977352Y90088695D01*
X-81882433Y89634640D01*
X-81826507Y89169895D01*
X-81809638Y88700212D01*
X-81831885Y88231340D01*
X-81893311Y87769027D01*
X-81949592Y87494634D01*
X-82002656Y87267519D01*
X-81959112Y87206367D01*
X-81907368Y87144977D01*
X-81830302Y87067528D01*
X-81737154Y86982415D01*
X-81637162Y86898031D01*
X-81539563Y86822767D01*
X-81526570Y86813402D01*
X-81266145Y86653157D01*
X-80986475Y86528708D01*
X-80692742Y86441277D01*
X-80390128Y86392085D01*
X-80083813Y86382354D01*
X-79808417Y86408473D01*
X-79482640Y86479772D01*
X-79177450Y86587906D01*
X-78893304Y86732645D01*
X-78630661Y86913758D01*
X-78408243Y87112483D01*
X-78202422Y87347461D01*
X-78033245Y87599502D01*
X-77900237Y87865318D01*
X-77802921Y88141620D01*
X-77740822Y88425121D01*
X-77713461Y88712533D01*
X-77720364Y89000569D01*
X-77761053Y89285940D01*
X-77835053Y89565359D01*
X-77941887Y89835539D01*
X-78081079Y90093191D01*
X-78252152Y90335027D01*
X-78454630Y90557761D01*
X-78688036Y90758104D01*
X-78951895Y90932768D01*
X-78962664Y90938940D01*
X-79242554Y91074475D01*
X-79536745Y91171631D01*
X-79840810Y91229994D01*
X-80150321Y91249152D01*
X-80460850Y91228689D01*
G36*
X-82285402Y98374050D02*
G01*
X-82560977Y98334488D01*
X-82826569Y98259673D01*
X-83079048Y98151357D01*
X-83315284Y98011291D01*
X-83532149Y97841226D01*
X-83726514Y97642913D01*
X-83895249Y97418103D01*
X-84035226Y97168548D01*
X-84143315Y96895999D01*
X-84192632Y96717583D01*
X-84216284Y96575829D01*
X-84229223Y96409315D01*
X-84231593Y96231750D01*
X-84223535Y96056842D01*
X-84205192Y95898299D01*
X-84183005Y95791708D01*
X-84087427Y95504307D01*
X-83963204Y95246616D01*
X-83808848Y95015870D01*
X-83692500Y94879925D01*
X-83471876Y94671517D01*
X-83235552Y94501151D01*
X-82979001Y94366035D01*
X-82697690Y94263377D01*
X-82687083Y94260262D01*
X-82599698Y94236778D01*
X-82518021Y94220214D01*
X-82430233Y94209100D01*
X-82324516Y94201967D01*
X-82189051Y94197345D01*
X-82179083Y94197100D01*
X-82002625Y94195638D01*
X-81861899Y94200937D01*
X-81750798Y94213296D01*
X-81715992Y94219715D01*
X-81423316Y94301045D01*
X-81150898Y94417828D01*
X-80901208Y94567702D01*
X-80676718Y94748303D01*
X-80479899Y94957268D01*
X-80313220Y95192234D01*
X-80179154Y95450838D01*
X-80080171Y95730716D01*
X-80061614Y95802009D01*
X-80046295Y95882341D01*
X-80031872Y95987865D01*
X-80020513Y96101459D01*
X-80016523Y96158260D01*
X-80020056Y96450099D01*
X-80063288Y96733904D01*
X-80143919Y97006249D01*
X-80259647Y97263708D01*
X-80408173Y97502853D01*
X-80587195Y97720257D01*
X-80794414Y97912495D01*
X-81027529Y98076140D01*
X-81284239Y98207765D01*
X-81430059Y98263707D01*
X-81716813Y98340411D01*
X-82002971Y98376608D01*
X-82285402Y98374050D01*
G37*
X-82285402Y98374050D02*
X-82560977Y98334488D01*
X-82826569Y98259673D01*
X-83079048Y98151357D01*
X-83315284Y98011291D01*
X-83532149Y97841226D01*
X-83726514Y97642913D01*
X-83895249Y97418103D01*
X-84035226Y97168548D01*
X-84143315Y96895999D01*
X-84192632Y96717583D01*
X-84216284Y96575829D01*
X-84229223Y96409315D01*
X-84231593Y96231750D01*
X-84223535Y96056842D01*
X-84205192Y95898299D01*
X-84183005Y95791708D01*
X-84087427Y95504307D01*
X-83963204Y95246616D01*
X-83808848Y95015870D01*
X-83692500Y94879925D01*
X-83471876Y94671517D01*
X-83235552Y94501151D01*
X-82979001Y94366035D01*
X-82697690Y94263377D01*
X-82687083Y94260262D01*
X-82599698Y94236778D01*
X-82518021Y94220214D01*
X-82430233Y94209100D01*
X-82324516Y94201967D01*
X-82189051Y94197345D01*
X-82179083Y94197100D01*
X-82002625Y94195638D01*
X-81861899Y94200937D01*
X-81750798Y94213296D01*
X-81715992Y94219715D01*
X-81423316Y94301045D01*
X-81150898Y94417828D01*
X-80901208Y94567702D01*
X-80676718Y94748303D01*
X-80479899Y94957268D01*
X-80313220Y95192234D01*
X-80179154Y95450838D01*
X-80080171Y95730716D01*
X-80061614Y95802009D01*
X-80046295Y95882341D01*
X-80031872Y95987865D01*
X-80020513Y96101459D01*
X-80016523Y96158260D01*
X-80020056Y96450099D01*
X-80063288Y96733904D01*
X-80143919Y97006249D01*
X-80259647Y97263708D01*
X-80408173Y97502853D01*
X-80587195Y97720257D01*
X-80794414Y97912495D01*
X-81027529Y98076140D01*
X-81284239Y98207765D01*
X-81430059Y98263707D01*
X-81716813Y98340411D01*
X-82002971Y98376608D01*
X-82285402Y98374050D01*
G36*
X-91661237Y97413344D02*
G01*
X-91858751Y97346562D01*
X-92044290Y97241254D01*
X-92211679Y97100270D01*
X-92351073Y96932828D01*
X-92453630Y96751478D01*
X-92520539Y96560614D01*
X-92552989Y96364632D01*
X-92552169Y96167925D01*
X-92519267Y95974888D01*
X-92455472Y95789916D01*
X-92361974Y95617403D01*
X-92239961Y95461745D01*
X-92090622Y95327335D01*
X-91915146Y95218568D01*
X-91714721Y95139839D01*
X-91678616Y95129853D01*
X-91574320Y95111555D01*
X-91447729Y95102404D01*
X-91315002Y95102431D01*
X-91192295Y95111669D01*
X-91100833Y95128694D01*
X-90900632Y95205942D01*
X-90719894Y95318676D01*
X-90562595Y95462982D01*
X-90432710Y95634947D01*
X-90334214Y95830657D01*
X-90305478Y95911590D01*
X-90257779Y96127018D01*
X-90249201Y96340965D01*
X-90277949Y96548720D01*
X-90342230Y96745575D01*
X-90440250Y96926819D01*
X-90570215Y97087745D01*
X-90730331Y97223641D01*
X-90828608Y97284910D01*
X-91035432Y97377383D01*
X-91245718Y97429269D01*
X-91455606Y97441085D01*
X-91661237Y97413344D01*
G37*
X-91661237Y97413344D02*
X-91858751Y97346562D01*
X-92044290Y97241254D01*
X-92211679Y97100270D01*
X-92351073Y96932828D01*
X-92453630Y96751478D01*
X-92520539Y96560614D01*
X-92552989Y96364632D01*
X-92552169Y96167925D01*
X-92519267Y95974888D01*
X-92455472Y95789916D01*
X-92361974Y95617403D01*
X-92239961Y95461745D01*
X-92090622Y95327335D01*
X-91915146Y95218568D01*
X-91714721Y95139839D01*
X-91678616Y95129853D01*
X-91574320Y95111555D01*
X-91447729Y95102404D01*
X-91315002Y95102431D01*
X-91192295Y95111669D01*
X-91100833Y95128694D01*
X-90900632Y95205942D01*
X-90719894Y95318676D01*
X-90562595Y95462982D01*
X-90432710Y95634947D01*
X-90334214Y95830657D01*
X-90305478Y95911590D01*
X-90257779Y96127018D01*
X-90249201Y96340965D01*
X-90277949Y96548720D01*
X-90342230Y96745575D01*
X-90440250Y96926819D01*
X-90570215Y97087745D01*
X-90730331Y97223641D01*
X-90828608Y97284910D01*
X-91035432Y97377383D01*
X-91245718Y97429269D01*
X-91455606Y97441085D01*
X-91661237Y97413344D01*
G36*
X-77976068Y109382987D02*
G01*
X-78185890Y109347473D01*
X-78377641Y109278094D01*
X-78557747Y109172376D01*
X-78732633Y109027843D01*
X-78771080Y108990557D01*
X-78859098Y108899933D01*
X-78924391Y108823391D01*
X-78976618Y108747750D01*
X-79025436Y108659827D01*
X-79050779Y108608803D01*
X-79160049Y108337431D01*
X-79236271Y108046412D01*
X-79279204Y107742853D01*
X-79288609Y107433862D01*
X-79264246Y107126546D01*
X-79205874Y106828010D01*
X-79119938Y106562146D01*
X-79011323Y106338873D01*
X-78872256Y106139966D01*
X-78706356Y105968946D01*
X-78517242Y105829335D01*
X-78308533Y105724654D01*
X-78230243Y105696503D01*
X-78050819Y105653414D01*
X-77856107Y105632409D01*
X-77662047Y105634148D01*
X-77484577Y105659290D01*
X-77461931Y105664723D01*
X-77288487Y105718759D01*
X-77137966Y105789600D01*
X-76997947Y105884475D01*
X-76856011Y106010613D01*
X-76839420Y106027034D01*
X-76751174Y106118295D01*
X-76685634Y106195498D01*
X-76633130Y106271865D01*
X-76583996Y106360615D01*
X-76559722Y106409531D01*
X-76457666Y106658615D01*
X-76384207Y106921866D01*
X-76338765Y107194122D01*
X-76320762Y107470218D01*
X-76323281Y107548358D01*
X-76727958Y107548358D01*
X-76736448Y107333463D01*
X-76758588Y107120963D01*
X-76793467Y106924068D01*
X-76835686Y106769073D01*
X-76907251Y106598187D01*
X-77001250Y106437598D01*
X-77111013Y106296552D01*
X-77229868Y106184296D01*
X-77286270Y106144550D01*
X-77464356Y106057472D01*
X-77656001Y106008999D01*
X-77855703Y105999937D01*
X-78057956Y106031093D01*
X-78058896Y106031334D01*
X-78234592Y106097804D01*
X-78393377Y106201367D01*
X-78532640Y106339273D01*
X-78649771Y106508770D01*
X-78742163Y106707109D01*
X-78766352Y106777083D01*
X-78813453Y106939993D01*
X-78845651Y107091737D01*
X-78864585Y107245543D01*
X-78871896Y107414638D01*
X-78869353Y107608208D01*
X-78849118Y107881808D01*
X-78806475Y108122253D01*
X-78740264Y108333000D01*
X-78649331Y108517505D01*
X-78532517Y108679226D01*
X-78498062Y108717648D01*
X-78343868Y108854831D01*
X-78175279Y108953645D01*
X-77995342Y109013153D01*
X-77807107Y109032415D01*
X-77613621Y109010494D01*
X-77576218Y109001518D01*
X-77383871Y108930829D01*
X-77215402Y108825187D01*
X-77070813Y108684594D01*
X-76950110Y108509057D01*
X-76853295Y108298579D01*
X-76780372Y108053166D01*
X-76755563Y107932500D01*
X-76734026Y107752441D01*
X-76727958Y107548358D01*
X-76323281Y107548358D01*
X-76329621Y107744991D01*
X-76364762Y108013278D01*
X-76425608Y108269914D01*
X-76511580Y108509736D01*
X-76622099Y108727581D01*
X-76756589Y108918284D01*
X-76852187Y109021039D01*
X-77027437Y109164940D01*
X-77216412Y109271699D01*
X-77423656Y109343187D01*
X-77653713Y109381272D01*
X-77741750Y109387112D01*
X-77976068Y109382987D01*
G37*
X-77976068Y109382987D02*
X-78185890Y109347473D01*
X-78377641Y109278094D01*
X-78557747Y109172376D01*
X-78732633Y109027843D01*
X-78771080Y108990557D01*
X-78859098Y108899933D01*
X-78924391Y108823391D01*
X-78976618Y108747750D01*
X-79025436Y108659827D01*
X-79050779Y108608803D01*
X-79160049Y108337431D01*
X-79236271Y108046412D01*
X-79279204Y107742853D01*
X-79288609Y107433862D01*
X-79264246Y107126546D01*
X-79205874Y106828010D01*
X-79119938Y106562146D01*
X-79011323Y106338873D01*
X-78872256Y106139966D01*
X-78706356Y105968946D01*
X-78517242Y105829335D01*
X-78308533Y105724654D01*
X-78230243Y105696503D01*
X-78050819Y105653414D01*
X-77856107Y105632409D01*
X-77662047Y105634148D01*
X-77484577Y105659290D01*
X-77461931Y105664723D01*
X-77288487Y105718759D01*
X-77137966Y105789600D01*
X-76997947Y105884475D01*
X-76856011Y106010613D01*
X-76839420Y106027034D01*
X-76751174Y106118295D01*
X-76685634Y106195498D01*
X-76633130Y106271865D01*
X-76583996Y106360615D01*
X-76559722Y106409531D01*
X-76457666Y106658615D01*
X-76384207Y106921866D01*
X-76338765Y107194122D01*
X-76320762Y107470218D01*
X-76323281Y107548358D01*
X-76727958Y107548358D01*
X-76736448Y107333463D01*
X-76758588Y107120963D01*
X-76793467Y106924068D01*
X-76835686Y106769073D01*
X-76907251Y106598187D01*
X-77001250Y106437598D01*
X-77111013Y106296552D01*
X-77229868Y106184296D01*
X-77286270Y106144550D01*
X-77464356Y106057472D01*
X-77656001Y106008999D01*
X-77855703Y105999937D01*
X-78057956Y106031093D01*
X-78058896Y106031334D01*
X-78234592Y106097804D01*
X-78393377Y106201367D01*
X-78532640Y106339273D01*
X-78649771Y106508770D01*
X-78742163Y106707109D01*
X-78766352Y106777083D01*
X-78813453Y106939993D01*
X-78845651Y107091737D01*
X-78864585Y107245543D01*
X-78871896Y107414638D01*
X-78869353Y107608208D01*
X-78849118Y107881808D01*
X-78806475Y108122253D01*
X-78740264Y108333000D01*
X-78649331Y108517505D01*
X-78532517Y108679226D01*
X-78498062Y108717648D01*
X-78343868Y108854831D01*
X-78175279Y108953645D01*
X-77995342Y109013153D01*
X-77807107Y109032415D01*
X-77613621Y109010494D01*
X-77576218Y109001518D01*
X-77383871Y108930829D01*
X-77215402Y108825187D01*
X-77070813Y108684594D01*
X-76950110Y108509057D01*
X-76853295Y108298579D01*
X-76780372Y108053166D01*
X-76755563Y107932500D01*
X-76734026Y107752441D01*
X-76727958Y107548358D01*
X-76323281Y107548358D01*
X-76329621Y107744991D01*
X-76364762Y108013278D01*
X-76425608Y108269914D01*
X-76511580Y108509736D01*
X-76622099Y108727581D01*
X-76756589Y108918284D01*
X-76852187Y109021039D01*
X-77027437Y109164940D01*
X-77216412Y109271699D01*
X-77423656Y109343187D01*
X-77653713Y109381272D01*
X-77741750Y109387112D01*
X-77976068Y109382987D01*
G36*
X-74653953Y109391243D02*
G01*
X-74798212Y109378297D01*
X-74925329Y109353047D01*
X-75047578Y109313010D01*
X-75177234Y109255704D01*
X-75185251Y109251793D01*
X-75354882Y109147275D01*
X-75492659Y109017773D01*
X-75597917Y108866924D01*
X-75669993Y108698366D01*
X-75708221Y108515739D01*
X-75711937Y108322680D01*
X-75680478Y108122828D01*
X-75613180Y107919820D01*
X-75509377Y107717296D01*
X-75475210Y107663477D01*
X-75439753Y107612840D01*
X-75396416Y107556980D01*
X-75342419Y107492939D01*
X-75274984Y107417760D01*
X-75191331Y107328483D01*
X-75088682Y107222151D01*
X-74964257Y107095806D01*
X-74815277Y106946490D01*
X-74638962Y106771244D01*
X-74610149Y106742700D01*
X-73868250Y106007982D01*
X-74878959Y106007158D01*
X-75889667Y106006333D01*
X-75889667Y105667667D01*
X-73265000Y105667667D01*
X-73265000Y105939028D01*
X-74135343Y106792889D01*
X-74336954Y106991529D01*
X-74519435Y107173042D01*
X-74681049Y107335644D01*
X-74820061Y107477552D01*
X-74934736Y107596986D01*
X-75023339Y107692160D01*
X-75084134Y107761294D01*
X-75109322Y107793389D01*
X-75210027Y107966933D01*
X-75273216Y108147364D01*
X-75296772Y108328491D01*
X-75296882Y108342188D01*
X-75282121Y108509281D01*
X-75236612Y108648903D01*
X-75158019Y108764967D01*
X-75044007Y108861386D01*
X-74956760Y108911875D01*
X-74814572Y108973971D01*
X-74674195Y109012074D01*
X-74522143Y109028676D01*
X-74344929Y109026271D01*
X-74339745Y109025971D01*
X-74107497Y108995362D01*
X-73898798Y108931260D01*
X-73709087Y108831828D01*
X-73545578Y108705929D01*
X-73437707Y108608944D01*
X-73303729Y108730377D01*
X-73241699Y108786453D01*
X-73192183Y108830942D01*
X-73163129Y108856716D01*
X-73159167Y108860073D01*
X-73166653Y108878100D01*
X-73200863Y108915012D01*
X-73254472Y108964538D01*
X-73320157Y109020407D01*
X-73390593Y109076346D01*
X-73458456Y109126084D01*
X-73506589Y109157567D01*
X-73706748Y109258842D01*
X-73925131Y109331166D01*
X-74166776Y109375764D01*
X-74436719Y109393861D01*
X-74480276Y109394367D01*
X-74653953Y109391243D01*
G37*
X-74653953Y109391243D02*
X-74798212Y109378297D01*
X-74925329Y109353047D01*
X-75047578Y109313010D01*
X-75177234Y109255704D01*
X-75185251Y109251793D01*
X-75354882Y109147275D01*
X-75492659Y109017773D01*
X-75597917Y108866924D01*
X-75669993Y108698366D01*
X-75708221Y108515739D01*
X-75711937Y108322680D01*
X-75680478Y108122828D01*
X-75613180Y107919820D01*
X-75509377Y107717296D01*
X-75475210Y107663477D01*
X-75439753Y107612840D01*
X-75396416Y107556980D01*
X-75342419Y107492939D01*
X-75274984Y107417760D01*
X-75191331Y107328483D01*
X-75088682Y107222151D01*
X-74964257Y107095806D01*
X-74815277Y106946490D01*
X-74638962Y106771244D01*
X-74610149Y106742700D01*
X-73868250Y106007982D01*
X-74878959Y106007158D01*
X-75889667Y106006333D01*
X-75889667Y105667667D01*
X-73265000Y105667667D01*
X-73265000Y105939028D01*
X-74135343Y106792889D01*
X-74336954Y106991529D01*
X-74519435Y107173042D01*
X-74681049Y107335644D01*
X-74820061Y107477552D01*
X-74934736Y107596986D01*
X-75023339Y107692160D01*
X-75084134Y107761294D01*
X-75109322Y107793389D01*
X-75210027Y107966933D01*
X-75273216Y108147364D01*
X-75296772Y108328491D01*
X-75296882Y108342188D01*
X-75282121Y108509281D01*
X-75236612Y108648903D01*
X-75158019Y108764967D01*
X-75044007Y108861386D01*
X-74956760Y108911875D01*
X-74814572Y108973971D01*
X-74674195Y109012074D01*
X-74522143Y109028676D01*
X-74344929Y109026271D01*
X-74339745Y109025971D01*
X-74107497Y108995362D01*
X-73898798Y108931260D01*
X-73709087Y108831828D01*
X-73545578Y108705929D01*
X-73437707Y108608944D01*
X-73303729Y108730377D01*
X-73241699Y108786453D01*
X-73192183Y108830942D01*
X-73163129Y108856716D01*
X-73159167Y108860073D01*
X-73166653Y108878100D01*
X-73200863Y108915012D01*
X-73254472Y108964538D01*
X-73320157Y109020407D01*
X-73390593Y109076346D01*
X-73458456Y109126084D01*
X-73506589Y109157567D01*
X-73706748Y109258842D01*
X-73925131Y109331166D01*
X-74166776Y109375764D01*
X-74436719Y109393861D01*
X-74480276Y109394367D01*
X-74653953Y109391243D01*
G36*
X-81107921Y109391931D02*
G01*
X-81240519Y109382067D01*
X-81355471Y109362188D01*
X-81464947Y109329968D01*
X-81581121Y109283086D01*
X-81620176Y109265315D01*
X-81802994Y109160769D01*
X-81951397Y109033162D01*
X-82064340Y108883466D01*
X-82096745Y108823059D01*
X-82127461Y108755673D01*
X-82147763Y108696946D01*
X-82160276Y108633933D01*
X-82167624Y108553688D01*
X-82172164Y108451083D01*
X-82170881Y108268304D01*
X-82151331Y108112054D01*
X-82110802Y107969491D01*
X-82046583Y107827773D01*
X-82036700Y107809379D01*
X-82004799Y107751283D01*
X-81975179Y107699376D01*
X-81945233Y107650776D01*
X-81912355Y107602601D01*
X-81873939Y107551969D01*
X-81827376Y107495998D01*
X-81770061Y107431805D01*
X-81699386Y107356508D01*
X-81612745Y107267227D01*
X-81507531Y107161077D01*
X-81381137Y107035178D01*
X-81230956Y106886647D01*
X-81054382Y106712602D01*
X-80965613Y106625185D01*
X-80337143Y106006333D01*
X-82345500Y106006333D01*
X-82345500Y105667667D01*
X-79742000Y105667667D01*
X-79742917Y105810542D01*
X-79743833Y105953417D01*
X-80591138Y106778917D01*
X-80752317Y106936533D01*
X-80906955Y107088875D01*
X-81051889Y107232749D01*
X-81183952Y107364961D01*
X-81299980Y107482319D01*
X-81396808Y107581629D01*
X-81471271Y107659699D01*
X-81520204Y107713334D01*
X-81535206Y107731417D01*
X-81643986Y107892644D01*
X-81717103Y108046560D01*
X-81758139Y108201735D01*
X-81768218Y108289047D01*
X-81766776Y108447903D01*
X-81736851Y108581944D01*
X-81675851Y108699849D01*
X-81626922Y108762323D01*
X-81505412Y108869523D01*
X-81357569Y108949689D01*
X-81189479Y109003011D01*
X-81007228Y109029677D01*
X-80816905Y109029875D01*
X-80624595Y109003795D01*
X-80436386Y108951625D01*
X-80258363Y108873553D01*
X-80096614Y108769769D01*
X-80028625Y108712783D01*
X-79911164Y108605431D01*
X-79778957Y108727239D01*
X-79717995Y108784477D01*
X-79670294Y108831281D01*
X-79643555Y108860019D01*
X-79640558Y108864433D01*
X-79651501Y108888581D01*
X-79690097Y108930350D01*
X-79748932Y108983647D01*
X-79820591Y109042378D01*
X-79897659Y109100451D01*
X-79972721Y109151771D01*
X-80034735Y109188364D01*
X-80213766Y109271765D01*
X-80391644Y109331480D01*
X-80579532Y109370031D01*
X-80788597Y109389940D01*
X-80945503Y109394103D01*
X-81107921Y109391931D01*
G37*
X-81107921Y109391931D02*
X-81240519Y109382067D01*
X-81355471Y109362188D01*
X-81464947Y109329968D01*
X-81581121Y109283086D01*
X-81620176Y109265315D01*
X-81802994Y109160769D01*
X-81951397Y109033162D01*
X-82064340Y108883466D01*
X-82096745Y108823059D01*
X-82127461Y108755673D01*
X-82147763Y108696946D01*
X-82160276Y108633933D01*
X-82167624Y108553688D01*
X-82172164Y108451083D01*
X-82170881Y108268304D01*
X-82151331Y108112054D01*
X-82110802Y107969491D01*
X-82046583Y107827773D01*
X-82036700Y107809379D01*
X-82004799Y107751283D01*
X-81975179Y107699376D01*
X-81945233Y107650776D01*
X-81912355Y107602601D01*
X-81873939Y107551969D01*
X-81827376Y107495998D01*
X-81770061Y107431805D01*
X-81699386Y107356508D01*
X-81612745Y107267227D01*
X-81507531Y107161077D01*
X-81381137Y107035178D01*
X-81230956Y106886647D01*
X-81054382Y106712602D01*
X-80965613Y106625185D01*
X-80337143Y106006333D01*
X-82345500Y106006333D01*
X-82345500Y105667667D01*
X-79742000Y105667667D01*
X-79742917Y105810542D01*
X-79743833Y105953417D01*
X-80591138Y106778917D01*
X-80752317Y106936533D01*
X-80906955Y107088875D01*
X-81051889Y107232749D01*
X-81183952Y107364961D01*
X-81299980Y107482319D01*
X-81396808Y107581629D01*
X-81471271Y107659699D01*
X-81520204Y107713334D01*
X-81535206Y107731417D01*
X-81643986Y107892644D01*
X-81717103Y108046560D01*
X-81758139Y108201735D01*
X-81768218Y108289047D01*
X-81766776Y108447903D01*
X-81736851Y108581944D01*
X-81675851Y108699849D01*
X-81626922Y108762323D01*
X-81505412Y108869523D01*
X-81357569Y108949689D01*
X-81189479Y109003011D01*
X-81007228Y109029677D01*
X-80816905Y109029875D01*
X-80624595Y109003795D01*
X-80436386Y108951625D01*
X-80258363Y108873553D01*
X-80096614Y108769769D01*
X-80028625Y108712783D01*
X-79911164Y108605431D01*
X-79778957Y108727239D01*
X-79717995Y108784477D01*
X-79670294Y108831281D01*
X-79643555Y108860019D01*
X-79640558Y108864433D01*
X-79651501Y108888581D01*
X-79690097Y108930350D01*
X-79748932Y108983647D01*
X-79820591Y109042378D01*
X-79897659Y109100451D01*
X-79972721Y109151771D01*
X-80034735Y109188364D01*
X-80213766Y109271765D01*
X-80391644Y109331480D01*
X-80579532Y109370031D01*
X-80788597Y109389940D01*
X-80945503Y109394103D01*
X-81107921Y109391931D01*
G36*
X-84088818Y109391995D02*
G01*
X-84221447Y109382422D01*
X-84336023Y109363088D01*
X-84444527Y109331726D01*
X-84558937Y109286064D01*
X-84603917Y109265670D01*
X-84786128Y109163136D01*
X-84931001Y109041211D01*
X-85039642Y108898157D01*
X-85113160Y108732236D01*
X-85152662Y108541710D01*
X-85160667Y108392089D01*
X-85145290Y108180929D01*
X-85097347Y107983880D01*
X-85014113Y107793187D01*
X-84892867Y107601095D01*
X-84873934Y107575298D01*
X-84844479Y107540864D01*
X-84788234Y107479987D01*
X-84708470Y107396035D01*
X-84608453Y107292376D01*
X-84491453Y107172378D01*
X-84360738Y107039409D01*
X-84219577Y106896836D01*
X-84071237Y106748027D01*
X-84065371Y106742163D01*
X-83329750Y106006910D01*
X-84329875Y106006622D01*
X-85330000Y106006333D01*
X-85330000Y105667667D01*
X-82726500Y105667667D01*
X-82727408Y105810542D01*
X-82728315Y105953417D01*
X-83544546Y106747167D01*
X-83757691Y106954952D01*
X-83942295Y107136299D01*
X-84100601Y107293830D01*
X-84234849Y107430167D01*
X-84347283Y107547933D01*
X-84440143Y107649751D01*
X-84515671Y107738243D01*
X-84576110Y107816031D01*
X-84623701Y107885739D01*
X-84660687Y107949988D01*
X-84689308Y108011401D01*
X-84711807Y108072600D01*
X-84729727Y108133583D01*
X-84758795Y108310421D01*
X-84749544Y108472878D01*
X-84704189Y108618790D01*
X-84624944Y108745991D01*
X-84514024Y108852316D01*
X-84373645Y108935597D01*
X-84206019Y108993671D01*
X-84013362Y109024370D01*
X-83816584Y109026610D01*
X-83574792Y108995390D01*
X-83354405Y108928291D01*
X-83156343Y108825687D01*
X-82981525Y108687951D01*
X-82981224Y108687665D01*
X-82896343Y108606746D01*
X-82758517Y108729998D01*
X-82696736Y108786460D01*
X-82649275Y108832145D01*
X-82623380Y108859976D01*
X-82620679Y108864629D01*
X-82636039Y108888882D01*
X-82676509Y108931392D01*
X-82733634Y108984616D01*
X-82798957Y109041014D01*
X-82864024Y109093046D01*
X-82920378Y109133170D01*
X-82925288Y109136286D01*
X-83131680Y109245590D01*
X-83353927Y109323931D01*
X-83597370Y109372685D01*
X-83867352Y109393229D01*
X-83926158Y109394079D01*
X-84088818Y109391995D01*
G37*
X-84088818Y109391995D02*
X-84221447Y109382422D01*
X-84336023Y109363088D01*
X-84444527Y109331726D01*
X-84558937Y109286064D01*
X-84603917Y109265670D01*
X-84786128Y109163136D01*
X-84931001Y109041211D01*
X-85039642Y108898157D01*
X-85113160Y108732236D01*
X-85152662Y108541710D01*
X-85160667Y108392089D01*
X-85145290Y108180929D01*
X-85097347Y107983880D01*
X-85014113Y107793187D01*
X-84892867Y107601095D01*
X-84873934Y107575298D01*
X-84844479Y107540864D01*
X-84788234Y107479987D01*
X-84708470Y107396035D01*
X-84608453Y107292376D01*
X-84491453Y107172378D01*
X-84360738Y107039409D01*
X-84219577Y106896836D01*
X-84071237Y106748027D01*
X-84065371Y106742163D01*
X-83329750Y106006910D01*
X-84329875Y106006622D01*
X-85330000Y106006333D01*
X-85330000Y105667667D01*
X-82726500Y105667667D01*
X-82727408Y105810542D01*
X-82728315Y105953417D01*
X-83544546Y106747167D01*
X-83757691Y106954952D01*
X-83942295Y107136299D01*
X-84100601Y107293830D01*
X-84234849Y107430167D01*
X-84347283Y107547933D01*
X-84440143Y107649751D01*
X-84515671Y107738243D01*
X-84576110Y107816031D01*
X-84623701Y107885739D01*
X-84660687Y107949988D01*
X-84689308Y108011401D01*
X-84711807Y108072600D01*
X-84729727Y108133583D01*
X-84758795Y108310421D01*
X-84749544Y108472878D01*
X-84704189Y108618790D01*
X-84624944Y108745991D01*
X-84514024Y108852316D01*
X-84373645Y108935597D01*
X-84206019Y108993671D01*
X-84013362Y109024370D01*
X-83816584Y109026610D01*
X-83574792Y108995390D01*
X-83354405Y108928291D01*
X-83156343Y108825687D01*
X-82981525Y108687951D01*
X-82981224Y108687665D01*
X-82896343Y108606746D01*
X-82758517Y108729998D01*
X-82696736Y108786460D01*
X-82649275Y108832145D01*
X-82623380Y108859976D01*
X-82620679Y108864629D01*
X-82636039Y108888882D01*
X-82676509Y108931392D01*
X-82733634Y108984616D01*
X-82798957Y109041014D01*
X-82864024Y109093046D01*
X-82920378Y109133170D01*
X-82925288Y109136286D01*
X-83131680Y109245590D01*
X-83353927Y109323931D01*
X-83597370Y109372685D01*
X-83867352Y109393229D01*
X-83926158Y109394079D01*
X-84088818Y109391995D01*
G36*
X-71447936Y115877244D02*
G01*
X-71690387Y115838384D01*
X-71935328Y115777572D01*
X-72168320Y115698045D01*
X-72264907Y115657247D01*
X-72509402Y115525669D01*
X-72744656Y115358376D01*
X-72963901Y115161913D01*
X-73160371Y114942826D01*
X-73327299Y114707660D01*
X-73422940Y114536999D01*
X-73530127Y114297811D01*
X-73605542Y114068613D01*
X-73652421Y113835740D01*
X-73674003Y113585530D01*
X-73676315Y113467583D01*
X-73671069Y113258090D01*
X-73652316Y113074289D01*
X-73617260Y112900917D01*
X-73563108Y112722709D01*
X-73517404Y112599750D01*
X-73377926Y112300684D01*
X-73204164Y112023219D01*
X-72999267Y111770021D01*
X-72766388Y111543753D01*
X-72508675Y111347082D01*
X-72229279Y111182670D01*
X-71931350Y111053182D01*
X-71618039Y110961283D01*
X-71567268Y110950363D01*
X-71453454Y110933963D01*
X-71310798Y110923641D01*
X-71152355Y110919401D01*
X-70991177Y110921251D01*
X-70840320Y110929198D01*
X-70712836Y110943250D01*
X-70674739Y110949891D01*
X-70368526Y111032010D01*
X-70077592Y111153517D01*
X-69802497Y111314107D01*
X-69543805Y111513473D01*
X-69411612Y111636667D01*
X-69193806Y111880595D01*
X-69014219Y112141687D01*
X-68873363Y112418858D01*
X-68771750Y112711025D01*
X-68709895Y113017102D01*
X-68695876Y113149784D01*
X-68691174Y113470530D01*
X-68726714Y113785987D01*
X-68801583Y114091789D01*
X-68914872Y114383567D01*
X-68980005Y114512553D01*
X-69029582Y114602489D01*
X-69065925Y114657840D01*
X-69096855Y114680745D01*
X-69130191Y114673344D01*
X-69173756Y114637780D01*
X-69230501Y114581107D01*
X-69353833Y114456473D01*
X-69278680Y114321862D01*
X-69196633Y114148561D01*
X-69127542Y113950877D01*
X-69076782Y113746072D01*
X-69054286Y113601040D01*
X-69043817Y113318192D01*
X-69073297Y113040317D01*
X-69140375Y112770720D01*
X-69242700Y112512705D01*
X-69377921Y112269574D01*
X-69543687Y112044633D01*
X-69737647Y111841185D01*
X-69957449Y111662533D01*
X-70200743Y111511982D01*
X-70465178Y111392836D01*
X-70672581Y111326962D01*
X-70778320Y111301309D01*
X-70872862Y111284584D01*
X-70971532Y111274994D01*
X-71089653Y111270747D01*
X-71158917Y111270075D01*
X-71369147Y111276780D01*
X-71555927Y111301112D01*
X-71733836Y111346461D01*
X-71917454Y111416219D01*
X-72047917Y111476817D01*
X-72307273Y111625512D01*
X-72541043Y111802545D01*
X-72747310Y112004393D01*
X-72924158Y112227534D01*
X-73069670Y112468444D01*
X-73181929Y112723602D01*
X-73259020Y112989483D01*
X-73299025Y113262565D01*
X-73300028Y113539326D01*
X-73276266Y113734686D01*
X-73205834Y114024378D01*
X-73099117Y114293544D01*
X-72955033Y114544187D01*
X-72772502Y114778311D01*
X-72638880Y114916695D01*
X-72404748Y115114675D01*
X-72156337Y115274181D01*
X-71896294Y115394787D01*
X-71627265Y115476065D01*
X-71351898Y115517589D01*
X-71072838Y115518931D01*
X-70792733Y115479665D01*
X-70514229Y115399365D01*
X-70278456Y115297383D01*
X-70117661Y115216626D01*
X-69993613Y115341982D01*
X-69938813Y115397420D01*
X-69905066Y115437760D01*
X-69895127Y115469302D01*
X-69911751Y115498347D01*
X-69957695Y115531196D01*
X-70035713Y115574150D01*
X-70112852Y115614638D01*
X-70344914Y115718730D01*
X-70599670Y115801357D01*
X-70862916Y115858980D01*
X-71120446Y115888063D01*
X-71222417Y115890917D01*
X-71447936Y115877244D01*
G37*
X-71447936Y115877244D02*
X-71690387Y115838384D01*
X-71935328Y115777572D01*
X-72168320Y115698045D01*
X-72264907Y115657247D01*
X-72509402Y115525669D01*
X-72744656Y115358376D01*
X-72963901Y115161913D01*
X-73160371Y114942826D01*
X-73327299Y114707660D01*
X-73422940Y114536999D01*
X-73530127Y114297811D01*
X-73605542Y114068613D01*
X-73652421Y113835740D01*
X-73674003Y113585530D01*
X-73676315Y113467583D01*
X-73671069Y113258090D01*
X-73652316Y113074289D01*
X-73617260Y112900917D01*
X-73563108Y112722709D01*
X-73517404Y112599750D01*
X-73377926Y112300684D01*
X-73204164Y112023219D01*
X-72999267Y111770021D01*
X-72766388Y111543753D01*
X-72508675Y111347082D01*
X-72229279Y111182670D01*
X-71931350Y111053182D01*
X-71618039Y110961283D01*
X-71567268Y110950363D01*
X-71453454Y110933963D01*
X-71310798Y110923641D01*
X-71152355Y110919401D01*
X-70991177Y110921251D01*
X-70840320Y110929198D01*
X-70712836Y110943250D01*
X-70674739Y110949891D01*
X-70368526Y111032010D01*
X-70077592Y111153517D01*
X-69802497Y111314107D01*
X-69543805Y111513473D01*
X-69411612Y111636667D01*
X-69193806Y111880595D01*
X-69014219Y112141687D01*
X-68873363Y112418858D01*
X-68771750Y112711025D01*
X-68709895Y113017102D01*
X-68695876Y113149784D01*
X-68691174Y113470530D01*
X-68726714Y113785987D01*
X-68801583Y114091789D01*
X-68914872Y114383567D01*
X-68980005Y114512553D01*
X-69029582Y114602489D01*
X-69065925Y114657840D01*
X-69096855Y114680745D01*
X-69130191Y114673344D01*
X-69173756Y114637780D01*
X-69230501Y114581107D01*
X-69353833Y114456473D01*
X-69278680Y114321862D01*
X-69196633Y114148561D01*
X-69127542Y113950877D01*
X-69076782Y113746072D01*
X-69054286Y113601040D01*
X-69043817Y113318192D01*
X-69073297Y113040317D01*
X-69140375Y112770720D01*
X-69242700Y112512705D01*
X-69377921Y112269574D01*
X-69543687Y112044633D01*
X-69737647Y111841185D01*
X-69957449Y111662533D01*
X-70200743Y111511982D01*
X-70465178Y111392836D01*
X-70672581Y111326962D01*
X-70778320Y111301309D01*
X-70872862Y111284584D01*
X-70971532Y111274994D01*
X-71089653Y111270747D01*
X-71158917Y111270075D01*
X-71369147Y111276780D01*
X-71555927Y111301112D01*
X-71733836Y111346461D01*
X-71917454Y111416219D01*
X-72047917Y111476817D01*
X-72307273Y111625512D01*
X-72541043Y111802545D01*
X-72747310Y112004393D01*
X-72924158Y112227534D01*
X-73069670Y112468444D01*
X-73181929Y112723602D01*
X-73259020Y112989483D01*
X-73299025Y113262565D01*
X-73300028Y113539326D01*
X-73276266Y113734686D01*
X-73205834Y114024378D01*
X-73099117Y114293544D01*
X-72955033Y114544187D01*
X-72772502Y114778311D01*
X-72638880Y114916695D01*
X-72404748Y115114675D01*
X-72156337Y115274181D01*
X-71896294Y115394787D01*
X-71627265Y115476065D01*
X-71351898Y115517589D01*
X-71072838Y115518931D01*
X-70792733Y115479665D01*
X-70514229Y115399365D01*
X-70278456Y115297383D01*
X-70117661Y115216626D01*
X-69993613Y115341982D01*
X-69938813Y115397420D01*
X-69905066Y115437760D01*
X-69895127Y115469302D01*
X-69911751Y115498347D01*
X-69957695Y115531196D01*
X-70035713Y115574150D01*
X-70112852Y115614638D01*
X-70344914Y115718730D01*
X-70599670Y115801357D01*
X-70862916Y115858980D01*
X-71120446Y115888063D01*
X-71222417Y115890917D01*
X-71447936Y115877244D01*
G36*
X-66579838Y115834399D02*
G01*
X-66878399Y115790500D01*
X-67153831Y115716247D01*
X-67410186Y115610750D01*
X-67465749Y115582564D01*
X-67536662Y115541090D01*
X-67620539Y115485615D01*
X-67709656Y115422052D01*
X-67796284Y115356315D01*
X-67872699Y115294314D01*
X-67931172Y115241964D01*
X-67963979Y115205176D01*
X-67967443Y115198653D01*
X-67959082Y115167249D01*
X-67922269Y115115254D01*
X-67867055Y115054633D01*
X-67754958Y114941125D01*
X-67647187Y115032642D01*
X-67413231Y115205639D01*
X-67164516Y115339408D01*
X-66899777Y115434403D01*
X-66617750Y115491079D01*
X-66319814Y115509889D01*
X-66019758Y115494311D01*
X-65740558Y115445690D01*
X-65474537Y115362256D01*
X-65257655Y115264997D01*
X-65120887Y115191155D01*
X-65007597Y115118788D01*
X-64903109Y115037187D01*
X-64792745Y114935642D01*
X-64754392Y114897787D01*
X-64557541Y114672407D01*
X-64398036Y114427465D01*
X-64276468Y114164399D01*
X-64193427Y113884651D01*
X-64149501Y113589658D01*
X-64142167Y113404083D01*
X-64162140Y113103266D01*
X-64220926Y112816017D01*
X-64316824Y112545040D01*
X-64448134Y112293034D01*
X-64613155Y112062702D01*
X-64810187Y111856743D01*
X-65037529Y111677859D01*
X-65293481Y111528752D01*
X-65335568Y111508496D01*
X-65605651Y111404456D01*
X-65893461Y111335519D01*
X-66191011Y111303162D01*
X-66436613Y111304959D01*
X-66731605Y111342335D01*
X-67009298Y111418083D01*
X-67272038Y111533077D01*
X-67522172Y111688191D01*
X-67578984Y111730258D01*
X-67766718Y111873649D01*
X-67994218Y111648975D01*
X-67925568Y111577208D01*
X-67746730Y111418189D01*
X-67534084Y111277762D01*
X-67293109Y111158750D01*
X-67029286Y111063977D01*
X-66830334Y111012783D01*
X-66734929Y110997502D01*
X-66608634Y110984968D01*
X-66462823Y110975568D01*
X-66308873Y110969688D01*
X-66158159Y110967714D01*
X-66022059Y110970033D01*
X-65911947Y110977032D01*
X-65882245Y110980575D01*
X-65560170Y111045858D01*
X-65257292Y111147360D01*
X-64975778Y111283119D01*
X-64717794Y111451173D01*
X-64485509Y111649561D01*
X-64281088Y111876320D01*
X-64106698Y112129489D01*
X-63964507Y112407106D01*
X-63856681Y112707210D01*
X-63820359Y112847278D01*
X-63795508Y112992406D01*
X-63779320Y113165533D01*
X-63771896Y113353668D01*
X-63773340Y113543819D01*
X-63783755Y113722995D01*
X-63803243Y113878205D01*
X-63811838Y113922667D01*
X-63898845Y114232094D01*
X-64021161Y114522552D01*
X-64176636Y114791194D01*
X-64363118Y115035172D01*
X-64578459Y115251643D01*
X-64820506Y115437757D01*
X-65062917Y115578718D01*
X-65317660Y115691389D01*
X-65572373Y115772052D01*
X-65837207Y115823009D01*
X-66122309Y115846559D01*
X-66254094Y115848833D01*
X-66579838Y115834399D01*
G37*
X-66579838Y115834399D02*
X-66878399Y115790500D01*
X-67153831Y115716247D01*
X-67410186Y115610750D01*
X-67465749Y115582564D01*
X-67536662Y115541090D01*
X-67620539Y115485615D01*
X-67709656Y115422052D01*
X-67796284Y115356315D01*
X-67872699Y115294314D01*
X-67931172Y115241964D01*
X-67963979Y115205176D01*
X-67967443Y115198653D01*
X-67959082Y115167249D01*
X-67922269Y115115254D01*
X-67867055Y115054633D01*
X-67754958Y114941125D01*
X-67647187Y115032642D01*
X-67413231Y115205639D01*
X-67164516Y115339408D01*
X-66899777Y115434403D01*
X-66617750Y115491079D01*
X-66319814Y115509889D01*
X-66019758Y115494311D01*
X-65740558Y115445690D01*
X-65474537Y115362256D01*
X-65257655Y115264997D01*
X-65120887Y115191155D01*
X-65007597Y115118788D01*
X-64903109Y115037187D01*
X-64792745Y114935642D01*
X-64754392Y114897787D01*
X-64557541Y114672407D01*
X-64398036Y114427465D01*
X-64276468Y114164399D01*
X-64193427Y113884651D01*
X-64149501Y113589658D01*
X-64142167Y113404083D01*
X-64162140Y113103266D01*
X-64220926Y112816017D01*
X-64316824Y112545040D01*
X-64448134Y112293034D01*
X-64613155Y112062702D01*
X-64810187Y111856743D01*
X-65037529Y111677859D01*
X-65293481Y111528752D01*
X-65335568Y111508496D01*
X-65605651Y111404456D01*
X-65893461Y111335519D01*
X-66191011Y111303162D01*
X-66436613Y111304959D01*
X-66731605Y111342335D01*
X-67009298Y111418083D01*
X-67272038Y111533077D01*
X-67522172Y111688191D01*
X-67578984Y111730258D01*
X-67766718Y111873649D01*
X-67994218Y111648975D01*
X-67925568Y111577208D01*
X-67746730Y111418189D01*
X-67534084Y111277762D01*
X-67293109Y111158750D01*
X-67029286Y111063977D01*
X-66830334Y111012783D01*
X-66734929Y110997502D01*
X-66608634Y110984968D01*
X-66462823Y110975568D01*
X-66308873Y110969688D01*
X-66158159Y110967714D01*
X-66022059Y110970033D01*
X-65911947Y110977032D01*
X-65882245Y110980575D01*
X-65560170Y111045858D01*
X-65257292Y111147360D01*
X-64975778Y111283119D01*
X-64717794Y111451173D01*
X-64485509Y111649561D01*
X-64281088Y111876320D01*
X-64106698Y112129489D01*
X-63964507Y112407106D01*
X-63856681Y112707210D01*
X-63820359Y112847278D01*
X-63795508Y112992406D01*
X-63779320Y113165533D01*
X-63771896Y113353668D01*
X-63773340Y113543819D01*
X-63783755Y113722995D01*
X-63803243Y113878205D01*
X-63811838Y113922667D01*
X-63898845Y114232094D01*
X-64021161Y114522552D01*
X-64176636Y114791194D01*
X-64363118Y115035172D01*
X-64578459Y115251643D01*
X-64820506Y115437757D01*
X-65062917Y115578718D01*
X-65317660Y115691389D01*
X-65572373Y115772052D01*
X-65837207Y115823009D01*
X-66122309Y115846559D01*
X-66254094Y115848833D01*
X-66579838Y115834399D01*
G36*
X-78704834Y111001667D02*
G01*
X-78551375Y111002357D01*
X-78397917Y111003047D01*
X-75159417Y115126113D01*
X-75148625Y111001667D01*
X-74767834Y111001667D01*
X-74767834Y115806500D01*
X-74931875Y115805718D01*
X-75095917Y115804935D01*
X-76715167Y113734638D01*
X-78334417Y111664342D01*
X-78339812Y113735421D01*
X-78345208Y115806500D01*
X-78704834Y115806500D01*
X-78704834Y111001667D01*
G37*
X-78704834Y111001667D02*
X-78551375Y111002357D01*
X-78397917Y111003047D01*
X-75159417Y115126113D01*
X-75148625Y111001667D01*
X-74767834Y111001667D01*
X-74767834Y115806500D01*
X-74931875Y115805718D01*
X-75095917Y115804935D01*
X-76715167Y113734638D01*
X-78334417Y111664342D01*
X-78339812Y113735421D01*
X-78345208Y115806500D01*
X-78704834Y115806500D01*
X-78704834Y111001667D01*
G36*
X-83589932Y115642458D02*
G01*
X-83583750Y115478417D01*
X-82149709Y115472977D01*
X-80715667Y115467538D01*
X-80715667Y113457328D01*
X-82001542Y113451872D01*
X-83287417Y113446417D01*
X-83299781Y113118333D01*
X-80715667Y113118333D01*
X-80715667Y111001667D01*
X-80355834Y111001667D01*
X-80355834Y115806500D01*
X-83596114Y115806500D01*
X-83589932Y115642458D01*
G37*
X-83589932Y115642458D02*
X-83583750Y115478417D01*
X-82149709Y115472977D01*
X-80715667Y115467538D01*
X-80715667Y113457328D01*
X-82001542Y113451872D01*
X-83287417Y113446417D01*
X-83299781Y113118333D01*
X-80715667Y113118333D01*
X-80715667Y111001667D01*
X-80355834Y111001667D01*
X-80355834Y115806500D01*
X-83596114Y115806500D01*
X-83589932Y115642458D01*
G36*
X-57099369Y89746144D02*
G01*
X-57168432Y89715730D01*
X-57245253Y89652853D01*
X-57322759Y89564699D01*
X-57393879Y89458455D01*
X-57408970Y89431511D01*
X-57471429Y89329807D01*
X-57561085Y89204252D01*
X-57674050Y89059733D01*
X-57806434Y88901133D01*
X-57954348Y88733339D01*
X-58034636Y88645662D01*
X-58141637Y88519761D01*
X-58217957Y88401445D01*
X-58267867Y88279448D01*
X-58295638Y88142503D01*
X-58305539Y87979344D01*
X-58305710Y87930500D01*
X-58302358Y87829972D01*
X-58291723Y87756411D01*
X-58270970Y87694684D01*
X-58255567Y87662865D01*
X-58206379Y87568813D01*
X-58321562Y87463543D01*
X-58434791Y87333579D01*
X-58532383Y87165478D01*
X-58613569Y86960740D01*
X-58656319Y86812136D01*
X-58696362Y86676168D01*
X-58745127Y86545501D01*
X-58793299Y86443181D01*
X-58851295Y86324910D01*
X-58898083Y86200183D01*
X-58935189Y86061996D01*
X-58964142Y85903347D01*
X-58986468Y85717233D01*
X-59003697Y85496652D01*
X-59005252Y85471534D01*
X-59014967Y85212107D01*
X-59009771Y84981961D01*
X-58988664Y84770395D01*
X-58950644Y84566709D01*
X-58904287Y84391791D01*
X-58875467Y84293295D01*
X-58851752Y84209023D01*
X-58835483Y84147528D01*
X-58829002Y84117364D01*
X-58828975Y84116624D01*
X-58836113Y84090880D01*
X-58855869Y84032028D01*
X-58885947Y83946579D01*
X-58924054Y83841046D01*
X-58967895Y83721941D01*
X-58970814Y83714083D01*
X-59037269Y83541356D01*
X-59096247Y83401997D01*
X-59151220Y83288485D01*
X-59205658Y83193296D01*
X-59224674Y83163750D01*
X-59278820Y83079325D01*
X-59313325Y83015408D01*
X-59333566Y82958356D01*
X-59344920Y82894525D01*
X-59349794Y82846250D01*
X-59362695Y82698083D01*
X-59178639Y82576643D01*
X-59084414Y82512578D01*
X-58988038Y82443919D01*
X-58904972Y82381792D01*
X-58875984Y82358873D01*
X-58754823Y82277731D01*
X-58595991Y82201174D01*
X-58537318Y82177601D01*
X-58453626Y82146141D01*
X-58382892Y82122630D01*
X-58315230Y82105141D01*
X-58240756Y82091746D01*
X-58149586Y82080516D01*
X-58031833Y82069525D01*
X-57946833Y82062449D01*
X-57649283Y82042674D01*
X-57392219Y82035182D01*
X-57175612Y82039973D01*
X-56999437Y82057049D01*
X-56909667Y82074002D01*
X-56809207Y82101052D01*
X-56703837Y82134547D01*
X-56623917Y82164261D01*
X-56545739Y82194643D01*
X-56473160Y82219421D01*
X-56431503Y82230922D01*
X-56378890Y82254185D01*
X-56317403Y82297995D01*
X-56285725Y82327180D01*
X-56205361Y82409481D01*
X-56242714Y82601790D01*
X-56264220Y82738826D01*
X-56270702Y82863441D01*
X-56265244Y82983580D01*
X-56250421Y83173061D01*
X-56408677Y83665822D01*
X-56460354Y83827987D01*
X-56514452Y83999949D01*
X-56567360Y84170072D01*
X-56615463Y84326717D01*
X-56655149Y84458248D01*
X-56664894Y84491140D01*
X-56762856Y84823697D01*
X-56721162Y85062640D01*
X-56698909Y85169358D01*
X-56664425Y85303250D01*
X-56616878Y85467148D01*
X-56555438Y85663886D01*
X-56479272Y85896294D01*
X-56455679Y85966705D01*
X-56390470Y86161922D01*
X-56337914Y86322954D01*
X-56296409Y86455476D01*
X-56264348Y86565161D01*
X-56240128Y86657685D01*
X-56222144Y86738721D01*
X-56208792Y86813945D01*
X-56201328Y86866288D01*
X-56170380Y87038421D01*
X-56122611Y87222005D01*
X-56062015Y87405862D01*
X-55992588Y87578816D01*
X-55918326Y87729689D01*
X-55857673Y87827614D01*
X-55654913Y88098566D01*
X-55450730Y88338410D01*
X-55236017Y88557665D01*
X-55181383Y88608875D01*
X-54923217Y88847000D01*
X-54805593Y88847000D01*
X-54715028Y88839540D01*
X-54626760Y88813633D01*
X-54554645Y88781256D01*
X-54421323Y88715512D01*
X-54350944Y88536925D01*
X-54319134Y88454015D01*
X-54299413Y88391273D01*
X-54289737Y88334331D01*
X-54288063Y88268825D01*
X-54292348Y88180388D01*
X-54294816Y88142294D01*
X-54308518Y87979007D01*
X-54328596Y87819260D01*
X-54356888Y87652252D01*
X-54395231Y87467181D01*
X-54445463Y87253246D01*
X-54447363Y87245491D01*
X-54477290Y87121116D01*
X-54497133Y87031148D01*
X-54507794Y86969112D01*
X-54510179Y86928532D01*
X-54505191Y86902935D01*
X-54497059Y86889556D01*
X-54484199Y86879972D01*
X-54469221Y86885283D01*
X-54449032Y86910205D01*
X-54420539Y86959455D01*
X-54380651Y87037748D01*
X-54326275Y87149800D01*
X-54325909Y87150563D01*
X-54266095Y87281361D01*
X-54204574Y87426444D01*
X-54148098Y87569259D01*
X-54103420Y87693253D01*
X-54098682Y87707581D01*
X-54059929Y87831666D01*
X-54033688Y87932263D01*
X-54016897Y88025251D01*
X-54006494Y88126505D01*
X-54001280Y88212665D01*
X-53998359Y88384894D01*
X-54010381Y88525197D01*
X-54039713Y88642071D01*
X-54088720Y88744011D01*
X-54159767Y88839515D01*
X-54183003Y88865264D01*
X-54315522Y88985765D01*
X-54456214Y89068347D01*
X-54614118Y89117417D01*
X-54733742Y89133716D01*
X-54917900Y89148630D01*
X-55008630Y89262333D01*
X-55126858Y89387200D01*
X-55261948Y89484388D01*
X-55417354Y89554897D01*
X-55596531Y89599725D01*
X-55802931Y89619873D01*
X-56040011Y89616338D01*
X-56190000Y89604131D01*
X-56369321Y89589425D01*
X-56515568Y89586229D01*
X-56636646Y89595430D01*
X-56740459Y89617911D01*
X-56834911Y89654558D01*
X-56887864Y89682280D01*
X-56965751Y89723847D01*
X-57021511Y89745159D01*
X-57067830Y89750049D01*
X-57099369Y89746144D01*
G37*
X-57099369Y89746144D02*
X-57168432Y89715730D01*
X-57245253Y89652853D01*
X-57322759Y89564699D01*
X-57393879Y89458455D01*
X-57408970Y89431511D01*
X-57471429Y89329807D01*
X-57561085Y89204252D01*
X-57674050Y89059733D01*
X-57806434Y88901133D01*
X-57954348Y88733339D01*
X-58034636Y88645662D01*
X-58141637Y88519761D01*
X-58217957Y88401445D01*
X-58267867Y88279448D01*
X-58295638Y88142503D01*
X-58305539Y87979344D01*
X-58305710Y87930500D01*
X-58302358Y87829972D01*
X-58291723Y87756411D01*
X-58270970Y87694684D01*
X-58255567Y87662865D01*
X-58206379Y87568813D01*
X-58321562Y87463543D01*
X-58434791Y87333579D01*
X-58532383Y87165478D01*
X-58613569Y86960740D01*
X-58656319Y86812136D01*
X-58696362Y86676168D01*
X-58745127Y86545501D01*
X-58793299Y86443181D01*
X-58851295Y86324910D01*
X-58898083Y86200183D01*
X-58935189Y86061996D01*
X-58964142Y85903347D01*
X-58986468Y85717233D01*
X-59003697Y85496652D01*
X-59005252Y85471534D01*
X-59014967Y85212107D01*
X-59009771Y84981961D01*
X-58988664Y84770395D01*
X-58950644Y84566709D01*
X-58904287Y84391791D01*
X-58875467Y84293295D01*
X-58851752Y84209023D01*
X-58835483Y84147528D01*
X-58829002Y84117364D01*
X-58828975Y84116624D01*
X-58836113Y84090880D01*
X-58855869Y84032028D01*
X-58885947Y83946579D01*
X-58924054Y83841046D01*
X-58967895Y83721941D01*
X-58970814Y83714083D01*
X-59037269Y83541356D01*
X-59096247Y83401997D01*
X-59151220Y83288485D01*
X-59205658Y83193296D01*
X-59224674Y83163750D01*
X-59278820Y83079325D01*
X-59313325Y83015408D01*
X-59333566Y82958356D01*
X-59344920Y82894525D01*
X-59349794Y82846250D01*
X-59362695Y82698083D01*
X-59178639Y82576643D01*
X-59084414Y82512578D01*
X-58988038Y82443919D01*
X-58904972Y82381792D01*
X-58875984Y82358873D01*
X-58754823Y82277731D01*
X-58595991Y82201174D01*
X-58537318Y82177601D01*
X-58453626Y82146141D01*
X-58382892Y82122630D01*
X-58315230Y82105141D01*
X-58240756Y82091746D01*
X-58149586Y82080516D01*
X-58031833Y82069525D01*
X-57946833Y82062449D01*
X-57649283Y82042674D01*
X-57392219Y82035182D01*
X-57175612Y82039973D01*
X-56999437Y82057049D01*
X-56909667Y82074002D01*
X-56809207Y82101052D01*
X-56703837Y82134547D01*
X-56623917Y82164261D01*
X-56545739Y82194643D01*
X-56473160Y82219421D01*
X-56431503Y82230922D01*
X-56378890Y82254185D01*
X-56317403Y82297995D01*
X-56285725Y82327180D01*
X-56205361Y82409481D01*
X-56242714Y82601790D01*
X-56264220Y82738826D01*
X-56270702Y82863441D01*
X-56265244Y82983580D01*
X-56250421Y83173061D01*
X-56408677Y83665822D01*
X-56460354Y83827987D01*
X-56514452Y83999949D01*
X-56567360Y84170072D01*
X-56615463Y84326717D01*
X-56655149Y84458248D01*
X-56664894Y84491140D01*
X-56762856Y84823697D01*
X-56721162Y85062640D01*
X-56698909Y85169358D01*
X-56664425Y85303250D01*
X-56616878Y85467148D01*
X-56555438Y85663886D01*
X-56479272Y85896294D01*
X-56455679Y85966705D01*
X-56390470Y86161922D01*
X-56337914Y86322954D01*
X-56296409Y86455476D01*
X-56264348Y86565161D01*
X-56240128Y86657685D01*
X-56222144Y86738721D01*
X-56208792Y86813945D01*
X-56201328Y86866288D01*
X-56170380Y87038421D01*
X-56122611Y87222005D01*
X-56062015Y87405862D01*
X-55992588Y87578816D01*
X-55918326Y87729689D01*
X-55857673Y87827614D01*
X-55654913Y88098566D01*
X-55450730Y88338410D01*
X-55236017Y88557665D01*
X-55181383Y88608875D01*
X-54923217Y88847000D01*
X-54805593Y88847000D01*
X-54715028Y88839540D01*
X-54626760Y88813633D01*
X-54554645Y88781256D01*
X-54421323Y88715512D01*
X-54350944Y88536925D01*
X-54319134Y88454015D01*
X-54299413Y88391273D01*
X-54289737Y88334331D01*
X-54288063Y88268825D01*
X-54292348Y88180388D01*
X-54294816Y88142294D01*
X-54308518Y87979007D01*
X-54328596Y87819260D01*
X-54356888Y87652252D01*
X-54395231Y87467181D01*
X-54445463Y87253246D01*
X-54447363Y87245491D01*
X-54477290Y87121116D01*
X-54497133Y87031148D01*
X-54507794Y86969112D01*
X-54510179Y86928532D01*
X-54505191Y86902935D01*
X-54497059Y86889556D01*
X-54484199Y86879972D01*
X-54469221Y86885283D01*
X-54449032Y86910205D01*
X-54420539Y86959455D01*
X-54380651Y87037748D01*
X-54326275Y87149800D01*
X-54325909Y87150563D01*
X-54266095Y87281361D01*
X-54204574Y87426444D01*
X-54148098Y87569259D01*
X-54103420Y87693253D01*
X-54098682Y87707581D01*
X-54059929Y87831666D01*
X-54033688Y87932263D01*
X-54016897Y88025251D01*
X-54006494Y88126505D01*
X-54001280Y88212665D01*
X-53998359Y88384894D01*
X-54010381Y88525197D01*
X-54039713Y88642071D01*
X-54088720Y88744011D01*
X-54159767Y88839515D01*
X-54183003Y88865264D01*
X-54315522Y88985765D01*
X-54456214Y89068347D01*
X-54614118Y89117417D01*
X-54733742Y89133716D01*
X-54917900Y89148630D01*
X-55008630Y89262333D01*
X-55126858Y89387200D01*
X-55261948Y89484388D01*
X-55417354Y89554897D01*
X-55596531Y89599725D01*
X-55802931Y89619873D01*
X-56040011Y89616338D01*
X-56190000Y89604131D01*
X-56369321Y89589425D01*
X-56515568Y89586229D01*
X-56636646Y89595430D01*
X-56740459Y89617911D01*
X-56834911Y89654558D01*
X-56887864Y89682280D01*
X-56965751Y89723847D01*
X-57021511Y89745159D01*
X-57067830Y89750049D01*
X-57099369Y89746144D01*
G36*
X-52781604Y87271564D02*
G01*
X-52787585Y87234501D01*
X-52792612Y87161569D01*
X-52796680Y87059213D01*
X-52799784Y86933876D01*
X-52801920Y86792000D01*
X-52803082Y86640030D01*
X-52803266Y86484407D01*
X-52802466Y86331576D01*
X-52800679Y86187979D01*
X-52797898Y86060059D01*
X-52794120Y85954261D01*
X-52789339Y85877026D01*
X-52783550Y85834798D01*
X-52782690Y85832128D01*
X-52774022Y85812828D01*
X-52761299Y85798207D01*
X-52739709Y85788117D01*
X-52704436Y85782410D01*
X-52650667Y85780935D01*
X-52573588Y85783544D01*
X-52468384Y85790089D01*
X-52330241Y85800419D01*
X-52169666Y85813160D01*
X-52047626Y85824082D01*
X-51939357Y85835935D01*
X-51852317Y85847729D01*
X-51793966Y85858476D01*
X-51772791Y85865786D01*
X-51763992Y85893814D01*
X-51756683Y85957849D01*
X-51750854Y86051594D01*
X-51746493Y86168750D01*
X-51743590Y86303018D01*
X-51742134Y86448099D01*
X-51742113Y86597695D01*
X-51743517Y86745507D01*
X-51746334Y86885236D01*
X-51750554Y87010584D01*
X-51756166Y87115252D01*
X-51763159Y87192941D01*
X-51771521Y87237353D01*
X-51775193Y87244336D01*
X-51805249Y87259036D01*
X-51865584Y87270975D01*
X-51960264Y87280728D01*
X-52087401Y87288577D01*
X-52215548Y87295236D01*
X-52350335Y87302696D01*
X-52474909Y87310001D01*
X-52564645Y87315672D01*
X-52759874Y87328718D01*
X-52781604Y87271564D01*
G37*
X-52781604Y87271564D02*
X-52787585Y87234501D01*
X-52792612Y87161569D01*
X-52796680Y87059213D01*
X-52799784Y86933876D01*
X-52801920Y86792000D01*
X-52803082Y86640030D01*
X-52803266Y86484407D01*
X-52802466Y86331576D01*
X-52800679Y86187979D01*
X-52797898Y86060059D01*
X-52794120Y85954261D01*
X-52789339Y85877026D01*
X-52783550Y85834798D01*
X-52782690Y85832128D01*
X-52774022Y85812828D01*
X-52761299Y85798207D01*
X-52739709Y85788117D01*
X-52704436Y85782410D01*
X-52650667Y85780935D01*
X-52573588Y85783544D01*
X-52468384Y85790089D01*
X-52330241Y85800419D01*
X-52169666Y85813160D01*
X-52047626Y85824082D01*
X-51939357Y85835935D01*
X-51852317Y85847729D01*
X-51793966Y85858476D01*
X-51772791Y85865786D01*
X-51763992Y85893814D01*
X-51756683Y85957849D01*
X-51750854Y86051594D01*
X-51746493Y86168750D01*
X-51743590Y86303018D01*
X-51742134Y86448099D01*
X-51742113Y86597695D01*
X-51743517Y86745507D01*
X-51746334Y86885236D01*
X-51750554Y87010584D01*
X-51756166Y87115252D01*
X-51763159Y87192941D01*
X-51771521Y87237353D01*
X-51775193Y87244336D01*
X-51805249Y87259036D01*
X-51865584Y87270975D01*
X-51960264Y87280728D01*
X-52087401Y87288577D01*
X-52215548Y87295236D01*
X-52350335Y87302696D01*
X-52474909Y87310001D01*
X-52564645Y87315672D01*
X-52759874Y87328718D01*
X-52781604Y87271564D01*
%TD*%
D11*
%TO.C,P1*%
X-72580000Y125770000D03*
G36*
G01*
X-71780000Y122080000D02*
X-73380000Y122080000D01*
G75*
G02*
X-73430000Y122130000I0J50000D01*
G01*
X-73430000Y124330000D01*
G75*
G02*
X-73380000Y124380000I50000J0D01*
G01*
X-71780000Y124380000D01*
G75*
G02*
X-71730000Y124330000I0J-50000D01*
G01*
X-71730000Y122130000D01*
G75*
G02*
X-71780000Y122080000I-50000J0D01*
G01*
G37*
X-70040000Y125770000D03*
X-67500000Y125770000D03*
X-64960000Y125770000D03*
X-62420000Y125770000D03*
X-62420000Y123230000D03*
X-64960000Y123230000D03*
X-67500000Y123230000D03*
X-70040000Y123230000D03*
%TD*%
%TO.C,P3*%
G36*
G01*
X-11711199Y59380904D02*
X-11711199Y59380904D01*
G75*
G02*
X-11711199Y60582986I601041J601041D01*
G01*
X-11286935Y61007250D01*
G75*
G02*
X-10084853Y61007250I601041J-601041D01*
G01*
X-10084853Y61007250D01*
G75*
G02*
X-10084853Y59805168I-601041J-601041D01*
G01*
X-10509117Y59380904D01*
G75*
G02*
X-11711199Y59380904I-601041J601041D01*
G01*
G37*
G36*
G01*
X-12941564Y57019168D02*
X-14072935Y58150539D01*
G75*
G02*
X-14072935Y58221249I35355J35355D01*
G01*
X-12517300Y59776884D01*
G75*
G02*
X-12446590Y59776884I35355J-35355D01*
G01*
X-11315219Y58645513D01*
G75*
G02*
X-11315219Y58574803I-35355J-35355D01*
G01*
X-12870854Y57019168D01*
G75*
G02*
X-12941564Y57019168I-35355J35355D01*
G01*
G37*
G36*
G01*
X-9915147Y57584853D02*
X-9915147Y57584853D01*
G75*
G02*
X-9915147Y58786935I601041J601041D01*
G01*
X-9490883Y59211199D01*
G75*
G02*
X-8288801Y59211199I601041J-601041D01*
G01*
X-8288801Y59211199D01*
G75*
G02*
X-8288801Y58009117I-601041J-601041D01*
G01*
X-8713065Y57584853D01*
G75*
G02*
X-9915147Y57584853I-601041J601041D01*
G01*
G37*
G36*
G01*
X-8119096Y55788801D02*
X-8119096Y55788801D01*
G75*
G02*
X-8119096Y56990883I601041J601041D01*
G01*
X-7694832Y57415147D01*
G75*
G02*
X-6492750Y57415147I601041J-601041D01*
G01*
X-6492750Y57415147D01*
G75*
G02*
X-6492750Y56213065I-601041J-601041D01*
G01*
X-6917014Y55788801D01*
G75*
G02*
X-8119096Y55788801I-601041J601041D01*
G01*
G37*
G36*
G01*
X-9915147Y53992750D02*
X-9915147Y53992750D01*
G75*
G02*
X-9915147Y55194832I601041J601041D01*
G01*
X-9490883Y55619096D01*
G75*
G02*
X-8288801Y55619096I601041J-601041D01*
G01*
X-8288801Y55619096D01*
G75*
G02*
X-8288801Y54417014I-601041J-601041D01*
G01*
X-8713065Y53992750D01*
G75*
G02*
X-9915147Y53992750I-601041J601041D01*
G01*
G37*
G36*
G01*
X-11711199Y55788801D02*
X-11711199Y55788801D01*
G75*
G02*
X-11711199Y56990883I601041J601041D01*
G01*
X-11286935Y57415147D01*
G75*
G02*
X-10084853Y57415147I601041J-601041D01*
G01*
X-10084853Y57415147D01*
G75*
G02*
X-10084853Y56213065I-601041J-601041D01*
G01*
X-10509117Y55788801D01*
G75*
G02*
X-11711199Y55788801I-601041J601041D01*
G01*
G37*
%TD*%
D12*
%TO.C,S1*%
X-33500000Y82340000D03*
X-33500000Y84880000D03*
X-33500000Y87420000D03*
X-33500000Y89960000D03*
X-33500000Y92500000D03*
X-33500000Y95040000D03*
X-33500000Y97580000D03*
X-33500000Y100120000D03*
%TD*%
%TO.C,P2*%
G36*
G01*
X-122888801Y55788801D02*
X-122888801Y55788801D01*
G75*
G02*
X-124090883Y55788801I-601041J601041D01*
G01*
X-124515147Y56213065D01*
G75*
G02*
X-124515147Y57415147I601041J601041D01*
G01*
X-124515147Y57415147D01*
G75*
G02*
X-123313065Y57415147I601041J-601041D01*
G01*
X-122888801Y56990883D01*
G75*
G02*
X-122888801Y55788801I-601041J-601041D01*
G01*
G37*
G36*
G01*
X-121092750Y57584853D02*
X-121092750Y57584853D01*
G75*
G02*
X-122294832Y57584853I-601041J601041D01*
G01*
X-122719096Y58009117D01*
G75*
G02*
X-122719096Y59211199I601041J601041D01*
G01*
X-122719096Y59211199D01*
G75*
G02*
X-121517014Y59211199I601041J-601041D01*
G01*
X-121092750Y58786935D01*
G75*
G02*
X-121092750Y57584853I-601041J-601041D01*
G01*
G37*
G36*
G01*
X-122888801Y59380904D02*
X-122888801Y59380904D01*
G75*
G02*
X-124090883Y59380904I-601041J601041D01*
G01*
X-124515147Y59805168D01*
G75*
G02*
X-124515147Y61007250I601041J601041D01*
G01*
X-124515147Y61007250D01*
G75*
G02*
X-123313065Y61007250I601041J-601041D01*
G01*
X-122888801Y60582986D01*
G75*
G02*
X-122888801Y59380904I-601041J-601041D01*
G01*
G37*
G36*
G01*
X-124684853Y57584853D02*
X-124684853Y57584853D01*
G75*
G02*
X-125886935Y57584853I-601041J601041D01*
G01*
X-126311199Y58009117D01*
G75*
G02*
X-126311199Y59211199I601041J601041D01*
G01*
X-126311199Y59211199D01*
G75*
G02*
X-125109117Y59211199I601041J-601041D01*
G01*
X-124684853Y58786935D01*
G75*
G02*
X-124684853Y57584853I-601041J-601041D01*
G01*
G37*
G36*
G01*
X-124119168Y54558436D02*
X-125250539Y53427065D01*
G75*
G02*
X-125321249Y53427065I-35355J35355D01*
G01*
X-126876884Y54982700D01*
G75*
G02*
X-126876884Y55053410I35355J35355D01*
G01*
X-125745513Y56184781D01*
G75*
G02*
X-125674803Y56184781I35355J-35355D01*
G01*
X-124119168Y54629146D01*
G75*
G02*
X-124119168Y54558436I-35355J-35355D01*
G01*
G37*
G36*
G01*
X-126480904Y55788801D02*
X-126480904Y55788801D01*
G75*
G02*
X-127682986Y55788801I-601041J601041D01*
G01*
X-128107250Y56213065D01*
G75*
G02*
X-128107250Y57415147I601041J601041D01*
G01*
X-128107250Y57415147D01*
G75*
G02*
X-126905168Y57415147I601041J-601041D01*
G01*
X-126480904Y56990883D01*
G75*
G02*
X-126480904Y55788801I-601041J-601041D01*
G01*
G37*
%TD*%
D13*
%TO.C,SW1*%
X-64250000Y58750000D03*
X-64250000Y54250000D03*
G36*
G01*
X-71549000Y58001000D02*
X-71549000Y59499000D01*
G75*
G02*
X-71499000Y59549000I50000J0D01*
G01*
X-70001000Y59549000D01*
G75*
G02*
X-69951000Y59499000I0J-50000D01*
G01*
X-69951000Y58001000D01*
G75*
G02*
X-70001000Y57951000I-50000J0D01*
G01*
X-71499000Y57951000D01*
G75*
G02*
X-71549000Y58001000I0J50000D01*
G01*
G37*
X-70750000Y54250000D03*
%TD*%
D14*
%TO.C,H5*%
X-67500000Y132500000D03*
%TD*%
D15*
%TO.C,J7*%
X-75300000Y43600000D03*
X-62000000Y21900000D03*
D12*
X-78930000Y44910000D03*
X-78930000Y42370000D03*
X-78930000Y39830000D03*
X-78930000Y37290000D03*
X-78930000Y34750000D03*
X-78930000Y32210000D03*
X-78930000Y29670000D03*
X-78930000Y27130000D03*
X-78930000Y24590000D03*
X-78930000Y22050000D03*
X-78930000Y19510000D03*
X-78930000Y16970000D03*
X-78930000Y14430000D03*
X-56070000Y44910000D03*
X-56070000Y42370000D03*
X-56070000Y39830000D03*
X-56070000Y37290000D03*
X-56070000Y34750000D03*
X-56070000Y32210000D03*
X-56070000Y29670000D03*
X-56070000Y27130000D03*
X-56070000Y24590000D03*
X-56070000Y22050000D03*
X-56070000Y19510000D03*
X-56070000Y16970000D03*
G36*
G01*
X-57320000Y13630000D02*
X-57320000Y15230000D01*
G75*
G02*
X-57270000Y15280000I50000J0D01*
G01*
X-54870000Y15280000D01*
G75*
G02*
X-54820000Y15230000I0J-50000D01*
G01*
X-54820000Y13630000D01*
G75*
G02*
X-54870000Y13580000I-50000J0D01*
G01*
X-57270000Y13580000D01*
G75*
G02*
X-57320000Y13630000I0J50000D01*
G01*
G37*
%TD*%
M02*
