%TF.GenerationSoftware,KiCad,Pcbnew,5.1.10-88a1d61d58~88~ubuntu18.04.1*%
%TF.CreationDate,2021-09-10T20:26:40+10:00*%
%TF.ProjectId,swag-badge,73776167-2d62-4616-9467-652e6b696361,rev?*%
%TF.SameCoordinates,PX405f7e0PYfa3044a0*%
%TF.FileFunction,Profile,NP*%
%FSLAX46Y46*%
G04 Gerber Fmt 4.6, Leading zero omitted, Abs format (unit mm)*
G04 Created by KiCad (PCBNEW 5.1.10-88a1d61d58~88~ubuntu18.04.1) date 2021-09-10 20:26:40*
%MOMM*%
%LPD*%
G01*
G04 APERTURE LIST*
%TA.AperFunction,Profile*%
%ADD10C,0.150000*%
%TD*%
G04 APERTURE END LIST*
D10*
X-108000001Y96999999D02*
G75*
G02*
X-67500000Y137500000I40500001J0D01*
G01*
X-110249999Y2499999D02*
X-82500000Y2499999D01*
X-110249999Y2499998D02*
G75*
G02*
X-116401668Y15291563I0J7875001D01*
G01*
X-116401668Y15291564D02*
G75*
G02*
X-104813593Y23973922I22550051J-18022553D01*
G01*
X-104813593Y23973922D02*
G75*
G02*
X-116875955Y52997858I37313593J32526077D01*
G01*
X-127108170Y49282306D02*
G75*
G02*
X-116875955Y52997858I14608171J-24282307D01*
G01*
X-127108170Y49282307D02*
G75*
G02*
X-133287761Y55451677I-2319758J3855998D01*
G01*
X-133287761Y55451677D02*
G75*
G02*
X-123482546Y66263937I32037762J-19201678D01*
G01*
X-108000000Y96999999D02*
G75*
G02*
X-123482546Y66263937I-38250000J0D01*
G01*
X-11517454Y66263937D02*
G75*
G02*
X-1712239Y55451677I-22232547J-30013938D01*
G01*
X-11517454Y66263937D02*
G75*
G02*
X-27000000Y96999999I22767454J30736062D01*
G01*
X-67500000Y137499999D02*
G75*
G02*
X-27000000Y96999999I0J-40500000D01*
G01*
X-24750001Y2499999D02*
X-52500000Y2500000D01*
X-18598333Y15291563D02*
G75*
G02*
X-24750001Y2499999I-6151668J-4916564D01*
G01*
X-30186406Y23973922D02*
G75*
G02*
X-18598332Y15291563I-10961977J-26704911D01*
G01*
X-18124045Y52997858D02*
G75*
G02*
X-30186407Y23973922I-49375955J3502141D01*
G01*
X-18124045Y52997858D02*
G75*
G02*
X-7891830Y49282306I-4375956J-27997859D01*
G01*
X-1712239Y55451678D02*
G75*
G02*
X-7891830Y49282306I-3859833J-2313373D01*
G01*
%TO.C,J7*%
X-53530000Y2500000D02*
X-52500000Y2500000D01*
X-81470000Y2500000D02*
X-82500000Y2500000D01*
X-80199999Y10120000D02*
X-80199999Y3770000D01*
X-56070000Y11390000D02*
X-78929999Y11390000D01*
X-54800000Y3770000D02*
X-54800000Y10120000D01*
X-80199999Y3770000D02*
G75*
G02*
X-81469999Y2500000I-1270000J0D01*
G01*
X-80199999Y10120000D02*
G75*
G02*
X-78929999Y11390000I1270000J0D01*
G01*
X-56070000Y11390000D02*
G75*
G02*
X-54800000Y10120000I0J-1270000D01*
G01*
X-53530000Y2500000D02*
G75*
G02*
X-54800000Y3770000I0J1270000D01*
G01*
%TD*%
M02*
