M48
; DRILL file {KiCad 5.1.10-88a1d61d58~88~ubuntu18.04.1} date Sat Sep 11 11:40:20 2021
; FORMAT={-:-/ absolute / inch / decimal}
; #@! TF.CreationDate,2021-09-11T11:40:20+10:00
; #@! TF.GenerationSoftware,Kicad,Pcbnew,5.1.10-88a1d61d58~88~ubuntu18.04.1
; #@! TF.FileFunction,Plated,1,2,PTH
FMAT,2
INCH
T1C0.0157
T2C0.0390
T3C0.0394
%
G90
G05
T1
X-4.5472Y2.7165
X-4.1142Y2.5
X-3.9775Y2.6414
X-3.937Y2.5591
X-3.8386Y2.5591
X-3.7402Y2.5591
X-3.6417Y2.5591
X-3.563Y3.0906
X-3.5398Y4.7137
X-3.4567Y3.2414
X-3.4175Y3.6914
X-3.3858Y2.6772
X-3.3189Y4.7126
X-3.1775Y2.3835
X-3.0413Y2.5591
X-3.0118Y3.0906
X-2.6575Y1.6732
X-2.6575Y1.2795
X-2.4606Y1.6732
X-2.4606Y1.2795
X-2.0775Y2.3221
X-0.9775Y2.1614
X-0.8775Y2.2614
X-0.8775Y1.8814
X-0.8575Y2.5214
X-0.8465Y2.7362
X-0.7775Y2.4414
X-0.7645Y2.2284
X-0.5975Y2.5866
T2
X-2.7854Y2.313
X-2.7854Y2.1358
X-2.5295Y2.313
X-2.5295Y2.1358
T3
X-4.9683Y2.2678
X-4.8976Y2.3385
X-4.8976Y2.1971
X-4.8268Y2.4092
X-4.8268Y2.2678
X-4.7561Y2.3385
X-3.1075Y1.7681
X-3.1075Y1.6681
X-3.1075Y1.5681
X-3.1075Y1.4681
X-3.1075Y1.3681
X-3.1075Y1.2681
X-3.1075Y1.1681
X-3.1075Y1.0681
X-3.1075Y0.9681
X-3.1075Y0.8681
X-3.1075Y0.7681
X-3.1075Y0.6681
X-3.1075Y0.5681
X-2.7575Y4.9516
X-2.7575Y4.8516
X-2.6575Y4.9516
X-2.6575Y4.8516
X-2.5575Y4.9516
X-2.5575Y4.8516
X-2.2075Y1.7681
X-2.2075Y1.6681
X-2.2075Y1.5681
X-2.2075Y1.4681
X-2.2075Y1.3681
X-2.2075Y1.2681
X-2.2075Y1.1681
X-2.2075Y1.0681
X-2.2075Y0.9681
X-2.2075Y0.8681
X-2.2075Y0.7681
X-2.2075Y0.6681
X-2.2075Y0.5681
X-1.3189Y3.9417
X-1.3189Y3.8417
X-1.3189Y3.7417
X-1.3189Y3.6417
X-1.3189Y3.5417
X-1.3189Y3.4417
X-1.3189Y3.3417
X-1.3189Y3.2417
X-0.5705Y2.3698
X-0.4998Y2.4406
X-0.4998Y2.2991
X-0.4291Y2.3698
X-0.4291Y2.2284
X-0.3583Y2.2991
X-0.3583Y2.1577
X-0.2876Y2.2284
X-0.2876Y2.087
X-0.2169Y2.1577
T0
M30
