M48
; DRILL file {KiCad 5.1.10-88a1d61d58~88~ubuntu18.04.1} date Fri Sep 10 20:26:44 2021
; FORMAT={2:4/ absolute / inch / suppress trailing zeros}
; #@! TF.CreationDate,2021-09-10T20:26:44+10:00
; #@! TF.GenerationSoftware,Kicad,Pcbnew,5.1.10-88a1d61d58~88~ubuntu18.04.1
; #@! TF.FileFunction,Plated,1,2,PTH
FMAT,2
INCH,LZ
T1C0.0157
T2C0.0390
T3C0.0394
%
G90
G05
T1
X-045472Y027165
X-040775Y024614
X-039775Y026414
X-03937Y025591
X-038386Y025591
X-037402Y025591
X-036417Y025591
X-03563Y030906
X-035398Y047137
X-034567Y032414
X-034175Y036914
X-033858Y026772
X-033189Y047126
X-031775Y023835
X-030413Y025591
X-030118Y030906
X-026575Y016732
X-026575Y012795
X-024606Y016732
X-024606Y012795
X-020775Y023221
X-009775Y021614
X-008775Y022614
X-008775Y018814
X-008575Y025214
X-008465Y027362
X-007775Y024414
X-007645Y022284
X-005975Y025866
T2
X-027854Y02313
X-027854Y021358
X-025295Y02313
X-025295Y021358
T3
X-049683Y022678
X-048976Y023385
X-048976Y021971
X-048268Y024092
X-048268Y022678
X-047561Y023385
X-031075Y017681
X-031075Y016681
X-031075Y015681
X-031075Y014681
X-031075Y013681
X-031075Y012681
X-031075Y011681
X-031075Y010681
X-031075Y009681
X-031075Y008681
X-031075Y007681
X-031075Y006681
X-031075Y005681
X-027575Y049516
X-027575Y048516
X-026575Y049516
X-026575Y048516
X-025575Y049516
X-025575Y048516
X-022075Y017681
X-022075Y016681
X-022075Y015681
X-022075Y014681
X-022075Y013681
X-022075Y012681
X-022075Y011681
X-022075Y010681
X-022075Y009681
X-022075Y008681
X-022075Y007681
X-022075Y006681
X-022075Y005681
X-013189Y039417
X-013189Y038417
X-013189Y037417
X-013189Y036417
X-013189Y035417
X-013189Y034417
X-013189Y033417
X-013189Y032417
X-005705Y023698
X-004998Y024406
X-004998Y022991
X-004291Y023698
X-004291Y022284
X-003583Y022991
X-003583Y021577
X-002876Y022284
X-002876Y02087
X-002169Y021577
T0
M30
