%TF.GenerationSoftware,KiCad,Pcbnew,5.1.10-88a1d61d58~88~ubuntu18.04.1*%
%TF.CreationDate,2021-09-11T11:40:16+10:00*%
%TF.ProjectId,swag-badge,73776167-2d62-4616-9467-652e6b696361,rev?*%
%TF.SameCoordinates,PX405f7e0PYfa3044a0*%
%TF.FileFunction,Soldermask,Top*%
%TF.FilePolarity,Negative*%
%FSLAX46Y46*%
G04 Gerber Fmt 4.6, Leading zero omitted, Abs format (unit mm)*
G04 Created by KiCad (PCBNEW 5.1.10-88a1d61d58~88~ubuntu18.04.1) date 2021-09-11 11:40:16*
%MOMM*%
%LPD*%
G01*
G04 APERTURE LIST*
%ADD10C,1.598000*%
%ADD11O,1.700000X2.300000*%
%ADD12O,14.100000X3.100000*%
%ADD13C,4.900000*%
%ADD14O,2.500000X1.700000*%
G04 APERTURE END LIST*
D10*
%TO.C,SW1*%
X-64250000Y58750000D03*
X-64250000Y54250000D03*
G36*
G01*
X-71549000Y58001000D02*
X-71549000Y59499000D01*
G75*
G02*
X-71499000Y59549000I50000J0D01*
G01*
X-70001000Y59549000D01*
G75*
G02*
X-69951000Y59499000I0J-50000D01*
G01*
X-69951000Y58001000D01*
G75*
G02*
X-70001000Y57951000I-50000J0D01*
G01*
X-71499000Y57951000D01*
G75*
G02*
X-71549000Y58001000I0J50000D01*
G01*
G37*
X-70750000Y54250000D03*
%TD*%
D11*
%TO.C,P1*%
X-67500000Y123230000D03*
X-64960000Y123230000D03*
X-64960000Y125770000D03*
X-67500000Y125770000D03*
G36*
G01*
X-69240000Y122080000D02*
X-70840000Y122080000D01*
G75*
G02*
X-70890000Y122130000I0J50000D01*
G01*
X-70890000Y124330000D01*
G75*
G02*
X-70840000Y124380000I50000J0D01*
G01*
X-69240000Y124380000D01*
G75*
G02*
X-69190000Y124330000I0J-50000D01*
G01*
X-69190000Y122130000D01*
G75*
G02*
X-69240000Y122080000I-50000J0D01*
G01*
G37*
X-70040000Y125770000D03*
%TD*%
%TO.C,P3*%
G36*
G01*
X-13478376Y57556969D02*
X-13478376Y57556969D01*
G75*
G02*
X-13520328Y58758319I579699J621651D01*
G01*
X-13111128Y59197131D01*
G75*
G02*
X-11909778Y59239083I621651J-579699D01*
G01*
X-11909778Y59239083D01*
G75*
G02*
X-11867826Y58037733I-579699J-621651D01*
G01*
X-12277026Y57598921D01*
G75*
G02*
X-13478376Y57556969I-621651J579699D01*
G01*
G37*
G36*
G01*
X-11682325Y55760917D02*
X-11682325Y55760917D01*
G75*
G02*
X-11724277Y56962267I579699J621651D01*
G01*
X-11315077Y57401079D01*
G75*
G02*
X-10113727Y57443031I621651J-579699D01*
G01*
X-10113727Y57443031D01*
G75*
G02*
X-10071775Y56241681I-579699J-621651D01*
G01*
X-10480975Y55802869D01*
G75*
G02*
X-11682325Y55760917I-621651J579699D01*
G01*
G37*
G36*
G01*
X-9886273Y53964866D02*
X-9886273Y53964866D01*
G75*
G02*
X-9928225Y55166216I579699J621651D01*
G01*
X-9519025Y55605028D01*
G75*
G02*
X-8317675Y55646980I621651J-579699D01*
G01*
X-8317675Y55646980D01*
G75*
G02*
X-8275723Y54445630I-579699J-621651D01*
G01*
X-8684923Y54006818D01*
G75*
G02*
X-9886273Y53964866I-621651J579699D01*
G01*
G37*
G36*
G01*
X-8090222Y52168815D02*
X-8090222Y52168815D01*
G75*
G02*
X-8132174Y53370165I579699J621651D01*
G01*
X-7722974Y53808977D01*
G75*
G02*
X-6521624Y53850929I621651J-579699D01*
G01*
X-6521624Y53850929D01*
G75*
G02*
X-6479672Y52649579I-579699J-621651D01*
G01*
X-6888872Y52210767D01*
G75*
G02*
X-8090222Y52168815I-621651J579699D01*
G01*
G37*
G36*
G01*
X-6294171Y53964866D02*
X-6294171Y53964866D01*
G75*
G02*
X-6336123Y55166216I579699J621651D01*
G01*
X-5926923Y55605028D01*
G75*
G02*
X-4725573Y55646980I621651J-579699D01*
G01*
X-4725573Y55646980D01*
G75*
G02*
X-4683621Y54445630I-579699J-621651D01*
G01*
X-5092821Y54006818D01*
G75*
G02*
X-6294171Y53964866I-621651J579699D01*
G01*
G37*
G36*
G01*
X-8090222Y55760917D02*
X-8090222Y55760917D01*
G75*
G02*
X-8132174Y56962267I579699J621651D01*
G01*
X-7722974Y57401079D01*
G75*
G02*
X-6521624Y57443031I621651J-579699D01*
G01*
X-6521624Y57443031D01*
G75*
G02*
X-6479672Y56241681I-579699J-621651D01*
G01*
X-6888872Y55802869D01*
G75*
G02*
X-8090222Y55760917I-621651J579699D01*
G01*
G37*
G36*
G01*
X-9886273Y57556969D02*
X-9886273Y57556969D01*
G75*
G02*
X-9928225Y58758319I579699J621651D01*
G01*
X-9519025Y59197131D01*
G75*
G02*
X-8317675Y59239083I621651J-579699D01*
G01*
X-8317675Y59239083D01*
G75*
G02*
X-8275723Y58037733I-579699J-621651D01*
G01*
X-8684923Y57598921D01*
G75*
G02*
X-9886273Y57556969I-621651J579699D01*
G01*
G37*
G36*
G01*
X-11682325Y59353020D02*
X-11682325Y59353020D01*
G75*
G02*
X-11724277Y60554370I579699J621651D01*
G01*
X-11315077Y60993182D01*
G75*
G02*
X-10113727Y61035134I621651J-579699D01*
G01*
X-10113727Y61035134D01*
G75*
G02*
X-10071775Y59833784I-579699J-621651D01*
G01*
X-10480975Y59394972D01*
G75*
G02*
X-11682325Y59353020I-621651J579699D01*
G01*
G37*
G36*
G01*
X-14737615Y58815219D02*
X-15868986Y59946590D01*
G75*
G02*
X-15868986Y60017300I35355J35355D01*
G01*
X-14313351Y61572935D01*
G75*
G02*
X-14242641Y61572935I35355J-35355D01*
G01*
X-13111270Y60441564D01*
G75*
G02*
X-13111270Y60370854I-35355J-35355D01*
G01*
X-14666905Y58815219D01*
G75*
G02*
X-14737615Y58815219I-35355J35355D01*
G01*
G37*
G36*
G01*
X-13478376Y61149071D02*
X-13478376Y61149071D01*
G75*
G02*
X-13520328Y62350421I579699J621651D01*
G01*
X-13111128Y62789233D01*
G75*
G02*
X-11909778Y62831185I621651J-579699D01*
G01*
X-11909778Y62831185D01*
G75*
G02*
X-11867826Y61629835I-579699J-621651D01*
G01*
X-12277026Y61191023D01*
G75*
G02*
X-13478376Y61149071I-621651J579699D01*
G01*
G37*
%TD*%
D12*
%TO.C,H5*%
X-67500000Y132500000D03*
%TD*%
D13*
%TO.C,J7*%
X-75300000Y43600000D03*
X-62000000Y21900000D03*
D14*
X-78930000Y44910000D03*
X-78930000Y42370000D03*
X-78930000Y39830000D03*
X-78930000Y37290000D03*
X-78930000Y34750000D03*
X-78930000Y32210000D03*
X-78930000Y29670000D03*
X-78930000Y27130000D03*
X-78930000Y24590000D03*
X-78930000Y22050000D03*
X-78930000Y19510000D03*
X-78930000Y16970000D03*
X-78930000Y14430000D03*
X-56070000Y44910000D03*
X-56070000Y42370000D03*
X-56070000Y39830000D03*
X-56070000Y37290000D03*
X-56070000Y34750000D03*
X-56070000Y32210000D03*
X-56070000Y29670000D03*
X-56070000Y27130000D03*
X-56070000Y24590000D03*
X-56070000Y22050000D03*
X-56070000Y19510000D03*
X-56070000Y16970000D03*
G36*
G01*
X-57320000Y13630000D02*
X-57320000Y15230000D01*
G75*
G02*
X-57270000Y15280000I50000J0D01*
G01*
X-54870000Y15280000D01*
G75*
G02*
X-54820000Y15230000I0J-50000D01*
G01*
X-54820000Y13630000D01*
G75*
G02*
X-54870000Y13580000I-50000J0D01*
G01*
X-57270000Y13580000D01*
G75*
G02*
X-57320000Y13630000I0J50000D01*
G01*
G37*
%TD*%
%TO.C,S1*%
X-33500000Y100120000D03*
X-33500000Y97580000D03*
X-33500000Y95040000D03*
X-33500000Y92500000D03*
X-33500000Y89960000D03*
X-33500000Y87420000D03*
X-33500000Y84880000D03*
X-33500000Y82340000D03*
%TD*%
%TO.C,P2*%
G36*
G01*
X-125380904Y56788801D02*
X-125380904Y56788801D01*
G75*
G02*
X-126582986Y56788801I-601041J601041D01*
G01*
X-127007250Y57213065D01*
G75*
G02*
X-127007250Y58415147I601041J601041D01*
G01*
X-127007250Y58415147D01*
G75*
G02*
X-125805168Y58415147I601041J-601041D01*
G01*
X-125380904Y57990883D01*
G75*
G02*
X-125380904Y56788801I-601041J-601041D01*
G01*
G37*
G36*
G01*
X-123019168Y55558436D02*
X-124150539Y54427065D01*
G75*
G02*
X-124221249Y54427065I-35355J35355D01*
G01*
X-125776884Y55982700D01*
G75*
G02*
X-125776884Y56053410I35355J35355D01*
G01*
X-124645513Y57184781D01*
G75*
G02*
X-124574803Y57184781I35355J-35355D01*
G01*
X-123019168Y55629146D01*
G75*
G02*
X-123019168Y55558436I-35355J-35355D01*
G01*
G37*
G36*
G01*
X-123584853Y58584853D02*
X-123584853Y58584853D01*
G75*
G02*
X-124786935Y58584853I-601041J601041D01*
G01*
X-125211199Y59009117D01*
G75*
G02*
X-125211199Y60211199I601041J601041D01*
G01*
X-125211199Y60211199D01*
G75*
G02*
X-124009117Y60211199I601041J-601041D01*
G01*
X-123584853Y59786935D01*
G75*
G02*
X-123584853Y58584853I-601041J-601041D01*
G01*
G37*
G36*
G01*
X-121788801Y60380904D02*
X-121788801Y60380904D01*
G75*
G02*
X-122990883Y60380904I-601041J601041D01*
G01*
X-123415147Y60805168D01*
G75*
G02*
X-123415147Y62007250I601041J601041D01*
G01*
X-123415147Y62007250D01*
G75*
G02*
X-122213065Y62007250I601041J-601041D01*
G01*
X-121788801Y61582986D01*
G75*
G02*
X-121788801Y60380904I-601041J-601041D01*
G01*
G37*
G36*
G01*
X-119992750Y58584853D02*
X-119992750Y58584853D01*
G75*
G02*
X-121194832Y58584853I-601041J601041D01*
G01*
X-121619096Y59009117D01*
G75*
G02*
X-121619096Y60211199I601041J601041D01*
G01*
X-121619096Y60211199D01*
G75*
G02*
X-120417014Y60211199I601041J-601041D01*
G01*
X-119992750Y59786935D01*
G75*
G02*
X-119992750Y58584853I-601041J-601041D01*
G01*
G37*
G36*
G01*
X-121788801Y56788801D02*
X-121788801Y56788801D01*
G75*
G02*
X-122990883Y56788801I-601041J601041D01*
G01*
X-123415147Y57213065D01*
G75*
G02*
X-123415147Y58415147I601041J601041D01*
G01*
X-123415147Y58415147D01*
G75*
G02*
X-122213065Y58415147I601041J-601041D01*
G01*
X-121788801Y57990883D01*
G75*
G02*
X-121788801Y56788801I-601041J-601041D01*
G01*
G37*
%TD*%
M02*
