M48
; DRILL file {KiCad (5.1.10)-1} date 11/10/21 08:50:55
; FORMAT={-:-/ absolute / metric / decimal}
; #@! TF.CreationDate,2021-11-10T08:50:55+11:00
; #@! TF.GenerationSoftware,Kicad,Pcbnew,(5.1.10)-1
; #@! TF.FileFunction,Plated,1,2,PTH
FMAT,2
METRIC
T1C0.400
T2C0.990
T3C1.000
%
G90
G05
T1
X-117.208Y56.602
X-113.204Y61.996
X-111.0Y55.7
X-101.8Y60.8
X-100.0Y75.2
X-98.6Y90.8
X-87.7Y67.5
X-86.8Y69.7
X-84.3Y77.8
X-83.5Y65.5
X-80.8Y77.8
X-79.4Y60.9
X-78.7Y129.9
X-78.7Y127.3
X-77.1Y58.6
X-76.5Y83.2
X-74.041Y65.459
X-73.12Y64.52
X-52.9Y71.2
X-31.8Y53.9
X-19.2Y58.3
X-17.4Y60.1
X-17.0Y67.6
T2
X-70.75Y58.75
X-70.75Y54.25
X-64.25Y58.75
X-64.25Y54.25
T3
X-127.294Y56.602
X-125.498Y58.398
X-125.498Y54.806
X-123.702Y60.194
X-123.702Y56.602
X-121.906Y58.398
X-78.93Y44.91
X-78.93Y42.37
X-78.93Y39.83
X-78.93Y37.29
X-78.93Y34.75
X-78.93Y32.21
X-78.93Y29.67
X-78.93Y27.13
X-78.93Y24.59
X-78.93Y22.05
X-78.93Y19.51
X-78.93Y16.97
X-78.93Y14.43
X-72.58Y125.77
X-72.58Y123.23
X-70.04Y125.77
X-70.04Y123.23
X-67.5Y125.77
X-67.5Y123.23
X-64.96Y125.77
X-64.96Y123.23
X-62.42Y125.77
X-62.42Y123.23
X-56.07Y44.91
X-56.07Y42.37
X-56.07Y39.83
X-56.07Y37.29
X-56.07Y34.75
X-56.07Y32.21
X-56.07Y29.67
X-56.07Y27.13
X-56.07Y24.59
X-56.07Y22.05
X-56.07Y19.51
X-56.07Y16.97
X-56.07Y14.43
X-33.5Y100.12
X-33.5Y97.58
X-33.5Y95.04
X-33.5Y92.5
X-33.5Y89.96
X-33.5Y87.42
X-33.5Y84.88
X-33.5Y82.34
X-12.694Y58.398
X-10.898Y60.194
X-10.898Y56.602
X-9.102Y58.398
X-9.102Y54.806
X-7.306Y56.602
T0
M30
