%TF.GenerationSoftware,KiCad,Pcbnew,(5.1.10)-1*%
%TF.CreationDate,2021-11-08T23:02:56+11:00*%
%TF.ProjectId,swag-badge,73776167-2d62-4616-9467-652e6b696361,rev?*%
%TF.SameCoordinates,PX405f7e0PYfa3044a0*%
%TF.FileFunction,Soldermask,Top*%
%TF.FilePolarity,Negative*%
%FSLAX46Y46*%
G04 Gerber Fmt 4.6, Leading zero omitted, Abs format (unit mm)*
G04 Created by KiCad (PCBNEW (5.1.10)-1) date 2021-11-08 23:02:56*
%MOMM*%
%LPD*%
G01*
G04 APERTURE LIST*
%ADD10O,1.700000X2.300000*%
%ADD11O,2.500000X1.700000*%
%ADD12C,1.598000*%
%ADD13O,14.100000X3.100000*%
%ADD14C,4.900000*%
G04 APERTURE END LIST*
D10*
%TO.C,P1*%
X-72580000Y125770000D03*
G36*
G01*
X-71780000Y122080000D02*
X-73380000Y122080000D01*
G75*
G02*
X-73430000Y122130000I0J50000D01*
G01*
X-73430000Y124330000D01*
G75*
G02*
X-73380000Y124380000I50000J0D01*
G01*
X-71780000Y124380000D01*
G75*
G02*
X-71730000Y124330000I0J-50000D01*
G01*
X-71730000Y122130000D01*
G75*
G02*
X-71780000Y122080000I-50000J0D01*
G01*
G37*
X-70040000Y125770000D03*
X-67500000Y125770000D03*
X-64960000Y125770000D03*
X-62420000Y125770000D03*
X-62420000Y123230000D03*
X-64960000Y123230000D03*
X-67500000Y123230000D03*
X-70040000Y123230000D03*
%TD*%
%TO.C,P3*%
G36*
G01*
X-11711199Y59380904D02*
X-11711199Y59380904D01*
G75*
G02*
X-11711199Y60582986I601041J601041D01*
G01*
X-11286935Y61007250D01*
G75*
G02*
X-10084853Y61007250I601041J-601041D01*
G01*
X-10084853Y61007250D01*
G75*
G02*
X-10084853Y59805168I-601041J-601041D01*
G01*
X-10509117Y59380904D01*
G75*
G02*
X-11711199Y59380904I-601041J601041D01*
G01*
G37*
G36*
G01*
X-12941564Y57019168D02*
X-14072935Y58150539D01*
G75*
G02*
X-14072935Y58221249I35355J35355D01*
G01*
X-12517300Y59776884D01*
G75*
G02*
X-12446590Y59776884I35355J-35355D01*
G01*
X-11315219Y58645513D01*
G75*
G02*
X-11315219Y58574803I-35355J-35355D01*
G01*
X-12870854Y57019168D01*
G75*
G02*
X-12941564Y57019168I-35355J35355D01*
G01*
G37*
G36*
G01*
X-9915147Y57584853D02*
X-9915147Y57584853D01*
G75*
G02*
X-9915147Y58786935I601041J601041D01*
G01*
X-9490883Y59211199D01*
G75*
G02*
X-8288801Y59211199I601041J-601041D01*
G01*
X-8288801Y59211199D01*
G75*
G02*
X-8288801Y58009117I-601041J-601041D01*
G01*
X-8713065Y57584853D01*
G75*
G02*
X-9915147Y57584853I-601041J601041D01*
G01*
G37*
G36*
G01*
X-8119096Y55788801D02*
X-8119096Y55788801D01*
G75*
G02*
X-8119096Y56990883I601041J601041D01*
G01*
X-7694832Y57415147D01*
G75*
G02*
X-6492750Y57415147I601041J-601041D01*
G01*
X-6492750Y57415147D01*
G75*
G02*
X-6492750Y56213065I-601041J-601041D01*
G01*
X-6917014Y55788801D01*
G75*
G02*
X-8119096Y55788801I-601041J601041D01*
G01*
G37*
G36*
G01*
X-9915147Y53992750D02*
X-9915147Y53992750D01*
G75*
G02*
X-9915147Y55194832I601041J601041D01*
G01*
X-9490883Y55619096D01*
G75*
G02*
X-8288801Y55619096I601041J-601041D01*
G01*
X-8288801Y55619096D01*
G75*
G02*
X-8288801Y54417014I-601041J-601041D01*
G01*
X-8713065Y53992750D01*
G75*
G02*
X-9915147Y53992750I-601041J601041D01*
G01*
G37*
G36*
G01*
X-11711199Y55788801D02*
X-11711199Y55788801D01*
G75*
G02*
X-11711199Y56990883I601041J601041D01*
G01*
X-11286935Y57415147D01*
G75*
G02*
X-10084853Y57415147I601041J-601041D01*
G01*
X-10084853Y57415147D01*
G75*
G02*
X-10084853Y56213065I-601041J-601041D01*
G01*
X-10509117Y55788801D01*
G75*
G02*
X-11711199Y55788801I-601041J601041D01*
G01*
G37*
%TD*%
D11*
%TO.C,S1*%
X-33500000Y82340000D03*
X-33500000Y84880000D03*
X-33500000Y87420000D03*
X-33500000Y89960000D03*
X-33500000Y92500000D03*
X-33500000Y95040000D03*
X-33500000Y97580000D03*
X-33500000Y100120000D03*
%TD*%
%TO.C,P2*%
G36*
G01*
X-122888801Y55788801D02*
X-122888801Y55788801D01*
G75*
G02*
X-124090883Y55788801I-601041J601041D01*
G01*
X-124515147Y56213065D01*
G75*
G02*
X-124515147Y57415147I601041J601041D01*
G01*
X-124515147Y57415147D01*
G75*
G02*
X-123313065Y57415147I601041J-601041D01*
G01*
X-122888801Y56990883D01*
G75*
G02*
X-122888801Y55788801I-601041J-601041D01*
G01*
G37*
G36*
G01*
X-121092750Y57584853D02*
X-121092750Y57584853D01*
G75*
G02*
X-122294832Y57584853I-601041J601041D01*
G01*
X-122719096Y58009117D01*
G75*
G02*
X-122719096Y59211199I601041J601041D01*
G01*
X-122719096Y59211199D01*
G75*
G02*
X-121517014Y59211199I601041J-601041D01*
G01*
X-121092750Y58786935D01*
G75*
G02*
X-121092750Y57584853I-601041J-601041D01*
G01*
G37*
G36*
G01*
X-122888801Y59380904D02*
X-122888801Y59380904D01*
G75*
G02*
X-124090883Y59380904I-601041J601041D01*
G01*
X-124515147Y59805168D01*
G75*
G02*
X-124515147Y61007250I601041J601041D01*
G01*
X-124515147Y61007250D01*
G75*
G02*
X-123313065Y61007250I601041J-601041D01*
G01*
X-122888801Y60582986D01*
G75*
G02*
X-122888801Y59380904I-601041J-601041D01*
G01*
G37*
G36*
G01*
X-124684853Y57584853D02*
X-124684853Y57584853D01*
G75*
G02*
X-125886935Y57584853I-601041J601041D01*
G01*
X-126311199Y58009117D01*
G75*
G02*
X-126311199Y59211199I601041J601041D01*
G01*
X-126311199Y59211199D01*
G75*
G02*
X-125109117Y59211199I601041J-601041D01*
G01*
X-124684853Y58786935D01*
G75*
G02*
X-124684853Y57584853I-601041J-601041D01*
G01*
G37*
G36*
G01*
X-124119168Y54558436D02*
X-125250539Y53427065D01*
G75*
G02*
X-125321249Y53427065I-35355J35355D01*
G01*
X-126876884Y54982700D01*
G75*
G02*
X-126876884Y55053410I35355J35355D01*
G01*
X-125745513Y56184781D01*
G75*
G02*
X-125674803Y56184781I35355J-35355D01*
G01*
X-124119168Y54629146D01*
G75*
G02*
X-124119168Y54558436I-35355J-35355D01*
G01*
G37*
G36*
G01*
X-126480904Y55788801D02*
X-126480904Y55788801D01*
G75*
G02*
X-127682986Y55788801I-601041J601041D01*
G01*
X-128107250Y56213065D01*
G75*
G02*
X-128107250Y57415147I601041J601041D01*
G01*
X-128107250Y57415147D01*
G75*
G02*
X-126905168Y57415147I601041J-601041D01*
G01*
X-126480904Y56990883D01*
G75*
G02*
X-126480904Y55788801I-601041J-601041D01*
G01*
G37*
%TD*%
D12*
%TO.C,SW1*%
X-64250000Y58750000D03*
X-64250000Y54250000D03*
G36*
G01*
X-71549000Y58001000D02*
X-71549000Y59499000D01*
G75*
G02*
X-71499000Y59549000I50000J0D01*
G01*
X-70001000Y59549000D01*
G75*
G02*
X-69951000Y59499000I0J-50000D01*
G01*
X-69951000Y58001000D01*
G75*
G02*
X-70001000Y57951000I-50000J0D01*
G01*
X-71499000Y57951000D01*
G75*
G02*
X-71549000Y58001000I0J50000D01*
G01*
G37*
X-70750000Y54250000D03*
%TD*%
D13*
%TO.C,H5*%
X-67500000Y132500000D03*
%TD*%
D14*
%TO.C,J7*%
X-75300000Y43600000D03*
X-62000000Y21900000D03*
D11*
X-78930000Y44910000D03*
X-78930000Y42370000D03*
X-78930000Y39830000D03*
X-78930000Y37290000D03*
X-78930000Y34750000D03*
X-78930000Y32210000D03*
X-78930000Y29670000D03*
X-78930000Y27130000D03*
X-78930000Y24590000D03*
X-78930000Y22050000D03*
X-78930000Y19510000D03*
X-78930000Y16970000D03*
X-78930000Y14430000D03*
X-56070000Y44910000D03*
X-56070000Y42370000D03*
X-56070000Y39830000D03*
X-56070000Y37290000D03*
X-56070000Y34750000D03*
X-56070000Y32210000D03*
X-56070000Y29670000D03*
X-56070000Y27130000D03*
X-56070000Y24590000D03*
X-56070000Y22050000D03*
X-56070000Y19510000D03*
X-56070000Y16970000D03*
G36*
G01*
X-57320000Y13630000D02*
X-57320000Y15230000D01*
G75*
G02*
X-57270000Y15280000I50000J0D01*
G01*
X-54870000Y15280000D01*
G75*
G02*
X-54820000Y15230000I0J-50000D01*
G01*
X-54820000Y13630000D01*
G75*
G02*
X-54870000Y13580000I-50000J0D01*
G01*
X-57270000Y13580000D01*
G75*
G02*
X-57320000Y13630000I0J50000D01*
G01*
G37*
%TD*%
M02*
